<svg width="100" height="100" viewBox="0 0 100 100" fill="none" xmlns="http://www.w3.org/2000/svg">
<g clip-path="url(#clip0_0_15)">
<path d="M90.5 45.5C89.5724 45.503 88.6685 45.7929 87.9122 46.33C87.1559 46.8672 86.5844 47.6252 86.276 48.5H77V42.5H86C86.3978 42.5 86.7794 42.342 87.0607 42.0607C87.342 41.7794 87.5 41.3978 87.5 41C87.5 40.6022 87.342 40.2206 87.0607 39.9393C86.7794 39.658 86.3978 39.5 86 39.5H77V33.5H87.5C89.1545 33.5 90.5 32.1545 90.5 30.5V27.224C91.3749 26.9156 92.1328 26.3441 92.67 25.5878C93.2071 24.8316 93.497 23.9276 93.5 23C93.5 20.519 91.481 18.5 89 18.5C86.519 18.5 84.5 20.519 84.5 23C84.5 24.953 85.7585 26.603 87.5 27.224V30.5H77V29C77 25.691 74.309 23 71 23H69.5V12.5H72.776C73.0844 13.3748 73.6559 14.1328 74.4122 14.67C75.1684 15.2071 76.0724 15.497 77 15.5C79.481 15.5 81.5 13.481 81.5 11C81.5 8.519 79.481 6.5 77 6.5C76.0724 6.50297 75.1684 6.79291 74.4122 7.33004C73.6559 7.86716 73.0844 8.62515 72.776 9.5H69.5C67.8455 9.5 66.5 10.8455 66.5 12.5V23H60.5V14C60.5 13.6022 60.342 13.2206 60.0607 12.9393C59.7794 12.658 59.3978 12.5 59 12.5C58.6022 12.5 58.2206 12.658 57.9393 12.9393C57.658 13.2206 57.5 13.6022 57.5 14V23H51.5V13.724C52.3749 13.4156 53.1328 12.8441 53.67 12.0878C54.2071 11.3316 54.497 10.4276 54.5 9.5C54.5 7.019 52.481 5 50 5C47.519 5 45.5 7.019 45.5 9.5C45.5 11.453 46.7585 13.103 48.5 13.724V23H42.5V14C42.5 13.6022 42.342 13.2206 42.0607 12.9393C41.7794 12.658 41.3978 12.5 41 12.5C40.6022 12.5 40.2206 12.658 39.9393 12.9393C39.658 13.2206 39.5 13.6022 39.5 14V23H33.5V12.5C33.5 10.8455 32.1545 9.5 30.5 9.5H27.224C26.9156 8.62515 26.3441 7.86716 25.5878 7.33004C24.8316 6.79291 23.9276 6.50297 23 6.5C20.519 6.5 18.5 8.519 18.5 11C18.5 13.481 20.519 15.5 23 15.5C23.9276 15.497 24.8316 15.2071 25.5878 14.67C26.3441 14.1328 26.9156 13.3748 27.224 12.5H30.5V23H29C25.691 23 23 25.691 23 29V30.5H12.5V27.224C13.3748 26.9156 14.1328 26.3441 14.67 25.5878C15.2071 24.8316 15.497 23.9276 15.5 23C15.5 20.519 13.481 18.5 11 18.5C8.519 18.5 6.5 20.519 6.5 23C6.5 24.953 7.7585 26.603 9.5 27.224V30.5C9.5 32.1545 10.8455 33.5 12.5 33.5H23V39.5H14C13.6022 39.5 13.2206 39.658 12.9393 39.9393C12.658 40.2206 12.5 40.6022 12.5 41C12.5 41.3978 12.658 41.7794 12.9393 42.0607C13.2206 42.342 13.6022 42.5 14 42.5H23V48.5H13.724C13.4156 47.6252 12.8441 46.8672 12.0878 46.33C11.3316 45.7929 10.4276 45.503 9.5 45.5C7.019 45.5 5 47.519 5 50C5 52.481 7.019 54.5 9.5 54.5C10.4276 54.497 11.3316 54.2071 12.0878 53.67C12.8441 53.1328 13.4156 52.3749 13.724 51.5H23V57.5H14C13.6022 57.5 13.2206 57.658 12.9393 57.9393C12.658 58.2206 12.5 58.6022 12.5 59C12.5 59.3978 12.658 59.7794 12.9393 60.0607C13.2206 60.342 13.6022 60.5 14 60.5H23V66.5H12.5C10.8455 66.5 9.5 67.8455 9.5 69.5V72.776C8.62515 73.0844 7.86716 73.6559 7.33004 74.4122C6.79291 75.1684 6.50297 76.0724 6.5 77C6.5 79.481 8.519 81.5 11 81.5C13.481 81.5 15.5 79.481 15.5 77C15.497 76.0724 15.2071 75.1684 14.67 74.4122C14.1328 73.6559 13.3748 73.0844 12.5 72.776V69.5H23V71C23 74.309 25.691 77 29 77H30.5V87.5H27.224C26.9156 86.6252 26.3441 85.8672 25.5878 85.33C24.8316 84.7929 23.9276 84.503 23 84.5C20.519 84.5 18.5 86.519 18.5 89C18.5 91.481 20.519 93.5 23 93.5C23.9276 93.497 24.8316 93.2071 25.5878 92.67C26.3441 92.1328 26.9156 91.3749 27.224 90.5H30.5C32.1545 90.5 33.5 89.1545 33.5 87.5V77H39.5V86C39.5 86.3978 39.658 86.7794 39.9393 87.0607C40.2206 87.342 40.6022 87.5 41 87.5C41.3978 87.5 41.7794 87.342 42.0607 87.0607C42.342 86.7794 42.5 86.3978 42.5 86V77H48.5V86.276C47.6252 86.5844 46.8672 87.1559 46.33 87.9122C45.7929 88.6685 45.503 89.5724 45.5 90.5C45.5 92.981 47.519 95 50 95C52.481 95 54.5 92.981 54.5 90.5C54.497 89.5724 54.2071 88.6685 53.67 87.9122C53.1328 87.1559 52.3749 86.5844 51.5 86.276V77H57.5V86C57.5 86.3978 57.658 86.7794 57.9393 87.0607C58.2206 87.342 58.6022 87.5 59 87.5C59.3978 87.5 59.7794 87.342 60.0607 87.0607C60.342 86.7794 60.5 86.3978 60.5 86V77H66.5V87.5C66.5 89.1545 67.8455 90.5 69.5 90.5H72.776C73.0844 91.3749 73.6559 92.1328 74.4122 92.67C75.1684 93.2071 76.0724 93.497 77 93.5C79.481 93.5 81.5 91.481 81.5 89C81.5 86.519 79.481 84.5 77 84.5C76.0724 84.503 75.1684 84.7929 74.4122 85.33C73.6559 85.8672 73.0844 86.6252 72.776 87.5H69.5V77H71C74.309 77 77 74.309 77 71V69.5H87.5V72.776C86.6252 73.0844 85.8672 73.6559 85.33 74.4122C84.7929 75.1684 84.503 76.0724 84.5 77C84.5 79.481 86.519 81.5 89 81.5C91.481 81.5 93.5 79.481 93.5 77C93.497 76.0724 93.2071 75.1684 92.67 74.4122C92.1328 73.6559 91.3749 73.0844 90.5 72.776V69.5C90.5 67.8455 89.1545 66.5 87.5 66.5H77V60.5H86C86.3978 60.5 86.7794 60.342 87.0607 60.0607C87.342 59.7794 87.5 59.3978 87.5 59C87.5 58.6022 87.342 58.2206 87.0607 57.9393C86.7794 57.658 86.3978 57.5 86 57.5H77V51.5H86.276C86.5844 52.3749 87.1559 53.1328 87.9122 53.67C88.6685 54.2071 89.5724 54.497 90.5 54.5C92.981 54.5 95 52.481 95 50C95 47.519 92.981 45.5 90.5 45.5ZM89 21.5C89.3978 21.5 89.7794 21.658 90.0607 21.9393C90.342 22.2206 90.5 22.6022 90.5 23C90.5 23.3978 90.342 23.7794 90.0607 24.0607C89.7794 24.342 89.3978 24.5 89 24.5C88.6022 24.5 88.2206 24.342 87.9393 24.0607C87.658 23.7794 87.5 23.3978 87.5 23C87.5 22.6022 87.658 22.2206 87.9393 21.9393C88.2206 21.658 88.6022 21.5 89 21.5ZM77 9.5C77.3978 9.5 77.7794 9.65804 78.0607 9.93934C78.342 10.2206 78.5 10.6022 78.5 11C78.5 11.3978 78.342 11.7794 78.0607 12.0607C77.7794 12.342 77.3978 12.5 77 12.5C76.6022 12.5 76.2206 12.342 75.9393 12.0607C75.658 11.7794 75.5 11.3978 75.5 11C75.5 10.6022 75.658 10.2206 75.9393 9.93934C76.2206 9.65804 76.6022 9.5 77 9.5ZM50 8C50.3978 8 50.7794 8.15804 51.0607 8.43934C51.342 8.72064 51.5 9.10218 51.5 9.5C51.5 9.89783 51.342 10.2794 51.0607 10.5607C50.7794 10.842 50.3978 11 50 11C49.6022 11 49.2206 10.842 48.9393 10.5607C48.658 10.2794 48.5 9.89783 48.5 9.5C48.5 9.10218 48.658 8.72064 48.9393 8.43934C49.2206 8.15804 49.6022 8 50 8ZM23 12.5C22.6022 12.5 22.2206 12.342 21.9393 12.0607C21.658 11.7794 21.5 11.3978 21.5 11C21.5 10.6022 21.658 10.2206 21.9393 9.93934C22.2206 9.65804 22.6022 9.5 23 9.5C23.3978 9.5 23.7794 9.65804 24.0607 9.93934C24.342 10.2206 24.5 10.6022 24.5 11C24.5 11.3978 24.342 11.7794 24.0607 12.0607C23.7794 12.342 23.3978 12.5 23 12.5ZM11 21.5C11.3978 21.5 11.7794 21.658 12.0607 21.9393C12.342 22.2206 12.5 22.6022 12.5 23C12.5 23.3978 12.342 23.7794 12.0607 24.0607C11.7794 24.342 11.3978 24.5 11 24.5C10.6022 24.5 10.2206 24.342 9.93934 24.0607C9.65804 23.7794 9.5 23.3978 9.5 23C9.5 22.6022 9.65804 22.2206 9.93934 21.9393C10.2206 21.658 10.6022 21.5 11 21.5ZM9.5 51.5C9.10218 51.5 8.72064 51.342 8.43934 51.0607C8.15804 50.7794 8 50.3978 8 50C8 49.6022 8.15804 49.2206 8.43934 48.9393C8.72064 48.658 9.10218 48.5 9.5 48.5C9.89783 48.5 10.2794 48.658 10.5607 48.9393C10.842 49.2206 11 49.6022 11 50C11 50.3978 10.842 50.7794 10.5607 51.0607C10.2794 51.342 9.89783 51.5 9.5 51.5ZM11 78.5C10.6022 78.5 10.2206 78.342 9.93934 78.0607C9.65804 77.7794 9.5 77.3978 9.5 77C9.5 76.6022 9.65804 76.2206 9.93934 75.9393C10.2206 75.658 10.6022 75.5 11 75.5C11.3978 75.5 11.7794 75.658 12.0607 75.9393C12.342 76.2206 12.5 76.6022 12.5 77C12.5 77.3978 12.342 77.7794 12.0607 78.0607C11.7794 78.342 11.3978 78.5 11 78.5ZM23 90.5C22.6022 90.5 22.2206 90.342 21.9393 90.0607C21.658 89.7794 21.5 89.3978 21.5 89C21.5 88.6022 21.658 88.2206 21.9393 87.9393C22.2206 87.658 22.6022 87.5 23 87.5C23.3978 87.5 23.7794 87.658 24.0607 87.9393C24.342 88.2206 24.5 88.6022 24.5 89C24.5 89.3978 24.342 89.7794 24.0607 90.0607C23.7794 90.342 23.3978 90.5 23 90.5ZM50 92C49.6022 92 49.2206 91.842 48.9393 91.5607C48.658 91.2794 48.5 90.8978 48.5 90.5C48.5 90.1022 48.658 89.7206 48.9393 89.4393C49.2206 89.158 49.6022 89 50 89C50.3978 89 50.7794 89.158 51.0607 89.4393C51.342 89.7206 51.5 90.1022 51.5 90.5C51.5 90.8978 51.342 91.2794 51.0607 91.5607C50.7794 91.842 50.3978 92 50 92ZM77 87.5C77.3978 87.5 77.7794 87.658 78.0607 87.9393C78.342 88.2206 78.5 88.6022 78.5 89C78.5 89.3978 78.342 89.7794 78.0607 90.0607C77.7794 90.342 77.3978 90.5 77 90.5C76.6022 90.5 76.2206 90.342 75.9393 90.0607C75.658 89.7794 75.5 89.3978 75.5 89C75.5 88.6022 75.658 88.2206 75.9393 87.9393C76.2206 87.658 76.6022 87.5 77 87.5ZM89 78.5C88.6022 78.5 88.2206 78.342 87.9393 78.0607C87.658 77.7794 87.5 77.3978 87.5 77C87.5 76.6022 87.658 76.2206 87.9393 75.9393C88.2206 75.658 88.6022 75.5 89 75.5C89.3978 75.5 89.7794 75.658 90.0607 75.9393C90.342 76.2206 90.5 76.6022 90.5 77C90.5 77.3978 90.342 77.7794 90.0607 78.0607C89.7794 78.342 89.3978 78.5 89 78.5ZM74 71C74 72.6545 72.6545 74 71 74H29C27.3455 74 26 72.6545 26 71V29C26 27.3455 27.3455 26 29 26H71C72.6545 26 74 27.3455 74 29V71ZM90.5 51.5C90.1022 51.5 89.7206 51.342 89.4393 51.0607C89.158 50.7794 89 50.3978 89 50C89 49.6022 89.158 49.2206 89.4393 48.9393C89.7206 48.658 90.1022 48.5 90.5 48.5C90.8978 48.5 91.2794 48.658 91.5607 48.9393C91.842 49.2206 92 49.6022 92 50C92 50.3978 91.842 50.7794 91.5607 51.0607C91.2794 51.342 90.8978 51.5 90.5 51.5Z" fill="#FFB661"/>
<path d="M43.2664 38.315C43.0279 37.247 42.0964 36.5 40.9999 36.5C39.9034 36.5 38.9719 37.247 38.7319 38.318L33.5344 61.6745C33.4486 62.063 33.5204 62.4696 33.7342 62.8051C33.9479 63.1406 34.2861 63.3776 34.6744 63.464C35.0627 63.5482 35.4685 63.4756 35.8036 63.2621C36.1387 63.0486 36.376 62.7115 36.4639 62.324L38.2054 54.4985H43.7929L45.5344 62.324C45.6205 62.7127 45.8575 63.0512 46.1932 63.2652C46.529 63.4791 46.9359 63.5509 47.3246 63.4648C47.7133 63.3786 48.0518 63.1416 48.2658 62.8059C48.4797 62.4701 48.5515 62.0632 48.4654 61.6745L43.2664 38.315ZM38.8744 51.5L41.0014 41.942L43.1284 51.5H38.8744ZM61.9999 39.5C62.3977 39.5 62.7792 39.342 63.0605 39.0607C63.3418 38.7794 63.4999 38.3978 63.4999 38C63.4999 37.6022 63.3418 37.2206 63.0605 36.9393C62.7792 36.658 62.3977 36.5 61.9999 36.5H52.9999C52.602 36.5 52.2205 36.658 51.9392 36.9393C51.6579 37.2206 51.4999 37.6022 51.4999 38C51.4999 38.3978 51.6579 38.7794 51.9392 39.0607C52.2205 39.342 52.602 39.5 52.9999 39.5H55.9999V60.5H52.9999C52.602 60.5 52.2205 60.658 51.9392 60.9393C51.6579 61.2206 51.4999 61.6022 51.4999 62C51.4999 62.3978 51.6579 62.7794 51.9392 63.0607C52.2205 63.342 52.602 63.5 52.9999 63.5H61.9999C62.3977 63.5 62.7792 63.342 63.0605 63.0607C63.3418 62.7794 63.4999 62.3978 63.4999 62C63.4999 61.6022 63.3418 61.2206 63.0605 60.9393C62.7792 60.658 62.3977 60.5 61.9999 60.5H58.9999V39.5H61.9999Z" fill="#FFB661"/>
</g>
<defs>
<clipPath id="clip0_0_15">
<rect width="90" height="90" fill="white" transform="translate(5 5)"/>
</clipPath>
</defs>
</svg>
