<svg width="100" height="100" viewBox="0 0 100 100" fill="none" xmlns="http://www.w3.org/2000/svg">
<path fill-rule="evenodd" clip-rule="evenodd" d="M9.48784 15.716C22.1278 15.7737 30.9383 17.3628 36.8643 20.1942C42.6118 22.9402 45.6898 26.8638 47.0103 32.0765C47.1807 32.7491 47.5705 33.3457 48.1181 33.7719C48.6657 34.198 49.3398 34.4294 50.0336 34.4294C50.7275 34.4294 51.4016 34.198 51.9492 33.7719C52.4968 33.3457 52.8866 32.7491 53.057 32.0765C54.3775 26.8638 57.4555 22.9402 63.203 20.1942C69.129 17.3628 77.9395 15.7737 90.5795 15.716V71.8564C68.0672 71.8564 57.0108 75.8917 50.0333 82.7897C43.08 75.9234 32.0091 71.8634 9.54612 71.8564C9.51961 71.7874 9.48764 71.6663 9.48764 71.4802L9.48784 15.716ZM7.10441 9.94742C7.864 9.63447 8.67801 9.47494 9.49954 9.47802H9.50187C22.5017 9.53631 32.4001 11.1478 39.5533 14.5655C44.206 16.7884 47.6662 19.7646 50.0336 23.456C52.4011 19.7646 55.8613 16.7884 60.514 14.5655C67.6672 11.1478 77.5656 9.53631 90.5654 9.47783H90.5678C91.3887 9.47474 92.2021 9.63404 92.9613 9.94655C93.7204 10.2591 94.4102 10.7186 94.9911 11.2988C95.5719 11.8789 96.0323 12.5682 96.3457 13.327C96.6591 14.0857 96.8194 14.899 96.8173 15.7199V71.8562C96.8173 72.6754 96.6561 73.4866 96.3426 74.2434C96.0292 75.0002 95.5697 75.6879 94.9904 76.2672C94.4112 76.8464 93.7235 77.3059 92.9667 77.6193C92.2098 77.9328 91.3986 78.0941 90.5795 78.094C65.9976 78.094 57.5471 83.0511 52.4691 89.3989C52.1769 89.7643 51.8062 90.0592 51.3844 90.2618C50.9627 90.4645 50.5008 90.5697 50.0329 90.5696C49.565 90.5695 49.1032 90.4641 48.6815 90.2613C48.2599 90.0585 47.8893 89.7634 47.5972 89.3979C42.5539 83.0874 34.068 78.094 9.48784 78.094C7.60655 78.094 5.96016 77.2973 4.83131 75.9716C3.74184 74.6921 3.25002 73.0679 3.25002 71.48V15.7209C3.24669 14.4846 3.61148 13.2753 4.29791 12.2471C4.98434 11.2189 5.96134 10.4184 7.10441 9.94742Z" fill="#FFB661"/>
<path fill-rule="evenodd" clip-rule="evenodd" d="M50.033 28.1917C51.7554 28.1917 53.1519 29.5879 53.1519 31.3106V87.4509C53.1519 89.1733 51.7554 90.5698 50.033 90.5698C48.3104 90.5698 46.9141 89.1733 46.9141 87.4509V31.3106C46.9141 29.5879 48.3104 28.1917 50.033 28.1917Z" fill="#FFB661"/>
</svg>
