<svg width="80" height="80" viewBox="0 0 80 80" fill="none" xmlns="http://www.w3.org/2000/svg">
<g clip-path="url(#clip0_140_5283)">
<path d="M76.9566 18.4845L41.6302 0.584951L41.6155 0.577607C40.0425 -0.205518 38.1734 -0.188018 36.6152 0.624482L21.4637 8.66573C21.3406 8.71792 21.2223 8.7812 21.1091 8.85401L2.9525 18.4903C1.13125 19.4439 0 21.3123 0 23.3687V56.6314C0 58.6878 1.13125 60.556 2.9525 61.5096L36.6002 79.3678L36.6153 79.3757C37.4017 79.785 38.2752 79.9983 39.1617 79.9978C40.0131 79.9983 40.853 79.8014 41.6155 79.4225L76.9566 61.5156C78.8341 60.5767 80 58.6904 80 56.5907V23.4095C80 21.3096 78.8341 19.4232 76.9566 18.4845ZM38.787 4.77651C38.9007 4.71842 39.0262 4.68759 39.1538 4.68645C39.2814 4.68531 39.4076 4.7139 39.5222 4.76995L72.5892 21.5246L59.7198 27.9317L27.3919 10.8243L38.787 4.77651ZM36.785 74.161L5.14219 57.3668L5.12703 57.3589C4.99384 57.2897 4.88224 57.1853 4.80441 57.057C4.72659 56.9287 4.68555 56.7814 4.68578 56.6314V25.4831L36.785 42.2212V74.161ZM39.1527 38.1712L7.23 21.5251L22.39 13.4793L54.558 30.5017L39.1527 38.1712ZM75.3139 56.5904C75.3145 56.7432 75.2722 56.8931 75.1918 57.023C75.1114 57.153 74.9961 57.2577 74.8591 57.3253L41.4709 74.2426V42.2514L56.8438 34.5979V42.6221C56.8438 43.916 57.8928 44.9651 59.1867 44.9651C60.4806 44.9651 61.5297 43.916 61.5297 42.6221V32.265L75.3139 25.4025V56.5904Z" fill="#FFB661"/>
</g>
<defs>
<clipPath id="clip0_140_5283">
<rect width="80" height="80" fill="white"/>
</clipPath>
</defs>
</svg>
