<svg width="100" height="100" viewBox="0 0 100 100" fill="none" xmlns="http://www.w3.org/2000/svg">
<path d="M56.25 56.25H43.75C42.0924 56.25 40.5027 56.9085 39.3306 58.0806C38.1585 59.2527 37.5 60.8424 37.5 62.5V87.5C37.5 89.1576 38.1585 90.7473 39.3306 91.9194C40.5027 93.0915 42.0924 93.75 43.75 93.75H56.25C57.9076 93.75 59.4973 93.0915 60.6694 91.9194C61.8415 90.7473 62.5 89.1576 62.5 87.5V62.5C62.5 60.8424 61.8415 59.2527 60.6694 58.0806C59.4973 56.9085 57.9076 56.25 56.25 56.25ZM43.75 87.5V62.5H56.25V87.5H43.75ZM25 65.625H12.5C10.8424 65.625 9.25268 66.2835 8.08058 67.4556C6.90848 68.6277 6.25 70.2174 6.25 71.875V87.5C6.25 89.1576 6.90848 90.7473 8.08058 91.9194C9.25268 93.0915 10.8424 93.75 12.5 93.75H25C26.6576 93.75 28.2473 93.0915 29.4194 91.9194C30.5915 90.7473 31.25 89.1576 31.25 87.5V71.875C31.25 70.2174 30.5915 68.6277 29.4194 67.4556C28.2473 66.2835 26.6576 65.625 25 65.625ZM12.5 87.5V71.875H25V87.5H12.5ZM87.5 40.625H75C73.3424 40.625 71.7527 41.2835 70.5806 42.4556C69.4085 43.6277 68.75 45.2174 68.75 46.875V87.5C68.75 89.1576 69.4085 90.7473 70.5806 91.9194C71.7527 93.0915 73.3424 93.75 75 93.75H87.5C89.1576 93.75 90.7473 93.0915 91.9194 91.9194C93.0915 90.7473 93.75 89.1576 93.75 87.5V46.875C93.75 45.2174 93.0915 43.6277 91.9194 42.4556C90.7473 41.2835 89.1576 40.625 87.5 40.625ZM75 87.5V46.875H87.5V87.5H75ZM18.75 53.125C19.0103 53.1248 19.2696 53.0922 19.5219 53.0281C30.7071 50.1786 41.4691 45.8709 51.5312 40.2156C62.4853 34.0256 72.4937 26.2946 81.25 17.2594V25C81.25 25.8288 81.5792 26.6237 82.1653 27.2097C82.7513 27.7958 83.5462 28.125 84.375 28.125C85.2038 28.125 85.9987 27.7958 86.5847 27.2097C87.1708 26.6237 87.5 25.8288 87.5 25V9.375C87.5 8.5462 87.1708 7.75134 86.5847 7.16529C85.9987 6.57924 85.2038 6.25 84.375 6.25H68.75C67.9212 6.25 67.1263 6.57924 66.5403 7.16529C65.9542 7.75134 65.625 8.5462 65.625 9.375C65.625 10.2038 65.9542 10.9987 66.5403 11.5847C67.1263 12.1708 67.9212 12.5 68.75 12.5H77.1125C68.698 21.2778 59.0486 28.7817 48.4688 34.775C38.8835 40.1568 28.6321 44.2544 17.9781 46.9625C17.2314 47.1428 16.5772 47.5918 16.1405 48.2237C15.7038 48.8557 15.5152 49.6264 15.6107 50.3886C15.7062 51.1508 16.079 51.8512 16.6581 52.3559C17.2372 52.8607 17.9819 53.1345 18.75 53.125Z" fill="#FFB661"/>
</svg>
