<svg width="80" height="80" viewBox="0 0 80 80" fill="none" xmlns="http://www.w3.org/2000/svg">
<path fill-rule="evenodd" clip-rule="evenodd" d="M26.6673 10.8335C27.3304 10.8335 27.9662 11.0969 28.4351 11.5657C28.9039 12.0346 29.1673 12.6705 29.1673 13.3335C29.1673 13.9965 28.9039 14.6324 28.4351 15.1013C27.9662 15.5701 27.3304 15.8335 26.6673 15.8335H21.6673C20.1202 15.8335 18.6365 16.4481 17.5425 17.542C16.4486 18.636 15.834 20.1197 15.834 21.6668V65.0002C15.834 66.5468 16.4473 68.0302 17.544 69.1235C18.6373 70.2202 20.1207 70.8335 21.6673 70.8335H58.334C59.8806 70.8335 61.364 70.2202 62.4573 69.1235C63.554 68.0302 64.1673 66.5468 64.1673 65.0002V21.6668C64.1673 20.1197 63.5527 18.636 62.4588 17.542C61.3648 16.4481 59.8811 15.8335 58.334 15.8335H53.334C52.6709 15.8335 52.0351 15.5701 51.5662 15.1013C51.0974 14.6324 50.834 13.9965 50.834 13.3335C50.834 12.6705 51.0974 12.0346 51.5662 11.5657C52.0351 11.0969 52.6709 10.8335 53.334 10.8335H58.334C61.2072 10.8335 63.9627 11.9749 65.9943 14.0065C68.0259 16.0382 69.1673 18.7937 69.1673 21.6668V65.0002C69.1686 66.4232 68.8893 67.8325 68.3454 69.1475C67.8014 70.4624 67.0035 71.6572 65.9972 72.6634C64.991 73.6697 63.7962 74.4676 62.4813 75.0116C61.1663 75.5555 59.757 75.8348 58.334 75.8335H21.6673C20.2443 75.8348 18.835 75.5555 17.52 75.0116C16.2051 74.4676 15.0103 73.6697 14.0041 72.6634C12.9978 71.6572 12.1999 70.4624 11.6559 69.1475C11.112 67.8325 10.8327 66.4232 10.834 65.0002V21.6668C10.834 18.7937 11.9754 16.0382 14.007 14.0065C16.0386 11.9749 18.7941 10.8335 21.6673 10.8335H26.6673Z" fill="#FFB661"/>
<path fill-rule="evenodd" clip-rule="evenodd" d="M55.8346 10.0001V16.6667C55.8346 18.2138 55.2201 19.6976 54.1261 20.7915C53.0321 21.8855 51.5484 22.5001 50.0013 22.5001H30.0013C28.4542 22.5001 26.9705 21.8855 25.8765 20.7915C24.7826 19.6976 24.168 18.2138 24.168 16.6667V10.0001C24.168 6.77675 26.7813 4.16675 30.0013 4.16675H50.0013C53.2213 4.16675 55.8346 6.77675 55.8346 10.0001ZM50.8346 10.0001C50.8346 9.77907 50.7468 9.56711 50.5906 9.41083C50.4343 9.25455 50.2223 9.16675 50.0013 9.16675H30.0013C29.7803 9.16675 29.5683 9.25455 29.412 9.41083C29.2558 9.56711 29.168 9.77907 29.168 10.0001V16.6667C29.168 17.1267 29.5413 17.5001 30.0013 17.5001H50.0013C50.2223 17.5001 50.4343 17.4123 50.5906 17.256C50.7468 17.0997 50.8346 16.8878 50.8346 16.6667V10.0001ZM26.668 35.8334C26.0049 35.8334 25.369 35.57 24.9002 35.1012C24.4314 34.6323 24.168 33.9965 24.168 33.3334C24.168 32.6704 24.4314 32.0345 24.9002 31.5656C25.369 31.0968 26.0049 30.8334 26.668 30.8334H50.0013C50.6643 30.8334 51.3002 31.0968 51.7691 31.5656C52.2379 32.0345 52.5013 32.6704 52.5013 33.3334C52.5013 33.9965 52.2379 34.6323 51.7691 35.1012C51.3002 35.57 50.6643 35.8334 50.0013 35.8334H26.668ZM26.668 49.1667C26.0049 49.1667 25.369 48.9034 24.9002 48.4345C24.4314 47.9657 24.168 47.3298 24.168 46.6667C24.168 46.0037 24.4314 45.3678 24.9002 44.899C25.369 44.4301 26.0049 44.1667 26.668 44.1667H50.0013C50.6643 44.1667 51.3002 44.4301 51.7691 44.899C52.2379 45.3678 52.5013 46.0037 52.5013 46.6667C52.5013 47.3298 52.2379 47.9657 51.7691 48.4345C51.3002 48.9034 50.6643 49.1667 50.0013 49.1667H26.668ZM26.668 62.5001C26.0049 62.5001 25.369 62.2367 24.9002 61.7679C24.4314 61.299 24.168 60.6631 24.168 60.0001C24.168 59.337 24.4314 58.7012 24.9002 58.2323C25.369 57.7635 26.0049 57.5001 26.668 57.5001H41.668C42.331 57.5001 42.9669 57.7635 43.4357 58.2323C43.9046 58.7012 44.168 59.337 44.168 60.0001C44.168 60.6631 43.9046 61.299 43.4357 61.7679C42.9669 62.2367 42.331 62.5001 41.668 62.5001H26.668Z" fill="#FFB661"/>
</svg>
