<svg width="50" height="50" viewBox="0 0 50 50" fill="none" xmlns="http://www.w3.org/2000/svg">
<path fill-rule="evenodd" clip-rule="evenodd" d="M16.6663 6.771C17.0807 6.771 17.4782 6.93562 17.7712 7.22864C18.0642 7.52167 18.2288 7.9191 18.2288 8.3335C18.2288 8.7479 18.0642 9.14533 17.7712 9.43835C17.4782 9.73138 17.0807 9.896 16.6663 9.896H13.5413C12.5744 9.896 11.6471 10.2801 10.9634 10.9638C10.2796 11.6476 9.89551 12.5749 9.89551 13.5418V40.6252C9.89551 41.5918 10.2788 42.5189 10.9643 43.2022C11.6476 43.8877 12.5747 44.271 13.5413 44.271H36.458C37.4247 44.271 38.3518 43.8877 39.0351 43.2022C39.7205 42.5189 40.1038 41.5918 40.1038 40.6252V13.5418C40.1038 12.5749 39.7197 11.6476 39.036 10.9638C38.3523 10.2801 37.4249 9.896 36.458 9.896H33.333C32.9186 9.896 32.5212 9.73138 32.2282 9.43835C31.9351 9.14533 31.7705 8.7479 31.7705 8.3335C31.7705 7.9191 31.9351 7.52167 32.2282 7.22864C32.5212 6.93562 32.9186 6.771 33.333 6.771H36.458C38.2537 6.771 39.9759 7.48435 41.2457 8.75413C42.5155 10.0239 43.2288 11.7461 43.2288 13.5418V40.6252C43.2297 41.5146 43.0551 42.3954 42.7151 43.2172C42.3751 44.0391 41.8764 44.7858 41.2475 45.4147C40.6186 46.0436 39.8719 46.5423 39.0501 46.8823C38.2282 47.2223 37.3474 47.3968 36.458 47.396H13.5413C12.652 47.3968 11.7711 47.2223 10.9493 46.8823C10.1274 46.5423 9.3807 46.0436 8.75181 45.4147C8.12291 44.7858 7.62421 44.0391 7.28424 43.2172C6.94426 42.3954 6.76969 41.5146 6.77051 40.6252V13.5418C6.77051 11.7461 7.48386 10.0239 8.75364 8.75413C10.0234 7.48435 11.7456 6.771 13.5413 6.771H16.6663Z" fill="black"/>
<path fill-rule="evenodd" clip-rule="evenodd" d="M34.8952 6.25008V10.4167C34.8952 11.3837 34.5111 12.311 33.8273 12.9947C33.1436 13.6785 32.2163 14.0626 31.2494 14.0626H18.7493C17.7824 14.0626 16.8551 13.6785 16.1714 12.9947C15.4876 12.311 15.1035 11.3837 15.1035 10.4167V6.25008C15.1035 4.2355 16.7368 2.60425 18.7493 2.60425H31.2494C33.2619 2.60425 34.8952 4.2355 34.8952 6.25008ZM31.7702 6.25008C31.7702 6.11195 31.7153 5.97947 31.6176 5.8818C31.52 5.78412 31.3875 5.72925 31.2494 5.72925H18.7493C18.6112 5.72925 18.4787 5.78412 18.3811 5.8818C18.2834 5.97947 18.2285 6.11195 18.2285 6.25008V10.4167C18.2285 10.7042 18.4618 10.9376 18.7493 10.9376H31.2494C31.3875 10.9376 31.52 10.8827 31.6176 10.785C31.7153 10.6874 31.7702 10.5549 31.7702 10.4167V6.25008ZM16.666 22.3959C16.2516 22.3959 15.8542 22.2313 15.5612 21.9383C15.2681 21.6452 15.1035 21.2478 15.1035 20.8334C15.1035 20.419 15.2681 20.0216 15.5612 19.7286C15.8542 19.4355 16.2516 19.2709 16.666 19.2709H31.2494C31.6638 19.2709 32.0612 19.4355 32.3542 19.7286C32.6472 20.0216 32.8119 20.419 32.8119 20.8334C32.8119 21.2478 32.6472 21.6452 32.3542 21.9383C32.0612 22.2313 31.6638 22.3959 31.2494 22.3959H16.666ZM16.666 30.7292C16.2516 30.7292 15.8542 30.5646 15.5612 30.2716C15.2681 29.9786 15.1035 29.5812 15.1035 29.1667C15.1035 28.7523 15.2681 28.3549 15.5612 28.0619C15.8542 27.7689 16.2516 27.6042 16.666 27.6042H31.2494C31.6638 27.6042 32.0612 27.7689 32.3542 28.0619C32.6472 28.3549 32.8119 28.7523 32.8119 29.1667C32.8119 29.5812 32.6472 29.9786 32.3542 30.2716C32.0612 30.5646 31.6638 30.7292 31.2494 30.7292H16.666ZM16.666 39.0626C16.2516 39.0626 15.8542 38.898 15.5612 38.6049C15.2681 38.3119 15.1035 37.9145 15.1035 37.5001C15.1035 37.0857 15.2681 36.6883 15.5612 36.3952C15.8542 36.1022 16.2516 35.9376 16.666 35.9376H26.041C26.4554 35.9376 26.8528 36.1022 27.1459 36.3952C27.4389 36.6883 27.6035 37.0857 27.6035 37.5001C27.6035 37.9145 27.4389 38.3119 27.1459 38.6049C26.8528 38.898 26.4554 39.0626 26.041 39.0626H16.666Z" fill="black"/>
</svg>
