<svg width="151" height="140" viewBox="0 0 151 140" fill="none" xmlns="http://www.w3.org/2000/svg">
<path d="M139.612 66.7813C139.426 68.0122 139.657 69.273 139.722 70.5205C139.838 72.7099 140.011 74.8976 140.061 77.0836C140.21 83.6699 139.803 90.5387 136.539 96.424C136.275 96.8991 135.998 97.3709 135.702 97.8376C135.464 98.2147 135.182 98.5602 134.875 98.8825C132.134 101.761 129.679 104.942 127.423 108.301C123.74 113.784 121.038 121.301 116.046 125.671C112.109 129.118 106.701 130.362 101.794 131.744C97.1923 133.04 93.6807 135.784 89.4531 137.861C85.3867 139.857 80.5529 140.319 76.0977 139.807C72.3619 139.379 68.7622 139.681 65.0413 138.779C61.5563 137.934 57.9766 136.557 54.6892 135.548C46.8122 133.131 37.779 134.11 30.9767 128.904C25.5715 124.769 21.9452 118.713 16.1994 114.96C13.7011 113.329 11.1662 111.65 9.29912 109.326C4.49682 103.351 8.138 94.939 5.84067 88.1035C5.56825 87.2895 5.25429 86.4789 4.89549 85.6716C4.6347 85.0371 4.35231 84.4125 4.04998 83.7962C-0.584542 74.3311 -1.2955 62.9624 2.19617 53.004C2.37391 52.499 2.60647 52.0107 2.89716 51.5622C4.91709 48.4442 7.67455 45.7466 9.09812 42.2898C10.4802 38.9376 10.6064 35.23 11.6729 31.7849C12.9586 27.6321 15.623 23.3397 19.2609 20.8829C23.5283 18.0042 28.5482 16.4461 32.8256 13.285C38.9252 8.77836 44.8205 3.1455 52.1876 0.770096C59.6344 -1.63354 66.445 2.33321 73.8486 2.59733C74.5562 2.62224 75.2639 2.62557 75.9815 2.62557C76.008 2.62557 76.033 2.62557 76.0595 2.62557C79.601 2.62058 82.596 5.28502 82.9648 8.80825C83.0578 9.68865 83.2705 10.5375 83.6542 11.2999C84.606 13.1936 84.5728 15.4361 83.6442 17.3414C81.8768 20.9677 80.1309 26.6985 82.9083 32.1221C85.4781 37.1436 90.2239 38.8363 93.8485 39.3629C96.6408 39.7682 98.88 41.8247 99.6092 44.5489C100.521 47.9608 102.342 52.112 105.92 53.6685C109.885 55.3927 115.533 54.2449 119.33 53.092C121.641 52.3911 124.166 52.9077 125.961 54.5206C127.936 56.293 131.014 58.195 135.039 58.0422C135.039 58.0422 140.991 57.6053 139.609 66.783L139.612 66.7813Z" fill="#F7B658"/>
<path d="M25.5717 37.2001C27.3889 32.5291 33.6165 30.1935 38.5483 34.0855C43.4785 37.9775 40.0882 47.5871 30.1979 46.8014C23.663 46.2831 23.7561 41.8712 25.5733 37.1985L25.5717 37.2001ZM68.9585 9.65543C65.304 8.53584 62.0332 11.5657 62.4568 15.3232C62.799 18.358 65.4236 20.8996 68.3571 21.4959C72.2226 22.2816 75.5531 23.0706 75.6611 17.8215C75.6079 17.2252 75.5016 16.6487 75.3438 16.0989C74.5282 13.2418 71.7907 10.5275 68.9568 9.65709L68.9585 9.65543ZM57.1711 60.6917C56.2791 60.8794 55.4934 60.4575 54.5997 60.597C53.4718 60.7731 52.3705 61.3445 51.51 62.082C44.1912 68.3544 59.0283 76.9823 65.0598 70.969C68.4983 67.5405 68.382 60.7698 63.0764 59.2963C61.9535 58.984 60.7127 58.9708 59.6047 59.3528C58.7658 59.6418 58.1479 60.4276 57.3007 60.6601C57.2575 60.6717 57.2143 60.6817 57.1728 60.6917H57.1711ZM86.5215 42.4659C86.048 42.2449 85.6494 41.8297 85.3554 41.0423C84.8222 39.6154 85.2922 38.6104 83.9567 37.6304C79.377 34.2699 76.676 40.8513 76.8853 44.2466C77.1245 48.1153 79.289 52.6485 83.4102 53.5339C86.0098 54.092 89.0032 53.2366 90.8221 51.2665C92.1095 49.8711 92.955 47.6735 92.3902 45.8047C91.352 42.3729 88.9367 43.5954 86.5215 42.4675V42.4659ZM33.5234 81.3361C29.7211 77.7647 23.0899 76.4391 19.7727 81.7447C18.4455 83.7347 18.4455 86.3875 19.1099 88.3776C21.7627 94.346 29.0583 91.0304 34.2693 91.7015C34.7676 91.4988 35.1364 91.1201 35.3939 90.6184C35.6513 90.1184 35.7975 89.4955 35.8523 88.8128C35.9072 88.1301 35.8689 87.3826 35.756 86.6334C35.0268 85.0603 35.0268 83.7347 34.3391 82.5786C34.0733 82.0969 33.7959 81.6733 33.5234 81.3361ZM52.7094 102.148C48.9552 103.63 45.6396 108.273 48.2925 112.251C50.9453 114.904 56.2509 112.251 58.5117 115.994C58.8289 116.627 59.1761 116.962 59.5316 117.088C60.2426 117.339 60.9867 116.754 61.5698 115.979C61.8605 115.59 62.113 115.155 62.299 114.751C66.1993 108.936 62.2209 98.9871 54.2924 101.519C53.7476 101.668 53.2144 101.881 52.7094 102.148ZM96.9782 87.0703C98.7822 82.9922 98.445 76.8029 93.2407 75.6185C91.1211 75.1351 88.5281 75.964 88.1245 78.356C87.2839 83.3377 77.1777 78.1451 78.2441 85.243C79.0265 90.4506 84.4534 92.7812 89.3736 92.1649C92.6228 91.7579 95.651 90.0669 96.9766 87.0703H96.9782ZM124.965 68.6036C121.332 66.2681 112.508 69.9308 114.325 75.2364C116.143 80.5421 123.149 83.1367 127.302 80.2829C131.455 77.4275 132.171 73.9507 130.094 71.0969C128.018 68.2415 124.966 68.6053 124.966 68.6053L124.965 68.6036ZM104.767 114.593C105.327 112.251 107.98 108.273 105.327 107.608C102.674 106.946 98.6942 106.946 96.5214 109.324C96.1576 109.575 95.8105 109.849 95.4799 110.15C95.151 110.451 94.8387 110.776 94.5497 111.132C93.2872 112.68 92.0364 114.743 92.4484 116.818C92.7457 118.316 93.8088 119.64 95.2091 120.251C97.5231 121.263 100.148 120.301 102.016 118.721C102.39 118.406 102.734 118.063 103.036 117.71C103.462 117.211 103.812 116.686 104.098 116.158C104.383 115.632 104.599 115.107 104.769 114.593H104.767Z" fill="#593412"/>
<path d="M130.028 48.0937C130.277 49.1702 129.843 50.7632 128.455 50.5904C126.496 50.3462 122.383 51.7183 121.981 49.2349C121.581 46.7615 125.332 45.127 127.88 45.8845C128.915 46.1918 129.75 46.8944 130.029 48.0954L130.028 48.0937ZM147.69 55.1718C146.484 54.0322 145.332 53.4658 144.142 55.3296C143.086 56.9857 145.062 58.7565 144.631 60.396C144.199 62.0355 143.865 63.0405 146.074 63.4375C147.75 63.7398 149.747 62.3246 150.232 60.7565C150.802 58.9093 149.509 57.0455 148.295 55.7797C148.091 55.5671 147.888 55.3611 147.689 55.1718H147.69ZM145.31 47.7283C143.096 47.7283 142.099 49.803 143.843 50.4957C145.587 51.1867 149.323 48.421 145.31 47.7283ZM102.441 3.93785C100.526 2.82823 98.6225 4.1239 99.7837 5.59565C100.945 7.06906 105.566 6.54747 102.441 3.93785ZM136.22 51.1286C134.946 51.0854 132.729 52.0356 135.586 53.6984C136.556 54.2631 138.848 56.6086 139.043 54.1518C139.174 52.4974 137.82 51.1834 136.22 51.1286ZM134.82 41.8463C133.734 42.9293 132.828 44.6137 133.9 45.0672C135.431 45.7134 139.049 45.2084 138.518 42.9044C138.332 42.0988 137.33 41.2699 136.584 40.9393C136.187 40.7632 135.471 41.1968 134.818 41.8463H134.82ZM87.6027 1.57574C85.7671 1.06578 84.8518 3.69201 86.1209 4.9611C87.39 6.2302 85.91 7.49099 88.6608 8.34148C91.4116 9.19364 91.4116 2.63221 87.6027 1.57408V1.57574ZM89.9747 13.6322C89.0728 13.6787 88.493 14.5956 88.6874 15.4411C88.9216 16.4561 89.7505 16.5009 90.5694 16.7883C91.0827 16.9677 91.689 18.2949 92.3435 17.7002C92.5096 17.5507 92.5727 17.3132 92.5628 17.0889C92.5013 15.6886 91.6774 13.5424 89.9731 13.6322H89.9747Z" fill="#F7B658"/>
</svg>
