<svg width="80" height="80" viewBox="0 0 80 80" fill="none" xmlns="http://www.w3.org/2000/svg">
<path d="M55.9146 31.2275C58.7441 31.2242 61.4568 30.0987 63.4576 28.0979C65.4583 26.0972 66.5838 23.3845 66.5871 20.555V13.4225C66.5838 10.593 65.4583 7.88032 63.4576 5.87956C61.4568 3.87879 58.7441 2.75331 55.9146 2.75H24.0846C21.2551 2.75331 18.5424 3.87879 16.5417 5.87956C14.5409 7.88032 13.4154 10.593 13.4121 13.4225V20.5575C13.4154 23.387 14.5409 26.0997 16.5417 28.1004C18.5424 30.1012 21.2551 31.2267 24.0846 31.23H31.5871L36.9671 37.0525C37.7471 37.895 38.8521 38.3775 39.9996 38.3775C41.1471 38.3775 42.2521 37.895 43.0321 37.0525L48.4121 31.23L55.9146 31.2275ZM45.7746 27.45L39.9996 33.7L34.2246 27.45C34.0142 27.2217 33.7586 27.0397 33.4742 26.9153C33.1897 26.7909 32.8826 26.727 32.5721 26.7275H24.0846C22.4482 26.7255 20.8793 26.0746 19.7222 24.9174C18.565 23.7603 17.9141 22.1914 17.9121 20.555V13.4225C17.9141 11.7861 18.565 10.2172 19.7222 9.06008C20.8793 7.90294 22.4482 7.25199 24.0846 7.25H55.9121C57.5485 7.25199 59.1174 7.90294 60.2745 9.06008C61.4317 10.2172 62.0826 11.7861 62.0846 13.4225V20.5575C62.0826 22.1939 61.4317 23.7628 60.2745 24.9199C59.1174 26.0771 57.5485 26.728 55.9121 26.73H47.4246C47.1147 26.7292 46.808 26.7928 46.524 26.9167C46.24 27.0407 45.9848 27.2223 45.7746 27.45Z" fill="#FFB661"/>
<path d="M30.2505 14.74H29.418C28.8212 14.74 28.2489 14.977 27.827 15.399C27.405 15.821 27.168 16.3933 27.168 16.99C27.168 17.5867 27.405 18.159 27.827 18.581C28.2489 19.0029 28.8212 19.24 29.418 19.24H30.2505C30.8472 19.24 31.4195 19.0029 31.8415 18.581C32.2634 18.159 32.5005 17.5867 32.5005 16.99C32.5005 16.3933 32.2634 15.821 31.8415 15.399C31.4195 14.977 30.8472 14.74 30.2505 14.74ZM40.4155 14.74H39.5855C38.9887 14.74 38.4164 14.977 37.9945 15.399C37.5725 15.821 37.3355 16.3933 37.3355 16.99C37.3355 17.5867 37.5725 18.159 37.9945 18.581C38.4164 19.0029 38.9887 19.24 39.5855 19.24H40.4155C41.0122 19.24 41.5845 19.0029 42.0065 18.581C42.4284 18.159 42.6655 17.5867 42.6655 16.99C42.6655 16.3933 42.4284 15.821 42.0065 15.399C41.5845 14.977 41.0122 14.74 40.4155 14.74ZM50.5805 14.74H49.7505C49.1537 14.74 48.5814 14.977 48.1595 15.399C47.7375 15.821 47.5005 16.3933 47.5005 16.99C47.5005 17.5867 47.7375 18.159 48.1595 18.581C48.5814 19.0029 49.1537 19.24 49.7505 19.24H50.583C51.1797 19.2397 51.7519 19.0023 52.1736 18.5801C52.5953 18.1579 52.8321 17.5855 52.8317 16.9887C52.8314 16.392 52.594 15.8198 52.1718 15.3981C51.7496 14.9764 51.1772 14.7397 50.5805 14.74ZM67.733 58.745C68.8579 57.6712 69.7535 56.3805 70.3658 54.951C70.9781 53.5214 71.2944 51.9826 71.2955 50.4275C71.2955 44.05 66.1055 38.86 59.728 38.86C53.3505 38.86 48.1605 44.05 48.1605 50.4275C48.1605 53.6975 49.5355 56.64 51.723 58.745C47.433 60.78 44.438 65.1175 44.438 70.1725V71.6625C44.438 73.8525 45.993 75.74 48.1355 76.1475C51.948 76.8775 55.848 77.2475 59.7255 77.2475C63.603 77.2475 67.503 76.8775 71.3155 76.1475C72.3569 75.9459 73.2956 75.388 73.9703 74.5695C74.6451 73.7511 75.0137 72.7232 75.013 71.6625V70.1725C75.018 65.12 72.023 60.78 67.733 58.745ZM59.7305 43.36C63.628 43.36 66.798 46.53 66.798 50.4275C66.798 54.325 63.628 57.495 59.7305 57.495C55.833 57.495 52.663 54.325 52.663 50.4275C52.663 46.53 55.833 43.36 59.7305 43.36ZM70.4755 71.73C63.8951 72.9661 57.1493 73.0414 50.543 71.9525C50.008 71.86 49.473 71.775 48.9405 71.6625V70.1725C48.9425 68.0043 49.8046 65.9255 51.3378 64.3923C52.8709 62.8592 54.9498 61.997 57.118 61.995H62.3405C64.5087 61.997 66.5875 62.8592 68.1206 64.3923C69.6538 65.9255 70.516 68.0043 70.518 70.1725L70.4755 71.73ZM28.2755 58.745C29.4004 57.6712 30.296 56.3805 30.9083 54.951C31.5206 53.5214 31.8369 51.9826 31.838 50.4275C31.838 44.05 26.648 38.86 20.2705 38.86C13.893 38.86 8.70297 44.05 8.70297 50.4275C8.70297 53.6975 10.078 56.64 12.2655 58.745C7.97547 60.78 4.98047 65.1175 4.98047 70.1725V71.6625C4.98047 73.8525 6.53547 75.74 8.67797 76.1475C12.4905 76.8775 16.3905 77.2475 20.268 77.2475C24.1455 77.2475 28.0455 76.8775 31.858 76.1475C32.8994 75.9459 33.8381 75.388 34.5128 74.5695C35.1875 73.7511 35.5562 72.7232 35.5555 71.6625V70.1725C35.5605 65.12 32.5655 60.78 28.2755 58.745ZM20.2705 43.36C24.168 43.36 27.338 46.53 27.338 50.4275C27.338 54.325 24.168 57.495 20.2705 57.495C16.373 57.495 13.203 54.325 13.203 50.4275C13.203 46.53 16.373 43.36 20.2705 43.36ZM31.018 71.73C24.4376 72.9661 17.6918 73.0414 11.0855 71.9525C10.5505 71.86 10.0155 71.775 9.48297 71.6625V70.1725C9.48495 68.0043 10.3471 65.9255 11.8803 64.3923C13.4134 62.8592 15.4923 61.997 17.6605 61.995H22.883C25.0512 61.997 27.13 62.8592 28.6631 64.3923C30.1963 65.9255 31.0585 68.0043 31.0605 70.1725L31.018 71.73Z" fill="#FFB661"/>
</svg>
