<svg width="50" height="50" viewBox="0 0 50 50" fill="none" xmlns="http://www.w3.org/2000/svg">
<path d="M34.9469 19.5172C36.7153 19.5151 38.4107 18.8117 39.6612 17.5612C40.9117 16.3107 41.6151 14.6153 41.6172 12.8469V8.38906C41.6151 6.62062 40.9117 4.9252 39.6612 3.67472C38.4107 2.42424 36.7153 1.72082 34.9469 1.71875H15.0531C13.2847 1.72082 11.5893 2.42424 10.3388 3.67472C9.08831 4.9252 8.38488 6.62062 8.38281 8.38906V12.8484C8.38488 14.6169 9.08831 16.3123 10.3388 17.5628C11.5893 18.8133 13.2847 19.5167 15.0531 19.5187H19.7422L23.1047 23.1578C23.5922 23.6844 24.2828 23.9859 25 23.9859C25.7172 23.9859 26.4078 23.6844 26.8953 23.1578L30.2578 19.5187L34.9469 19.5172ZM28.6094 17.1562L25 21.0625L21.3906 17.1562C21.2591 17.0136 21.0994 16.8998 20.9216 16.8221C20.7438 16.7443 20.5518 16.7044 20.3578 16.7047H15.0531C14.0304 16.7034 13.0498 16.2966 12.3266 15.5734C11.6034 14.8502 11.1966 13.8696 11.1953 12.8469V8.38906C11.1966 7.36629 11.6034 6.38576 12.3266 5.66255C13.0498 4.93934 14.0304 4.53249 15.0531 4.53125H34.9453C35.9681 4.53249 36.9486 4.93934 37.6718 5.66255C38.395 6.38576 38.8019 7.36629 38.8031 8.38906V12.8484C38.8019 13.8712 38.395 14.8517 37.6718 15.575C36.9486 16.2982 35.9681 16.705 34.9453 16.7063H29.6406C29.4469 16.7058 29.2553 16.7455 29.0777 16.823C28.9002 16.9004 28.7407 17.0139 28.6094 17.1562Z" fill="black"/>
<path d="M18.9061 9.21289H18.3857C18.0128 9.21289 17.6551 9.36105 17.3914 9.62477C17.1277 9.8885 16.9795 10.2462 16.9795 10.6191C16.9795 10.9921 17.1277 11.3498 17.3914 11.6135C17.6551 11.8772 18.0128 12.0254 18.3857 12.0254H18.9061C19.279 12.0254 19.6367 11.8772 19.9004 11.6135C20.1641 11.3498 20.3123 10.9921 20.3123 10.6191C20.3123 10.2462 20.1641 9.8885 19.9004 9.62477C19.6367 9.36105 19.279 9.21289 18.9061 9.21289ZM25.2592 9.21289H24.7404C24.3675 9.21289 24.0098 9.36105 23.7461 9.62477C23.4823 9.8885 23.3342 10.2462 23.3342 10.6191C23.3342 10.9921 23.4823 11.3498 23.7461 11.6135C24.0098 11.8772 24.3675 12.0254 24.7404 12.0254H25.2592C25.6321 12.0254 25.9898 11.8772 26.2536 11.6135C26.5173 11.3498 26.6654 10.9921 26.6654 10.6191C26.6654 10.2462 26.5173 9.8885 26.2536 9.62477C25.9898 9.36105 25.6321 9.21289 25.2592 9.21289ZM31.6123 9.21289H31.0936C30.7206 9.21289 30.3629 9.36105 30.0992 9.62477C29.8355 9.8885 29.6873 10.2462 29.6873 10.6191C29.6873 10.9921 29.8355 11.3498 30.0992 11.6135C30.3629 11.8772 30.7206 12.0254 31.0936 12.0254H31.6139C31.9868 12.0252 32.3444 11.8768 32.608 11.613C32.8716 11.3491 33.0195 10.9913 33.0193 10.6184C33.0191 10.2454 32.8708 9.8878 32.6069 9.62422C32.343 9.36064 31.9853 9.21268 31.6123 9.21289ZM42.3326 36.716C43.0357 36.0449 43.5955 35.2382 43.9781 34.3448C44.3608 33.4513 44.5585 32.4895 44.5592 31.5176C44.5592 27.5316 41.3154 24.2879 37.3295 24.2879C33.3436 24.2879 30.0998 27.5316 30.0998 31.5176C30.0998 33.5613 30.9592 35.4004 32.3264 36.716C29.6451 37.9879 27.7732 40.6988 27.7732 43.8582V44.7895C27.7732 46.1582 28.7451 47.3379 30.0842 47.5926C32.467 48.0488 34.9045 48.2801 37.3279 48.2801C39.7514 48.2801 42.1889 48.0488 44.5717 47.5926C45.2226 47.4666 45.8092 47.1179 46.231 46.6064C46.6527 46.0948 46.8831 45.4524 46.8826 44.7895V43.8582C46.8857 40.7004 45.0139 37.9879 42.3326 36.716ZM37.3311 27.1004C39.767 27.1004 41.7482 29.0816 41.7482 31.5176C41.7482 33.9535 39.767 35.9348 37.3311 35.9348C34.8951 35.9348 32.9139 33.9535 32.9139 31.5176C32.9139 29.0816 34.8951 27.1004 37.3311 27.1004ZM44.0467 44.8316C39.934 45.6042 35.7178 45.6513 31.5889 44.9707C31.2545 44.9129 30.9201 44.8598 30.5873 44.7895V43.8582C30.5885 42.5031 31.1274 41.2038 32.0856 40.2456C33.0439 39.2874 34.3431 38.7485 35.6982 38.7473H38.9623C40.3174 38.7485 41.6167 39.2874 42.5749 40.2456C43.5331 41.2038 44.072 42.5031 44.0732 43.8582L44.0467 44.8316ZM17.6717 36.716C18.3748 36.0449 18.9345 35.2382 19.3172 34.3448C19.6999 33.4513 19.8976 32.4895 19.8982 31.5176C19.8982 27.5316 16.6545 24.2879 12.6686 24.2879C8.68262 24.2879 5.43887 27.5316 5.43887 31.5176C5.43887 33.5613 6.29824 35.4004 7.66543 36.716C4.98418 37.9879 3.1123 40.6988 3.1123 43.8582V44.7895C3.1123 46.1582 4.08418 47.3379 5.42324 47.5926C7.80606 48.0488 10.2436 48.2801 12.667 48.2801C15.0904 48.2801 17.5279 48.0488 19.9107 47.5926C20.5616 47.4666 21.1483 47.1179 21.57 46.6064C21.9917 46.0948 22.2221 45.4524 22.2217 44.7895V43.8582C22.2248 40.7004 20.3529 37.9879 17.6717 36.716ZM12.6686 27.1004C15.1045 27.1004 17.0857 29.0816 17.0857 31.5176C17.0857 33.9535 15.1045 35.9348 12.6686 35.9348C10.2326 35.9348 8.25137 33.9535 8.25137 31.5176C8.25137 29.0816 10.2326 27.1004 12.6686 27.1004ZM19.3857 44.8316C15.273 45.6042 11.0569 45.6513 6.92793 44.9707C6.59355 44.9129 6.25918 44.8598 5.92637 44.7895V43.8582C5.92761 42.5031 6.46648 41.2038 7.4247 40.2456C8.38292 39.2874 9.68218 38.7485 11.0373 38.7473H14.3014C15.6565 38.7485 16.9558 39.2874 17.914 40.2456C18.8722 41.2038 19.4111 42.5031 19.4123 43.8582L19.3857 44.8316Z" fill="black"/>
</svg>
