<svg width="80" height="80" viewBox="0 0 80 80" fill="none" xmlns="http://www.w3.org/2000/svg">
<path d="M27.3923 25.9026C23.1233 25.9026 19.6502 29.3757 19.6502 33.6448C19.6502 37.9139 23.1233 41.3868 27.3923 41.3868C31.6614 41.3868 35.1344 37.9137 35.1344 33.6448C35.1344 29.3759 31.6613 25.9026 27.3923 25.9026ZM27.3923 38.8868C24.5019 38.8868 22.1502 36.5353 22.1502 33.6448C22.1502 30.7543 24.5019 28.4026 27.3923 28.4026C30.2828 28.4026 32.6344 30.7542 32.6344 33.6448C32.6344 36.5354 30.2828 38.8868 27.3923 38.8868ZM30.3306 31.5332C30.565 31.7676 30.6967 32.0856 30.6967 32.4171C30.6967 32.7485 30.565 33.0665 30.3306 33.3009L27.2484 36.3829C27.0044 36.627 26.6845 36.749 26.3647 36.749C26.0448 36.749 25.7248 36.627 25.4809 36.3829L24.0714 34.9734C23.9553 34.8573 23.8632 34.7195 23.8004 34.5679C23.7376 34.4162 23.7052 34.2537 23.7052 34.0896C23.7052 33.9254 23.7376 33.7629 23.8004 33.6112C23.8632 33.4596 23.9553 33.3218 24.0714 33.2057C24.5597 32.7178 25.3511 32.7173 25.8391 33.2057L26.3648 33.7313L28.5631 31.5332C28.6792 31.4172 28.817 31.3251 28.9686 31.2623C29.1203 31.1994 29.2828 31.1671 29.447 31.1671C29.6111 31.1671 29.7736 31.1994 29.9253 31.2623C30.0769 31.3251 30.2147 31.4172 30.3308 31.5332H30.3306ZM6.11984 12.5717C3.43453 12.5717 1.25 14.7562 1.25 17.4415V65.0228C1.25 65.0323 1.25125 65.0415 1.25141 65.051C1.25219 65.0949 1.25548 65.1388 1.26125 65.1823C1.26406 65.2037 1.26719 65.2251 1.27094 65.2465C1.28322 65.3119 1.30041 65.3763 1.32234 65.4392C1.32531 65.4476 1.32734 65.4562 1.33047 65.4645L4.95031 75.0449C5.04003 75.2825 5.19998 75.4871 5.40885 75.6314C5.61772 75.7758 5.86561 75.8532 6.11953 75.8532C6.37345 75.8532 6.62134 75.7758 6.83021 75.6314C7.03909 75.4871 7.19903 75.2825 7.28875 75.0449L10.9084 65.4645C10.9117 65.456 10.9136 65.4476 10.9166 65.4392C10.9314 65.3979 10.9438 65.3559 10.9537 65.3132C10.9686 65.2523 10.9786 65.1904 10.9836 65.1279C10.9858 65.1023 10.9869 65.0767 10.9875 65.051C10.9877 65.0415 10.9889 65.0323 10.9889 65.0228V17.4415C10.9889 14.7563 8.80437 12.5717 6.11922 12.5717H6.11984ZM3.75 25.4743H8.48953V63.7728H3.75V25.4743ZM6.11984 15.0717C7.42641 15.0717 8.48953 16.1348 8.48953 17.4415V22.9745H3.75V17.4415C3.75 16.1348 4.81312 15.0717 6.11984 15.0717ZM6.11984 71.0667L4.30859 66.2728H7.93109L6.11984 71.0667ZM78.75 36.2045C78.75 27.7749 72.2178 20.8424 63.9495 20.2026V16.1112C63.9495 14.1595 62.3617 12.5718 60.4102 12.5718H51.0469V12.271C51.0469 11.9395 50.9152 11.6216 50.6808 11.3872C50.4463 11.1527 50.1284 11.021 49.7969 11.021H47.7612C47.048 7.08213 43.6258 4.14697 39.5013 4.14697C35.3767 4.14697 31.9545 7.08213 31.2412 11.021H28.9008C28.5693 11.021 28.2513 11.1527 28.0169 11.3872C27.7825 11.6216 27.6508 11.9395 27.6508 12.271V12.5718H18.2875C16.3359 12.5718 14.7481 14.1596 14.7481 16.1112V72.3139C14.7481 74.2656 16.3359 75.8532 18.2875 75.8532H60.4102C62.3617 75.8532 63.9495 74.2654 63.9495 72.3139V68.2707H65.5461C66.8848 68.2707 68.1372 67.6082 68.8959 66.4987C69.3685 65.8086 69.6168 64.9896 69.6069 64.1532C71.1002 63.5521 72.1575 62.0895 72.1575 60.3835C72.1575 59.9515 72.0887 59.5293 71.9583 59.1289C73.1817 58.4279 74.0083 57.1101 74.0083 55.6021C74.0083 54.5815 73.6291 53.6484 73.0053 52.934C73.7991 49.5012 75.0436 47.0085 76.1445 44.8071C77.4844 42.1279 78.75 39.5971 78.75 36.2045ZM30.1508 13.5209H32.3598C32.6832 13.5209 32.9941 13.3956 33.227 13.1712C33.4599 12.9468 33.5968 12.6409 33.6089 12.3178C33.7284 9.13775 36.3166 6.64682 39.5013 6.64682C42.6859 6.64682 45.2741 9.13775 45.3936 12.3178C45.4057 12.6409 45.5426 12.9468 45.7755 13.1712C46.0085 13.3955 46.3193 13.5209 46.6427 13.5209H48.547V17.752H30.1509V13.5209H30.1508ZM61.4495 72.3139C61.4492 72.5894 61.3396 72.8536 61.1447 73.0484C60.9499 73.2433 60.6857 73.3529 60.4102 73.3532H18.2875C18.0119 73.3529 17.7478 73.2433 17.5529 73.0484C17.3581 72.8536 17.2485 72.5894 17.2481 72.3139V16.111C17.2485 15.8355 17.3581 15.5713 17.5529 15.3765C17.7478 15.1816 18.0119 15.072 18.2875 15.0717H27.6508V19.002C27.6508 19.3335 27.7825 19.6514 28.0169 19.8859C28.2513 20.1203 28.5693 20.252 28.9008 20.252H49.7969C50.1284 20.252 50.4463 20.1203 50.6808 19.8859C50.9152 19.6514 51.0469 19.3335 51.0469 19.002V15.0717H60.4102C60.6857 15.072 60.9499 15.1816 61.1447 15.3765C61.3396 15.5713 61.4492 15.8355 61.4495 16.111V20.2024C57.0242 20.5449 53.097 22.6904 50.4017 25.9028H38.7864C38.4549 25.9028 38.1369 26.0345 37.9025 26.2689C37.6681 26.5033 37.5364 26.8212 37.5364 27.1528C37.5364 27.4843 37.6681 27.8022 37.9025 28.0366C38.1369 28.2711 38.4549 28.4028 38.7864 28.4028H48.6772C47.9764 29.6566 47.4482 30.9995 47.107 32.3948H38.7864C38.4549 32.3948 38.1369 32.5265 37.9025 32.7609C37.6681 32.9953 37.5364 33.3133 37.5364 33.6448C37.5364 33.9763 37.6681 34.2942 37.9025 34.5287C38.1369 34.7631 38.4549 34.8948 38.7864 34.8948H46.7028C46.6672 35.3304 46.6492 35.7673 46.6491 36.2043C46.6491 37.1601 46.7523 38.0457 46.9266 38.8868H38.7862C38.4547 38.8868 38.1368 39.0185 37.9024 39.2529C37.6679 39.4874 37.5362 39.8053 37.5362 40.1368C37.5362 40.4683 37.6679 40.7863 37.9024 41.0207C38.1368 41.2551 38.4547 41.3868 38.7862 41.3868H47.6775C48.1286 42.5489 48.6836 43.6603 49.253 44.7981C49.7859 45.8628 50.3517 46.9959 50.8842 48.269H38.7861C38.4546 48.269 38.1366 48.4007 37.9022 48.6351C37.6678 48.8695 37.5361 49.1875 37.5361 49.519C37.5361 49.8505 37.6678 50.1685 37.9022 50.4029C38.1366 50.6373 38.4546 50.769 38.7861 50.769H51.805C52.0301 51.4821 52.2268 52.204 52.3944 52.9328C52.0811 53.2911 51.833 53.7016 51.6616 54.1456H38.7861C38.4546 54.1456 38.1366 54.2773 37.9022 54.5117C37.6678 54.7461 37.5361 55.064 37.5361 55.3956C37.5361 55.7271 37.6678 56.045 37.9022 56.2795C38.1366 56.5139 38.4546 56.6456 38.7861 56.6456H51.5272C51.8091 57.7053 52.5098 58.5954 53.4405 59.1287C53.346 59.4186 53.2848 59.7184 53.258 60.0221H38.7862C38.4547 60.0221 38.1368 60.1538 37.9024 60.3882C37.6679 60.6227 37.5362 60.9406 37.5362 61.2721C37.5362 61.6037 37.6679 61.9216 37.9024 62.156C38.1368 62.3904 38.4547 62.5221 38.7862 62.5221H53.8519C54.3094 63.2577 54.9888 63.8288 55.792 64.1531C55.7821 64.9894 56.0304 65.8084 56.503 66.4985C57.2617 67.6081 58.5141 68.2706 59.8528 68.2706H61.4494V72.3137L61.4495 72.3139ZM69.9455 54.0395C70.8072 54.0395 71.5083 54.7404 71.5083 55.6021C71.5083 56.4639 70.8072 57.1648 69.9455 57.1648H55.4536C54.5919 57.1648 53.8909 56.4639 53.8909 55.6021C53.8909 54.7404 54.5919 54.0395 55.4536 54.0395H69.9455ZM65.5461 65.7707H59.853C59.3323 65.7707 58.8636 65.5217 58.5667 65.0874C58.4348 64.8953 58.3472 64.6763 58.3103 64.4462H67.0888C67.0519 64.6763 66.9643 64.8954 66.8323 65.0874C66.5355 65.5217 66.0667 65.7707 65.5461 65.7707ZM68.0948 61.9462H57.3041C56.4423 61.9462 55.7414 61.2453 55.7414 60.3837C55.7414 60.1303 55.8031 59.8851 55.9188 59.6648H69.48C69.5966 59.8865 69.6575 60.1332 69.6573 60.3837C69.6573 61.2453 68.9564 61.9462 68.0947 61.9462H68.0948ZM70.753 51.6203C70.4872 51.5664 70.2167 51.5393 69.9455 51.5393H63.9495V41.3176L68.2592 38.2159C68.3925 38.12 68.5055 37.9988 68.5919 37.8592C68.6783 37.7197 68.7364 37.5644 68.7628 37.4024C68.7892 37.2404 68.7835 37.0748 68.7459 36.915C68.7083 36.7552 68.6396 36.6044 68.5437 36.4711C68.4478 36.3379 68.3266 36.2248 68.187 36.1384C68.0474 36.052 67.8922 35.9939 67.7302 35.9675C67.5682 35.9411 67.4025 35.9469 67.2428 35.9845C67.083 36.0221 66.9321 36.0908 66.7989 36.1867L62.6995 39.137L58.6003 36.1867C58.4671 36.0907 58.3163 36.022 58.1565 35.9844C57.9967 35.9468 57.8311 35.941 57.6691 35.9674C57.507 35.9938 57.3518 36.0519 57.2122 36.1383C57.0727 36.2247 56.9515 36.3378 56.8556 36.471C56.7597 36.6043 56.691 36.7551 56.6534 36.9149C56.6158 37.0747 56.61 37.2403 56.6364 37.4024C56.6628 37.5644 56.7209 37.7196 56.8073 37.8592C56.8937 37.9988 57.0068 38.12 57.14 38.2159L61.4495 41.3176V51.5393H55.4536C55.1777 51.5393 54.9083 51.5673 54.6478 51.6199C53.7914 48.2851 52.5755 45.8499 51.4889 43.6793C50.1817 41.0676 49.1491 39.0048 49.1491 36.2045C49.1491 28.7328 55.2277 22.6542 62.6995 22.6542C70.1714 22.6542 76.25 28.7328 76.25 36.2045C76.25 39.0068 75.2167 41.0729 73.9086 43.6889C72.8247 45.856 71.6097 48.291 70.7531 51.6203H70.753ZM27.3922 48.269C23.1231 48.269 19.65 51.7421 19.65 56.011C19.65 60.2799 23.1231 63.7531 27.3922 63.7531C31.6612 63.7531 35.1342 60.2799 35.1342 56.011C35.1342 51.7421 31.6611 48.269 27.3922 48.269ZM27.3922 61.2532C24.5017 61.2532 22.15 58.9017 22.15 56.0112C22.15 53.1207 24.5017 50.7692 27.3922 50.7692C30.2827 50.7692 32.6342 53.1207 32.6342 56.0112C32.6342 58.9017 30.2827 61.2532 27.3922 61.2532ZM30.3305 53.8998C30.5649 54.1342 30.6965 54.4521 30.6965 54.7836C30.6965 55.1151 30.5649 55.433 30.3305 55.6674L27.2483 58.7495C27.0042 58.9935 26.6844 59.1156 26.3645 59.1156C26.0447 59.1156 25.7247 58.9935 25.4808 58.7495L24.0713 57.3399C23.9552 57.2239 23.8631 57.0861 23.8002 56.9345C23.7374 56.7828 23.7051 56.6203 23.7051 56.4561C23.7051 56.292 23.7374 56.1294 23.8002 55.9778C23.8631 55.8261 23.9552 55.6883 24.0713 55.5723C24.5595 55.0843 25.3509 55.0839 25.8389 55.5723L26.3647 56.0979L28.563 53.8998C28.679 53.7837 28.8168 53.6916 28.9685 53.6288C29.1201 53.566 29.2827 53.5337 29.4468 53.5337C29.6109 53.5337 29.7735 53.566 29.9251 53.6288C30.0768 53.6916 30.2144 53.7837 30.3305 53.8998ZM39.3489 8.42604C37.2627 8.42604 35.5655 10.1232 35.5655 12.2093C35.5655 14.2954 37.2627 15.9928 39.3489 15.9928C41.4352 15.9928 43.1323 14.2956 43.1323 12.2093C43.1323 10.1231 41.4352 8.42604 39.3489 8.42604ZM39.3489 13.4928C38.6413 13.4928 38.0655 12.917 38.0655 12.2093C38.0655 11.5017 38.6413 10.926 39.3489 10.926C40.0566 10.926 40.6323 11.5018 40.6323 12.2093C40.6323 12.9168 40.0566 13.4928 39.3489 13.4928Z" fill="#FFB661"/>
</svg>
