<svg width="100" height="100" viewBox="0 0 100 100" fill="none" xmlns="http://www.w3.org/2000/svg">
<path d="M34.2404 32.3781C28.9041 32.3781 24.5627 36.7195 24.5627 42.0559C24.5627 47.3922 28.9041 51.7334 34.2404 51.7334C39.5768 51.7334 43.918 47.392 43.918 42.0559C43.918 36.7197 39.5766 32.3781 34.2404 32.3781ZM34.2404 48.6084C30.6273 48.6084 27.6877 45.6689 27.6877 42.0559C27.6877 38.4428 30.6273 35.5031 34.2404 35.5031C37.8535 35.5031 40.793 38.4426 40.793 42.0559C40.793 45.6691 37.8535 48.6084 34.2404 48.6084ZM37.9133 39.4164C38.2063 39.7094 38.3709 40.1068 38.3709 40.5212C38.3709 40.9356 38.2063 41.333 37.9133 41.626L34.0605 45.4785C33.7555 45.7836 33.3557 45.9361 32.9559 45.9361C32.5561 45.9361 32.1561 45.7836 31.8512 45.4785L30.0893 43.7166C29.9441 43.5715 29.829 43.3993 29.7505 43.2097C29.6719 43.0202 29.6315 42.817 29.6315 42.6118C29.6315 42.4066 29.6719 42.2034 29.7505 42.0139C29.829 41.8243 29.9441 41.6521 30.0893 41.507C30.6996 40.8971 31.6889 40.8965 32.2988 41.507L32.9561 42.1641L35.7039 39.4164C35.849 39.2713 36.0212 39.1562 36.2108 39.0777C36.4003 38.9992 36.6035 38.9588 36.8087 38.9588C37.0139 38.9588 37.217 38.9992 37.4066 39.0777C37.5962 39.1562 37.7684 39.2713 37.9135 39.4164H37.9133ZM7.6498 15.7145C4.29316 15.7145 1.5625 18.4451 1.5625 21.8018V81.2783C1.5625 81.2902 1.56406 81.3018 1.56426 81.3137C1.56524 81.3685 1.56935 81.4233 1.57656 81.4777C1.58008 81.5045 1.58398 81.5312 1.58867 81.558C1.60403 81.6398 1.62551 81.7203 1.65293 81.7988C1.65664 81.8094 1.65918 81.8201 1.66309 81.8305L6.18789 93.8061C6.30004 94.103 6.49997 94.3587 6.76106 94.5392C7.02215 94.7197 7.33202 94.8163 7.64941 94.8163C7.96681 94.8163 8.27668 94.7197 8.53777 94.5392C8.79886 94.3587 8.99879 94.103 9.11094 93.8061L13.6355 81.8305C13.6396 81.8199 13.642 81.8094 13.6457 81.7988C13.6642 81.7473 13.6797 81.6947 13.6922 81.6414C13.7108 81.5653 13.7233 81.4878 13.7295 81.4098C13.7322 81.3777 13.7336 81.3457 13.7344 81.3137C13.7346 81.3018 13.7361 81.2902 13.7361 81.2783V21.8018C13.7361 18.4453 11.0055 15.7145 7.64902 15.7145H7.6498ZM4.6875 31.8428H10.6119V79.7158H4.6875V31.8428ZM7.6498 18.8395C9.28301 18.8395 10.6119 20.1684 10.6119 21.8018V28.718H4.6875V21.8018C4.6875 20.1684 6.01641 18.8395 7.6498 18.8395ZM7.6498 88.8332L5.38574 82.8408H9.91387L7.6498 88.8332ZM98.4375 45.2555C98.4375 34.7186 90.2723 26.0529 79.9369 25.2531V20.1389C79.9369 17.6992 77.9521 15.7146 75.5127 15.7146H63.8086V15.3387C63.8086 14.9243 63.644 14.5268 63.3509 14.2338C63.0579 13.9408 62.6605 13.7762 62.2461 13.7762H59.7016C58.81 8.85254 54.5322 5.18359 49.3766 5.18359C44.2209 5.18359 39.9432 8.85254 39.0516 13.7762H36.126C35.7116 13.7762 35.3141 13.9408 35.0211 14.2338C34.7281 14.5268 34.5635 14.9243 34.5635 15.3387V15.7146H22.8594C20.4199 15.7146 18.4352 17.6994 18.4352 20.1389V90.3922C18.4352 92.8318 20.4199 94.8164 22.8594 94.8164H75.5127C77.9521 94.8164 79.9369 92.8316 79.9369 90.3922V85.3383H81.9326C83.6061 85.3383 85.1715 84.5102 86.1199 83.1232C86.7106 82.2606 87.021 81.2368 87.0086 80.1914C88.8752 79.44 90.1969 77.6117 90.1969 75.4793C90.1969 74.9393 90.1109 74.4115 89.9479 73.9109C91.4771 73.0348 92.5104 71.3875 92.5104 69.5025C92.5104 68.2268 92.0363 67.0604 91.2566 66.1674C92.2488 61.8764 93.8045 58.7605 95.1807 56.0088C96.8555 52.6598 98.4375 49.4963 98.4375 45.2555ZM37.6885 16.901H40.4498C40.8541 16.901 41.2426 16.7443 41.5337 16.4639C41.8249 16.1834 41.996 15.801 42.0111 15.3971C42.1605 11.4221 45.3957 8.3084 49.3766 8.3084C53.3574 8.3084 56.5926 11.4221 56.742 15.3971C56.7572 15.801 56.9283 16.1834 57.2194 16.4638C57.5106 16.7443 57.8991 16.901 58.3033 16.901H60.6838V22.1898H37.6887V16.901H37.6885ZM76.8119 90.3922C76.8115 90.7366 76.6745 91.0669 76.4309 91.3104C76.1874 91.554 75.8571 91.691 75.5127 91.6914H22.8594C22.5149 91.691 22.1847 91.554 21.9411 91.3104C21.6976 91.0669 21.5606 90.7366 21.5602 90.3922V20.1387C21.5606 19.7942 21.6976 19.464 21.9411 19.2204C22.1847 18.9769 22.5149 18.8399 22.8594 18.8395H34.5635V23.7523C34.5635 24.1667 34.7281 24.5642 35.0211 24.8572C35.3141 25.1502 35.7116 25.3148 36.126 25.3148H62.2461C62.6605 25.3148 63.0579 25.1502 63.3509 24.8572C63.644 24.5642 63.8086 24.1667 63.8086 23.7523V18.8395H75.5127C75.8571 18.8399 76.1874 18.9769 76.4309 19.2204C76.6745 19.464 76.8115 19.7942 76.8119 20.1387V25.2529C71.2803 25.6811 66.3713 28.3629 63.0022 32.3783H48.483C48.0686 32.3783 47.6712 32.5429 47.3782 32.836C47.0851 33.129 46.9205 33.5264 46.9205 33.9408C46.9205 34.3552 47.0851 34.7526 47.3782 35.0457C47.6712 35.3387 48.0686 35.5033 48.483 35.5033H60.8465C59.9705 37.0707 59.3103 38.7492 58.8838 40.4934H48.483C48.0686 40.4934 47.6712 40.658 47.3782 40.951C47.0851 41.244 46.9205 41.6415 46.9205 42.0559C46.9205 42.4703 47.0851 42.8677 47.3782 43.1607C47.6712 43.4537 48.0686 43.6184 48.483 43.6184H58.3785C58.334 44.1629 58.3115 44.709 58.3113 45.2553C58.3113 46.45 58.4404 47.557 58.6582 48.6084H48.4828C48.0684 48.6084 47.671 48.773 47.378 49.066C47.0849 49.3591 46.9203 49.7565 46.9203 50.1709C46.9203 50.5853 47.0849 50.9827 47.378 51.2758C47.671 51.5688 48.0684 51.7334 48.4828 51.7334H59.5969C60.1607 53.1859 60.8545 54.5752 61.5662 55.9975C62.2324 57.3283 62.9396 58.7447 63.6053 60.3361H48.4826C48.0682 60.3361 47.6708 60.5008 47.3778 60.7938C47.0847 61.0868 46.9201 61.4842 46.9201 61.8986C46.9201 62.313 47.0847 62.7105 47.3778 63.0035C47.6708 63.2965 48.0682 63.4611 48.4826 63.4611H64.7562C65.0377 64.3525 65.2834 65.2548 65.493 66.1658C65.1013 66.6137 64.7913 67.1268 64.577 67.6818H48.4826C48.0682 67.6818 47.6708 67.8465 47.3778 68.1395C47.0847 68.4325 46.9201 68.8299 46.9201 69.2443C46.9201 69.6587 47.0847 70.0562 47.3778 70.3492C47.6708 70.6422 48.0682 70.8068 48.4826 70.8068H64.409C64.7613 72.1314 65.6373 73.2441 66.8006 73.9107C66.6825 74.2732 66.606 74.6478 66.5725 75.0275H48.4828C48.0684 75.0275 47.671 75.1922 47.378 75.4852C47.0849 75.7782 46.9203 76.1756 46.9203 76.59C46.9203 77.0044 47.0849 77.4019 47.378 77.6949C47.671 77.9879 48.0684 78.1525 48.4828 78.1525H67.3148C67.8867 79.072 68.736 79.7859 69.74 80.1912C69.7277 81.2366 70.038 82.2604 70.6287 83.123C71.5771 84.51 73.1426 85.3381 74.816 85.3381H76.8117V90.392L76.8119 90.3922ZM87.4318 67.5492C88.509 67.5492 89.3854 68.4254 89.3854 69.5025C89.3854 70.5797 88.509 71.4559 87.4318 71.4559H69.317C68.2398 71.4559 67.3637 70.5797 67.3637 69.5025C67.3637 68.4254 68.2398 67.5492 69.317 67.5492H87.4318ZM81.9326 82.2133H74.8162C74.1654 82.2133 73.5795 81.9019 73.2084 81.3592C73.0435 81.119 72.9341 80.8452 72.8879 80.5576H83.8609C83.8149 80.8453 83.7054 81.1191 83.5404 81.3592C83.1693 81.9019 82.5834 82.2133 81.9326 82.2133ZM85.1186 77.4326H71.6301C70.5529 77.4326 69.6768 76.5564 69.6768 75.4795C69.6768 75.1627 69.7539 74.8562 69.8984 74.5809H86.85C86.9958 74.858 87.0719 75.1664 87.0717 75.4795C87.0717 76.5564 86.1955 77.4326 85.1184 77.4326H85.1186ZM88.4412 64.5252C88.109 64.4579 87.7708 64.424 87.4318 64.424H79.9369V51.6469L85.324 47.7697C85.4906 47.6499 85.6319 47.4984 85.7399 47.3239C85.8479 47.1494 85.9205 46.9554 85.9535 46.7529C85.9865 46.5504 85.9793 46.3433 85.9323 46.1436C85.8853 45.9439 85.7994 45.7553 85.6796 45.5888C85.5597 45.4222 85.4082 45.2809 85.2338 45.1729C85.0593 45.0649 84.8653 44.9923 84.6628 44.9593C84.4602 44.9263 84.2532 44.9335 84.0535 44.9805C83.8537 45.0275 83.6652 45.1133 83.4986 45.2332L78.3744 48.9211L73.2504 45.2332C73.0839 45.1133 72.8954 45.0274 72.6956 44.9804C72.4959 44.9333 72.2888 44.9261 72.0863 44.9591C71.8838 44.9921 71.6898 45.0647 71.5153 45.1727C71.3408 45.2808 71.1894 45.4221 71.0695 45.5887C70.9497 45.7552 70.8637 45.9437 70.8167 46.1435C70.7697 46.3432 70.7625 46.5503 70.7955 46.7528C70.8285 46.9554 70.9011 47.1494 71.0091 47.3239C71.1171 47.4984 71.2584 47.6499 71.425 47.7697L76.8119 51.6469V64.424H69.317C68.9721 64.424 68.6354 64.459 68.3098 64.5248C67.2393 60.3563 65.7193 57.3123 64.3611 54.599C62.7271 51.3344 61.4363 48.7559 61.4363 45.2555C61.4363 35.9158 69.0346 28.3176 78.3744 28.3176C87.7143 28.3176 95.3125 35.9158 95.3125 45.2555C95.3125 48.7584 94.0209 51.341 92.3857 54.6109C91.0309 57.3199 89.5121 60.3637 88.4414 64.5252H88.4412ZM34.2402 60.3361C28.9039 60.3361 24.5625 64.6775 24.5625 70.0137C24.5625 75.3498 28.9039 79.6912 34.2402 79.6912C39.5766 79.6912 43.9178 75.3498 43.9178 70.0137C43.9178 64.6775 39.5764 60.3361 34.2402 60.3361ZM34.2402 76.5664C30.6271 76.5664 27.6875 73.627 27.6875 70.0139C27.6875 66.4008 30.6271 63.4613 34.2402 63.4613C37.8533 63.4613 40.7928 66.4008 40.7928 70.0139C40.7928 73.627 37.8533 76.5664 34.2402 76.5664ZM37.9131 67.3746C38.2061 67.6676 38.3707 68.065 38.3707 68.4794C38.3707 68.8938 38.2061 69.2912 37.9131 69.5842L34.0604 73.4367C33.7553 73.7418 33.3555 73.8943 32.9557 73.8943C32.5559 73.8943 32.1559 73.7418 31.851 73.4367L30.0891 71.6748C29.9439 71.5297 29.8288 71.3575 29.7503 71.1679C29.6717 70.9784 29.6313 70.7752 29.6313 70.57C29.6313 70.3648 29.6717 70.1617 29.7503 69.9721C29.8288 69.7825 29.9439 69.6103 30.0891 69.4652C30.6994 68.8553 31.6887 68.8547 32.2986 69.4652L32.9559 70.1223L35.7037 67.3746C35.8488 67.2295 36.021 67.1144 36.2106 67.0359C36.4001 66.9574 36.6033 66.917 36.8085 66.917C37.0137 66.917 37.2169 66.9574 37.4064 67.0359C37.596 67.1144 37.768 67.2295 37.9131 67.3746ZM49.1861 10.5324C46.5783 10.5324 44.4568 12.6539 44.4568 15.2615C44.4568 17.8691 46.5783 19.9908 49.1861 19.9908C51.7939 19.9908 53.9154 17.8693 53.9154 15.2615C53.9154 12.6537 51.7939 10.5324 49.1861 10.5324ZM49.1861 16.8658C48.3016 16.8658 47.5818 16.1461 47.5818 15.2615C47.5818 14.377 48.3016 13.6574 49.1861 13.6574C50.0707 13.6574 50.7904 14.3771 50.7904 15.2615C50.7904 16.1459 50.0707 16.8658 49.1861 16.8658Z" fill="#FFB661"/>
</svg>
