<svg width="125" height="125" viewBox="0 0 125 125" fill="none" xmlns="http://www.w3.org/2000/svg">
<path d="M109.174 16.2555H107.691C110.518 11.6528 109.474 5.47345 104.937 2.10706C100.048 -1.51982 93.1006 -0.352364 89.6888 4.74617L81.9873 16.2557H15.8272C10.3891 16.2557 5.96484 20.6799 5.96484 26.1181V89.172C5.96484 94.6101 10.3891 99.0344 15.8272 99.0344H54.1355L51.2411 111.192H44.9939C40.9224 111.192 37.61 114.504 37.61 118.575V120.117H29.9087C28.5603 120.117 27.4674 121.21 27.4674 122.558C27.4674 123.906 28.5603 125 29.9087 125H95.0927C96.4411 125 97.5341 123.906 97.5341 122.558C97.5341 121.21 96.4411 120.117 95.0927 120.117H87.3915V118.575C87.3915 114.504 84.079 111.192 80.0076 111.192H73.7604L70.8659 99.0344H109.174C114.612 99.0344 119.037 94.6101 119.037 89.172V26.1178C119.037 20.6797 114.612 16.2555 109.174 16.2555ZM74.1937 59.1743C70.3767 61.8464 63.2257 58.2144 56.3967 61.8583C54.7305 53.2025 55.781 45.0618 64.4539 43.2649C65.5748 43.0313 66.7815 42.9256 67.8088 42.9461L76.6407 49.499C77.9222 53.2264 77.4412 56.9012 74.1937 59.1743ZM76.6541 33.0059L83.5649 38.1332L78.2503 44.6128L71.9936 39.9706L76.6541 33.0059ZM93.7471 7.46169C95.5962 4.69783 99.3673 4.05478 102.027 6.02862C104.688 8.0027 105.165 11.798 103.056 14.369L86.6647 34.3537L79.3723 28.9432L93.7471 7.46169ZM82.5085 118.575V120.117H42.4927V118.575C42.4927 117.196 43.6147 116.074 44.9939 116.074H80.0073C81.3865 116.074 82.5085 117.196 82.5085 118.575ZM68.741 111.192H56.2603L59.1547 99.0344H65.8465L68.741 111.192ZM114.154 89.172C114.154 91.9178 111.92 94.1517 109.174 94.1517H15.8274C13.0816 94.1517 10.8478 91.9178 10.8478 89.172V77.7391H17.8242C19.1726 77.7391 20.2656 76.6459 20.2656 75.2978C20.2656 73.9496 19.1726 72.8564 17.8242 72.8564H10.8473V26.1178C10.8473 23.372 13.0812 21.1382 15.827 21.1382H78.72L67.3965 38.0602C62.6122 38.1034 57.8357 39.7701 54.7088 43.4205C50.4537 48.3874 49.7062 56.1919 52.4869 66.617C52.9622 68.3997 55.1865 69.0384 56.5325 67.7527C62.8451 61.7209 70.7072 68.3003 77.7479 62.6017C82.0456 59.1228 83.0627 53.5921 81.4421 48.4204L103.819 21.1382H109.174C111.92 21.1382 114.153 23.372 114.153 26.1178V72.8562H37.3546C36.0063 72.8562 34.9133 73.9494 34.9133 75.2975C34.9133 76.6456 36.0063 77.7389 37.3546 77.7389H114.154V89.172Z" fill="#FFB661"/>
<path d="M27.1172 72.9035C26.5633 73.0137 26.0647 73.3127 25.7068 73.7496C25.3488 74.1864 25.1535 74.734 25.1543 75.2988C25.1543 76.8259 26.5505 77.9953 28.0718 77.6913C28.7066 77.5646 29.2651 77.191 29.6245 76.6526C29.9839 76.1142 30.1147 75.4551 29.9883 74.8202C29.7166 73.4848 28.4211 72.641 27.1172 72.9035Z" fill="#FFB661"/>
</svg>
