<svg width="100" height="100" viewBox="0 0 100 100" fill="none" xmlns="http://www.w3.org/2000/svg">
<path d="M87.3388 13.0044H86.1523C88.414 9.32222 87.5788 4.37876 83.949 1.68565C80.038 -1.21586 74.4801 -0.281891 71.7506 3.79694L65.5894 13.0046H12.6614C8.31087 13.0046 4.77148 16.544 4.77148 20.8945V71.3376C4.77148 75.6881 8.31087 79.2275 12.6614 79.2275H43.308L40.9925 88.9533H35.9947C32.7375 88.9533 30.0876 91.603 30.0876 94.8602V96.0936H23.9266C22.8479 96.0936 21.9735 96.9682 21.9735 98.0467C21.9735 99.1252 22.8479 99.9997 23.9266 99.9997H76.0738C77.1525 99.9997 78.0269 99.1252 78.0269 98.0467C78.0269 96.9682 77.1525 96.0936 76.0738 96.0936H69.9128V94.8602C69.9128 91.603 67.2628 88.9533 64.0057 88.9533H59.0079L56.6923 79.2275H87.339C91.6895 79.2275 95.2289 75.6881 95.2289 71.3376V20.8943C95.2289 16.5438 91.6895 13.0044 87.3388 13.0044ZM59.3546 47.3394C56.3009 49.4771 50.5802 46.5715 45.117 49.4867C43.784 42.562 44.6244 36.0494 51.5628 34.612C52.4594 34.425 53.4248 34.3405 54.2467 34.3569L61.3122 39.5992C62.3374 42.5811 61.9526 45.5209 59.3546 47.3394ZM61.3229 26.4047L66.8515 30.5066L62.5998 35.6903L57.5945 31.9765L61.3229 26.4047ZM74.9973 5.96935C76.4765 3.75826 79.4935 3.24382 81.6215 4.82289C83.7504 6.40216 84.1316 9.43843 82.4448 11.4952L69.3314 27.483L63.4975 23.1546L74.9973 5.96935ZM66.0064 94.8602V96.0936H33.9938V94.8602C33.9938 93.7571 34.8914 92.8595 35.9947 92.8595H64.0055C65.1088 92.8595 66.0064 93.7571 66.0064 94.8602ZM54.9924 88.9533H45.0078L47.3234 79.2275H52.6768L54.9924 88.9533ZM91.3227 71.3376C91.3227 73.5342 89.5356 75.3213 87.339 75.3213H12.6616C10.4649 75.3213 8.67785 73.5342 8.67785 71.3376V62.1913H14.259C15.3377 62.1913 16.2121 61.3167 16.2121 60.2382C16.2121 59.1597 15.3377 58.2851 14.259 58.2851H8.67746V20.8943C8.67746 18.6976 10.4645 16.9105 12.6612 16.9105H62.9756L53.9168 30.4482C50.0893 30.4827 46.2681 31.8161 43.7666 34.7364C40.3626 38.7099 39.7645 44.9536 41.9891 53.2936C42.3694 54.7198 44.1488 55.2307 45.2256 54.2022C50.2757 49.3767 56.5654 54.6403 62.1979 50.0814C65.6361 47.2982 66.4498 42.8737 65.1533 38.7363L83.0549 16.9105H87.3386C89.5353 16.9105 91.3223 18.6976 91.3223 20.8943V58.2849H29.8833C28.8046 58.2849 27.9302 59.1595 27.9302 60.238C27.9302 61.3165 28.8046 62.1911 29.8833 62.1911H91.3227V71.3376Z" fill="#FFB661"/>
<path d="M21.6943 58.3229C21.2512 58.4111 20.8524 58.6503 20.566 58.9998C20.2796 59.3492 20.1234 59.7873 20.124 60.2391C20.124 61.4608 21.241 62.3963 22.458 62.1532C22.9659 62.0518 23.4127 61.7529 23.7002 61.3222C23.9877 60.8915 24.0924 60.3642 23.9912 59.8563C23.7738 58.7879 22.7375 58.1129 21.6943 58.3229Z" fill="#FFB661"/>
</svg>
