<svg width="50" height="50" viewBox="0 0 50 50" fill="none" xmlns="http://www.w3.org/2000/svg">
<path d="M43.6694 6.50219H43.0762C44.207 4.66111 43.7894 2.18938 41.9745 0.842824C40.019 -0.607928 37.24 -0.140945 35.8753 1.89847L32.7947 6.50228H6.33068C4.15543 6.50228 2.38574 8.27198 2.38574 10.4472V35.6688C2.38574 37.8441 4.15543 39.6137 6.33068 39.6137H21.654L20.4962 44.4766H17.9973C16.3688 44.4766 15.0438 45.8015 15.0438 47.4301V48.0468H11.9633C11.4239 48.0468 10.9867 48.4841 10.9867 49.0233C10.9867 49.5626 11.4239 49.9999 11.9633 49.9999H38.0369C38.5762 49.9999 39.0134 49.5626 39.0134 49.0233C39.0134 48.4841 38.5762 48.0468 38.0369 48.0468H34.9564V47.4301C34.9564 45.8015 33.6314 44.4766 32.0028 44.4766H29.504L28.3462 39.6137H43.6695C45.8448 39.6137 47.6144 37.8441 47.6144 35.6688V10.4471C47.6144 8.27188 45.8448 6.50219 43.6694 6.50219ZM29.6773 23.6697C28.1505 24.7385 25.2901 23.2857 22.5585 24.7433C21.892 21.281 22.3122 18.0247 25.7814 17.306C26.2297 17.2125 26.7124 17.1702 27.1233 17.1784L30.6561 19.7996C31.1687 21.2906 30.9763 22.7605 29.6773 23.6697ZM30.6615 13.2023L33.4258 15.2533L31.2999 17.8451L28.7972 15.9882L30.6615 13.2023ZM37.4986 2.98468C38.2383 1.87913 39.7467 1.62191 40.8108 2.41145C41.8752 3.20108 42.0658 4.71921 41.2224 5.74761L34.6657 13.7415L31.7487 11.5773L37.4986 2.98468ZM33.0032 47.4301V48.0468H16.9969V47.4301C16.9969 46.8785 17.4457 46.4297 17.9973 46.4297H32.0027C32.5544 46.4297 33.0032 46.8785 33.0032 47.4301ZM27.4962 44.4766H22.5039L23.6617 39.6137H26.3384L27.4962 44.4766ZM45.6614 35.6688C45.6614 36.7671 44.7678 37.6607 43.6695 37.6607H6.33078C5.23246 37.6607 4.33893 36.7671 4.33893 35.6688V31.0957H7.1295C7.66884 31.0957 8.10604 30.6584 8.10604 30.1191C8.10604 29.5799 7.66884 29.1426 7.1295 29.1426H4.33873V10.4471C4.33873 9.34881 5.23227 8.45527 6.33059 8.45527H31.4878L26.9584 15.2241C25.0447 15.2414 23.1341 15.9081 21.8833 17.3682C20.1813 19.355 19.8823 22.4768 20.9946 26.6468C21.1847 27.3599 22.0744 27.6153 22.6128 27.1011C25.1378 24.6884 28.2827 27.3201 31.099 25.0407C32.8181 23.6491 33.2249 21.4369 32.5767 19.3681L41.5275 8.45527H43.6693C44.7676 8.45527 45.6612 9.34881 45.6612 10.4471V29.1425H14.9416C14.4023 29.1425 13.9651 29.5798 13.9651 30.119C13.9651 30.6583 14.4023 31.0956 14.9416 31.0956H45.6614V35.6688Z" fill="black"/>
<path d="M10.8472 29.1617C10.6256 29.2058 10.4262 29.3254 10.283 29.5001C10.1398 29.6749 10.0617 29.8939 10.062 30.1198C10.062 30.7306 10.6205 31.1984 11.229 31.0768C11.4829 31.0261 11.7063 30.8767 11.8501 30.6613C11.9938 30.446 12.0462 30.1823 11.9956 29.9284C11.8869 29.3942 11.3688 29.0567 10.8472 29.1617Z" fill="black"/>
</svg>
