<svg width="100" height="100" viewBox="0 0 100 100" fill="none" xmlns="http://www.w3.org/2000/svg">
<path d="M39.9037 68.8981C39.5285 68.8982 39.1656 68.7643 38.8804 68.5205L28.6517 59.8109C28.4774 59.6625 28.3374 59.478 28.2414 59.2702C28.1454 59.0624 28.0957 58.8362 28.0957 58.6073C28.0957 58.3784 28.1454 58.1522 28.2414 57.9444C28.3374 57.7366 28.4774 57.5521 28.6517 57.4037L38.8804 48.6941C39.1994 48.4223 39.6134 48.2884 40.0313 48.3217C40.4491 48.3551 40.8366 48.5531 41.1085 48.8721C41.6739 49.5373 41.5944 50.5347 40.9294 51.1002L32.1148 58.6069L40.9294 66.1133C41.1759 66.323 41.3521 66.6033 41.4342 66.9164C41.5163 67.2294 41.5004 67.5601 41.3885 67.8638C41.2766 68.1675 41.0742 68.4295 40.8087 68.6145C40.5431 68.7994 40.2274 68.8984 39.9037 68.8981ZM60.0959 68.8981C59.6488 68.8981 59.2044 68.7093 58.8921 68.3414C58.6203 68.0223 58.4864 67.6083 58.5198 67.1905C58.5532 66.7727 58.7512 66.3852 59.0703 66.1133L67.8849 58.6069L59.0703 51.1002C58.7626 50.8252 58.5746 50.4408 58.5466 50.029C58.5185 49.6173 58.6526 49.2109 58.9201 48.8968C59.1877 48.5826 59.5675 48.3855 59.9784 48.3476C60.3894 48.3096 60.7988 48.434 61.1193 48.6939L71.348 57.4035C71.5223 57.5519 71.6623 57.7364 71.7583 57.9442C71.8543 58.152 71.904 58.3782 71.904 58.6071C71.904 58.836 71.8543 59.0622 71.7583 59.27C71.6623 59.4778 71.5223 59.6623 71.348 59.8107L61.1193 68.5203C60.8342 68.7641 60.4713 68.8981 60.0962 68.8981H60.0959ZM46.3789 75.4308C46.1435 75.4311 45.9109 75.3788 45.6983 75.2777C45.4856 75.1767 45.2983 75.0294 45.1498 74.8466C45.0013 74.6639 44.8956 74.4503 44.8402 74.2214C44.7849 73.9926 44.7813 73.7542 44.8299 73.5239L51.2046 43.2568C51.291 42.8465 51.5369 42.4874 51.8881 42.2585C52.2393 42.0295 52.6671 41.9495 53.0773 42.0359C53.4876 42.1224 53.8467 42.3683 54.0756 42.7195C54.3046 43.0707 54.3846 43.4985 54.2982 43.9087L47.9235 74.1755C47.8489 74.5301 47.6547 74.8483 47.3736 75.0768C47.0924 75.3053 46.7413 75.4303 46.3789 75.4308Z" fill="#FFB661"/>
<path d="M87.2594 91.9202H12.7411C6.88942 91.9202 2.12793 87.1596 2.12793 81.307V18.06C2.12793 12.2083 6.88942 7.44678 12.7411 7.44678H87.2594C93.1111 7.44678 97.8726 12.2083 97.8726 18.06V81.307C97.8726 87.1596 93.1111 91.9202 87.2594 91.9202ZM12.7411 10.6082C8.63247 10.6082 5.28931 13.9513 5.28931 18.06V81.307C5.28931 85.4157 8.63247 88.7589 12.7411 88.7589H87.2594C91.3681 88.7589 94.7112 85.4157 94.7112 81.307V18.06C94.7112 13.9513 91.3681 10.6082 87.2594 10.6082H12.7411Z" fill="#FFB661"/>
<path d="M96.2918 32.7581H3.70849C3.2939 32.7511 2.89865 32.5815 2.60793 32.2858C2.31721 31.9902 2.1543 31.5921 2.1543 31.1774C2.1543 30.7628 2.31721 30.3647 2.60793 30.0691C2.89865 29.7734 3.2939 29.6038 3.70849 29.5968H96.2918C96.7064 29.6038 97.1016 29.7734 97.3924 30.0691C97.6831 30.3647 97.846 30.7628 97.846 31.1774C97.846 31.5921 97.6831 31.9902 97.3924 32.2858C97.1016 32.5815 96.7064 32.7511 96.2918 32.7581ZM29.1355 25.1943C26.3781 25.1943 24.133 22.9493 24.133 20.1919C24.133 17.4338 26.3781 15.1897 29.1355 15.1897C31.8936 15.1897 34.1377 17.4338 34.1377 20.1919C34.1377 22.9493 31.8936 25.1943 29.1355 25.1943ZM29.1355 18.351C28.1209 18.351 27.2944 19.1766 27.2944 20.1919C27.2944 21.2071 28.1209 22.0329 29.1355 22.0329C30.1507 22.0329 30.9763 21.2074 30.9763 20.1919C30.9763 19.1764 30.1507 18.351 29.1355 18.351ZM13.7662 25.1458C11.0077 25.1458 8.76377 22.9016 8.76377 20.1435C8.76377 17.3852 11.0077 15.1411 13.766 15.1411C16.5243 15.1411 18.7682 17.3852 18.7682 20.1435C18.7682 22.9016 16.5245 25.1458 13.7662 25.1458ZM13.7662 18.3025C12.7516 18.3025 11.9251 19.129 11.9251 20.1435C11.9251 21.1588 12.7516 21.9844 13.766 21.9844C14.7812 21.9844 15.6068 21.1588 15.6068 20.1435C15.6068 19.129 14.7815 18.3025 13.7662 18.3025ZM44.5048 25.242C41.7476 25.242 39.5035 22.9978 39.5035 20.2395C39.5035 17.4823 41.7474 15.2382 44.5048 15.2382C47.2631 15.2382 49.507 17.4821 49.507 20.2395C49.507 22.9978 47.2631 25.242 44.5048 25.242ZM44.5048 18.3987C43.4904 18.3987 42.6648 19.2243 42.6648 20.2395C42.6648 21.2548 43.4904 22.0806 44.5048 22.0806C45.52 22.0806 46.3456 21.2548 46.3456 20.2395C46.3456 19.2243 45.52 18.3987 44.5048 18.3987Z" fill="#FFB661"/>
</svg>
