<svg width="100" height="100" viewBox="0 0 100 100" fill="none" xmlns="http://www.w3.org/2000/svg">
<g clip-path="url(#clip0_0_7)">
<path d="M93.637 48.8859C81.5532 24.7182 81.9243 25.4543 81.8471 25.3178C81.3139 24.374 80.3196 23.8285 79.2977 23.8285C78.8733 23.8285 20.6676 23.8211 20.4389 23.8418C19.45 23.9289 18.5692 24.5184 18.1063 25.4041C18.0987 25.4189 18.0899 25.433 18.0825 25.4479L6.36352 48.8857C6.35415 48.9043 6.34634 48.9234 6.33755 48.9422C6.33052 48.9566 6.3227 48.9707 6.31606 48.9854C6.31118 48.9959 6.30766 49.0068 6.30298 49.0174C6.08138 49.5203 6.00597 50.0754 6.08539 50.6192C6.1648 51.1629 6.39584 51.6733 6.752 52.0918C6.76118 52.1029 6.76958 52.1145 6.77915 52.1252L47.7954 99.001C47.8002 99.0064 47.8057 99.0111 47.8106 99.0166C48.9616 100.312 51.0104 100.344 52.1897 99.0166C52.1946 99.0111 52.2 99.0064 52.2049 99.001L93.2211 52.1252C93.2233 52.1228 93.2253 52.1203 93.2272 52.1178C93.9756 51.257 94.1834 49.9791 93.637 48.8859ZM74.5573 29.6879L67.0782 44.6459L55.8596 29.6879H74.5573ZM61.7192 47.2664H38.2813L50.0002 31.6412L61.7192 47.2664ZM44.1409 29.6879L32.9223 44.6457L25.4434 29.6879H44.1409ZM20.703 33.3094L27.6817 47.2664H13.7245L20.703 33.3094ZM15.4405 53.1258H30.3915L41.6047 83.0279L15.4405 53.1258ZM50.0002 88.7279L36.6495 53.1258H63.351L50.0002 88.7279ZM58.3957 83.0281L69.609 53.126H84.56L58.3957 83.0281ZM72.3192 47.2664L79.2977 33.3094L86.2764 47.2664H72.3192ZM50.0002 0C48.3823 0 47.0706 1.31172 47.0706 2.92969V11.7189C47.0706 13.3369 48.3823 14.6486 50.0002 14.6486C51.6182 14.6486 52.9299 13.3369 52.9299 11.7189V2.92969C52.9299 1.31172 51.6182 0 50.0002 0ZM40.353 12.5771L34.4936 6.71777C33.3497 5.57383 31.4946 5.57383 30.3504 6.71777C29.2063 7.86191 29.2063 9.7168 30.3504 10.8609L36.2098 16.7203C37.354 17.8645 39.2088 17.8645 40.353 16.7203C41.4971 15.5762 41.4971 13.7213 40.353 12.5771ZM69.6502 6.71777C68.5063 5.57383 66.6512 5.57383 65.5071 6.71777L59.6477 12.5771C58.5036 13.7213 58.5036 15.5762 59.6477 16.7203C60.7918 17.8645 62.6469 17.8643 63.7909 16.7203L69.6502 10.8609C70.7944 9.7168 70.7944 7.86191 69.6502 6.71777Z" fill="#FFB661"/>
</g>
<defs>
<clipPath id="clip0_0_7">
<rect width="100" height="100" fill="white"/>
</clipPath>
</defs>
</svg>
