<svg width="80" height="80" viewBox="0 0 80 80" fill="none" xmlns="http://www.w3.org/2000/svg">
<path d="M79.4914 38.4439C78.7767 37.4663 61.7481 14.5055 39.9995 14.5055C18.2509 14.5055 1.22155 37.4663 0.507641 38.443C0.177764 38.8949 0 39.44 0 39.9995C0 40.559 0.177764 41.104 0.507641 41.556C1.22155 42.5336 18.2509 65.4944 39.9995 65.4944C61.7481 65.4944 78.7767 42.5335 79.4914 41.5567C79.8217 41.105 79.9998 40.5599 79.9998 40.0003C79.9998 39.4407 79.8217 38.8956 79.4914 38.4439ZM39.9995 60.2197C23.9794 60.2197 10.1042 44.9802 5.99686 39.9982C10.0989 35.0117 23.945 19.7802 39.9995 19.7802C56.0189 19.7802 69.8931 35.0171 74.0022 40.0017C69.9001 44.988 56.054 60.2197 39.9995 60.2197Z" fill="#FFB661"/>
<path d="M40 24.1759C31.2747 24.1759 24.1758 31.2748 24.1758 40.0001C24.1758 48.7254 31.2747 55.8243 40 55.8243C48.7253 55.8243 55.8242 48.7254 55.8242 40.0001C55.8242 31.2748 48.7253 24.1759 40 24.1759ZM40 50.5495C34.1828 50.5495 29.4506 45.8172 29.4506 40.0001C29.4506 34.1831 34.183 29.4507 40 29.4507C45.817 29.4507 50.5494 34.1831 50.5494 40.0001C50.5494 45.8172 45.8172 50.5495 40 50.5495Z" fill="#FFB661"/>
</svg>
