<svg width="50" height="50" viewBox="0 0 50 50" fill="none" xmlns="http://www.w3.org/2000/svg">
<g clip-path="url(#clip0_0_21)">
<path d="M49.6821 24.0279C49.2354 23.4169 38.5926 9.06641 24.9997 9.06641C11.4068 9.06641 0.763467 23.4169 0.317275 24.0273C0.111103 24.3098 0 24.6505 0 25.0001C0 25.3498 0.111103 25.6905 0.317275 25.9729C0.763467 26.584 11.4068 40.9345 24.9997 40.9345C38.5926 40.9345 49.2354 26.5839 49.6821 25.9734C49.8886 25.6911 49.9998 25.3504 49.9998 25.0007C49.9998 24.6509 49.8886 24.3102 49.6821 24.0279ZM24.9997 37.6378C14.9871 37.6378 6.31513 28.1131 3.74804 24.9993C6.31181 21.8828 14.9656 12.3631 24.9997 12.3631C35.0118 12.3631 43.6832 21.8861 46.2514 25.0016C43.6876 28.118 35.0338 37.6378 24.9997 37.6378Z" fill="black"/>
<path d="M24.9995 15.1113C19.5462 15.1113 15.1094 19.5481 15.1094 25.0015C15.1094 30.4548 19.5462 34.8916 24.9995 34.8916C30.4528 34.8916 34.8896 30.4548 34.8896 25.0015C34.8896 19.5481 30.4528 15.1113 24.9995 15.1113ZM24.9995 31.5948C21.3638 31.5948 18.4062 28.6371 18.4062 25.0015C18.4062 21.3658 21.3639 18.4081 24.9995 18.4081C28.6352 18.4081 31.5929 21.3658 31.5929 25.0015C31.5929 28.6371 28.6353 31.5948 24.9995 31.5948Z" fill="black"/>
</g>
<defs>
<clipPath id="clip0_0_21">
<rect width="50" height="50" fill="white"/>
</clipPath>
</defs>
</svg>
