<svg width="80" height="80" viewBox="0 0 80 80" fill="none" xmlns="http://www.w3.org/2000/svg">
<path d="M79.4914 38.4438C78.7767 37.4662 61.7481 14.5054 39.9995 14.5054C18.2509 14.5054 1.22155 37.4662 0.507641 38.4429C0.177764 38.8948 0 39.4398 0 39.9994C0 40.5589 0.177764 41.1039 0.507641 41.5558C1.22155 42.5335 18.2509 65.4943 39.9995 65.4943C61.7481 65.4943 78.7767 42.5333 79.4914 41.5566C79.8217 41.1049 79.9998 40.5598 79.9998 40.0002C79.9998 39.4406 79.8217 38.8955 79.4914 38.4438ZM39.9995 60.2196C23.9794 60.2196 10.1042 44.9801 5.99686 39.998C10.0989 35.0116 23.945 19.7801 39.9995 19.7801C56.0189 19.7801 69.8931 35.0169 74.0022 40.0016C69.9001 44.9879 56.054 60.2196 39.9995 60.2196Z" fill="#FFB661"/>
<path d="M40 24.1758C31.2747 24.1758 24.1758 31.2747 24.1758 40C24.1758 48.7253 31.2747 55.8242 40 55.8242C48.7253 55.8242 55.8242 48.7253 55.8242 40C55.8242 31.2747 48.7253 24.1758 40 24.1758ZM40 50.5494C34.1828 50.5494 29.4506 45.817 29.4506 40C29.4506 34.183 34.183 29.4506 40 29.4506C45.817 29.4506 50.5494 34.183 50.5494 40C50.5494 45.817 45.8172 50.5494 40 50.5494Z" fill="#FFB661"/>
</svg>
