<svg width="80" height="80" viewBox="0 0 80 80" fill="none" xmlns="http://www.w3.org/2000/svg">
<path fill-rule="evenodd" clip-rule="evenodd" d="M69.1673 66.6667C69.1673 69.0967 68.2007 71.4301 66.484 73.1501C64.7632 74.8674 62.4318 75.8324 60.0007 75.8334H20.0007C17.5707 75.8334 15.2373 74.8668 13.5173 73.1501C11.8 71.4293 10.835 69.0978 10.834 66.6667V13.3334C10.834 10.9034 11.8007 8.57008 13.5173 6.85008C15.2381 5.13273 17.5696 4.16777 20.0007 4.16675H48.6207C50.1673 4.16675 51.6507 4.78008 52.744 5.87675L67.4573 20.5901C68.554 21.6834 69.1673 23.1667 69.1673 24.7134V66.6667ZM64.1673 66.6667V24.7134C64.1675 24.6039 64.1461 24.4954 64.1044 24.3942C64.0626 24.293 64.0013 24.2009 63.924 24.1234L49.2106 9.41008C49.1331 9.33275 49.0411 9.27145 48.9399 9.2297C48.8386 9.18794 48.7302 9.16655 48.6207 9.16675H20.0007C18.8961 9.16851 17.8373 9.60806 17.0563 10.3891C16.2753 11.1701 15.8357 12.2289 15.834 13.3334V66.6667C15.8357 67.7713 16.2753 68.8301 17.0563 69.6111C17.8373 70.3921 18.8961 70.8317 20.0007 70.8334H60.0007C61.1052 70.8317 62.164 70.3921 62.945 69.6111C63.726 68.8301 64.1656 67.7713 64.1673 66.6667Z" fill="#FFB661"/>
<path fill-rule="evenodd" clip-rule="evenodd" d="M47.5013 8.3335C47.5013 7.67045 47.7647 7.03457 48.2335 6.56573C48.7024 6.09689 49.3383 5.8335 50.0013 5.8335C50.6643 5.8335 51.3002 6.09689 51.7691 6.56573C52.2379 7.03457 52.5013 7.67045 52.5013 8.3335V20.0002C52.5013 20.4602 52.8746 20.8335 53.3346 20.8335H65.0013C65.6643 20.8335 66.3002 21.0969 66.7691 21.5657C67.2379 22.0346 67.5013 22.6705 67.5013 23.3335C67.5013 23.9965 67.2379 24.6324 66.7691 25.1013C66.3002 25.5701 65.6643 25.8335 65.0013 25.8335H53.3346C51.7875 25.8335 50.3038 25.2189 49.2098 24.125C48.1159 23.031 47.5013 21.5473 47.5013 20.0002V8.3335ZM26.668 37.5002C26.0049 37.5002 25.369 37.2368 24.9002 36.7679C24.4314 36.2991 24.168 35.6632 24.168 35.0002C24.168 34.3371 24.4314 33.7012 24.9002 33.2324C25.369 32.7636 26.0049 32.5002 26.668 32.5002H53.3346C53.9977 32.5002 54.6336 32.7636 55.1024 33.2324C55.5712 33.7012 55.8346 34.3371 55.8346 35.0002C55.8346 35.6632 55.5712 36.2991 55.1024 36.7679C54.6336 37.2368 53.9977 37.5002 53.3346 37.5002H26.668ZM26.668 49.1668C26.0049 49.1668 25.369 48.9034 24.9002 48.4346C24.4314 47.9658 24.168 47.3299 24.168 46.6668C24.168 46.0038 24.4314 45.3679 24.9002 44.8991C25.369 44.4302 26.0049 44.1668 26.668 44.1668H53.3346C53.9977 44.1668 54.6336 44.4302 55.1024 44.8991C55.5712 45.3679 55.8346 46.0038 55.8346 46.6668C55.8346 47.3299 55.5712 47.9658 55.1024 48.4346C54.6336 48.9034 53.9977 49.1668 53.3346 49.1668H26.668ZM26.668 60.8335C26.0049 60.8335 25.369 60.5701 24.9002 60.1013C24.4314 59.6324 24.168 58.9965 24.168 58.3335C24.168 57.6705 24.4314 57.0346 24.9002 56.5657C25.369 56.0969 26.0049 55.8335 26.668 55.8335H41.668C42.331 55.8335 42.9669 56.0969 43.4357 56.5657C43.9046 57.0346 44.168 57.6705 44.168 58.3335C44.168 58.9965 43.9046 59.6324 43.4357 60.1013C42.9669 60.5701 42.331 60.8335 41.668 60.8335H26.668Z" fill="#FFB661"/>
</svg>
