<svg width="100" height="100" viewBox="0 0 100 100" fill="none" xmlns="http://www.w3.org/2000/svg">
<path d="M45.834 84.3749C45.0052 84.3749 44.2103 84.0457 43.6243 83.4596C43.0382 82.8736 42.709 82.0787 42.709 81.2499V77.0833C42.709 74.5968 41.7213 72.2123 39.9631 70.4541C38.205 68.696 35.8204 67.7083 33.334 67.7083C30.8476 67.7083 28.463 68.696 26.7049 70.4541C24.9467 72.2123 23.959 74.5968 23.959 77.0833V81.2499C23.959 82.0787 23.6297 82.8736 23.0437 83.4596C22.4576 84.0457 21.6628 84.3749 20.834 84.3749C20.0052 84.3749 19.2103 84.0457 18.6243 83.4596C18.0382 82.8736 17.709 82.0787 17.709 81.2499V77.0833C17.709 72.9392 19.3552 68.965 22.2854 66.0347C25.2157 63.1045 29.19 61.4583 33.334 61.4583C37.478 61.4583 41.4523 63.1045 44.3825 66.0347C47.3128 68.965 48.959 72.9392 48.959 77.0833V81.2499C48.959 82.0787 48.6297 82.8736 48.0437 83.4596C47.4576 84.0457 46.6628 84.3749 45.834 84.3749Z" fill="#FFB661"/>
<path d="M33.3346 67.7083C30.6564 67.7083 28.0382 66.9141 25.8113 65.4262C23.5844 63.9382 21.8487 61.8233 20.8238 59.3488C19.7988 56.8744 19.5307 54.1517 20.0532 51.5248C20.5757 48.898 21.8654 46.4851 23.7592 44.5913C25.6531 42.6974 28.066 41.4077 30.6928 40.8852C33.3196 40.3627 36.0424 40.6309 38.5168 41.6558C40.9912 42.6807 43.1061 44.4164 44.5941 46.6433C46.0821 48.8702 46.8763 51.4884 46.8763 54.1667C46.8719 57.7568 45.4438 61.1986 42.9052 63.7372C40.3666 66.2758 36.9248 67.7039 33.3346 67.7083ZM33.3346 46.875C31.8925 46.875 30.4827 47.3027 29.2836 48.1039C28.0845 48.9051 27.1499 50.0439 26.598 51.3763C26.0461 52.7087 25.9017 54.1748 26.1831 55.5892C26.4644 57.0037 27.1589 58.3029 28.1787 59.3227C29.1984 60.3424 30.4977 61.0369 31.9121 61.3182C33.3266 61.5996 34.7927 61.4552 36.125 60.9033C37.4574 60.3514 38.5962 59.4168 39.3974 58.2177C40.1987 57.0186 40.6263 55.6088 40.6263 54.1667C40.6241 52.2335 39.8552 50.3801 38.4882 49.0131C37.1212 47.6461 35.2678 46.8772 33.3346 46.875Z" fill="#FFB661"/>
<path d="M83.334 94.7916H16.6673C13.6291 94.7894 10.7159 93.5815 8.56749 91.4331C6.41911 89.2847 5.21119 86.3715 5.20898 83.3333V29.1666C5.21119 26.1283 6.41911 23.2151 8.56749 21.0668C10.7159 18.9184 13.6291 17.7105 16.6673 17.7083H39.584C40.4128 17.7083 41.2076 18.0375 41.7937 18.6235C42.3797 19.2096 42.709 20.0045 42.709 20.8333C42.709 21.6621 42.3797 22.4569 41.7937 23.043C41.2076 23.629 40.4128 23.9583 39.584 23.9583H16.6673C15.2867 23.9605 13.9632 24.5099 12.9869 25.4862C12.0106 26.4624 11.4612 27.7859 11.459 29.1666V83.3333C11.4612 84.7139 12.0106 86.0374 12.9869 87.0137C13.9632 87.9899 15.2867 88.5394 16.6673 88.5416H83.334C84.7146 88.5394 86.0381 87.9899 87.0144 87.0137C87.9907 86.0374 88.5401 84.7139 88.5423 83.3333V29.1666C88.5401 27.7859 87.9907 26.4624 87.0144 25.4862C86.0381 24.5099 84.7146 23.9605 83.334 23.9583H60.4173C59.5885 23.9583 58.7937 23.629 58.2076 23.043C57.6216 22.4569 57.2923 21.6621 57.2923 20.8333C57.2923 20.0045 57.6216 19.2096 58.2076 18.6235C58.7937 18.0375 59.5885 17.7083 60.4173 17.7083H83.334C86.3722 17.7105 89.2854 18.9184 91.4338 21.0668C93.5822 23.2151 94.7901 26.1283 94.7923 29.1666V83.3333C94.7901 86.3715 93.5822 89.2847 91.4338 91.4331C89.2854 93.5815 86.3722 94.7894 83.334 94.7916Z" fill="#FFB661"/>
<path d="M70.834 73.9583H56.2507C55.4219 73.9583 54.627 73.629 54.0409 73.043C53.4549 72.4569 53.1257 71.6621 53.1257 70.8333C53.1257 70.0044 53.4549 69.2096 54.0409 68.6235C54.627 68.0375 55.4219 67.7083 56.2507 67.7083H70.834C71.6628 67.7083 72.4576 68.0375 73.0437 68.6235C73.6297 69.2096 73.959 70.0044 73.959 70.8333C73.959 71.6621 73.6297 72.4569 73.0437 73.043C72.4576 73.629 71.6628 73.9583 70.834 73.9583ZM79.1673 61.4583H56.2507C55.4219 61.4583 54.627 61.129 54.0409 60.543C53.4549 59.9569 53.1257 59.1621 53.1257 58.3333C53.1257 57.5045 53.4549 56.7096 54.0409 56.1235C54.627 55.5375 55.4219 55.2083 56.2507 55.2083H79.1673C79.9961 55.2083 80.791 55.5375 81.377 56.1235C81.9631 56.7096 82.2923 57.5045 82.2923 58.3333C82.2923 59.1621 81.9631 59.9569 81.377 60.543C80.791 61.129 79.9961 61.4583 79.1673 61.4583ZM60.4173 36.4583H39.584C38.7552 36.4583 37.9603 36.129 37.3743 35.543C36.7882 34.9569 36.459 34.1621 36.459 33.3333V8.33325C36.459 7.50445 36.7882 6.70959 37.3743 6.12354C37.9603 5.53749 38.7552 5.20825 39.584 5.20825H60.4173C61.2461 5.20825 62.041 5.53749 62.627 6.12354C63.2131 6.70959 63.5423 7.50445 63.5423 8.33325V33.3333C63.5423 34.1621 63.2131 34.9569 62.627 35.543C62.041 36.129 61.2461 36.4583 60.4173 36.4583ZM42.709 30.2083H57.2923V11.4583H42.709V30.2083Z" fill="#FFB661"/>
<path d="M66.6673 36.4583H33.334C32.5052 36.4583 31.7103 36.129 31.1243 35.543C30.5382 34.9569 30.209 34.1621 30.209 33.3333C30.209 32.5045 30.5382 31.7096 31.1243 31.1235C31.7103 30.5375 32.5052 30.2083 33.334 30.2083H66.6673C67.4961 30.2083 68.291 30.5375 68.877 31.1235C69.4631 31.7096 69.7923 32.5045 69.7923 33.3333C69.7923 34.1621 69.4631 34.9569 68.877 35.543C68.291 36.129 67.4961 36.4583 66.6673 36.4583Z" fill="#FFB661"/>
</svg>
