<svg width="100" height="100" viewBox="0 0 100 100" fill="none" xmlns="http://www.w3.org/2000/svg">
<path d="M45.833 84.3752C45.0042 84.3752 44.2094 84.0459 43.6233 83.4599C43.0373 82.8738 42.708 82.079 42.708 81.2502V77.0835C42.708 74.5971 41.7203 72.2125 39.9621 70.4544C38.204 68.6962 35.8194 67.7085 33.333 67.7085C30.8466 67.7085 28.462 68.6962 26.7039 70.4544C24.9457 72.2125 23.958 74.5971 23.958 77.0835V81.2502C23.958 82.079 23.6288 82.8738 23.0427 83.4599C22.4567 84.0459 21.6618 84.3752 20.833 84.3752C20.0042 84.3752 19.2093 84.0459 18.6233 83.4599C18.0372 82.8738 17.708 82.079 17.708 81.2502V77.0835C17.708 72.9395 19.3542 68.9652 22.2845 66.035C25.2147 63.1047 29.189 61.4585 33.333 61.4585C37.477 61.4585 41.4513 63.1047 44.3816 66.035C47.3118 68.9652 48.958 72.9395 48.958 77.0835V81.2502C48.958 82.079 48.6288 82.8738 48.0427 83.4599C47.4567 84.0459 46.6618 84.3752 45.833 84.3752Z" fill="#FFB661"/>
<path d="M33.3327 67.7083C30.6544 67.7083 28.0363 66.9141 25.8093 65.4262C23.5824 63.9382 21.8468 61.8233 20.8218 59.3488C19.7969 56.8744 19.5287 54.1517 20.0512 51.5248C20.5737 48.898 21.8634 46.4851 23.7573 44.5913C25.6511 42.6974 28.064 41.4077 30.6908 40.8852C33.3177 40.3627 36.0404 40.6309 38.5149 41.6558C40.9893 42.6807 43.1042 44.4164 44.5922 46.6433C46.0802 48.8702 46.8744 51.4884 46.8744 54.1667C46.8699 57.7568 45.4418 61.1986 42.9032 63.7372C40.3646 66.2758 36.9228 67.7039 33.3327 67.7083ZM33.3327 46.875C31.8905 46.875 30.4808 47.3027 29.2817 48.1039C28.0825 48.9051 27.148 50.0439 26.5961 51.3763C26.0442 52.7087 25.8998 54.1748 26.1811 55.5892C26.4625 57.0037 27.1569 58.3029 28.1767 59.3227C29.1965 60.3424 30.4957 61.0369 31.9102 61.3182C33.3246 61.5996 34.7907 61.4552 36.1231 60.9033C37.4555 60.3514 38.5943 59.4168 39.3955 58.2177C40.1967 57.0186 40.6244 55.6088 40.6244 54.1667C40.6222 52.2335 39.8532 50.3801 38.4862 49.0131C37.1193 47.6461 35.2659 46.8772 33.3327 46.875Z" fill="#FFB661"/>
<path d="M83.333 94.7918H16.6663C13.6281 94.7896 10.7149 93.5817 8.56651 91.4333C6.41814 89.285 5.21022 86.3718 5.20801 83.3335V29.1668C5.21022 26.1286 6.41814 23.2154 8.56651 21.067C10.7149 18.9186 13.6281 17.7107 16.6663 17.7085H39.583C40.4118 17.7085 41.2067 18.0377 41.7927 18.6238C42.3788 19.2098 42.708 20.0047 42.708 20.8335C42.708 21.6623 42.3788 22.4572 41.7927 23.0432C41.2067 23.6293 40.4118 23.9585 39.583 23.9585H16.6663C15.2857 23.9607 13.9622 24.5101 12.9859 25.4864C12.0097 26.4627 11.4602 27.7862 11.458 29.1668V83.3335C11.4602 84.7142 12.0097 86.0376 12.9859 87.0139C13.9622 87.9902 15.2857 88.5396 16.6663 88.5418H83.333C84.7137 88.5396 86.0371 87.9902 87.0134 87.0139C87.9897 86.0376 88.5391 84.7142 88.5413 83.3335V29.1668C88.5391 27.7862 87.9897 26.4627 87.0134 25.4864C86.0371 24.5101 84.7137 23.9607 83.333 23.9585H60.4163C59.5875 23.9585 58.7927 23.6293 58.2066 23.0432C57.6206 22.4572 57.2913 21.6623 57.2913 20.8335C57.2913 20.0047 57.6206 19.2098 58.2066 18.6238C58.7927 18.0377 59.5875 17.7085 60.4163 17.7085H83.333C86.3713 17.7107 89.2845 18.9186 91.4328 21.067C93.5812 23.2154 94.7891 26.1286 94.7913 29.1668V83.3335C94.7891 86.3718 93.5812 89.285 91.4328 91.4333C89.2845 93.5817 86.3713 94.7896 83.333 94.7918Z" fill="#FFB661"/>
<path d="M70.833 73.9585H56.2497C55.4209 73.9585 54.626 73.6293 54.04 73.0432C53.4539 72.4572 53.1247 71.6623 53.1247 70.8335C53.1247 70.0047 53.4539 69.2098 54.04 68.6238C54.626 68.0377 55.4209 67.7085 56.2497 67.7085H70.833C71.6618 67.7085 72.4567 68.0377 73.0427 68.6238C73.6288 69.2098 73.958 70.0047 73.958 70.8335C73.958 71.6623 73.6288 72.4572 73.0427 73.0432C72.4567 73.6293 71.6618 73.9585 70.833 73.9585ZM79.1663 61.4585H56.2497C55.4209 61.4585 54.626 61.1293 54.04 60.5432C53.4539 59.9572 53.1247 59.1623 53.1247 58.3335C53.1247 57.5047 53.4539 56.7098 54.04 56.1238C54.626 55.5377 55.4209 55.2085 56.2497 55.2085H79.1663C79.9951 55.2085 80.79 55.5377 81.3761 56.1238C81.9621 56.7098 82.2913 57.5047 82.2913 58.3335C82.2913 59.1623 81.9621 59.9572 81.3761 60.5432C80.79 61.1293 79.9951 61.4585 79.1663 61.4585ZM60.4163 36.4585H39.583C38.7542 36.4585 37.9594 36.1293 37.3733 35.5432C36.7872 34.9572 36.458 34.1623 36.458 33.3335V8.3335C36.458 7.50469 36.7872 6.70984 37.3733 6.12379C37.9594 5.53774 38.7542 5.2085 39.583 5.2085H60.4163C61.2451 5.2085 62.04 5.53774 62.6261 6.12379C63.2121 6.70984 63.5413 7.50469 63.5413 8.3335V33.3335C63.5413 34.1623 63.2121 34.9572 62.6261 35.5432C62.04 36.1293 61.2451 36.4585 60.4163 36.4585ZM42.708 30.2085H57.2913V11.4585H42.708V30.2085Z" fill="#FFB661"/>
<path d="M66.6663 36.4585H33.333C32.5042 36.4585 31.7094 36.1293 31.1233 35.5432C30.5372 34.9572 30.208 34.1623 30.208 33.3335C30.208 32.5047 30.5372 31.7098 31.1233 31.1238C31.7094 30.5377 32.5042 30.2085 33.333 30.2085H66.6663C67.4951 30.2085 68.29 30.5377 68.8761 31.1238C69.4621 31.7098 69.7913 32.5047 69.7913 33.3335C69.7913 34.1623 69.4621 34.9572 68.8761 35.5432C68.29 36.1293 67.4951 36.4585 66.6663 36.4585Z" fill="#FFB661"/>
</svg>
