<svg width="100" height="100" viewBox="0 0 100 100" fill="none" xmlns="http://www.w3.org/2000/svg">
<path d="M75.5248 59.4537C68.5742 59.4537 62.9197 65.1082 62.9197 72.0588C62.9197 79.0094 68.5742 84.6639 75.5248 84.6639C82.4766 84.6639 88.1299 79.0094 88.1299 72.0588C88.1299 65.1082 82.4754 59.4537 75.5248 59.4537ZM75.5248 78.3613C72.049 78.3613 69.2223 75.5346 69.2223 72.0588C69.2223 68.583 72.049 65.7562 75.5248 65.7562C79.0006 65.7562 81.8273 68.583 81.8273 72.0588C81.8273 75.5348 79.0006 78.3613 75.5248 78.3613ZM32.4576 59.4537C25.507 59.4537 19.8525 65.1082 19.8525 72.0588C19.8525 79.0094 25.507 84.6639 32.4576 84.6639C39.4082 84.6639 45.0627 79.0094 45.0627 72.0588C45.0627 65.1082 39.4082 59.4537 32.4576 59.4537ZM32.4576 78.3613C28.9818 78.3613 26.1551 75.5346 26.1551 72.0588C26.1551 68.583 28.9818 65.7562 32.4576 65.7562C35.9324 65.7562 38.7602 68.583 38.7602 72.0588C38.7602 75.5348 35.9334 78.3613 32.4576 78.3613ZM84.0133 23.374C83.7507 22.8523 83.3483 22.4138 82.851 22.1074C82.3538 21.8009 81.7812 21.6387 81.1971 21.6387H64.6004V27.9412H79.2537L87.8346 45.0084L93.467 42.1764L84.0133 23.374Z" fill="#FFB661"/>
<path d="M42.227 69.0125H66.0715V75.315H42.227V69.0125ZM23.0041 69.0125H12.0799C10.3393 69.0125 8.92871 70.4232 8.92871 72.1637C8.92871 73.9043 10.3395 75.3148 12.0799 75.3148H23.0043C24.7449 75.3148 26.1555 73.9041 26.1555 72.1637C26.1555 70.423 24.7447 69.0125 23.0041 69.0125ZM99.3383 49.7477L93.1398 41.7645C92.8455 41.3849 92.4683 41.0778 92.0369 40.8666C91.6056 40.6553 91.1316 40.5456 90.6514 40.5459H67.7521V18.4871C67.7521 16.7465 66.3414 15.3359 64.601 15.3359H12.0799C10.3393 15.3359 8.92871 16.7467 8.92871 18.4871C8.92871 20.2275 10.3395 21.6383 12.0799 21.6383H61.4496V43.6971C61.4496 45.4377 62.8604 46.8482 64.6008 46.8482H89.1082L93.6975 52.76V69.0121H84.9789C83.2383 69.0121 81.8277 70.4229 81.8277 72.1633C81.8277 73.9039 83.2385 75.3145 84.9789 75.3145H96.8486C98.5893 75.3145 99.9998 73.9037 100 72.1633V51.6805C100 50.9809 99.7668 50.3002 99.3383 49.7477ZM22.7941 53.0461H8.29824C6.55762 53.0461 5.14707 54.4568 5.14707 56.1973C5.14707 57.9379 6.55781 59.3484 8.29824 59.3484H22.7939C24.5346 59.3484 25.9451 57.9377 25.9451 56.1973C25.9453 54.4568 24.5346 53.0461 22.7941 53.0461ZM30.042 40.651H3.15117C1.41074 40.651 0 42.0617 0 43.8023C0 45.543 1.41074 46.9535 3.15117 46.9535H30.042C31.7826 46.9535 33.1932 45.5428 33.1932 43.8023C33.1932 42.0619 31.7826 40.651 30.042 40.651Z" fill="#FFB661"/>
<path d="M35.1895 28.2559H8.29863C6.55801 28.2559 5.14746 29.6666 5.14746 31.407C5.14746 33.1477 6.5582 34.5582 8.29863 34.5582H35.1895C36.9301 34.5582 38.3406 33.1475 38.3406 31.407C38.3408 29.6666 36.9301 28.2559 35.1895 28.2559Z" fill="#FFB661"/>
</svg>
