<svg width="100" height="100" viewBox="0 0 100 100" fill="none" xmlns="http://www.w3.org/2000/svg">
<path d="M58.1252 24.4998C57.4832 24.5157 56.8448 24.3987 56.2502 24.156C55.6096 23.82 55.0589 23.3354 54.6439 22.7429C54.229 22.1504 53.9619 21.4672 53.865 20.7503C53.7682 20.0335 53.8443 19.3039 54.0872 18.6225C54.33 17.9411 54.7324 17.3277 55.2608 16.8337C55.7891 16.3397 56.4281 15.9793 57.1243 15.7828C57.8204 15.5862 58.5535 15.5592 59.2622 15.704C59.9709 15.8487 60.6347 16.161 61.198 16.6148C61.7613 17.0686 62.2078 17.6506 62.5002 18.3123C62.9535 19.4241 62.9535 20.6692 62.5002 21.781C62.1369 22.6275 61.5225 23.3421 60.7402 23.8283C59.9578 24.3145 59.045 24.5489 58.1252 24.4998Z" fill="#FFB661"/>
<path d="M47.2497 94.9063C45.3268 94.8964 43.4252 94.5033 41.656 93.75L15.8435 82.5625C14.1467 81.8349 12.6106 80.7788 11.3236 79.4551C10.0366 78.1314 9.02416 76.5662 8.34451 74.8496C7.66485 73.1331 7.33143 71.299 7.36343 69.4531C7.39544 67.6071 7.79223 65.7857 8.53099 64.0938L27.281 20.9063C27.9989 19.2214 29.0419 17.6946 30.3502 16.4131C31.6586 15.1315 33.2066 14.1204 34.906 13.4375L53.406 6.25002C56.8752 4.88665 60.7432 4.95311 64.1635 6.43485C67.5838 7.91659 70.2778 10.6929 71.656 14.1563L78.9685 32.625C79.6632 34.3416 80.0073 36.1798 79.9805 38.0314C79.9536 39.8831 79.5564 41.7106 78.8122 43.4063L60.0622 86.5625C58.5856 89.9871 55.8091 92.6849 52.3435 94.0625C50.7108 94.6502 48.9848 94.9361 47.2497 94.9063ZM14.2497 66.5625C13.4409 68.4664 13.4136 70.612 14.1738 72.5358C14.9339 74.4596 16.4205 76.007 18.3122 76.8438L44.156 88C45.0955 88.4083 46.1064 88.6271 47.1306 88.6439C48.1549 88.6606 49.1724 88.4749 50.1247 88.0975C51.077 87.72 51.9454 87.1582 52.6801 86.4444C53.4148 85.7305 54.0013 84.8786 54.406 83.9375L73.156 40.75C73.9358 38.8369 73.9358 36.6944 73.156 34.7813L65.8435 16.2813C65.0781 14.3607 63.5827 12.8219 61.6849 12.0018C59.7871 11.1818 57.6416 11.1474 55.7185 11.9063L37.2185 19.2188C36.2619 19.5963 35.3904 20.1613 34.6552 20.8804C33.92 21.5995 33.3359 22.4583 32.9372 23.4063L14.2497 66.5625Z" fill="#FFB661"/>
<path d="M63.2501 90.6248C61.7704 90.6191 60.3022 90.3656 58.9063 89.8748C58.1495 89.5766 57.5387 88.995 57.2039 88.2536C56.8691 87.5122 56.8366 86.6694 57.1133 85.9044C57.39 85.1395 57.9541 84.5125 58.6857 84.1569C59.4173 83.8012 60.2588 83.7449 61.0313 83.9998C62.6098 84.5663 64.3449 84.5099 65.8834 83.8423C67.4218 83.1747 68.6481 81.9459 69.3126 80.4061L85.9376 41.8123C86.5943 40.1887 86.5943 38.3734 85.9376 36.7498L79.5001 20.3123C78.9197 18.8407 77.8319 17.6253 76.4334 16.8859C75.0349 16.1465 73.418 15.932 71.8751 16.2811C71.0463 16.4551 70.1823 16.2928 69.4731 15.8298C68.764 15.3668 68.2679 14.6411 68.0938 13.8123C67.9198 12.9835 68.0821 12.1195 68.5451 11.4104C69.008 10.7013 69.7338 10.2051 70.5626 10.0311C73.5677 9.37904 76.7069 9.82411 79.4123 11.2857C82.1177 12.7473 84.2107 15.129 85.3126 17.9998L91.8438 34.3748C92.4649 35.9465 92.7681 37.6258 92.7359 39.3155C92.7038 41.0051 92.3368 42.6716 91.6563 44.2186L75.0001 82.7498C74.024 85.0661 72.3913 87.046 70.3034 88.4454C68.2154 89.8448 65.7635 90.6024 63.2501 90.6248ZM53.4376 40.0936C54.9159 41.1137 56.0604 42.5474 56.7274 44.2151C57.3945 45.8828 57.5546 47.7103 57.1876 49.4686L49.5626 48.4998C49.8816 47.9096 50.0022 47.2323 49.9065 46.5682C49.8109 45.9041 49.504 45.2885 49.0313 44.8123C48.713 44.4567 48.3175 44.1788 47.8751 43.9998C47.3891 43.76 46.8545 43.6353 46.3126 43.6353C45.7707 43.6353 45.236 43.76 44.7501 43.9998C44.4561 44.1534 44.2162 44.3933 44.0626 44.6873C43.6563 45.5936 44.0626 46.5936 45.3126 47.8123C46.0158 48.444 46.7681 49.0187 47.5626 49.5311C49.4065 50.7874 51.05 52.315 52.4376 54.0623C53.1795 55.1554 53.6169 56.4263 53.7048 57.7445C53.7926 59.0626 53.5278 60.3804 52.9376 61.5623C52.3872 62.7231 51.5331 63.7135 50.4659 64.4287C49.3987 65.1438 48.158 65.5571 46.8751 65.6248C45.3841 65.858 43.866 65.858 42.3751 65.6248L41.4063 67.8748L34.3751 64.7498L35.3751 62.4686C34.2074 61.6128 33.2355 60.5179 32.5242 59.257C31.813 57.9961 31.3786 56.598 31.2501 55.1561C31.125 54.3693 31.125 53.5678 31.2501 52.7811L38.9063 53.7498C38.602 54.373 38.5136 55.0796 38.655 55.7585C38.7965 56.4375 39.1597 57.05 39.6876 57.4998C40.1351 57.9513 40.6657 58.312 41.2501 58.5623C41.8363 58.9034 42.4916 59.1086 43.1677 59.1627C43.8437 59.2168 44.5233 59.1184 45.1563 58.8748C45.427 58.755 45.6478 58.5452 45.7813 58.2811C46.1876 57.3123 45.7813 56.2811 44.5938 55.1561L41.1563 52.5311C39.0363 51.179 37.3876 49.2029 36.4376 46.8748C35.9398 45.0512 36.1174 43.1092 36.9376 41.4061C37.469 40.2676 38.2814 39.283 39.2982 38.545C40.315 37.8069 41.5029 37.3397 42.7501 37.1873C43.9438 37.046 45.1501 37.046 46.3438 37.1873L47.3751 34.8436L54.3751 37.9686L53.4376 40.0936Z" fill="#FFB661"/>
</svg>
