<svg width="100" height="100" viewBox="0 0 100 100" fill="none" xmlns="http://www.w3.org/2000/svg">
<path d="M39.6626 51.3535C38.9009 50.5898 37.6626 50.5898 36.9009 51.3535C36.1372 52.1152 36.1372 53.3535 36.9009 54.1152C37.6626 54.8789 38.9009 54.8789 39.6626 54.1152C40.4263 53.3535 40.4263 52.1152 39.6626 51.3535ZM39.6626 59.166C38.9009 58.4023 37.6626 58.4023 36.9009 59.166C36.1372 59.9277 36.1372 61.166 36.9009 61.9277C37.6626 62.6914 38.9009 62.6914 39.6626 61.9277C40.4263 61.166 40.4263 59.9277 39.6626 59.166Z" fill="#FFB661"/>
<path d="M77.3438 0H22.6562C19.4254 0 16.7969 2.62852 16.7969 5.85938V76.1719C16.7969 79.4027 19.4254 82.0312 22.6562 82.0312H32.4219V96.0938H26.5625C25.484 96.0938 24.6094 96.9684 24.6094 98.0469C24.6094 99.1254 25.484 100 26.5625 100H73.4375C74.516 100 75.3906 99.1254 75.3906 98.0469C75.3906 96.9684 74.516 96.0938 73.4375 96.0938H67.5781V82.0312H77.3438C80.5746 82.0312 83.2031 79.4027 83.2031 76.1719V5.85938C83.2031 2.62852 80.5746 0 77.3438 0ZM63.6719 96.0938H36.3281V82.0312H63.6719V96.0938ZM79.2969 76.1719C79.2969 77.2488 78.4207 78.125 77.3438 78.125H22.6562C21.5793 78.125 20.7031 77.2488 20.7031 76.1719V5.85938C20.7031 4.78242 21.5793 3.90625 22.6562 3.90625H77.3438C78.4207 3.90625 79.2969 4.78242 79.2969 5.85938V76.1719Z" fill="#FFB661"/>
<path d="M73.4375 7.8125H26.5625C25.484 7.8125 24.6094 8.68711 24.6094 9.76562V72.2656C24.6094 73.3441 25.484 74.2188 26.5625 74.2188H73.4375C74.516 74.2188 75.3906 73.3441 75.3906 72.2656V9.76562C75.3906 8.68711 74.516 7.8125 73.4375 7.8125ZM71.4844 70.3125H28.5156V11.7188H71.4844V70.3125Z" fill="#FFB661"/>
<path d="M63.0023 25.3575C62.8896 25.0109 62.6823 24.7027 62.4037 24.4678C62.1251 24.2329 61.7863 24.0805 61.4257 24.028L54.7408 23.0567L51.7517 16.9989C51.5904 16.672 51.3409 16.3968 51.0314 16.2044C50.7218 16.0119 50.3646 15.9099 50.0001 15.9099C49.6356 15.9099 49.2784 16.0119 48.9689 16.2044C48.6594 16.3968 48.4098 16.672 48.2486 16.9989L45.2595 23.0567L38.5746 24.028C38.2139 24.0805 37.8751 24.2328 37.5965 24.4677C37.3179 24.7026 37.1105 25.0108 36.9979 25.3574C36.8853 25.704 36.8719 26.0752 36.9593 26.4291C37.0466 26.7829 37.2312 27.1052 37.4921 27.3596L42.3294 32.0745L41.1869 38.7323C41.1251 39.0915 41.1651 39.4608 41.3024 39.7984C41.4397 40.136 41.6687 40.4285 41.9636 40.6427C42.2585 40.8568 42.6074 40.9842 42.9709 41.0105C43.3344 41.0368 43.698 40.961 44.0206 40.7915L50.0003 37.6481L55.98 40.7915C56.3026 40.961 56.6662 41.0369 57.0297 41.0105C57.3932 40.9842 57.742 40.8567 58.0368 40.6425C58.3316 40.4283 58.5606 40.1359 58.6979 39.7983C58.8352 39.4607 58.8754 39.0915 58.8138 38.7323L57.6712 32.0745L62.5081 27.3596C62.7691 27.1053 62.9537 26.7829 63.041 26.4291C63.1283 26.0753 63.1149 25.7041 63.0023 25.3575ZM54.2091 29.9942C53.9823 30.2153 53.8127 30.4882 53.7149 30.7895C53.6171 31.0907 53.594 31.4112 53.6476 31.7233L54.2945 35.4925L50.9091 33.713C50.6288 33.5657 50.317 33.4888 50.0003 33.4888C49.6837 33.4888 49.3718 33.5657 49.0915 33.713L45.7062 35.4925L46.3531 31.7233C46.4067 31.4112 46.3835 31.0907 46.2857 30.7895C46.1879 30.4882 46.0183 30.2153 45.7915 29.9942L43.0531 27.3249L46.838 26.7749C47.1514 26.7293 47.449 26.6082 47.7052 26.422C47.9614 26.2358 48.1684 25.9901 48.3085 25.7061L50.0003 22.2774L51.6921 25.7063C51.8322 25.9903 52.0393 26.236 52.2955 26.4222C52.5516 26.6084 52.8492 26.7295 53.1626 26.7751L56.9476 27.3249L54.2091 29.9942ZM61.7191 50.7813H46.0941C45.0156 50.7813 44.141 51.6559 44.141 52.7345C44.141 53.813 45.0156 54.6876 46.0941 54.6876H61.7191C62.7976 54.6876 63.6722 53.813 63.6722 52.7345C63.6722 51.6559 62.7976 50.7813 61.7191 50.7813ZM61.7191 58.5938H46.0941C45.0156 58.5938 44.141 59.4684 44.141 60.547C44.141 61.6255 45.0156 62.5001 46.0941 62.5001H61.7191C62.7976 62.5001 63.6722 61.6255 63.6722 60.547C63.6722 59.4684 62.7976 58.5938 61.7191 58.5938Z" fill="#FFB661"/>
</svg>
