<svg width="125" height="125" viewBox="0 0 125 125" fill="none" xmlns="http://www.w3.org/2000/svg">
<g clip-path="url(#clip0_140_5049)">
<mask id="mask0_140_5049" style="mask-type:luminance" maskUnits="userSpaceOnUse" x="0" y="0" width="125" height="125">
<path d="M0 0H125V125H0V0Z" fill="white"/>
</mask>
<g mask="url(#mask0_140_5049)">
<path fill-rule="evenodd" clip-rule="evenodd" d="M105.382 25.6292C105.382 25.6292 105.382 25.6289 105.382 25.6292L95.0129 29.9404C94.9649 29.9578 94.9257 29.9934 94.9038 30.0396C94.8958 30.0569 94.891 30.0756 94.8899 30.0947C94.8893 30.1198 94.8937 30.1447 94.9028 30.168L94.9118 30.1926L108.645 69.814L108.656 69.8455C108.663 69.865 108.671 69.8777 108.682 69.8897C108.701 69.9089 108.723 69.9242 108.748 69.9348C108.813 69.9644 108.87 69.9597 108.909 69.9436C108.909 69.9439 108.909 69.9434 108.909 69.9436L119.279 65.6318C119.327 65.6145 119.366 65.5788 119.388 65.5327C119.396 65.5154 119.401 65.4967 119.402 65.4776C119.403 65.4525 119.398 65.4276 119.389 65.4043L119.38 65.3797L105.646 25.7583L105.635 25.7268C105.631 25.7104 105.622 25.6953 105.61 25.6829C105.591 25.6636 105.569 25.6481 105.544 25.6375C105.479 25.6082 105.421 25.613 105.382 25.6292ZM110.939 23.9385C109.862 20.7415 106.283 19.1992 103.242 20.4575L92.8904 24.7615C90.073 25.916 88.5788 29.0777 89.6269 32.0361L103.353 71.6338C104.43 74.8308 108.009 76.3731 111.05 75.1148L111.054 75.113L121.402 70.8106C124.219 69.6563 125.713 66.4946 124.665 63.5361L110.939 23.9385ZM17.5586 26.9517L17.5578 26.9539L5.62571 67.3272C5.61947 67.3483 5.61296 67.3694 5.60618 67.3904C5.58641 67.4522 5.60716 67.5584 5.73631 67.6045L16.2556 71.3652L16.3059 71.384C16.3083 71.3848 16.3108 71.3858 16.3191 71.3853C16.3426 71.3825 16.3654 71.3753 16.3862 71.364C16.413 71.3515 16.437 71.3338 16.4569 71.312C16.4768 71.2901 16.4921 71.2645 16.5019 71.2366L16.5024 71.2344L28.4348 30.8611C28.4409 30.8399 28.4475 30.8189 28.4541 30.7979C28.4741 30.7361 28.4534 30.6297 28.3242 30.5838L17.8049 26.8228L17.7544 26.8042C17.7519 26.8035 17.7495 26.8025 17.7414 26.803C17.7178 26.8056 17.6949 26.8128 17.6741 26.8242C17.6473 26.8367 17.6233 26.8545 17.6035 26.8763C17.5837 26.8982 17.5684 26.9238 17.5586 26.9517ZM19.7102 21.5603C16.5539 20.3823 13.1306 22.2329 12.197 25.3457L0.26634 65.7141C-0.670183 68.6934 0.942854 71.8357 3.85374 72.8755L14.3503 76.6279C17.5066 77.8059 20.9297 75.9551 21.8633 72.8425L21.8667 72.8316L33.7942 32.4741C34.7304 29.4951 33.1179 26.353 30.2075 25.3132L19.7102 21.5603Z" fill="#FFB661"/>
<path fill-rule="evenodd" clip-rule="evenodd" d="M75.5307 33.0567C72.6959 32.3279 70.2572 32.2237 68.4552 32.9446L68.4245 32.9568C64.1264 34.6172 55.9489 40.0618 50.4826 47.324C49.3717 48.8631 49.4943 51.1736 50.7314 52.606C50.8073 52.6939 50.8776 52.7864 50.9418 52.8829L50.9533 52.9C51.8515 53.8919 53.1554 54.1387 54.2689 53.6614L54.2792 53.6573C55.1632 53.2823 56.1649 52.6011 57.338 51.6468C58.0548 51.0638 58.6884 50.5069 59.3561 49.92C59.85 49.4859 60.3627 49.0352 60.9418 48.5452C62.1601 47.5145 63.5561 46.4178 65.0324 45.6956C66.537 44.9595 68.4416 44.4603 70.4706 45.128C72.0124 45.636 74.1806 46.826 76.4862 48.2237C78.8717 49.6697 81.6552 51.4949 84.5209 53.4422C90.2523 57.3362 96.4098 61.7832 100.558 64.8128C104.112 67.3689 105.436 71.95 104.281 76.0648L104.276 76.086C102.956 80.6487 98.8075 83.5887 94.4948 83.2596C94.5055 85.5814 93.7472 87.9217 92.183 89.7986L92.1789 89.8035C89.8676 92.5643 86.297 93.6443 83.0246 92.6814C82.9235 94.9844 82.0712 97.2669 80.4333 99.054L80.4247 99.0633C77.5446 102.177 72.9801 102.947 69.2853 100.698L58.7621 94.264C57.4435 93.4578 57.0282 91.7354 57.8344 90.4168C58.6405 89.0982 60.3629 88.6827 61.6815 89.4888L72.1955 95.917C72.195 95.9168 72.1957 95.9173 72.1955 95.917C73.5126 96.7181 75.1591 96.5093 76.3117 95.2674C78.1725 93.2313 77.6188 89.7706 75.5104 88.4974C75.5097 88.4969 75.509 88.4965 75.5082 88.4961L64.7213 82.013C63.3969 81.2168 62.9677 79.4974 63.7636 78.1729C64.5595 76.8482 66.2785 76.4195 67.6034 77.2151L83.8583 86.9791C85.1347 87.7559 86.7758 87.5369 87.8859 86.2125C89.4374 84.3475 89.1232 81.5223 87.5519 80.0687L71.8004 69.9856L71.7931 69.981C70.4928 69.1487 70.1122 67.4207 70.9425 66.1192C71.7729 64.8174 73.5004 64.4341 74.8031 65.2625L74.8105 65.2671L90.0712 74.9686C90.3602 75.1537 90.6388 75.3545 90.9059 75.5701L93.2975 77.1011C95.2113 78.3394 98.0321 77.5076 98.8959 74.5418C99.4782 72.451 98.7355 70.3934 97.2853 69.3531L97.2663 69.3392C93.1308 66.3194 87.0304 61.9136 81.3756 58.0716C78.5463 56.1492 75.8524 54.3843 73.5851 53.0101C71.2377 51.5872 69.5763 50.7264 68.7199 50.4441C68.5956 50.4034 68.2721 50.3414 67.4918 50.7232C66.6806 51.1202 65.7299 51.8255 64.557 52.8179C64.1051 53.2033 63.6562 53.5924 63.2106 53.9852C62.4438 54.6568 61.6149 55.3826 60.8695 55.9888C59.5797 57.0381 58.0895 58.1199 56.4687 58.8079C53.0414 60.2742 49.0556 59.3536 46.5773 56.3958C46.5119 56.3177 46.4506 56.2359 46.3939 56.1512L46.3732 56.1197C43.5863 52.7574 43.3163 47.6524 45.9709 44.012L45.995 43.9791C52.0768 35.8892 61.1 29.7913 66.3925 27.7417C69.8444 26.367 73.6925 26.8052 76.924 27.636C80.3791 28.5242 83.683 30.0176 85.8812 31.0115C86.1354 31.1263 86.3749 31.2344 86.5981 31.3343C88.049 31.9834 89.4176 31.9896 90.4579 31.8213C90.8722 31.7551 91.2798 31.6518 91.6757 31.5127C91.7881 31.473 91.899 31.4288 92.008 31.3804C93.3815 30.7007 95.0492 31.2527 95.7443 32.6224C96.4435 34.0008 95.8932 35.6849 94.515 36.3843L93.2487 33.8887C94.515 36.3843 94.5141 36.3848 94.5128 36.3853L94.5107 36.3865L94.506 36.389L94.4955 36.3943L94.4701 36.4068L94.4025 36.4393C94.3503 36.4639 94.2831 36.4947 94.2018 36.5301C94.0399 36.6009 93.8207 36.6902 93.5512 36.7859C92.8366 37.0384 92.1007 37.2259 91.3524 37.3462C89.5314 37.6409 87.0033 37.647 84.3124 36.4434C84.0751 36.337 83.8288 36.2261 83.5746 36.1114C81.339 35.1033 78.4833 33.8157 75.5307 33.0567ZM28.3747 64.4175L28.3737 64.4202L22.5524 78.9459C21.942 80.5518 22.7238 82.825 24.7902 83.8394L25.3561 84.0967C25.3817 84.1084 25.4071 84.1204 25.4325 84.1329C27.3629 85.0818 29.1471 84.2413 29.7223 82.8204L29.7233 82.8177L35.5446 68.2918C36.1547 66.6861 35.3732 64.4129 33.307 63.3982L32.7409 63.1412C32.7152 63.1295 32.6898 63.1174 32.6645 63.105C30.734 62.1561 28.9499 62.9964 28.3747 64.4175ZM35.0922 58.0618C30.6005 55.8807 25.1105 57.5501 23.1833 62.3257L17.3495 76.8834L17.3363 76.9168C15.5609 81.5164 17.9325 86.7415 22.3808 88.8914L22.4406 88.9195L23.0048 89.1758C27.4965 91.3572 32.9865 89.6878 34.9137 84.9119L40.7475 70.3545L40.7606 70.3211C42.536 65.7215 40.1645 60.4964 35.7162 58.3465C35.6964 58.3368 35.6765 58.3274 35.6564 58.3184L35.0922 58.0618Z" fill="#FFB661"/>
<path fill-rule="evenodd" clip-rule="evenodd" d="M43.4687 73.9036C41.3628 72.8845 39.4145 73.7905 38.7839 75.3667L33.1704 89.3731C33.1704 89.3733 33.1706 89.3728 33.1704 89.3731C32.4721 91.1204 33.3371 93.6055 35.5703 94.6812L36.1447 94.9421L36.2055 94.9707C38.3115 95.9898 40.2597 95.0837 40.8903 93.5076L46.5039 79.501M45.8737 68.8496C41.2285 66.6228 35.5695 68.3357 33.5881 73.2864C33.5879 73.2866 33.5881 73.2861 33.5881 73.2864L33.5874 73.2881L27.9738 87.2944C26.059 92.0818 28.5654 97.5444 33.184 99.7439L33.2292 99.7649L33.8005 100.025C38.4463 102.252 44.1062 100.538 46.0869 95.5862L51.7004 81.5796C53.6154 76.7922 51.1088 71.3296 46.4902 69.1304L46.4453 69.1094L45.8737 68.8496ZM44.104 74.1931L43.5295 73.9319C43.5092 73.9226 43.4889 73.9131 43.4687 73.9036" fill="#FFB661"/>
<path fill-rule="evenodd" clip-rule="evenodd" d="M50.6113 84.9043C50.6113 84.9048 50.6115 84.904 50.6113 84.9043L47.1779 93.5154C46.4789 95.2627 47.3442 97.7473 49.5778 98.8232L50.152 99.0844C50.1725 99.0935 50.1928 99.103 50.2131 99.1128C52.3185 100.132 54.2665 99.2263 54.8974 97.6506C54.8971 97.6508 54.8974 97.6504 54.8974 97.6506L58.3312 89.0385C59.0302 87.2912 58.165 84.8066 55.9313 83.7307L55.3569 83.4697C55.3365 83.4604 55.3162 83.4509 55.2961 83.4411C53.1906 82.4223 51.2424 83.3288 50.6113 84.9043ZM57.7011 78.3872C53.0554 76.1601 47.3957 77.8735 45.4147 82.8257L41.9814 91.4367C41.9811 91.4372 41.9816 91.4362 41.9814 91.4367C40.0676 96.2236 42.5734 101.687 47.1913 103.886L47.2365 103.907L47.808 104.167C52.4538 106.394 58.1135 104.68 60.0944 99.7282L63.5278 91.1172L63.5285 91.1154C65.4421 86.3283 62.9357 80.8669 58.3176 78.6679L58.2726 78.6469L57.7011 78.3872ZM54.7973 34.2168C51.9045 33.1906 48.8632 32.5991 46.7053 33.1628C43.339 34.0422 39.3823 34.2614 36.3913 34.2822C35.128 34.2908 33.8647 34.2663 32.6027 34.2087C32.1266 34.1869 31.6507 34.1593 31.1752 34.1257L31.0905 34.1191L31.0663 34.1172L31.0566 34.1164C31.0561 34.1164 31.0549 34.1164 31.2829 31.3271L31.0566 34.1164C29.516 33.9905 28.3678 32.6396 28.4938 31.0991C28.6196 29.5591 29.9699 28.4126 31.5099 28.5381L31.5253 28.5393L31.5881 28.5439C31.6454 28.5483 31.7336 28.5544 31.8498 28.5622C32.0822 28.5774 32.4262 28.5979 32.86 28.6177C33.7287 28.6577 34.9504 28.6953 36.3522 28.6855C39.2065 28.6655 42.6071 28.4487 45.2905 27.7478C49.1818 26.7309 53.6071 27.8562 56.6681 28.9419C58.027 29.4264 59.3593 29.9824 60.6596 30.6074C61.1574 30.8464 61.5588 31.0517 61.84 31.1997C61.9809 31.2739 62.0922 31.3337 62.1706 31.3767L62.2638 31.428L62.2914 31.4433L62.3005 31.4485L62.3036 31.4502C62.3044 31.4507 62.3061 31.4516 60.9306 33.8886L62.3061 31.4516C63.652 32.2114 64.1274 33.9182 63.3679 35.2641C62.6086 36.6093 60.903 37.0849 59.5573 36.3269L59.5551 36.3257L59.5461 36.3208L59.4882 36.2888C59.4039 36.2428 59.3192 36.1976 59.2341 36.153C58.9047 35.9801 58.5721 35.8132 58.2365 35.6526C57.1161 35.1139 55.9681 34.6347 54.7973 34.2168Z" fill="#FFB661"/>
</g>
</g>
<defs>
<clipPath id="clip0_140_5049">
<rect width="125" height="125" fill="white"/>
</clipPath>
</defs>
</svg>
