<svg width="80" height="80" viewBox="0 0 80 80" fill="none" xmlns="http://www.w3.org/2000/svg">
<path d="M64.5438 34.624C64.1433 33.7586 63.5015 33.0272 62.6954 32.5178C61.8894 32.0083 60.9534 31.7424 59.9998 31.752H49.1278L54.3998 10.344C54.68 9.2514 54.5832 8.09621 54.125 7.06552C53.6668 6.03484 52.874 5.18901 51.8752 4.66505C50.8763 4.14109 49.7298 3.96967 48.6214 4.17855C47.5129 4.38744 46.5075 4.9644 45.7678 5.81599L16.1678 40L16.1198 40.048C15.513 40.7816 15.1278 41.673 15.0095 42.6178C14.8912 43.5625 15.0447 44.5214 15.4519 45.382C15.8591 46.2426 16.5032 46.9693 17.3087 47.4769C18.1142 47.9845 19.0477 48.252 19.9998 48.248H30.8718L25.5998 69.656C25.2988 70.7599 25.3874 71.9339 25.8508 72.9802C26.3142 74.0265 27.124 74.881 28.1438 75.4C28.8605 75.7725 29.6562 75.9673 30.4638 75.968C31.1886 75.9704 31.9049 75.8115 32.5607 75.503C33.2166 75.1944 33.7956 74.7439 34.2558 74.184L63.9038 39.944C64.5078 39.2111 64.8891 38.3205 65.0026 37.3777C65.116 36.4348 64.9568 35.4792 64.5438 34.624ZM31.5838 68.688L36.4638 48.952C36.6618 48.213 36.6879 47.4386 36.54 46.688C36.3922 45.9374 36.0744 45.2307 35.6109 44.622C35.1475 44.0134 34.5508 43.519 33.8665 43.1768C33.1823 42.8346 32.4288 42.6537 31.6638 42.648H21.2878L48.4158 11.312L43.5358 31.048C43.3378 31.7869 43.3118 32.5614 43.4596 33.312C43.6075 34.0626 43.9253 34.7693 44.3887 35.378C44.8522 35.9866 45.4489 36.481 46.1331 36.8232C46.8173 37.1654 47.5708 37.3463 48.3358 37.352H58.7118L31.5838 68.688Z" fill="#FFB661"/>
</svg>
