<svg width="50" height="50" viewBox="0 0 50 50" fill="none" xmlns="http://www.w3.org/2000/svg">
<path d="M18.75 3.125H7.8125C5.22812 3.125 3.125 5.22812 3.125 7.8125V18.75C3.125 21.3344 5.22812 23.4375 7.8125 23.4375H18.75C21.3344 23.4375 23.4375 21.3344 23.4375 18.75V7.8125C23.4375 5.22812 21.3344 3.125 18.75 3.125ZM20.3125 18.75C20.3125 19.6109 19.6109 20.3125 18.75 20.3125H7.8125C6.95156 20.3125 6.25 19.6109 6.25 18.75V7.8125C6.25 6.95156 6.95156 6.25 7.8125 6.25H18.75C19.6109 6.25 20.3125 6.95156 20.3125 7.8125V18.75ZM18.75 26.5625H7.8125C5.22812 26.5625 3.125 28.6656 3.125 31.25V42.1875C3.125 44.7719 5.22812 46.875 7.8125 46.875H18.75C21.3344 46.875 23.4375 44.7719 23.4375 42.1875V31.25C23.4375 28.6656 21.3344 26.5625 18.75 26.5625ZM20.3125 42.1875C20.3125 43.0484 19.6109 43.75 18.75 43.75H7.8125C6.95156 43.75 6.25 43.0484 6.25 42.1875V31.25C6.25 30.3891 6.95156 29.6875 7.8125 29.6875H18.75C19.6109 29.6875 20.3125 30.3891 20.3125 31.25V42.1875ZM42.1875 26.5625H31.25C28.6656 26.5625 26.5625 28.6656 26.5625 31.25V42.1875C26.5625 44.7719 28.6656 46.875 31.25 46.875H42.1875C44.7719 46.875 46.875 44.7719 46.875 42.1875V31.25C46.875 28.6656 44.7719 26.5625 42.1875 26.5625ZM43.75 42.1875C43.75 43.0484 43.0484 43.75 42.1875 43.75H31.25C30.3891 43.75 29.6875 43.0484 29.6875 42.1875V31.25C29.6875 30.3891 30.3891 29.6875 31.25 29.6875H42.1875C43.0484 29.6875 43.75 30.3891 43.75 31.25V42.1875ZM26.5625 12.5C26.5625 12.0856 26.7271 11.6882 27.0201 11.3951C27.3132 11.1021 27.7106 10.9375 28.125 10.9375H35.1562V4.6875C35.1562 4.2731 35.3209 3.87567 35.6139 3.58265C35.9069 3.28962 36.3043 3.125 36.7188 3.125C37.1332 3.125 37.5306 3.28962 37.8236 3.58265C38.1166 3.87567 38.2812 4.2731 38.2812 4.6875V10.9375H45.3125C45.7269 10.9375 46.1243 11.1021 46.4174 11.3951C46.7104 11.6882 46.875 12.0856 46.875 12.5C46.875 12.9144 46.7104 13.3118 46.4174 13.6049C46.1243 13.8979 45.7269 14.0625 45.3125 14.0625H38.2812V21.875C38.2812 22.2894 38.1166 22.6868 37.8236 22.9799C37.5306 23.2729 37.1332 23.4375 36.7188 23.4375C36.3043 23.4375 35.9069 23.2729 35.6139 22.9799C35.3209 22.6868 35.1562 22.2894 35.1562 21.875V14.0625H28.125C27.7106 14.0625 27.3132 13.8979 27.0201 13.6049C26.7271 13.3118 26.5625 12.9144 26.5625 12.5Z" fill="white"/>
</svg>
