<svg width="100" height="100" viewBox="0 0 100 100" fill="none" xmlns="http://www.w3.org/2000/svg">
<path d="M39.6626 51.3535C38.9009 50.5898 37.6626 50.5898 36.9009 51.3535C36.1372 52.1152 36.1372 53.3535 36.9009 54.1152C37.6626 54.8789 38.9009 54.8789 39.6626 54.1152C40.4263 53.3535 40.4263 52.1152 39.6626 51.3535ZM39.6626 59.166C38.9009 58.4023 37.6626 58.4023 36.9009 59.166C36.1372 59.9277 36.1372 61.166 36.9009 61.9277C37.6626 62.6914 38.9009 62.6914 39.6626 61.9277C40.4263 61.166 40.4263 59.9277 39.6626 59.166Z" fill="#FFB661"/>
<path d="M77.3438 0H22.6562C19.4254 0 16.7969 2.62852 16.7969 5.85938V76.1719C16.7969 79.4027 19.4254 82.0312 22.6562 82.0312H32.4219V96.0938H26.5625C25.484 96.0938 24.6094 96.9684 24.6094 98.0469C24.6094 99.1254 25.484 100 26.5625 100H73.4375C74.516 100 75.3906 99.1254 75.3906 98.0469C75.3906 96.9684 74.516 96.0938 73.4375 96.0938H67.5781V82.0312H77.3438C80.5746 82.0312 83.2031 79.4027 83.2031 76.1719V5.85938C83.2031 2.62852 80.5746 0 77.3438 0ZM63.6719 96.0938H36.3281V82.0312H63.6719V96.0938ZM79.2969 76.1719C79.2969 77.2488 78.4207 78.125 77.3438 78.125H22.6562C21.5793 78.125 20.7031 77.2488 20.7031 76.1719V5.85938C20.7031 4.78242 21.5793 3.90625 22.6562 3.90625H77.3438C78.4207 3.90625 79.2969 4.78242 79.2969 5.85938V76.1719Z" fill="#FFB661"/>
<path d="M73.4375 7.8125H26.5625C25.484 7.8125 24.6094 8.68711 24.6094 9.76562V72.2656C24.6094 73.3441 25.484 74.2188 26.5625 74.2188H73.4375C74.516 74.2188 75.3906 73.3441 75.3906 72.2656V9.76562C75.3906 8.68711 74.516 7.8125 73.4375 7.8125ZM71.4844 70.3125H28.5156V11.7188H71.4844V70.3125Z" fill="#FFB661"/>
<path d="M63.0023 25.3573C62.8896 25.0107 62.6823 24.7025 62.4037 24.4676C62.1251 24.2326 61.7863 24.0803 61.4257 24.0278L54.7408 23.0565L51.7517 16.9987C51.5904 16.6718 51.3409 16.3966 51.0314 16.2041C50.7218 16.0117 50.3646 15.9097 50.0001 15.9097C49.6356 15.9097 49.2784 16.0117 48.9689 16.2041C48.6594 16.3966 48.4098 16.6718 48.2486 16.9987L45.2595 23.0565L38.5746 24.0278C38.2139 24.0802 37.8751 24.2325 37.5965 24.4674C37.3179 24.7024 37.1105 25.0106 36.9979 25.3572C36.8853 25.7038 36.8719 26.075 36.9593 26.4288C37.0466 26.7827 37.2312 27.105 37.4921 27.3594L42.3294 32.0742L41.1869 38.7321C41.1251 39.0912 41.1651 39.4606 41.3024 39.7982C41.4397 40.1358 41.6687 40.4282 41.9636 40.6424C42.2585 40.8566 42.6074 40.984 42.9709 41.0103C43.3344 41.0366 43.698 40.9607 44.0206 40.7912L50.0003 37.6479L55.98 40.7912C56.3026 40.9607 56.6662 41.0366 57.0297 41.0103C57.3932 40.984 57.742 40.8565 58.0368 40.6423C58.3316 40.428 58.5606 40.1356 58.6979 39.7981C58.8352 39.4605 58.8754 39.0912 58.8138 38.7321L57.6712 32.0742L62.5081 27.3594C62.7691 27.105 62.9537 26.7827 63.041 26.4289C63.1283 26.075 63.1149 25.7038 63.0023 25.3573ZM54.2091 29.994C53.9823 30.2151 53.8127 30.488 53.7149 30.7892C53.6171 31.0904 53.594 31.4109 53.6476 31.7231L54.2945 35.4922L50.9091 33.7127C50.6288 33.5655 50.317 33.4885 50.0003 33.4885C49.6837 33.4885 49.3718 33.5655 49.0915 33.7127L45.7062 35.4922L46.3531 31.7231C46.4067 31.4109 46.3835 31.0904 46.2857 30.7892C46.1879 30.488 46.0183 30.2151 45.7915 29.994L43.0531 27.3246L46.838 26.7746C47.1514 26.7291 47.449 26.608 47.7052 26.4218C47.9614 26.2356 48.1684 25.9899 48.3085 25.7059L50.0003 22.2772L51.6921 25.7061C51.8322 25.9901 52.0393 26.2358 52.2955 26.422C52.5516 26.6082 52.8492 26.7293 53.1626 26.7748L56.9476 27.3246L54.2091 29.994ZM61.7191 50.7811H46.0941C45.0156 50.7811 44.141 51.6557 44.141 52.7342C44.141 53.8127 45.0156 54.6873 46.0941 54.6873H61.7191C62.7976 54.6873 63.6722 53.8127 63.6722 52.7342C63.6722 51.6557 62.7976 50.7811 61.7191 50.7811ZM61.7191 58.5936H46.0941C45.0156 58.5936 44.141 59.4682 44.141 60.5467C44.141 61.6252 45.0156 62.4998 46.0941 62.4998H61.7191C62.7976 62.4998 63.6722 61.6252 63.6722 60.5467C63.6722 59.4682 62.7976 58.5936 61.7191 58.5936Z" fill="#FFB661"/>
</svg>
