<svg width="80" height="80" viewBox="0 0 80 80" fill="none" xmlns="http://www.w3.org/2000/svg">
<path d="M14.9008 25.1888C14.9008 14.2444 23.8048 5.34038 34.7492 5.34038C45.6936 5.34038 54.5976 14.2444 54.5976 25.1888C54.5976 26.4719 54.4714 27.7652 54.2225 29.0332L59.4629 30.0621C59.7781 28.4568 59.9373 26.8248 59.9382 25.1888C59.9382 11.2997 48.6384 0 34.7494 0C20.8603 0 9.56055 11.2997 9.56055 25.1888C9.56055 30.8918 11.5224 36.4809 15.0845 40.9262L19.2517 37.5867C16.4053 34.0344 14.9008 29.7474 14.9008 25.1888Z" fill="#FFB661"/>
<path d="M34.7491 14.241C40.7857 14.241 45.6969 19.1522 45.6969 25.1888H51.0373C51.0373 16.2075 43.7304 8.90063 34.7491 8.90063C25.7678 8.90063 18.4609 16.2075 18.4609 25.1888C18.4617 28.0114 19.1957 30.7855 20.591 33.2391L25.2315 30.5958C24.2944 28.9478 23.8016 27.0846 23.8013 25.1888C23.8013 19.1522 28.7125 14.241 34.7491 14.241Z" fill="#FFB661"/>
<path d="M63.054 38.442C62.231 38.442 61.4392 38.5773 60.6992 38.8267C59.7883 35.7791 56.959 33.5513 53.6193 33.5513C52.7493 33.5513 51.9146 33.7035 51.1389 33.981C50.1144 31.1296 47.3842 29.0844 44.1846 29.0844C43.4743 29.0844 42.7881 29.1873 42.1375 29.3753V25.1888C42.1375 21.1153 38.8234 17.8013 34.7499 17.8013C30.6765 17.8013 27.3624 21.1153 27.3624 25.1888V40.74C26.6971 40.5472 26.0079 40.4493 25.3153 40.4491C21.2418 40.4491 17.9277 43.7632 17.9277 47.8367V61.6951C17.9277 71.7884 26.1393 80 36.2324 80H52.1368C62.2299 80 70.4415 71.7884 70.4415 61.6951V45.8296C70.4415 41.7561 67.1274 38.442 63.054 38.442ZM65.1011 61.6953C65.1011 68.8439 59.2853 74.6598 52.1368 74.6598H36.2324C29.084 74.6598 23.2681 68.8439 23.2681 61.6953V47.8368C23.2681 46.708 24.1865 45.7897 25.3153 45.7897C26.444 45.7897 27.3624 46.708 27.3624 47.8368V58.6194H32.7028V25.1888C32.7028 24.06 33.6212 23.1417 34.7499 23.1417C35.8787 23.1417 36.7971 24.06 36.7971 25.1888V45.8296H42.1375V36.472C42.1375 35.3432 43.0558 34.4248 44.1846 34.4248C45.3134 34.4248 46.2318 35.3432 46.2318 36.472V45.8296H51.5721V40.9388C51.5721 39.8101 52.4905 38.8917 53.6193 38.8917C54.7481 38.8917 55.6664 39.8101 55.6664 40.9388V45.8296H61.0068C61.0068 44.7008 61.9252 43.7824 63.054 43.7824C64.1827 43.7824 65.1011 44.7008 65.1011 45.8296V61.6953Z" fill="#FFB661"/>
</svg>
