<svg width="80" height="80" viewBox="0 0 80 80" fill="none" xmlns="http://www.w3.org/2000/svg">
<path d="M72.1665 31.2076C71.7273 30.9362 71.2159 30.8047 70.7002 30.8306C70.1845 30.8565 69.6888 31.0386 69.279 31.3528L55.0123 42.2759L42.0356 25.0479C41.8019 24.7381 41.5006 24.4857 41.1546 24.31C40.8086 24.1343 40.427 24.0398 40.039 24.0339C39.2687 24.022 38.5053 24.3735 38.0126 24.9876L24.1595 42.265L10.7778 31.3979C10.3723 31.0683 9.87521 30.8713 9.35398 30.8338C8.83274 30.7962 8.31258 30.9199 7.86403 31.1881C7.41578 31.4565 7.0608 31.8562 6.8471 32.3329C6.6334 32.8097 6.5713 33.3406 6.66919 33.8539L11.0853 56.9537C11.1966 57.5359 11.5075 58.0611 11.9643 58.4389C12.4211 58.8166 12.9953 59.0233 13.5881 59.0234H66.4118C67.6348 59.0234 68.6853 58.1554 68.9137 56.9537L73.3298 33.8539C73.4269 33.3469 73.3677 32.8223 73.16 32.3497C72.9522 31.8771 72.6058 31.4788 72.1665 31.2076ZM64.3059 53.9278H15.6953L12.9853 39.7554L22.9378 47.8378C23.4643 48.265 24.1403 48.4612 24.8147 48.3932C25.1486 48.3575 25.4723 48.2561 25.7669 48.0949C26.0616 47.9337 26.3216 47.7159 26.5318 47.454L39.9373 30.7329L52.4886 47.3928C52.6908 47.6616 52.9442 47.8876 53.2343 48.0579C53.5244 48.2281 53.8453 48.3392 54.1786 48.3846C54.8545 48.4781 55.5323 48.2954 56.0725 47.8828L67.072 39.4607L64.3059 53.9278Z" fill="#FFB661"/>
<path d="M63.8641 56.4756V63.0148H16.1359V56.4756H11.0403V65.5627C11.0403 66.9698 12.1808 68.1105 13.5881 68.1105H66.4119C67.8191 68.1105 68.9597 66.97 68.9597 65.5627V56.4756H63.8641ZM40 11.8895C35.3172 11.8895 31.5075 15.6994 31.5075 20.382C31.5075 25.0648 35.3173 28.8745 40 28.8745C44.6828 28.8745 48.4925 25.0647 48.4925 20.382C48.4925 15.6994 44.6828 11.8895 40 11.8895ZM40 23.7792C38.1266 23.7792 36.603 22.2556 36.603 20.3822C36.603 18.5087 38.1266 16.9852 40 16.9852C41.8734 16.9852 43.397 18.5087 43.397 20.3822C43.397 22.2556 41.8734 23.7792 40 23.7792ZM71.5075 18.5987C66.8247 18.5987 63.015 22.4084 63.015 27.0912C63.015 31.7741 66.8248 35.5837 71.5075 35.5837C76.1903 35.5837 80 31.7739 80 27.0912C80 22.4084 76.1902 18.5987 71.5075 18.5987ZM71.5075 30.4883C69.6341 30.4883 68.1105 28.9647 68.1105 27.0912C68.1105 25.2178 69.6341 23.6942 71.5075 23.6942C73.3809 23.6942 74.9045 25.2178 74.9045 27.0912C74.9045 28.9647 73.3809 30.4883 71.5075 30.4883ZM8.4925 18.5987C3.80984 18.5987 0 22.4084 0 27.0912C0 31.7741 3.80984 35.5837 8.4925 35.5837C13.1753 35.5837 16.985 31.7739 16.985 27.0912C16.9852 22.4084 13.1753 18.5987 8.4925 18.5987ZM8.4925 30.4883C6.61906 30.4883 5.09547 28.9647 5.09547 27.0912C5.09547 25.2178 6.61906 23.6942 8.4925 23.6942C10.3659 23.6942 11.8895 25.2178 11.8895 27.0912C11.8895 28.9647 10.3661 30.4883 8.4925 30.4883Z" fill="#FFB661"/>
</svg>
