<svg width="50" height="50" viewBox="0 0 50 50" fill="none" xmlns="http://www.w3.org/2000/svg">
<path d="M13.7687 41.2375C11.189 42.7188 8.2812 43.25 6.55933 43.4406C6.74995 41.7188 7.2812 38.8109 8.76089 36.2297C8.85545 36.0694 8.91726 35.892 8.94274 35.7076C8.96821 35.5233 8.95685 35.3358 8.90931 35.1558C8.86177 34.9759 8.77899 34.8072 8.66578 34.6596C8.55257 34.5119 8.41117 34.3881 8.24978 34.2955C8.08839 34.2029 7.91022 34.1432 7.72559 34.1199C7.54097 34.0966 7.35356 34.1102 7.17423 34.1599C6.9949 34.2096 6.82722 34.2944 6.6809 34.4094C6.53457 34.5243 6.41253 34.6672 6.32183 34.8297C3.67183 39.4516 3.64058 44.7297 3.64058 44.9531C3.64058 45.3261 3.78874 45.6838 4.05246 45.9475C4.31618 46.2112 4.67387 46.3594 5.04683 46.3594C5.27027 46.3594 10.5484 46.3281 15.1703 43.6781C15.3305 43.5861 15.4711 43.4634 15.5839 43.3171C15.6968 43.1707 15.7797 43.0036 15.8279 42.8252C15.8761 42.6468 15.8888 42.4606 15.8651 42.2774C15.8414 42.0941 15.7818 41.9173 15.6898 41.757C15.5978 41.5968 15.4751 41.4562 15.3287 41.3434C15.1824 41.2305 15.0152 41.1476 14.8368 41.0994C14.6585 41.0512 14.4723 41.0385 14.289 41.0622C14.1058 41.0859 13.929 41.1455 13.7687 41.2375ZM48.2953 5.11719C48.3059 4.66555 48.2243 4.21648 48.0556 3.7974C47.8869 3.37831 47.6346 2.99801 47.314 2.67969C46.6656 2.03125 45.7281 1.71094 44.8812 1.70312C40.9874 1.77656 30.4843 2.89375 20.5468 11.8141C18.775 11.125 16.1046 10.1016 14.0781 10.3625C11.0968 10.7453 6.69214 14.8016 2.37808 19.1297C2.09763 19.4086 1.89423 19.7554 1.78771 20.1363C1.68118 20.5172 1.67517 20.9192 1.77027 21.3031C1.96089 22.0938 2.53902 22.7141 3.31402 22.9625L10.1734 25.1656C9.64204 26.1284 9.13562 27.1048 8.65464 28.0938C8.35297 28.7205 8.25378 29.4256 8.37081 30.1112C8.48783 30.7969 8.81529 31.4291 9.30776 31.9203L18.0781 40.6906C18.5698 41.1827 19.2022 41.5099 19.8879 41.6272C20.5737 41.7445 21.2789 41.646 21.9062 41.3453C22.925 40.8531 23.8906 40.3438 24.8312 39.8281L27.0359 46.6859C27.1837 47.1559 27.4784 47.566 27.8767 47.856C28.2749 48.146 28.7558 48.3005 29.2484 48.2969C29.8499 48.2969 30.4296 48.0609 30.8703 47.6219C35.1984 43.3078 39.2546 38.9047 39.6359 35.925C39.9 33.8797 38.8734 31.225 38.1843 29.4531C47.1031 19.5156 48.2218 9.0125 48.2953 5.11719ZM4.94995 20.5359C7.23902 18.2562 12.2109 13.4391 14.4359 13.1531C15.4281 13.0266 16.9859 13.4969 18.3015 13.9734C15.9781 16.375 13.7218 19.2531 11.6187 22.6766L4.94995 20.5359ZM20.6828 38.8125C20.5813 38.8594 20.4678 38.874 20.3578 38.8545C20.2477 38.8349 20.1463 38.7821 20.0671 38.7031L11.2953 29.9312C11.2164 29.8521 11.1637 29.7505 11.1444 29.6404C11.1251 29.5303 11.1402 29.4169 11.1875 29.3156C22.1109 6.68906 39.7796 4.61406 44.9359 4.51719H44.9484C45.1343 4.51719 45.2562 4.6 45.3281 4.67188C45.3796 4.72348 45.4201 4.78496 45.4472 4.85263C45.4743 4.92029 45.4875 4.99274 45.4859 5.06562C45.3859 10.2219 43.3093 27.8906 20.6828 38.8125ZM36.8468 35.5656C36.5609 37.7891 31.7437 42.7625 29.464 45.05L27.3203 38.3828C30.7468 36.2797 33.6249 34.0219 36.0265 31.6984C36.5046 33.0125 36.9749 34.5672 36.8468 35.5656Z" fill="black"/>
<path d="M37.7 20.6469C38.8047 19.5389 39.4251 18.0381 39.4251 16.4734C39.4251 14.9088 38.8047 13.408 37.7 12.3C35.4688 10.0719 31.5812 10.0719 29.3531 12.3C28.2391 13.4141 27.625 14.8969 27.625 16.4734C27.625 18.05 28.2406 19.5328 29.3531 20.6469C30.4672 21.7609 31.95 22.375 33.5266 22.375C35.1031 22.375 36.5844 21.7609 37.7 20.6469ZM35.7094 18.6578C34.5422 19.8266 32.5062 19.8266 31.3422 18.6578C30.7578 18.075 30.4359 17.2984 30.4359 16.4734C30.4359 15.6484 30.7578 14.8734 31.3422 14.2891C31.6281 14.0014 31.9683 13.7734 32.343 13.6181C32.7177 13.4628 33.1194 13.3834 33.525 13.3844C34.1356 13.3851 34.7324 13.5667 35.2399 13.9062C35.7475 14.2458 36.1431 14.7281 36.3767 15.2922C36.6104 15.8564 36.6718 16.4772 36.553 17.0761C36.4342 17.6751 36.1407 18.2255 35.7094 18.6578Z" fill="black"/>
</svg>
