<svg width="28" height="28" viewBox="0 0 28 28" fill="none" xmlns="http://www.w3.org/2000/svg">
<g clip-path="url(#clip0_140_13712)">
<path d="M14 28C21.7198 28 28 21.7198 28 14C28 6.28017 21.7198 0 14 0C6.28017 0 0 6.28017 0 14C0 21.7198 6.28017 28 14 28ZM14 1.75C20.755 1.75 26.25 7.245 26.25 14C26.25 20.755 20.755 26.25 14 26.25C7.245 26.25 1.75 20.755 1.75 14C1.75 7.245 7.245 1.75 14 1.75Z" fill="#FFB661"/>
<path d="M9.21199 16.5142L11.0413 15.7197L10.528 16.2342C10.3639 16.3981 10.2715 16.6205 10.2713 16.8525V20.2767C10.2713 21.0607 11.2187 21.441 11.7647 20.895L13.601 19.0587L17.6027 21.0595C17.7242 21.1202 17.8581 21.1517 17.994 21.1517C18.1298 21.1516 18.2637 21.1199 18.3852 21.0591C18.5066 20.9984 18.6123 20.9101 18.6937 20.8014C18.7752 20.6928 18.8302 20.5666 18.8545 20.433L21.1377 7.87848C21.1653 7.72517 21.1516 7.56724 21.0979 7.42099C21.0442 7.27474 20.9525 7.14544 20.8322 7.04643C20.712 6.94742 20.5674 6.88228 20.4136 6.85771C20.2597 6.83314 20.1021 6.85003 19.957 6.90665L5.12166 12.7132C4.9712 12.772 4.83996 12.8713 4.74248 13.0001C4.645 13.129 4.58509 13.2822 4.56939 13.443C4.55369 13.6038 4.5828 13.7658 4.65351 13.9111C4.72422 14.0563 4.83376 14.1792 4.96999 14.266L8.39299 16.45C8.63799 16.6063 8.94716 16.6308 9.21199 16.5142ZM19.1357 9.10932L17.3425 18.9735L13.8192 17.213C13.655 17.1308 13.4691 17.1024 13.288 17.132C13.1068 17.1615 12.9395 17.2474 12.81 17.3775L12.0213 18.1662V17.2177L15.5295 13.7095C16.2097 13.0293 15.4443 11.907 14.5623 12.2885L8.94249 14.7268L7.36283 13.7188L19.1357 9.10932Z" fill="#FFB661"/>
</g>
<defs>
<clipPath id="clip0_140_13712">
<rect width="28" height="28" fill="white"/>
</clipPath>
</defs>
</svg>
