<svg width="80" height="80" viewBox="0 0 80 80" fill="none" xmlns="http://www.w3.org/2000/svg">
<g clip-path="url(#clip0_140_5516)">
<path d="M72.5 17.7499L78.925 11.3249C79.1939 11.0568 79.375 10.7134 79.4445 10.3402C79.5139 9.96688 79.4684 9.58132 79.3139 9.23446C79.1595 8.88762 78.9034 8.59583 78.5795 8.39771C78.2556 8.19959 77.8791 8.10447 77.5 8.12494H71.875V2.49994C71.8775 2.13045 71.7693 1.76867 71.5643 1.46122C71.3594 1.15377 71.067 0.914747 70.725 0.774943C70.3822 0.630782 70.0042 0.591839 69.6392 0.663066C69.2741 0.734293 68.9385 0.912471 68.675 1.17494L62.25 7.49994C55.7108 2.987 47.9452 0.587504 40 0.624943C32.2124 0.624943 24.5996 2.93425 18.1244 7.26083C11.6493 11.5874 6.60246 17.7369 3.62226 24.9318C0.64206 32.1266 -0.137696 40.0436 1.3816 47.6816C2.90089 55.3196 6.651 62.3356 12.1577 67.8423C17.6644 73.349 24.6803 77.0991 32.3183 78.6184C39.9563 80.1376 47.8733 79.3579 55.0682 76.3777C62.263 73.3975 68.4125 68.3507 72.7391 61.8755C77.0657 55.4003 79.375 47.7876 79.375 39.9999C79.4125 32.0548 77.013 24.2891 72.5 17.7499ZM70 11.8749H72.975L69.225 15.6249H64.375V10.7749L68.125 7.02494V9.99994C68.1315 10.4952 68.3311 10.9684 68.6814 11.3186C69.0316 11.6688 69.5047 11.8685 70 11.8749ZM45.125 39.9999C45.1068 41.0693 44.7462 42.1047 44.0961 42.954C43.446 43.8033 42.5407 44.4217 41.5131 44.7185C40.4856 45.0153 39.39 44.9747 38.3872 44.6028C37.3844 44.2309 36.5272 43.5473 35.9417 42.6523C35.3561 41.7573 35.073 40.6981 35.1338 39.6303C35.1947 38.5625 35.5964 37.5423 36.2799 36.7196C36.9633 35.897 37.8926 35.3152 38.9311 35.0596C39.9697 34.8041 41.0629 34.8883 42.05 35.2999L38.675 38.6749C38.3239 39.0265 38.1267 39.5031 38.1267 39.9999C38.1267 40.4968 38.3239 40.9734 38.675 41.3249C39.0266 41.6761 39.5031 41.8733 40 41.8733C40.4969 41.8733 40.9735 41.6761 41.325 41.3249L44.7 37.9499C44.9848 38.5956 45.1296 39.2943 45.125 39.9999ZM44.8 32.4999C42.9518 31.3174 40.7319 30.8592 38.5665 31.2134C36.4011 31.5676 34.4429 32.7093 33.0678 34.4191C31.6927 36.129 30.9977 38.2865 31.1163 40.4775C31.2348 42.6685 32.1585 44.7384 33.71 46.2899C35.2615 47.8415 37.3315 48.7652 39.5225 48.8837C41.7134 49.0022 43.871 48.3072 45.5808 46.9322C47.2907 45.5571 48.4323 43.5989 48.7865 41.4335C49.1407 39.2681 48.6826 37.0482 47.5 35.1999L52.325 30.3749C54.4802 33.1186 55.6433 36.511 55.625 39.9999C55.625 43.0903 54.7086 46.1112 52.9917 48.6807C51.2748 51.2502 48.8345 53.2529 45.9794 54.4356C43.1243 55.6182 39.9827 55.9276 36.9517 55.3247C33.9208 54.7218 31.1367 53.2337 28.9515 51.0485C26.7663 48.8633 25.2781 46.0792 24.6752 43.0482C24.0724 40.0173 24.3818 36.8756 25.5644 34.0205C26.747 31.1654 28.7497 28.7251 31.3192 27.0082C33.8887 25.2913 36.9097 24.3749 40 24.3749C43.4949 24.3708 46.8879 25.5518 49.625 27.7249L44.8 32.4999ZM52.3 24.9999C48.8379 22.1478 44.4855 20.5997 40 20.6249C36.168 20.6249 32.422 21.7613 29.2358 23.8902C26.0496 26.0192 23.5663 29.0451 22.0998 32.5854C20.6334 36.1258 20.2497 40.0214 20.9973 43.7798C21.7449 47.5382 23.5902 50.9905 26.2998 53.7001C29.0095 56.4098 32.4618 58.2551 36.2201 59.0027C39.9785 59.7502 43.8742 59.3666 47.4145 57.9001C50.9548 56.4337 53.9808 53.9503 56.1097 50.7641C58.2387 47.5779 59.375 43.832 59.375 39.9999C59.4002 35.5144 57.8521 31.162 55 27.6999L59.425 23.2749C63.7743 28.3104 66.0012 34.8364 65.6373 41.4801C65.2733 48.1239 62.3467 54.3676 57.4733 58.8977C52.5999 63.4278 46.1595 65.8913 39.5069 65.7699C32.8543 65.6486 26.508 62.9518 21.8031 58.2469C17.0982 53.542 14.4014 47.1957 14.28 40.5431C14.1586 33.8904 16.6221 27.45 21.1522 22.5766C25.6824 17.7032 31.926 14.7767 38.5698 14.4127C45.2136 14.0487 51.7396 16.2756 56.775 20.6249L52.3 24.9999ZM40 75.6249C34.3881 75.6354 28.8532 74.32 23.8461 71.7858C18.839 69.2516 14.5014 65.5703 11.1868 61.042C7.87211 56.5136 5.67414 51.2662 4.77194 45.7273C3.86974 40.1884 4.28883 34.5148 5.99506 29.1686C7.7013 23.8224 10.6464 18.9549 14.5904 14.9627C18.5345 10.9705 23.3659 7.96649 28.691 6.19549C34.0161 4.42449 39.6842 3.93657 45.2336 4.77147C50.7831 5.60638 56.0567 7.74049 60.625 10.9999V16.7249L59.375 17.9749C53.629 12.9171 46.1406 10.2932 38.4944 10.6583C30.8482 11.0234 23.6439 14.3489 18.4059 19.9312C13.168 25.5134 10.3072 32.9145 10.4289 40.5685C10.5507 48.2225 13.6454 55.5289 19.0582 60.9417C24.4711 66.3546 31.7775 69.4493 39.4314 69.571C47.0854 69.6928 54.4865 66.832 60.0688 61.594C65.6511 56.356 68.9766 49.1518 69.3417 41.5055C69.7068 33.8593 67.0828 26.371 62.025 20.6249L63.275 19.3749H69C72.8011 24.6974 75.0613 30.9647 75.5323 37.4882C76.0033 44.0116 74.6668 50.5386 71.6697 56.3519C68.6726 62.1652 64.131 67.0397 58.5439 70.4399C52.9567 73.84 46.5404 75.6341 40 75.6249Z" fill="#FFB661"/>
</g>
<defs>
<clipPath id="clip0_140_5516">
<rect width="80" height="80" fill="white"/>
</clipPath>
</defs>
</svg>
