<svg width="80" height="80" viewBox="0 0 80 80" fill="none" xmlns="http://www.w3.org/2000/svg">
<g clip-path="url(#clip0_140_5427)">
<path d="M56.6663 60C56.6663 57.3478 55.6128 54.8043 53.7374 52.9289C51.862 51.0536 49.3185 50 46.6663 50C44.0142 50 41.4706 51.0536 39.5953 52.9289C37.7199 54.8043 36.6663 57.3478 36.6663 60H43.333C43.333 59.1159 43.6842 58.2681 44.3093 57.643C44.9344 57.0179 45.7823 56.6667 46.6663 56.6667C47.5504 56.6667 48.3982 57.0179 49.0234 57.643C49.6485 58.2681 49.9997 59.1159 49.9997 60C49.9997 61.6667 47.1663 63.7933 44.6663 65.6667C40.9163 68.48 36.6663 71.6667 36.6663 76.6667V80H56.6663V73.3333H45.6997C46.603 72.5467 47.663 71.7533 48.6663 71C52.4163 68.1867 56.6663 65 56.6663 60ZM73.333 63.3333H66.6663V50H59.9997V63.3333C59.9997 65.1014 60.7021 66.7971 61.9523 68.0474C63.2025 69.2976 64.8982 70 66.6663 70H73.333V80H79.9997V50H73.333V63.3333ZM43.333 20H36.6663V36.6667H23.333V43.3333H43.333V20Z" fill="#FFB661"/>
<path d="M73.3333 6.66663V17.9133C69.7544 12.5007 64.912 8.04037 59.224 4.9175C53.536 1.79464 47.1735 0.103044 40.6857 -0.0112519C34.1978 -0.125548 27.7796 1.34089 21.9852 4.26147C16.1908 7.18205 11.1942 11.469 7.42692 16.7522C3.6596 22.0355 1.23473 28.1562 0.361643 34.586C-0.511446 41.0159 0.193488 47.5616 2.41558 53.6581C4.63768 59.7546 8.31017 65.2187 13.116 69.5787C17.9218 73.9386 23.7166 77.0634 30 78.6833V71.7966C24.8177 70.1847 20.1073 67.3317 16.2782 63.4856C12.449 59.6395 9.61693 54.9166 8.02788 49.7272C6.43883 44.5379 6.14092 39.039 7.16003 33.7083C8.17914 28.3776 10.4844 23.3764 13.8757 19.1391C17.2669 14.9018 21.6414 11.5567 26.6192 9.3943C31.5971 7.23191 37.0276 6.31766 42.4391 6.731C47.8505 7.14433 53.0792 8.87275 57.6709 11.7661C62.2626 14.6594 66.0783 18.6301 68.7866 23.3333H56.6666V30H73.3333C75.1014 30 76.7971 29.2976 78.0474 28.0473C79.2976 26.7971 80 25.1014 80 23.3333V6.66663H73.3333Z" fill="#FFB661"/>
</g>
<defs>
<clipPath id="clip0_140_5427">
<rect width="80" height="80" fill="white"/>
</clipPath>
</defs>
</svg>
