<svg width="100" height="100" viewBox="0 0 100 100" fill="none" xmlns="http://www.w3.org/2000/svg">
<path d="M90.2084 39.0095C89.6593 38.6702 89.0201 38.5059 88.3755 38.5383C87.7308 38.5707 87.1113 38.7983 86.599 39.191L68.7656 52.8449L52.5447 31.3099C52.2526 30.9227 51.876 30.6072 51.4435 30.3875C51.011 30.1679 50.5341 30.0498 50.049 30.0424C49.0861 30.0275 48.1318 30.467 47.516 31.2345L30.1996 52.8312L13.4725 39.2474C12.9656 38.8354 12.3443 38.5892 11.6927 38.5423C11.0412 38.4953 10.391 38.65 9.83028 38.9851C9.26997 39.3207 8.82625 39.8202 8.55912 40.4162C8.292 41.0122 8.21436 41.6758 8.33673 42.3174L13.8568 71.1922C13.996 71.9199 14.3846 72.5764 14.9556 73.0486C15.5266 73.5208 16.2444 73.7792 16.9854 73.7793H83.0151C84.5438 73.7793 85.8568 72.6943 86.1424 71.1922L91.6625 42.3174C91.7839 41.6836 91.7099 41.0279 91.4502 40.4372C91.1905 39.8464 90.7575 39.3486 90.2084 39.0095ZM80.3826 67.4097H19.6193L16.2318 49.6943L28.6725 59.7972C29.3307 60.3312 30.1756 60.5765 31.0186 60.4916C31.436 60.4469 31.8406 60.3202 32.2089 60.1187C32.5773 59.9172 32.9022 59.645 33.165 59.3175L49.9219 38.4162L65.6109 59.241C65.8637 59.577 66.1805 59.8595 66.5431 60.0724C66.9057 60.2852 67.3069 60.424 67.7234 60.4808C68.5684 60.5976 69.4156 60.3693 70.0908 59.8535L83.8402 49.3259L80.3826 67.4097Z" fill="#FFB661"/>
<path d="M79.8301 70.5944V78.7685H20.1699V70.5944H13.8004V81.9532C13.8004 83.7122 15.226 85.138 16.9852 85.138H83.0148C84.7738 85.138 86.1996 83.7124 86.1996 81.9532V70.5944H79.8301ZM50 14.8618C44.1465 14.8618 39.3844 19.6241 39.3844 25.4774C39.3844 31.331 44.1467 36.0931 50 36.0931C55.8535 36.0931 60.6156 31.3308 60.6156 25.4774C60.6156 19.6241 55.8535 14.8618 50 14.8618ZM50 29.7239C47.6582 29.7239 45.7537 27.8194 45.7537 25.4776C45.7537 23.1358 47.6582 21.2313 50 21.2313C52.3418 21.2313 54.2463 23.1358 54.2463 25.4776C54.2463 27.8194 52.3418 29.7239 50 29.7239ZM89.3844 23.2483C83.5309 23.2483 78.7687 28.0104 78.7687 33.864C78.7687 39.7175 83.5311 44.4796 89.3844 44.4796C95.2379 44.4796 100 39.7173 100 33.864C100 28.0104 95.2377 23.2483 89.3844 23.2483ZM89.3844 38.1103C87.0426 38.1103 85.1381 36.2058 85.1381 33.864C85.1381 31.5222 87.0426 29.6177 89.3844 29.6177C91.7262 29.6177 93.6307 31.5222 93.6307 33.864C93.6307 36.2058 91.7262 38.1103 89.3844 38.1103ZM10.6156 23.2483C4.7623 23.2483 0 28.0104 0 33.864C0 39.7175 4.7623 44.4796 10.6156 44.4796C16.4691 44.4796 21.2313 39.7173 21.2313 33.864C21.2314 28.0104 16.4691 23.2483 10.6156 23.2483ZM10.6156 38.1103C8.27383 38.1103 6.36934 36.2058 6.36934 33.864C6.36934 31.5222 8.27383 29.6177 10.6156 29.6177C12.9574 29.6177 14.8619 31.5222 14.8619 33.864C14.8619 36.2058 12.9576 38.1103 10.6156 38.1103Z" fill="#FFB661"/>
</svg>
