<svg width="50" height="50" viewBox="0 0 50 50" fill="none" xmlns="http://www.w3.org/2000/svg">
<g clip-path="url(#clip0_0_15)">
<path d="M34.7656 22.8234V2.92969H2.92969V47.0703H28.8117C29.6207 47.0703 30.2766 47.7262 30.2766 48.5352C30.2766 49.3442 29.6207 50 28.8117 50H1.46484C0.655836 50 0 49.3442 0 48.5352V1.46484C0 0.655836 0.655836 0 1.46484 0H36.2305C37.0395 0 37.6953 0.655836 37.6953 1.46484V22.8234C37.6953 23.6324 37.0395 24.2883 36.2305 24.2883C35.4215 24.2883 34.7656 23.6324 34.7656 22.8234Z" fill="black"/>
<path d="M45.0623 28.0947C44.3187 24.9452 41.1627 22.995 38.0132 23.7387C34.8638 24.4824 32.9136 27.6383 33.6572 30.7878C34.4009 33.9372 37.5569 35.8875 40.7063 35.1438C43.8558 34.4001 45.806 31.2441 45.0623 28.0947ZM47.9136 27.4214C49.0291 32.1455 46.1038 36.8795 41.3796 37.995C36.6555 39.1106 31.9215 36.1852 30.806 31.4611C29.6904 26.7369 32.6158 22.0029 37.34 20.8874C42.0641 19.7719 46.7981 22.6972 47.9136 27.4214Z" fill="black"/>
<path d="M48.5352 35.3516C49.3442 35.3516 50 36.0074 50 36.8164V42.6758C50 43.4531 49.3946 44.0888 48.6296 44.1375V48.5352C48.6296 49.3442 47.9737 50 47.1647 50H28.8117C28.0027 50 27.3469 49.3442 27.3469 48.5352V42.6758C27.3469 41.8985 27.9523 41.2626 28.7173 41.214V36.8164C28.7173 36.0074 29.3732 35.3516 30.1822 35.3516H48.5352ZM30.2766 47.0703H45.6999V44.1406H30.2766V47.0703ZM14.6484 39.5507C15.4574 39.5507 16.1133 40.2065 16.1133 41.0155C16.1133 41.8245 15.4574 42.4804 14.6484 42.4804H7.32422C6.51521 42.4804 5.85938 41.8245 5.85938 41.0155C5.85938 40.2065 6.51521 39.5507 7.32422 39.5507H14.6484ZM31.647 41.2109H47.0703V38.2812H31.647V41.2109ZM24.707 33.6912C25.516 33.6912 26.1719 34.3471 26.1719 35.1561C26.1719 35.9651 25.516 36.6209 24.707 36.6209H7.32422C6.51521 36.6209 5.85938 35.9651 5.85938 35.1561C5.85938 34.3471 6.51521 33.6912 7.32422 33.6912H24.707ZM24.707 27.8319C25.516 27.8319 26.1719 28.4878 26.1719 29.2968C26.1719 30.1058 25.516 30.7616 24.707 30.7616H7.32422C6.51521 30.7616 5.85938 30.1058 5.85938 29.2968C5.85938 28.4878 6.51521 27.8319 7.32422 27.8319H24.707ZM28.9062 7.32422C28.9062 6.51521 29.562 5.85938 30.371 5.85938C31.18 5.85938 31.8358 6.51521 31.8358 7.32422V19.2121C32.3005 19.4576 32.6172 19.9458 32.6172 20.5079C32.6172 21.3169 31.9614 21.9728 31.1523 21.9728H6.54297C5.73396 21.9728 5.07812 21.3169 5.07812 20.5079C5.07813 19.9458 5.39476 19.4577 5.85938 19.2121V13.0899C5.85938 12.2809 6.51521 11.6251 7.32422 11.6251C8.13323 11.6251 8.78906 12.2809 8.78906 13.0899V19.0431H11.6212V7.51953C11.6212 6.71052 12.277 6.05469 13.086 6.05469C13.895 6.05469 14.5509 6.71052 14.5509 7.51953V19.0431H17.3828V9.72996C17.3828 8.92096 18.0387 8.26511 18.8477 8.26511C19.6567 8.26511 20.3125 8.92096 20.3125 9.72996V19.0431H23.1445V10.7422C23.1445 9.93318 23.8004 9.27734 24.6094 9.27734C25.4184 9.27734 26.0742 9.93318 26.0742 10.7422V19.0431H28.9062V7.32422Z" fill="black"/>
</g>
<defs>
<clipPath id="clip0_0_15">
<rect width="50" height="50" fill="white"/>
</clipPath>
</defs>
</svg>
