<svg width="28" height="28" viewBox="0 0 28 28" fill="none" xmlns="http://www.w3.org/2000/svg">
<g clip-path="url(#clip0_140_13713)">
<path d="M26.3594 14C26.3594 7.17411 20.8259 1.64062 14 1.64062C7.17411 1.64062 1.64062 7.17411 1.64062 14C1.64062 20.8259 7.17411 26.3594 14 26.3594C20.8259 26.3594 26.3594 20.8259 26.3594 14ZM28 14C28 21.732 21.732 28 14 28C6.26801 28 0 21.732 0 14C0 6.26801 6.26801 0 14 0C21.732 0 28 6.26801 28 14Z" fill="#FFB661"/>
<path d="M21.8119 7.9411C22.2649 7.94111 22.6322 8.30838 22.6322 8.76141V19.2386C22.6322 19.6916 22.2649 20.0589 21.8119 20.0589H6.18817C5.73513 20.0589 5.36786 19.6916 5.36786 19.2386V8.76141C5.36786 8.30837 5.73513 7.9411 6.18817 7.9411H21.8119ZM7.00848 18.4182H20.9916V9.58173H7.00848V18.4182Z" fill="#FFB661"/>
<path d="M21.2191 8.17525C21.5715 7.89057 22.088 7.94549 22.3727 8.29792C22.6574 8.65036 22.6024 9.16686 22.25 9.45154L14.5154 15.6991C14.2147 15.9419 13.7853 15.9419 13.4845 15.6991L5.75001 9.45154C5.39758 9.16686 5.34266 8.65035 5.62733 8.29792C5.91201 7.94549 6.42852 7.89057 6.78095 8.17525L14 14.0064L21.2191 8.17525Z" fill="#FFB661"/>
</g>
<defs>
<clipPath id="clip0_140_13713">
<rect width="28" height="28" fill="white"/>
</clipPath>
</defs>
</svg>
