<svg width="100" height="100" viewBox="0 0 100 100" fill="none" xmlns="http://www.w3.org/2000/svg">
<path d="M80.6803 43.2798C80.1797 42.1981 79.3774 41.2839 78.3698 40.647C77.3622 40.0102 76.1922 39.6778 75.0003 39.6898H61.4103L68.0003 12.9298C68.3505 11.5641 68.2295 10.1201 67.6567 8.83175C67.084 7.54339 66.093 6.48611 64.8445 5.83116C63.5959 5.1762 62.1628 4.96193 60.7772 5.22304C59.3917 5.48415 58.1348 6.20535 57.2103 7.26983L20.2103 49.9998L20.1503 50.0598C19.3917 50.9769 18.9103 52.0912 18.7624 53.2721C18.6145 54.453 18.8063 55.6516 19.3153 56.7273C19.8244 57.8031 20.6295 58.7115 21.6364 59.346C22.6433 59.9805 23.8102 60.3149 25.0003 60.3098H38.5903L32.0003 87.0698C31.624 88.4498 31.7347 89.9173 32.314 91.2251C32.8932 92.5329 33.9055 93.6011 35.1803 94.2498C36.0761 94.7154 37.0707 94.9589 38.0803 94.9598C38.9863 94.9628 39.8816 94.7643 40.7014 94.3786C41.5212 93.9929 42.245 93.4297 42.8203 92.7298L79.8803 49.9298C80.6353 49.0138 81.1119 47.9005 81.2537 46.7219C81.3955 45.5434 81.1965 44.3488 80.6803 43.2798ZM39.4803 85.8598L45.5803 61.1898C45.8278 60.2662 45.8604 59.2981 45.6755 58.3598C45.4907 57.4216 45.0934 56.5382 44.5141 55.7774C43.9348 55.0165 43.1889 54.3985 42.3337 53.9708C41.4784 53.5431 40.5365 53.317 39.5803 53.3098H26.6103L60.5203 14.1398L54.4203 38.8098C54.1728 39.7335 54.1402 40.7016 54.325 41.6398C54.5098 42.5781 54.9071 43.4615 55.4864 44.2223C56.0657 44.9831 56.8116 45.6011 57.6669 46.0289C58.5222 46.4566 59.464 46.6827 60.4203 46.6898H73.3903L39.4803 85.8598Z" fill="#FFB661"/>
</svg>
