<svg width="80" height="80" viewBox="0 0 80 80" fill="none" xmlns="http://www.w3.org/2000/svg">
<path d="M51.2969 24.375L32.7813 39.625V31.2812C32.7813 30.875 32.4531 30.5312 32.0313 30.5312L29.9375 30.4844C26.9531 30.3594 24.0313 30.6719 21.2656 31.4375C15.7031 33.0781 11.5 36.1562 7.9375 41.2969V38.9375C7.95313 38.8594 7.96875 38.7656 7.98437 38.6562C7.98437 36.3125 8.42188 33.8438 9.21875 31.5625C12.0781 23.5938 19.8281 18.2812 28.5313 18.2812H32C32.4219 18.2812 32.75 17.9375 32.75 17.5312V9.125L51.2969 24.375ZM72.0625 38.75V41.125C72.0313 41.2031 72.0156 41.2969 72.0156 41.3906C72.0156 43.7344 71.5781 46.2031 70.7813 48.4844C67.9219 56.4531 60.1719 61.7656 51.4688 61.7656H48C47.5781 61.7656 47.2344 62.1094 47.2344 62.5313V70.875L28.7188 55.6406L47.2188 40.4063V48.75C47.2188 49.1562 47.5469 49.5 47.9688 49.5156L50.0625 49.5625C53.0469 49.6875 55.9688 49.375 58.7344 48.6094C64.2969 46.9531 68.4844 43.8906 72.0625 38.75Z" fill="#FFB661"/>
</svg>
