<svg width="50" height="50" viewBox="0 0 50 50" fill="none" xmlns="http://www.w3.org/2000/svg">
<path d="M46.875 26.5625C47.2894 26.5625 47.6868 26.3979 47.9799 26.1049C48.2729 25.8118 48.4375 25.4144 48.4375 25C48.4375 24.5856 48.2729 24.1882 47.9799 23.8951C47.6868 23.6021 47.2894 23.4375 46.875 23.4375H42.1875V17.1875H46.875C47.2894 17.1875 47.6868 17.0229 47.9799 16.7299C48.2729 16.4368 48.4375 16.0394 48.4375 15.625C48.4375 15.2106 48.2729 14.8132 47.9799 14.5201C47.6868 14.2271 47.2894 14.0625 46.875 14.0625H42.0312C41.7076 12.5084 40.9181 11.0899 39.7681 9.99566C38.6181 8.90145 37.162 8.18353 35.5938 7.9375V3.125C35.5938 2.7106 35.4291 2.31317 35.1361 2.02015C34.8431 1.72712 34.4457 1.5625 34.0312 1.5625C33.6169 1.5625 33.2194 1.72712 32.9264 2.02015C32.6334 2.31317 32.4688 2.7106 32.4688 3.125V7.8125H26.5625V3.125C26.5625 2.7106 26.3979 2.31317 26.1049 2.02015C25.8118 1.72712 25.4144 1.5625 25 1.5625C24.5856 1.5625 24.1882 1.72712 23.8951 2.02015C23.6021 2.31317 23.4375 2.7106 23.4375 3.125V7.8125H16.8438V3.125C16.8438 2.7106 16.6791 2.31317 16.3861 2.02015C16.0931 1.72712 15.6957 1.5625 15.2812 1.5625C14.8668 1.5625 14.4694 1.72712 14.1764 2.02015C13.8834 2.31317 13.7188 2.7106 13.7188 3.125V8.07812C12.2949 8.43475 11.0004 9.18526 9.98342 10.2437C8.96646 11.3021 8.26823 12.6256 7.96875 14.0625H3.125C2.7106 14.0625 2.31317 14.2271 2.02015 14.5201C1.72712 14.8132 1.5625 15.2106 1.5625 15.625C1.5625 16.0394 1.72712 16.4368 2.02015 16.7299C2.31317 17.0229 2.7106 17.1875 3.125 17.1875H7.8125V23.4375H3.125C2.7106 23.4375 2.31317 23.6021 2.02015 23.8951C1.72712 24.1882 1.5625 24.5856 1.5625 25C1.5625 25.4144 1.72712 25.8118 2.02015 26.1049C2.31317 26.3979 2.7106 26.5625 3.125 26.5625H7.8125V32.8125H3.125C2.7106 32.8125 2.31317 32.9771 2.02015 33.2701C1.72712 33.5632 1.5625 33.9606 1.5625 34.375C1.5625 34.7894 1.72712 35.1868 2.02015 35.4799C2.31317 35.7729 2.7106 35.9375 3.125 35.9375H7.96875C8.26823 37.3744 8.96646 38.6979 9.98342 39.7563C11.0004 40.8147 12.2949 41.5653 13.7188 41.9219V46.875C13.7188 47.2894 13.8834 47.6868 14.1764 47.9799C14.4694 48.2729 14.8668 48.4375 15.2812 48.4375C15.6957 48.4375 16.0931 48.2729 16.3861 47.9799C16.6791 47.6868 16.8438 47.2894 16.8438 46.875V42.1875H23.4375V46.875C23.4375 47.2894 23.6021 47.6868 23.8951 47.9799C24.1882 48.2729 24.5856 48.4375 25 48.4375C25.4144 48.4375 25.8118 48.2729 26.1049 47.9799C26.3979 47.6868 26.5625 47.2894 26.5625 46.875V42.1875H32.4688V46.875C32.4688 47.2894 32.6334 47.6868 32.9264 47.9799C33.2194 48.2729 33.6169 48.4375 34.0312 48.4375C34.4457 48.4375 34.8431 48.2729 35.1361 47.9799C35.4291 47.6868 35.5938 47.2894 35.5938 46.875V42.0625C37.162 41.8165 38.6181 41.0986 39.7681 40.0043C40.9181 38.9101 41.7076 37.4916 42.0312 35.9375H46.875C47.2894 35.9375 47.6868 35.7729 47.9799 35.4799C48.2729 35.1868 48.4375 34.7894 48.4375 34.375C48.4375 33.9606 48.2729 33.5632 47.9799 33.2701C47.6868 32.9771 47.2894 32.8125 46.875 32.8125H42.1875V26.5625H46.875ZM34.375 39.0625H15.625C14.3818 39.0625 13.1895 38.5686 12.3104 37.6896C11.4314 36.8105 10.9375 35.6182 10.9375 34.375V15.625C10.9375 14.3818 11.4314 13.1895 12.3104 12.3104C13.1895 11.4314 14.3818 10.9375 15.625 10.9375H34.375C35.6182 10.9375 36.8105 11.4314 37.6896 12.3104C38.5686 13.1895 39.0625 14.3818 39.0625 15.625V34.375C39.0625 35.6182 38.5686 36.8105 37.6896 37.6896C36.8105 38.5686 35.6182 39.0625 34.375 39.0625Z" fill="black"/>
<path d="M31.25 14.0625H18.75C17.5068 14.0625 16.3145 14.5564 15.4354 15.4354C14.5564 16.3145 14.0625 17.5068 14.0625 18.75V31.25C14.0625 32.4932 14.5564 33.6855 15.4354 34.5646C16.3145 35.4436 17.5068 35.9375 18.75 35.9375H31.25C32.4932 35.9375 33.6855 35.4436 34.5646 34.5646C35.4436 33.6855 35.9375 32.4932 35.9375 31.25V18.75C35.9375 17.5068 35.4436 16.3145 34.5646 15.4354C33.6855 14.5564 32.4932 14.0625 31.25 14.0625ZM32.8125 31.25C32.8125 31.6644 32.6479 32.0618 32.3549 32.3549C32.0618 32.6479 31.6644 32.8125 31.25 32.8125H18.75C18.3356 32.8125 17.9382 32.6479 17.6451 32.3549C17.3521 32.0618 17.1875 31.6644 17.1875 31.25V18.75C17.1875 18.3356 17.3521 17.9382 17.6451 17.6451C17.9382 17.3521 18.3356 17.1875 18.75 17.1875H31.25C31.6644 17.1875 32.0618 17.3521 32.3549 17.6451C32.6479 17.9382 32.8125 18.3356 32.8125 18.75V31.25Z" fill="black"/>
</svg>
