<svg width="100" height="100" viewBox="0 0 100 100" fill="none" xmlns="http://www.w3.org/2000/svg">
<g clip-path="url(#clip0_0_7)">
<path d="M96.1077 94.1392V100H3.8916V94.1392H96.1077Z" fill="#FFB661"/>
<path d="M68.855 100L68.855 22.2803H89.9531L89.9531 100H68.855ZM84.0922 28.141H74.7159L74.7159 94.1391H84.0922L84.0922 28.141Z" fill="#FFB661"/>
<path d="M74.8008 97.0697H68.9401V7.72991L31.0601 18.3508V36.7546H25.1992V13.9074L74.8008 0V97.0697Z" fill="#FFB661"/>
<path d="M46.3813 33.8241V99.9998H10.0459V33.8241H46.3813ZM15.9068 94.1391H40.5206V39.6848H15.9068V94.1391ZM31.144 70.4698V82.258H25.2831V70.4698H31.144ZM59.4785 70.4698V82.258H53.6178V70.4698H59.4785ZM31.144 48.9406V60.7288H25.2831V48.9406H31.144ZM59.4785 48.9406V60.7288H53.6178V48.9406H59.4785ZM59.4785 27.4116V39.1998H53.6178V27.4116H59.4785Z" fill="#FFB661"/>
</g>
<defs>
<clipPath id="clip0_0_7">
<rect width="100" height="100" fill="white"/>
</clipPath>
</defs>
</svg>
