<svg width="50" height="50" viewBox="0 0 50 50" fill="none" xmlns="http://www.w3.org/2000/svg">
<path d="M23.9373 2.02369C21.1285 2.02019 18.3917 2.91244 16.1247 4.57078C13.8577 6.22913 12.1786 8.56716 11.3313 11.2451C10.484 13.9231 10.5127 16.8015 11.4132 19.462C12.3138 22.1226 14.0392 24.4267 16.3389 26.0394C12.3594 27.6298 8.94682 30.3746 6.54025 33.9206C4.13369 37.4666 2.84324 41.6516 2.83496 45.9371C2.86758 46.4673 3.1012 46.9651 3.48819 47.329C3.87519 47.693 4.38641 47.8956 4.91764 47.8956C5.44886 47.8956 5.96009 47.693 6.34708 47.329C6.73408 46.9651 6.9677 46.4673 7.00032 45.9371C6.99335 42.8593 7.81024 39.8358 9.36621 37.1803C10.9222 34.5248 13.1605 32.3341 15.8489 30.8357C18.5372 29.3372 21.5777 28.5856 24.6546 28.6588C27.7315 28.732 30.7327 29.6274 33.3468 31.252C33.5805 31.3968 33.8404 31.4941 34.1117 31.5384C34.383 31.5827 34.6604 31.5732 34.928 31.5103C35.1956 31.4474 35.4482 31.3325 35.6713 31.172C35.8945 31.0114 36.0839 30.8086 36.2287 30.5749C36.3734 30.3412 36.4707 30.0813 36.5151 29.81C36.5594 29.5387 36.5498 29.2613 36.4869 28.9937C36.4241 28.7261 36.3091 28.4735 36.1486 28.2503C35.9881 28.0271 35.7852 27.8377 35.5515 27.693C34.3414 26.9647 33.0622 26.3581 31.7326 25.882C35.0161 23.4804 37.1657 19.6142 37.1657 15.252C37.1657 7.98432 31.205 2.02369 23.9373 2.02369ZM23.9373 6.19692C28.9531 6.19692 32.9924 10.2363 32.9924 15.252C32.9924 20.2678 28.9531 24.2993 23.9373 24.2993C18.9216 24.2993 14.8901 20.2835 14.8901 15.252C14.8901 10.2363 18.9137 6.19692 23.9373 6.19692ZM45.0161 31.2048C44.6778 31.2144 44.3469 31.3062 44.052 31.4721C43.757 31.6381 43.5069 31.8734 43.3231 32.1575L36.142 42.9213L31.6381 39.9056C31.4101 39.7373 31.1503 39.617 30.8744 39.552C30.5986 39.487 30.3124 39.4787 30.0333 39.5275C29.7541 39.5763 29.4877 39.6813 29.2503 39.8361C29.0129 39.9909 28.8094 40.1922 28.6521 40.4279C28.4947 40.6637 28.3869 40.9289 28.335 41.2075C28.2832 41.4861 28.2884 41.7724 28.3504 42.0489C28.4124 42.3254 28.5299 42.5865 28.6958 42.8163C28.8616 43.0461 29.0724 43.2399 29.3153 43.3859L35.5751 47.5513C36.0358 47.8566 36.5987 47.9668 37.1405 47.8575C37.6823 47.7483 38.1586 47.4286 38.4649 46.9686L46.8035 34.4646C47.0199 34.1466 47.1443 33.775 47.1628 33.3907C47.1812 33.0065 47.0931 32.6246 46.9082 32.2873C46.7232 31.95 46.4486 31.6703 46.1147 31.4793C45.7808 31.2883 45.4006 31.1933 45.0161 31.2048Z" fill="white"/>
</svg>
