<svg width="100" height="100" viewBox="0 0 100 100" fill="none" xmlns="http://www.w3.org/2000/svg">
<path d="M27.5374 82.475C22.378 85.4375 16.5624 86.5 13.1187 86.8812C13.4999 83.4375 14.5624 77.6219 17.5218 72.4594C17.7109 72.1388 17.8345 71.784 17.8855 71.4153C17.9364 71.0466 17.9137 70.6715 17.8186 70.3117C17.7235 69.9519 17.558 69.6145 17.3316 69.3191C17.1051 69.0237 16.8223 68.7763 16.4996 68.591C16.1768 68.4057 15.8204 68.2863 15.4512 68.2398C15.0819 68.1933 14.7071 68.2205 14.3485 68.3198C13.9898 68.4192 13.6544 68.5888 13.3618 68.8187C13.0691 69.0487 12.8251 69.3344 12.6437 69.6594C7.34366 78.9031 7.28116 89.4594 7.28116 89.9062C7.28116 90.6522 7.57747 91.3675 8.10492 91.895C8.63236 92.4224 9.34773 92.7188 10.0937 92.7188C10.5405 92.7188 21.0968 92.6562 30.3405 87.3563C30.661 87.1722 30.9422 86.9268 31.1678 86.6341C31.3935 86.3414 31.5593 86.0071 31.6558 85.6504C31.7523 85.2936 31.7776 84.9213 31.7302 84.5547C31.6828 84.1882 31.5636 83.8346 31.3796 83.5141C31.1955 83.1936 30.9502 82.9124 30.6575 82.6868C30.3648 82.4611 30.0305 82.2953 29.6737 82.1988C29.3169 82.1023 28.9446 82.077 28.5781 82.1244C28.2115 82.1718 27.8579 82.2909 27.5374 82.475ZM96.5905 10.2344C96.6117 9.33109 96.4487 8.43296 96.1113 7.59479C95.7738 6.75663 95.2692 5.99601 94.628 5.35938C93.3311 4.0625 91.4562 3.42188 89.7624 3.40625C81.9749 3.55312 60.9687 5.7875 41.0937 23.6281C37.5499 22.25 32.2093 20.2031 28.1562 20.725C22.1937 21.4906 13.3843 29.6031 4.75616 38.2594C4.19526 38.8172 3.78845 39.5108 3.57541 40.2726C3.36237 41.0344 3.35035 41.8384 3.54053 42.6063C3.92178 44.1875 5.07803 45.4281 6.62803 45.925L20.3468 50.3313C19.2841 52.2569 18.2712 54.2096 17.3093 56.1875C16.7059 57.441 16.5076 58.8511 16.7416 60.2224C16.9757 61.5937 17.6306 62.8582 18.6155 63.8406L36.1562 81.3812C37.1397 82.3654 38.4045 83.0199 39.7759 83.2544C41.1473 83.489 42.5577 83.292 43.8124 82.6906C45.8499 81.7063 47.7812 80.6875 49.6624 79.6562L54.0718 93.3719C54.3674 94.3118 54.9568 95.132 55.7534 95.712C56.5499 96.2919 57.5115 96.601 58.4968 96.5938C59.6999 96.5938 60.8593 96.1219 61.7405 95.2438C70.3968 86.6156 78.5093 77.8094 79.2718 71.85C79.7999 67.7594 77.7468 62.45 76.3686 58.9062C94.2061 39.0312 96.4436 18.025 96.5905 10.2344ZM9.89991 41.0719C14.478 36.5125 24.4218 26.8781 28.8718 26.3062C30.8562 26.0531 33.9718 26.9937 36.603 27.9469C31.9562 32.75 27.4437 38.5062 23.2374 45.3531L9.89991 41.0719ZM41.3655 77.625C41.1625 77.7188 40.9357 77.7481 40.7156 77.7089C40.4954 77.6698 40.2925 77.5642 40.1343 77.4062L22.5905 59.8625C22.4327 59.7041 22.3274 59.5011 22.2888 59.2808C22.2503 59.0606 22.2803 58.8338 22.3749 58.6312C44.2218 13.3781 79.5593 9.22813 89.8718 9.03438H89.8968C90.2686 9.03438 90.5124 9.2 90.6562 9.34375C90.7591 9.44695 90.8402 9.56992 90.8944 9.70525C90.9487 9.84058 90.975 9.98549 90.9718 10.1312C90.7718 20.4438 86.6187 55.7812 41.3655 77.625ZM73.6936 71.1312C73.1218 75.5781 63.4874 85.525 58.928 90.1L54.6405 76.7656C61.4937 72.5594 67.2499 68.0438 72.053 63.3969C73.0093 66.025 73.9499 69.1344 73.6936 71.1312Z" fill="#FFB661"/>
<path d="M75.4 41.2937C77.6094 39.0777 78.8501 36.0761 78.8501 32.9469C78.8501 29.8176 77.6094 26.816 75.4 24.6C70.9375 20.1437 63.1625 20.1437 58.7062 24.6C56.4781 26.8281 55.25 29.7937 55.25 32.9469C55.25 36.1 56.4812 39.0656 58.7062 41.2937C60.9344 43.5219 63.9 44.75 67.0531 44.75C70.2063 44.75 73.1688 43.5219 75.4 41.2937ZM71.4187 37.3156C69.0844 39.6531 65.0125 39.6531 62.6844 37.3156C61.5156 36.15 60.8719 34.5969 60.8719 32.9469C60.8719 31.2969 61.5156 29.7469 62.6844 28.5781C63.2563 28.0029 63.9366 27.5468 64.686 27.2362C65.4353 26.9256 66.2388 26.7667 67.05 26.7687C68.2713 26.7702 69.4648 27.1334 70.4799 27.8125C71.495 28.4916 72.2861 29.4562 72.7535 30.5845C73.2209 31.7128 73.3435 32.9543 73.106 34.1523C72.8684 35.3503 72.2813 36.451 71.4187 37.3156Z" fill="#FFB661"/>
</svg>
