<svg width="125" height="125" viewBox="0 0 125 125" fill="none" xmlns="http://www.w3.org/2000/svg">
<path d="M62.5 114.598L8.3319 89.6254C8.5194 89.7386 3.53901 87.4888 0 85.4653C0 88.4849 0.757762 94.02 3.57435 95.5121L56.6056 119.352C61.2931 121.563 63.3125 121.563 68.3907 119.352L121.422 95.5121C124.043 94.2933 125 88.5549 125 85.4653C121.59 87.1722 116.762 89.6058 116.668 89.6254L62.5 114.598ZM62.5 10.5472C62.789 10.6409 62.8905 11.0043 62.5 10.5472V10.5472ZM3.57435 70.5394L56.6056 94.3793C61.2931 96.5901 63.3125 96.5901 68.3907 94.3793L121.422 70.5394C124.043 69.3207 125 63.5825 125 60.4925C121.59 62.1996 116.762 64.6332 116.668 64.6528L62.5 89.6254L8.3319 64.6528C8.5194 64.7661 3.53901 62.5159 0 60.4925C0 63.5121 0.757762 69.0474 3.57435 70.5394ZM3.57435 45.5668L56.6056 69.4067C61.2931 71.6177 63.3125 71.6177 68.3907 69.4067L121.422 45.5668C125.328 43.7465 125.457 36.0043 121.422 33.7933L68.3907 5.7933C64.2265 3.32455 61.2931 3.45343 56.6054 5.7933L3.57435 33.7933C-0.460989 36.3948 -0.589869 43.3558 3.57435 45.5668ZM62.5 10.5472L116.668 39.6799L62.5 62.5082L8.3319 39.6799L62.5 10.5472Z" fill="#FFB661"/>
</svg>
