<svg width="151" height="151" viewBox="0 0 151 151" fill="none" xmlns="http://www.w3.org/2000/svg">
<rect x="12.0507" y="12.0502" width="126.527" height="126.527" rx="63" fill="white"/>
<path fill-rule="evenodd" clip-rule="evenodd" d="M75.5288 9.47703C92.843 9.78991 109.342 16.8876 121.476 29.2427C133.61 41.5977 140.408 58.2225 140.408 75.5395C140.408 92.8565 133.61 109.481 121.476 121.836C109.342 134.191 92.843 141.289 75.5288 141.602C58.2147 141.289 41.7154 134.191 29.5816 121.836C17.4478 109.481 10.6494 92.8565 10.6494 75.5395C10.6494 58.2225 17.4478 41.5977 29.5816 29.2427C41.7154 16.8876 58.2147 9.78991 75.5288 9.47703ZM61.8094 96.9995L45.6308 80.8065C44.3065 79.4776 43.5629 77.678 43.5629 75.802C43.5629 73.9259 44.3065 72.1263 45.6308 70.7974C46.9619 69.4744 48.7623 68.7318 50.639 68.7318C52.5157 68.7318 54.3161 69.4744 55.6472 70.7974L67.0441 82.2087L95.4105 53.8423C96.7394 52.518 98.539 51.7744 100.415 51.7744C102.291 51.7744 104.091 52.518 105.42 53.8423C106.742 55.1721 107.485 56.9713 107.485 58.8468C107.485 60.7223 106.742 62.5216 105.42 63.8514L72.0414 97.2296C71.3639 97.9037 70.5571 98.434 69.6696 98.7887C68.782 99.1433 67.832 99.3151 66.8764 99.2936C65.9209 99.2721 64.9795 99.0578 64.1088 98.6636C63.2381 98.2694 62.456 97.7034 61.8094 96.9995Z" fill="#14F195"/>
</svg>
