<svg width="100" height="100" viewBox="0 0 100 100" fill="none" xmlns="http://www.w3.org/2000/svg">
<path d="M71.0459 53.8926H57.4578C53.739 53.8926 50.7148 56.9167 50.7148 60.6355V71.0564C50.7148 74.7753 53.739 77.7994 57.4578 77.7994H71.0459C74.7647 77.7994 77.7888 74.7753 77.7888 71.0564V60.6355C77.7888 56.9167 74.7647 53.8926 71.0459 53.8926ZM72.8848 71.0564C72.8848 72.0781 72.0471 72.8954 71.0459 72.8954H57.4578C56.4361 72.8954 55.6188 72.0577 55.6188 71.0564V60.6355C55.6188 59.6139 56.4566 58.7965 57.4578 58.7965H71.0459C72.0675 58.7965 72.8848 59.6343 72.8848 60.6355V71.0564Z" fill="#FFB661"/>
<path d="M100 34.9512C100 34.5221 99.8978 34.1134 99.6731 33.7456L84.7977 7.59115C84.3686 6.83512 83.5513 6.34473 82.6727 6.34473H17.3069C16.4283 6.34473 15.611 6.81469 15.1819 7.59115L0.326931 33.7456C0.122599 34.1134 0 34.5221 0 34.9512C0 40.8155 3.53494 45.8421 8.58194 48.0693V91.2037C8.58194 92.5523 9.68533 93.6557 11.0339 93.6557H88.9456C90.2942 93.6557 91.3976 92.5523 91.3976 91.2037V48.3758C91.3976 48.2736 91.3976 48.1919 91.3772 48.1102C96.4446 45.8829 100 40.8359 100 34.9512ZM18.7372 11.2691H81.2423L92.8688 31.7227H7.13118L18.7372 11.2691ZM71.1688 36.6063C70.3923 41.0198 66.5304 44.3709 61.8921 44.3709C57.2538 44.3709 53.3919 41.0198 52.6154 36.6063H71.1688ZM47.405 36.6063C46.6285 41.0198 42.7667 44.3709 38.1283 44.3709C33.49 44.3709 29.6281 41.0198 28.8312 36.6063H47.405ZM5.06743 36.6063H23.6412C22.8647 41.0198 18.9824 44.3709 14.3441 44.3709C9.70576 44.3913 5.84389 41.0198 5.06743 36.6063ZM41.1933 88.7518H27.0944V62.2908C27.0944 60.3701 28.6473 58.7967 30.5885 58.7967H37.7197C39.6404 58.7967 41.2137 60.3496 41.2137 62.2908V88.7518H41.1933ZM86.4937 88.7518H46.0973V62.2908C46.0973 57.6729 42.3376 53.8927 37.6992 53.8927H30.568C25.9501 53.8927 22.17 57.6525 22.17 62.2908V88.7722H13.4859V49.2748C13.772 49.2953 14.058 49.2953 14.3441 49.2953C19.2889 49.2953 23.6616 46.782 26.2362 42.961C28.8108 46.782 33.1835 49.2953 38.1283 49.2953C43.0732 49.2953 47.4254 46.782 50.0204 42.961C52.595 46.782 56.9677 49.2953 61.8921 49.2953C66.8369 49.2953 71.1892 46.782 73.7638 42.961C76.3384 46.782 80.7111 49.2953 85.6559 49.2953C85.942 49.2953 86.2076 49.2748 86.4937 49.2748V88.7518ZM85.6559 44.3913C81.0176 44.3913 77.1557 41.0403 76.3792 36.6267H94.953C94.1561 41.0198 90.2942 44.3913 85.6559 44.3913Z" fill="#FFB661"/>
</svg>
