<svg width="50" height="50" viewBox="0 0 50 50" fill="none" xmlns="http://www.w3.org/2000/svg">
<path d="M44.2656 35.6406L33.4688 34.4375L32.9688 30.5781C34.6114 29.3292 35.9032 27.6767 36.7188 25.7812H39.8438C40.8798 25.7812 41.8733 25.3697 42.6059 24.6371C43.3385 23.9046 43.75 22.911 43.75 21.875V15.625C43.75 14.589 43.3385 13.5954 42.6059 12.8629C41.8733 12.1303 40.8798 11.7188 39.8438 11.7188H37.4531C37.0469 6.04688 32.3281 1.5625 26.5625 1.5625H23.4375C17.6719 1.5625 12.9375 6.04688 12.5469 11.7188H10.1562C9.12025 11.7188 8.12668 12.1303 7.39411 12.8629C6.66155 13.5954 6.25 14.589 6.25 15.625V21.875C6.25 22.911 6.66155 23.9046 7.39411 24.6371C8.12668 25.3697 9.12025 25.7812 10.1562 25.7812H13.2812C14.0968 27.6767 15.3886 29.3292 17.0312 30.5781L16.5312 34.4375L5.73438 35.6406C4.5878 35.7672 3.52819 36.3122 2.75843 37.1713C1.98867 38.0305 1.56285 39.1433 1.5625 40.2969V46.875C1.5625 47.7344 2.26562 48.4375 3.125 48.4375H46.875C47.7344 48.4375 48.4375 47.7344 48.4375 46.875V40.2969C48.4375 37.9062 46.6406 35.9062 44.2656 35.6406ZM19.9375 32.5156C21.4844 33.5 23.2344 34.0312 25 34.0312C26.7656 34.0312 28.5156 33.5156 30.0625 32.5156L30.4531 35.5312L25.3906 38.5625C25.1406 38.7031 24.8281 38.7031 24.5938 38.5625L19.5312 35.5312L19.9219 32.5156H19.9375ZM40.625 15.625V21.875C40.625 22.3125 40.2812 22.6562 39.8438 22.6562H37.5V14.8438H39.8438C40.2812 14.8438 40.625 15.1875 40.625 15.625ZM23.4375 4.6875H26.5625C30.875 4.6875 34.375 8.1875 34.375 12.5V13.5781L26.9688 15.1094C26.0312 15.1094 25.125 14.7656 24.4219 14.1406C23.4922 13.3207 22.3613 12.7627 21.145 12.5238C19.9286 12.285 18.6707 12.3738 17.5 12.7812C16.9688 12.9688 16.3125 13.1719 15.625 13.25V12.5C15.625 8.1875 19.125 4.6875 23.4375 4.6875ZM9.375 21.875V15.625C9.375 15.1875 9.71875 14.8438 10.1562 14.8438H12.5V22.6562H10.1562C9.71875 22.6562 9.375 22.3125 9.375 21.875ZM15.625 16.3906C16.7188 16.2969 17.7344 16 18.5156 15.7344C19.8281 15.2812 21.2969 15.5625 22.3594 16.4844C23.6406 17.6094 25.2812 18.2344 26.9844 18.2344H27.1875C27.2812 18.2344 27.375 18.2344 27.4531 18.2031L34.3594 16.7656V22.875L25.5312 24.2344C24.6719 24.3594 24.0938 25.1562 24.2188 26.0156C24.3438 26.7812 25 27.3438 25.7656 27.3438C25.8438 27.3438 25.9219 27.3438 26 27.3281L32.8594 26.2812C32.0938 27.3438 31.0937 28.2344 29.8906 28.875L29.3906 29.1562C29.2975 29.2046 29.2131 29.2679 29.1406 29.3438C27.9925 30.3556 26.5147 30.9139 24.9844 30.9139C23.454 30.9139 21.9762 30.3556 20.8281 29.3438C20.75 29.2813 20.6719 29.2188 20.5781 29.1562L20.0781 28.875C18.9367 28.2626 17.9445 27.4059 17.1721 26.3661C16.3997 25.3264 15.8661 24.129 15.6094 22.8594V16.3906H15.625ZM45.3125 45.3125H39.8438V42.1875C39.8438 41.3281 39.1406 40.625 38.2812 40.625C37.4219 40.625 36.7188 41.3281 36.7188 42.1875V45.3125H13.2812V42.1875C13.2812 41.3281 12.5781 40.625 11.7188 40.625C10.8594 40.625 10.1562 41.3281 10.1562 42.1875V45.3125H4.6875V40.2969C4.6875 39.5 5.28125 38.8281 6.07812 38.75L16.8438 37.5625L23 41.25C24.2344 42 25.7813 42 27.0156 41.25L33.1719 37.5625L43.9375 38.75C44.7344 38.8438 45.3281 39.5 45.3281 40.2969V45.3125H45.3125Z" fill="black"/>
</svg>
