<svg width="38" height="38" viewBox="0 0 38 38" fill="none" xmlns="http://www.w3.org/2000/svg">
<path d="M30.0323 21.4134V8.23601C30.0323 6.2083 28.3826 4.55859 26.3548 4.55859H3.67742C1.64971 4.55859 0 6.2083 0 8.23601V21.4134C0 23.4411 1.64971 25.0909 3.67742 25.0909H6.97829L7.04869 28.4112C7.06976 29.4088 8.21528 29.965 9.01213 29.3641L14.6802 25.0909H26.3548C28.3826 25.0909 30.0323 23.4411 30.0323 21.4134ZM14.2699 22.6392C14.0036 22.6393 13.7446 22.726 13.532 22.8862L9.44898 25.9645L9.40393 23.8392C9.38975 23.1725 8.84527 22.6393 8.17843 22.6393H3.67742C3.00154 22.6393 2.45161 22.0894 2.45161 21.4135V8.23609C2.45161 7.56021 3.00154 7.01028 3.67742 7.01028H26.3548C27.0307 7.01028 27.5806 7.56021 27.5806 8.23609V21.4135C27.5806 22.0894 27.0307 22.6393 26.3548 22.6393H14.2699V22.6392ZM38 15.8973V26.0102C38 28.038 36.3504 29.6876 34.3226 29.6876H31.0165L30.9512 32.2471C30.9342 32.9132 30.3884 33.4417 29.7259 33.4417C29.2367 33.4417 29.5091 33.5265 23.378 29.6876H17.7742C17.0972 29.6876 16.5484 29.1388 16.5484 28.4618C16.5484 27.7848 17.0972 27.236 17.7742 27.236C24.276 27.236 23.9723 27.1672 24.3806 27.4228L28.5552 30.0366L28.5961 28.4305C28.6131 27.7659 29.1566 27.2359 29.8215 27.2359H34.3226C34.9985 27.2359 35.5484 26.686 35.5484 26.0101V15.8972C35.5484 15.2213 34.9985 14.6714 34.3226 14.6714C33.6455 14.6714 33.0968 14.1226 33.0968 13.4456C33.0968 12.7686 33.6455 12.2198 34.3226 12.2198C36.3504 12.2199 38 13.8695 38 15.8973ZM22.6774 12.6029C22.6774 13.28 22.1286 13.8288 21.4516 13.8288H8.58064C7.90362 13.8288 7.35484 13.28 7.35484 12.6029C7.35484 11.9259 7.90362 11.3771 8.58064 11.3771H21.4516C22.1286 11.3771 22.6774 11.9259 22.6774 12.6029ZM20.4556 17.9659C20.4556 18.6429 19.9069 19.1917 19.2298 19.1917H10.8024C10.1254 19.1917 9.57661 18.6429 9.57661 17.9659C9.57661 17.2888 10.1254 16.74 10.8024 16.74H19.2298C19.9069 16.74 20.4556 17.2888 20.4556 17.9659Z" fill="white"/>
</svg>
