<svg width="50" height="50" viewBox="0 0 50 50" fill="none" xmlns="http://www.w3.org/2000/svg">
<g clip-path="url(#clip0_0_57)">
<path d="M42.6574 7.34258C37.9225 2.60772 31.6517 0 25 0C18.3483 0 12.0774 2.60762 7.34258 7.34258C2.60762 12.0774 0 18.3483 0 25C0 31.6517 2.60762 37.9226 7.34258 42.6574C12.0774 47.3924 18.3483 50 25 50C31.6517 50 37.9226 47.3924 42.6575 42.6574C47.3925 37.9225 50 31.6517 50 25C50 18.3483 47.3924 12.0774 42.6574 7.34258ZM26.4648 47.0205V42.2852C26.4648 41.4762 25.809 40.8203 25 40.8203C24.191 40.8203 23.5352 41.4762 23.5352 42.2852V47.0205C12.5304 46.2957 3.7043 37.4696 2.97949 26.4648H7.71484C8.52383 26.4648 9.17969 25.809 9.17969 25C9.17969 24.191 8.52383 23.5352 7.71484 23.5352H2.97949C3.7043 12.5304 12.5304 3.7043 23.5352 2.97949V7.71484C23.5352 8.52383 24.191 9.17969 25 9.17969C25.809 9.17969 26.4648 8.52383 26.4648 7.71484V2.97949C37.4696 3.7043 46.2957 12.5304 47.0205 23.5352H42.2852C41.4762 23.5352 40.8203 24.191 40.8203 25C40.8203 25.809 41.4762 26.4648 42.2852 26.4648H47.0205C46.2957 37.4696 37.4696 46.2957 26.4648 47.0205Z" fill="black"/>
<path d="M38.1893 11.8109C37.9621 11.5837 37.6664 11.4375 37.3479 11.3948C37.0294 11.3521 36.7057 11.4154 36.4267 11.5749L20.9587 20.4137C20.9435 20.4224 20.9298 20.4331 20.915 20.4423C20.8904 20.4575 20.8658 20.4729 20.8422 20.4896C20.8199 20.5056 20.798 20.5222 20.7767 20.5394C20.7545 20.557 20.7325 20.5747 20.7114 20.5936C20.6906 20.6122 20.6709 20.6316 20.6513 20.6512C20.6316 20.671 20.612 20.6908 20.5934 20.7117C20.5746 20.7328 20.557 20.7546 20.5395 20.7766C20.5224 20.7982 20.5054 20.8199 20.4895 20.8425C20.473 20.8662 20.4572 20.8904 20.4422 20.9151C20.433 20.93 20.4224 20.9437 20.4137 20.9589L11.5748 36.4268C11.4154 36.7058 11.3521 37.0295 11.3948 37.348C11.4374 37.6665 11.5836 37.9621 11.8109 38.1894C12.0381 38.4166 12.3337 38.5628 12.6522 38.6054C12.9707 38.6481 13.2944 38.5849 13.5734 38.4255L29.0414 29.5866C29.0567 29.5779 29.0705 29.5673 29.0854 29.558C29.1099 29.5427 29.1342 29.5274 29.1577 29.5108C29.1804 29.4949 29.2021 29.4779 29.2237 29.4608C29.2457 29.4433 29.2676 29.4257 29.2886 29.4069C29.3095 29.3883 29.3293 29.3688 29.349 29.3491C29.3687 29.3295 29.3881 29.3096 29.4067 29.2888C29.4255 29.2677 29.4433 29.2457 29.4609 29.2235C29.4779 29.202 29.4947 29.1805 29.5105 29.1581C29.5273 29.1343 29.5428 29.1096 29.5581 29.0849C29.5673 29.0702 29.5778 29.0566 29.5864 29.0415L38.4253 13.5735C38.5848 13.2945 38.648 12.9708 38.6054 12.6523C38.5627 12.3338 38.4165 12.0381 38.1893 11.8109ZM16.7832 33.2168L22.0058 24.0774L25.9227 27.9943L16.7832 33.2168ZM27.9943 25.9227L24.0774 22.0058L33.2167 16.7834L27.9943 25.9227Z" fill="black"/>
</g>
<defs>
<clipPath id="clip0_0_57">
<rect width="50" height="50" fill="white"/>
</clipPath>
</defs>
</svg>
