<svg width="80" height="80" viewBox="0 0 80 80" fill="none" xmlns="http://www.w3.org/2000/svg">
<path d="M0 40C0 29.6447 8.39474 21.25 18.75 21.25C23.7306 21.25 28.0658 23.7399 31.7923 26.8626C35.5223 29.9883 39.0532 34.1064 42.3694 37.9623C45.772 41.9189 48.9598 45.6133 52.222 48.347C55.4877 51.0836 58.4181 52.5 61.25 52.5C68.1535 52.5 73.75 46.9035 73.75 40C73.75 33.0965 68.1535 27.5 61.25 27.5C59.5241 27.5 58.125 26.1009 58.125 24.375C58.125 22.6491 59.5241 21.25 61.25 21.25C71.6053 21.25 80 29.6447 80 40C80 50.3553 71.6053 58.75 61.25 58.75C56.2694 58.75 51.9342 56.2601 48.2077 53.1374C44.4777 50.0117 40.9468 45.8936 37.6306 42.0377C34.228 38.0811 31.0402 34.3867 27.778 31.653C24.5123 28.9164 21.5819 27.5 18.75 27.5C11.8465 27.5 6.25 33.0965 6.25 40C6.25 46.9035 11.8465 52.5 18.75 52.5C20.4759 52.5 21.875 53.8991 21.875 55.625C21.875 57.3509 20.4759 58.75 18.75 58.75C8.39474 58.75 0 50.3553 0 40Z" fill="#FFB661"/>
<path d="M61.25 21.25C62.9759 21.25 64.375 22.6491 64.375 24.375C64.375 26.1009 62.9759 27.5 61.25 27.5C58.4181 27.5 55.4877 28.9164 52.222 31.653C48.9598 34.3867 45.772 38.0811 42.3694 42.0377C39.0532 45.8936 35.5223 50.0117 31.7923 53.1374C28.0658 56.2601 23.7306 58.75 18.75 58.75C17.0241 58.75 15.625 57.3509 15.625 55.625C15.625 53.8991 17.0241 52.5 18.75 52.5C21.5819 52.5 24.5123 51.0836 27.778 48.347C31.0402 45.6133 34.228 41.9189 37.6306 37.9623C40.9468 34.1064 44.4777 29.9883 48.2077 26.8626C51.9342 23.7399 56.2694 21.25 61.25 21.25Z" fill="#FFB661"/>
</svg>
