<svg width="100" height="100" viewBox="0 0 100 100" fill="none" xmlns="http://www.w3.org/2000/svg">
<path d="M45.834 84.3752C45.0052 84.3752 44.2103 84.0459 43.6243 83.4599C43.0382 82.8738 42.709 82.079 42.709 81.2502V77.0835C42.709 74.5971 41.7213 72.2125 39.9631 70.4544C38.205 68.6962 35.8204 67.7085 33.334 67.7085C30.8476 67.7085 28.463 68.6962 26.7049 70.4544C24.9467 72.2125 23.959 74.5971 23.959 77.0835V81.2502C23.959 82.079 23.6297 82.8738 23.0437 83.4599C22.4576 84.0459 21.6628 84.3752 20.834 84.3752C20.0052 84.3752 19.2103 84.0459 18.6243 83.4599C18.0382 82.8738 17.709 82.079 17.709 81.2502V77.0835C17.709 72.9395 19.3552 68.9652 22.2854 66.035C25.2157 63.1047 29.19 61.4585 33.334 61.4585C37.478 61.4585 41.4523 63.1047 44.3825 66.035C47.3128 68.9652 48.959 72.9395 48.959 77.0835V81.2502C48.959 82.079 48.6297 82.8738 48.0437 83.4599C47.4576 84.0459 46.6628 84.3752 45.834 84.3752Z" fill="#FFB661"/>
<path d="M33.3346 67.7083C30.6564 67.7083 28.0382 66.9141 25.8113 65.4262C23.5844 63.9382 21.8487 61.8233 20.8238 59.3488C19.7988 56.8744 19.5307 54.1517 20.0532 51.5248C20.5757 48.898 21.8654 46.4851 23.7592 44.5913C25.6531 42.6974 28.066 41.4077 30.6928 40.8852C33.3196 40.3627 36.0424 40.6309 38.5168 41.6558C40.9912 42.6807 43.1061 44.4164 44.5941 46.6433C46.0821 48.8702 46.8763 51.4884 46.8763 54.1667C46.8719 57.7568 45.4438 61.1986 42.9052 63.7372C40.3666 66.2758 36.9248 67.7039 33.3346 67.7083ZM33.3346 46.875C31.8925 46.875 30.4827 47.3027 29.2836 48.1039C28.0845 48.9051 27.1499 50.0439 26.598 51.3763C26.0461 52.7087 25.9017 54.1748 26.1831 55.5892C26.4644 57.0037 27.1589 58.3029 28.1787 59.3227C29.1984 60.3424 30.4977 61.0369 31.9121 61.3182C33.3266 61.5996 34.7927 61.4552 36.125 60.9033C37.4574 60.3514 38.5962 59.4168 39.3974 58.2177C40.1987 57.0186 40.6263 55.6088 40.6263 54.1667C40.6241 52.2335 39.8552 50.3801 38.4882 49.0131C37.1212 47.6461 35.2678 46.8772 33.3346 46.875Z" fill="#FFB661"/>
<path d="M83.334 94.7918H16.6673C13.6291 94.7896 10.7159 93.5817 8.56749 91.4333C6.41911 89.285 5.21119 86.3718 5.20898 83.3335V29.1668C5.21119 26.1286 6.41911 23.2154 8.56749 21.067C10.7159 18.9186 13.6291 17.7107 16.6673 17.7085H39.584C40.4128 17.7085 41.2076 18.0377 41.7937 18.6238C42.3797 19.2098 42.709 20.0047 42.709 20.8335C42.709 21.6623 42.3797 22.4572 41.7937 23.0432C41.2076 23.6293 40.4128 23.9585 39.584 23.9585H16.6673C15.2867 23.9607 13.9632 24.5101 12.9869 25.4864C12.0106 26.4627 11.4612 27.7862 11.459 29.1668V83.3335C11.4612 84.7142 12.0106 86.0376 12.9869 87.0139C13.9632 87.9902 15.2867 88.5396 16.6673 88.5418H83.334C84.7146 88.5396 86.0381 87.9902 87.0144 87.0139C87.9907 86.0376 88.5401 84.7142 88.5423 83.3335V29.1668C88.5401 27.7862 87.9907 26.4627 87.0144 25.4864C86.0381 24.5101 84.7146 23.9607 83.334 23.9585H60.4173C59.5885 23.9585 58.7937 23.6293 58.2076 23.0432C57.6216 22.4572 57.2923 21.6623 57.2923 20.8335C57.2923 20.0047 57.6216 19.2098 58.2076 18.6238C58.7937 18.0377 59.5885 17.7085 60.4173 17.7085H83.334C86.3722 17.7107 89.2854 18.9186 91.4338 21.067C93.5822 23.2154 94.7901 26.1286 94.7923 29.1668V83.3335C94.7901 86.3718 93.5822 89.285 91.4338 91.4333C89.2854 93.5817 86.3722 94.7896 83.334 94.7918Z" fill="#FFB661"/>
<path d="M70.834 73.9585H56.2507C55.4219 73.9585 54.627 73.6293 54.0409 73.0432C53.4549 72.4572 53.1257 71.6623 53.1257 70.8335C53.1257 70.0047 53.4549 69.2098 54.0409 68.6238C54.627 68.0377 55.4219 67.7085 56.2507 67.7085H70.834C71.6628 67.7085 72.4576 68.0377 73.0437 68.6238C73.6297 69.2098 73.959 70.0047 73.959 70.8335C73.959 71.6623 73.6297 72.4572 73.0437 73.0432C72.4576 73.6293 71.6628 73.9585 70.834 73.9585ZM79.1673 61.4585H56.2507C55.4219 61.4585 54.627 61.1293 54.0409 60.5432C53.4549 59.9572 53.1257 59.1623 53.1257 58.3335C53.1257 57.5047 53.4549 56.7098 54.0409 56.1238C54.627 55.5377 55.4219 55.2085 56.2507 55.2085H79.1673C79.9961 55.2085 80.791 55.5377 81.377 56.1238C81.9631 56.7098 82.2923 57.5047 82.2923 58.3335C82.2923 59.1623 81.9631 59.9572 81.377 60.5432C80.791 61.1293 79.9961 61.4585 79.1673 61.4585ZM60.4173 36.4585H39.584C38.7552 36.4585 37.9603 36.1293 37.3743 35.5432C36.7882 34.9572 36.459 34.1623 36.459 33.3335V8.3335C36.459 7.50469 36.7882 6.70984 37.3743 6.12379C37.9603 5.53774 38.7552 5.2085 39.584 5.2085H60.4173C61.2461 5.2085 62.041 5.53774 62.627 6.12379C63.2131 6.70984 63.5423 7.50469 63.5423 8.3335V33.3335C63.5423 34.1623 63.2131 34.9572 62.627 35.5432C62.041 36.1293 61.2461 36.4585 60.4173 36.4585ZM42.709 30.2085H57.2923V11.4585H42.709V30.2085Z" fill="#FFB661"/>
<path d="M66.6673 36.4585H33.334C32.5052 36.4585 31.7103 36.1293 31.1243 35.5432C30.5382 34.9572 30.209 34.1623 30.209 33.3335C30.209 32.5047 30.5382 31.7098 31.1243 31.1238C31.7103 30.5377 32.5052 30.2085 33.334 30.2085H66.6673C67.4961 30.2085 68.291 30.5377 68.877 31.1238C69.4631 31.7098 69.7923 32.5047 69.7923 33.3335C69.7923 34.1623 69.4631 34.9572 68.877 35.5432C68.291 36.1293 67.4961 36.4585 66.6673 36.4585Z" fill="#FFB661"/>
</svg>
