<svg width="38" height="38" viewBox="0 0 38 38" fill="none" xmlns="http://www.w3.org/2000/svg">
<g clip-path="url(#clip0_0_17)">
<path d="M30.0317 23.5396C29.2537 22.7296 28.3154 22.2965 27.3209 22.2965C26.3344 22.2965 25.388 22.7216 24.578 23.5316L22.0436 26.058C21.8351 25.9457 21.6266 25.8414 21.4261 25.7372C21.1373 25.5928 20.8646 25.4565 20.6321 25.3121C18.2581 23.8043 16.1007 21.8394 14.0315 19.297C13.0289 18.0298 12.3553 16.9631 11.866 15.8804C12.5237 15.2789 13.1332 14.6533 13.7267 14.0518C13.9513 13.8272 14.1758 13.5946 14.4004 13.3701C16.0846 11.6858 16.0846 9.50436 14.4004 7.82012L12.2109 5.63062C11.9623 5.38199 11.7056 5.12535 11.465 4.8687C10.9838 4.37145 10.4785 3.85816 9.95722 3.37695C9.17927 2.60702 8.24893 2.19799 7.27047 2.19799C6.29201 2.19799 5.34563 2.60702 4.54362 3.37695L4.52758 3.39299L1.80072 6.14391C0.77414 7.17049 0.188668 8.42163 0.0603455 9.87328C-0.132138 12.2152 0.557596 14.3967 1.08693 15.8242C2.38619 19.3291 4.32707 22.5772 7.22235 26.058C10.7352 30.2525 14.9618 33.5648 19.7899 35.8987C21.6346 36.7729 24.0968 37.8075 26.8477 37.9839C27.0161 37.992 27.1926 38 27.353 38C29.2056 38 30.7615 37.3343 31.9806 36.011C31.9886 35.9949 32.0047 35.9869 32.0127 35.9709C32.4297 35.4656 32.9109 35.0085 33.4162 34.5192C33.7611 34.1904 34.114 33.8455 34.4588 33.4846C35.2528 32.6586 35.6699 31.6961 35.6699 30.7097C35.6699 29.7152 35.2448 28.7608 34.4348 27.9587L30.0317 23.5396ZM32.9029 31.9849C32.8949 31.9849 32.8949 31.9929 32.9029 31.9849C32.5901 32.3217 32.2693 32.6265 31.9244 32.9633C31.4031 33.4606 30.8738 33.9819 30.3766 34.5674C29.5665 35.4335 28.6121 35.8426 27.361 35.8426C27.2407 35.8426 27.1124 35.8426 26.992 35.8345C24.6101 35.6822 22.3965 34.7518 20.7363 33.9578C16.1969 31.7603 12.2109 28.6405 8.89856 24.6865C6.16369 21.3902 4.33509 18.3426 3.12405 15.0703C2.37817 13.0733 2.10549 11.5174 2.22579 10.0497C2.30599 9.11137 2.6669 8.33341 3.33257 7.66774L6.06745 4.93287C6.46043 4.56394 6.87748 4.36343 7.28651 4.36343C7.79178 4.36343 8.20081 4.6682 8.45745 4.92484L8.48151 4.9489C8.97075 5.40605 9.43591 5.87924 9.92514 6.38451C10.1738 6.64116 10.4304 6.8978 10.6871 7.16247L12.8766 9.35197C13.7267 10.2021 13.7267 10.9881 12.8766 11.8382C12.644 12.0708 12.4194 12.3034 12.1868 12.528C11.5131 13.2177 10.8715 13.8593 10.1738 14.4849C10.1577 14.5009 10.1417 14.5089 10.1337 14.525C9.44393 15.2147 9.57226 15.8884 9.71662 16.3456L9.74068 16.4177C10.3101 17.7972 11.1121 19.0965 12.3312 20.6444L12.3392 20.6524C14.5528 23.3792 16.8866 25.5046 19.4611 27.1327C19.7899 27.3412 20.1268 27.5096 20.4476 27.67C20.7363 27.8144 21.009 27.9507 21.2416 28.0951C21.2737 28.1111 21.3058 28.1352 21.3378 28.1512C21.6105 28.2876 21.8672 28.3517 22.1318 28.3517C22.7975 28.3517 23.2146 27.9347 23.3509 27.7983L26.0938 25.0554C26.3665 24.7828 26.7996 24.4539 27.3048 24.4539C27.8021 24.4539 28.2111 24.7667 28.4597 25.0394L28.4758 25.0554L32.8949 29.4746C33.721 30.2926 33.721 31.1347 32.9029 31.9849ZM20.5358 9.03919C22.6371 9.39207 24.5459 10.3866 26.0697 11.9104C27.5936 13.4342 28.58 15.343 28.9409 17.4443C29.0292 17.9736 29.4863 18.3426 30.0076 18.3426C30.0718 18.3426 30.1279 18.3346 30.1921 18.3265C30.7856 18.2303 31.1786 17.6689 31.0823 17.0754C30.6492 14.533 29.4462 12.2152 27.6096 10.3786C25.773 8.54194 23.4552 7.33891 20.9128 6.90583C20.3193 6.80958 19.7659 7.20257 19.6616 7.78804C19.5574 8.37351 19.9423 8.94295 20.5358 9.03919ZM37.9556 16.7626C37.2418 12.5761 35.2689 8.7665 32.2372 5.73488C29.2056 2.70326 25.396 0.730301 21.2095 0.0165067C20.624 -0.0877554 20.0706 0.313253 19.9664 0.898724C19.8701 1.49222 20.2631 2.04561 20.8566 2.14987C24.594 2.78346 28.0026 4.55592 30.7134 7.25871C33.4242 9.96953 35.1887 13.3781 35.8222 17.1155C35.9105 17.6448 36.3676 18.0137 36.8889 18.0137C36.9531 18.0137 37.0092 18.0057 37.0734 17.9977C37.6589 17.9095 38.0599 17.3481 37.9556 16.7626Z" fill="white"/>
</g>
<defs>
<clipPath id="clip0_0_17">
<rect width="38" height="38" fill="white"/>
</clipPath>
</defs>
</svg>
