<svg width="100" height="100" viewBox="0 0 100 100" fill="none" xmlns="http://www.w3.org/2000/svg">
<path d="M90.625 62.5H9.375C8.5462 62.5 7.75134 62.8292 7.16529 63.4153C6.57924 64.0013 6.25 64.7962 6.25 65.625V75C6.25 75.8288 6.57924 76.6237 7.16529 77.2097C7.75134 77.7958 8.5462 78.125 9.375 78.125H13.5094L18.9719 91.7844C19.2037 92.3648 19.6043 92.8623 20.1218 93.2127C20.6393 93.5631 21.25 93.7502 21.875 93.75H78.125C79.4031 93.75 80.55 92.9719 81.0281 91.7844L86.4906 78.125H90.625C91.4538 78.125 92.2487 77.7958 92.8347 77.2097C93.4208 76.6237 93.75 75.8288 93.75 75V65.625C93.75 64.7962 93.4208 64.0013 92.8347 63.4153C92.2487 62.8292 91.4538 62.5 90.625 62.5ZM56.25 75V78.125H43.75V68.75H56.25V75ZM12.5 68.75H37.5V71.875H12.5V68.75ZM76.0094 87.5H23.9906L20.2406 78.125H37.5V81.25C37.5 82.0788 37.8292 82.8737 38.4153 83.4597C39.0013 84.0458 39.7962 84.375 40.625 84.375H59.375C60.2038 84.375 60.9987 84.0458 61.5847 83.4597C62.1708 82.8737 62.5 82.0788 62.5 81.25V78.125H79.7594L76.0094 87.5ZM87.5 71.875H62.5V68.75H87.5V71.875ZM50 37.5C55.1688 37.5 59.375 33.2937 59.375 28.125C59.375 22.9562 55.1688 18.75 50 18.75C44.8312 18.75 40.625 22.9562 40.625 28.125C40.625 33.2937 44.8312 37.5 50 37.5ZM50 25C50.8288 25 51.6237 25.3292 52.2097 25.9153C52.7958 26.5013 53.125 27.2962 53.125 28.125C53.125 28.9538 52.7958 29.7487 52.2097 30.3347C51.6237 30.9208 50.8288 31.25 50 31.25C49.1712 31.25 48.3763 30.9208 47.7903 30.3347C47.2042 29.7487 46.875 28.9538 46.875 28.125C46.875 27.2962 47.2042 26.5013 47.7903 25.9153C48.3763 25.3292 49.1712 25 50 25Z" fill="#FFB661"/>
<path d="M50 59.375C62.8531 59.375 71.875 39.1031 71.875 28.125C71.875 16.0656 62.0594 6.25 50 6.25C37.9406 6.25 28.125 16.0656 28.125 28.125C28.125 39.1031 37.1469 59.375 50 59.375ZM50 12.5C58.6156 12.5 65.625 19.5094 65.625 28.125C65.625 37.3062 57.9031 53.125 50 53.125C42.0969 53.125 34.375 37.3062 34.375 28.125C34.375 19.5094 41.3844 12.5 50 12.5Z" fill="#FFB661"/>
</svg>
