<svg width="50" height="50" viewBox="0 0 50 50" fill="none" xmlns="http://www.w3.org/2000/svg">
<path d="M39.5161 28.1752V10.8365C39.5161 8.16847 37.3455 5.9978 34.6774 5.9978H4.83871C2.17067 5.9978 0 8.16847 0 10.8365V28.1752C0 30.8433 2.17067 33.0139 4.83871 33.0139H9.18196L9.2746 37.3828C9.30232 38.6954 10.8096 39.4272 11.8581 38.6366L19.316 33.014H34.6774C37.3455 33.0139 39.5161 30.8433 39.5161 28.1752ZM18.7762 29.7881C18.4258 29.7881 18.085 29.9022 17.8052 30.1131L12.4329 34.1634L12.3736 31.367C12.3549 30.4897 11.6385 29.7882 10.7611 29.7882H4.83871C3.9494 29.7882 3.22581 29.0646 3.22581 28.1753V10.8366C3.22581 9.9473 3.9494 9.22371 4.83871 9.22371H34.6774C35.5667 9.22371 36.2903 9.9473 36.2903 10.8366V28.1753C36.2903 29.0646 35.5667 29.7882 34.6774 29.7882H18.7762V29.7881ZM50 20.9172V34.2236C50 36.8918 47.8294 39.0623 45.1613 39.0623H40.8112L40.7253 42.4301C40.7029 43.3065 39.9847 44.0018 39.113 44.0018C38.4694 44.0018 38.8277 44.1134 30.7606 39.0623H23.3871C22.4963 39.0623 21.7742 38.3402 21.7742 37.4494C21.7742 36.5586 22.4963 35.8365 23.3871 35.8365C31.9421 35.8365 31.5424 35.746 32.0797 36.0823L37.5726 39.5215L37.6264 37.4082C37.6488 36.5337 38.364 35.8364 39.2388 35.8364H45.1613C46.0506 35.8364 46.7742 35.1128 46.7742 34.2235V20.9171C46.7742 20.0277 46.0506 19.3042 45.1613 19.3042C44.2705 19.3042 43.5484 18.5821 43.5484 17.6912C43.5484 16.8004 44.2705 16.0783 45.1613 16.0783C47.8294 16.0784 50 18.249 50 20.9172ZM29.8387 16.5825C29.8387 17.4733 29.1166 18.1954 28.2258 18.1954H11.2903C10.3995 18.1954 9.67742 17.4733 9.67742 16.5825C9.67742 15.6917 10.3995 14.9696 11.2903 14.9696H28.2258C29.1166 14.9696 29.8387 15.6917 29.8387 16.5825ZM26.9153 23.6389C26.9153 24.5298 26.1932 25.2518 25.3024 25.2518H14.2137C13.3229 25.2518 12.6008 24.5298 12.6008 23.6389C12.6008 22.7481 13.3229 22.026 14.2137 22.026H25.3024C26.1932 22.026 26.9153 22.7481 26.9153 23.6389Z" fill="black"/>
</svg>
