<svg width="100" height="100" viewBox="0 0 100 100" fill="none" xmlns="http://www.w3.org/2000/svg">
<path d="M99.9083 24.3922C99.5711 16.6486 93.168 10.4497 85.3454 10.4497H14.5712C6.53615 10.4497 0 16.9859 0 25.0208C0 26.1698 0.932621 27.1024 2.08166 27.1024H8.32645V85.3872H6.24479C5.09575 85.3872 4.16313 86.3198 4.16313 87.4689C4.16313 88.6179 5.09575 89.5503 6.24479 89.5503H22.8975C24.0465 89.5503 24.9792 88.6177 24.9792 87.4687C24.9792 86.3196 24.0465 85.387 22.8975 85.387H20.8158V81.2239H45.795V87.4687C45.795 88.6177 46.7276 89.5503 47.8767 89.5503C49.0257 89.5503 49.9583 88.6177 49.9583 87.4687V81.2239H66.6111V87.4687C66.6111 88.6177 67.5437 89.5503 68.6927 89.5503C69.8418 89.5503 70.7744 88.6177 70.7744 87.4687V81.2239H79.1008V85.387H77.0192C75.8701 85.387 74.9375 86.3196 74.9375 87.4687C74.9375 88.6177 75.8701 89.5503 77.0192 89.5503H93.6719C94.8209 89.5503 95.7535 88.6177 95.7535 87.4687C95.7535 86.3196 94.8209 85.387 93.6719 85.387H91.5902V27.1024H97.9183C99.0674 27.1024 100 26.1698 100 25.0208C100 24.8002 99.9666 24.5879 99.9083 24.3922ZM16.6527 85.3872H12.4896V27.1024H16.6527V85.3872ZM66.6111 77.0608H49.9583V72.8976H66.6111V77.0608ZM79.1006 77.0608H70.7742V72.8976H72.8558C74.0049 72.8976 74.9375 71.965 74.9375 70.816C74.9375 69.6669 74.0049 68.7343 72.8558 68.7343H43.7135C42.5645 68.7343 41.6319 69.6669 41.6319 70.816C41.6319 71.965 42.5645 72.8976 43.7135 72.8976H45.7952V77.0608H20.816V39.592H79.1008V77.0608H79.1006ZM79.1006 35.4289H20.816V27.1024H79.1008V35.4289H79.1006ZM87.4271 85.3872H83.264V27.1024H87.4271V85.3872ZM89.5088 22.9393H4.37135C5.33715 18.1932 9.54614 14.6128 14.5712 14.6128H85.3456C90.3705 14.6128 94.5795 18.1932 95.5455 22.9393H89.5088Z" fill="#FFB661"/>
<path d="M27.0612 60.4083H47.8772C49.0262 60.4083 49.9589 59.4757 49.9589 58.3266V45.837C49.9589 44.688 49.0262 43.7554 47.8772 43.7554H27.0612C25.9121 43.7554 24.9795 44.688 24.9795 45.837V58.3266C24.9795 59.4757 25.9121 60.4083 27.0612 60.4083ZM29.1426 47.9187H45.7953V56.2451H29.1426V47.9187Z" fill="#FFB661"/>
</svg>
