<svg width="80" height="80" viewBox="0 0 80 80" fill="none" xmlns="http://www.w3.org/2000/svg">
<path d="M40 5C39.337 5 38.7011 5.26339 38.2322 5.73223C37.7634 6.20107 37.5 6.83696 37.5 7.5V72.5C37.5 73.163 37.7634 73.7989 38.2322 74.2678C38.7011 74.7366 39.337 75 40 75C40.663 75 41.2989 74.7366 41.7678 74.2678C42.2366 73.7989 42.5 73.163 42.5 72.5V7.5C42.5 6.83696 42.2366 6.20107 41.7678 5.73223C41.2989 5.26339 40.663 5 40 5ZM50 22.5C49.337 22.5 48.7011 22.7634 48.2322 23.2322C47.7634 23.7011 47.5 24.337 47.5 25V57.5C47.5 58.163 47.7634 58.7989 48.2322 59.2678C48.7011 59.7366 49.337 60 50 60C50.663 60 51.2989 59.7366 51.7678 59.2678C52.2366 58.7989 52.5 58.163 52.5 57.5V25C52.5 24.337 52.2366 23.7011 51.7678 23.2322C51.2989 22.7634 50.663 22.5 50 22.5ZM60 15C59.337 15 58.7011 15.2634 58.2322 15.7322C57.7634 16.2011 57.5 16.837 57.5 17.5V65C57.5 65.663 57.7634 66.2989 58.2322 66.7678C58.7011 67.2366 59.337 67.5 60 67.5C60.663 67.5 61.2989 67.2366 61.7678 66.7678C62.2366 66.2989 62.5 65.663 62.5 65V17.5C62.5 16.837 62.2366 16.2011 61.7678 15.7322C61.2989 15.2634 60.663 15 60 15ZM70 30C69.337 30 68.7011 30.2634 68.2322 30.7322C67.7634 31.2011 67.5 31.837 67.5 32.5V50C67.5 50.663 67.7634 51.2989 68.2322 51.7678C68.7011 52.2366 69.337 52.5 70 52.5C70.663 52.5 71.2989 52.2366 71.7678 51.7678C72.2366 51.2989 72.5 50.663 72.5 50V32.5C72.5 31.837 72.2366 31.2011 71.7678 30.7322C71.2989 30.2634 70.663 30 70 30ZM30 22.5C29.337 22.5 28.7011 22.7634 28.2322 23.2322C27.7634 23.7011 27.5 24.337 27.5 25V57.5C27.5 58.163 27.7634 58.7989 28.2322 59.2678C28.7011 59.7366 29.337 60 30 60C30.663 60 31.2989 59.7366 31.7678 59.2678C32.2366 58.7989 32.5 58.163 32.5 57.5V25C32.5 24.337 32.2366 23.7011 31.7678 23.2322C31.2989 22.7634 30.663 22.5 30 22.5ZM20 15C19.337 15 18.7011 15.2634 18.2322 15.7322C17.7634 16.2011 17.5 16.837 17.5 17.5V65C17.5 65.663 17.7634 66.2989 18.2322 66.7678C18.7011 67.2366 19.337 67.5 20 67.5C20.663 67.5 21.2989 67.2366 21.7678 66.7678C22.2366 66.2989 22.5 65.663 22.5 65V17.5C22.5 16.837 22.2366 16.2011 21.7678 15.7322C21.2989 15.2634 20.663 15 20 15ZM10 30C9.33696 30 8.70107 30.2634 8.23223 30.7322C7.76339 31.2011 7.5 31.837 7.5 32.5V50C7.5 50.663 7.76339 51.2989 8.23223 51.7678C8.70107 52.2366 9.33696 52.5 10 52.5C10.663 52.5 11.2989 52.2366 11.7678 51.7678C12.2366 51.2989 12.5 50.663 12.5 50V32.5C12.5 31.837 12.2366 31.2011 11.7678 30.7322C11.2989 30.2634 10.663 30 10 30Z" fill="#FFB661"/>
</svg>
