<svg width="80" height="80" viewBox="0 0 80 80" fill="none" xmlns="http://www.w3.org/2000/svg">
<path d="M72.6833 19.9828H71.6878V10.3162C71.6878 6.2818 68.4056 2.99939 64.371 2.99939H11.3021C5.44589 2.99939 0.617438 7.47871 0.0600559 13.1909C-0.025067 13.5945 0.00524425 9.998 0.00524425 65.7037C0.00524425 71.9328 5.07288 77.0004 11.3019 77.0004H72.6831C76.7176 77.0004 79.9999 73.7182 79.9999 69.6836V27.2996C80.0001 23.2652 76.7178 19.9828 72.6833 19.9828ZM11.3021 8.02525H64.371C65.6344 8.02525 66.6621 9.05301 66.6621 10.3163V19.983H11.3021C7.94225 19.983 5.19177 17.3267 5.03849 14.0041C5.19162 10.6813 7.94209 8.02525 11.3021 8.02525ZM72.6833 71.9747H11.3021C7.84425 71.9747 5.03111 69.1616 5.03111 65.7037V23.1041C6.88563 24.3482 9.06892 25.0113 11.3021 25.0085H72.6833C73.9466 25.0085 74.9743 26.0363 74.9743 27.2996V37.4871H56.0639C49.6236 37.4871 44.384 42.7265 44.384 49.1668C44.384 55.6071 49.6236 60.8465 56.0639 60.8465H74.9743V69.6836C74.9743 70.947 73.9466 71.9747 72.6833 71.9747ZM74.9743 55.821H56.0639C52.3948 55.821 49.4097 52.836 49.4097 49.167C49.4097 45.4979 52.3946 42.5129 56.0639 42.5129H74.9743V55.821Z" fill="#FFB661"/>
<path d="M56.9914 52.8087C59.0026 52.8087 60.6331 51.1782 60.6331 49.1669C60.6331 47.1556 59.0026 45.5251 56.9914 45.5251C54.9801 45.5251 53.3496 47.1556 53.3496 49.1669C53.3496 51.1782 54.9801 52.8087 56.9914 52.8087Z" fill="#FFB661"/>
</svg>
