<svg width="100" height="100" viewBox="0 0 100 100" fill="none" xmlns="http://www.w3.org/2000/svg">
<path d="M97.0703 47.0703H88.2812C86.6633 47.0703 85.3516 48.382 85.3516 50C85.3516 51.618 86.6633 52.9297 88.2812 52.9297H97.0703C98.6883 52.9297 100 51.618 100 50C100 48.382 98.6883 47.0703 97.0703 47.0703ZM93.2826 65.5066L87.4232 59.6473C86.2793 58.5033 84.4242 58.5033 83.2801 59.6473C82.1357 60.7912 82.1357 62.6463 83.2801 63.7904L89.1395 69.6498C90.2834 70.7939 92.1387 70.7939 93.2826 69.6498C94.4268 68.5057 94.4268 66.6508 93.2826 65.5066ZM93.2824 30.3504C92.1385 29.2064 90.2834 29.2064 89.1393 30.3504L83.2799 36.2098C82.1357 37.3539 82.1357 39.2088 83.2799 40.3529C84.424 41.4971 86.2791 41.4969 87.423 40.3529L93.2824 34.4936C94.4266 33.3494 94.4266 31.4945 93.2824 30.3504ZM67.7734 11.9141C63.3729 11.9141 59.7178 15.165 59.0826 19.3914L56.4102 22.0639C51.7588 26.7152 44.9088 29.4922 38.0859 29.4922H20.5078C16.6885 29.4922 13.432 31.9416 12.2227 35.3516H11.7188C5.25703 35.3516 0 40.6086 0 47.0703C0 53.532 5.25703 58.7891 11.7188 58.7891H12.2227C13.1068 61.282 15.0852 63.2604 17.5781 64.1445V79.2969C17.5781 84.1432 21.5211 88.0859 26.3674 88.0859C31.2135 88.0859 35.1562 84.1432 35.1562 79.2969V64.6484H38.0859C44.9086 64.6484 51.7586 67.4254 56.4102 72.0768L59.0826 74.7492C59.7178 78.9754 63.373 82.2266 67.7736 82.2266C72.6197 82.2266 76.5625 78.2838 76.5625 73.4375V20.7031C76.5625 15.8568 72.6197 11.9141 67.7734 11.9141ZM11.7188 52.9297C8.48789 52.9297 5.85938 50.3012 5.85938 47.0703C5.85938 43.8395 8.48789 41.2109 11.7188 41.2109V52.9297ZM29.2969 79.2969C29.2969 80.9123 27.9826 82.2266 26.3672 82.2266C24.7518 82.2266 23.4375 80.9123 23.4375 79.2969V64.6484H29.2969V79.2969ZM35.1562 58.7891H20.5078C18.8924 58.7891 17.5781 57.4748 17.5781 55.8594V38.2812C17.5781 36.6658 18.8924 35.3516 20.5078 35.3516H35.1562V58.7891ZM58.9844 66.4738C54.035 62.1902 47.6715 59.5287 40.9961 58.9219L40.9963 35.2186C47.6715 34.6119 54.035 31.9504 58.9844 27.6666V66.4738ZM70.7031 73.4375C70.7031 75.0529 69.3889 76.3672 67.7736 76.3672H67.7734C66.158 76.3672 64.8438 75.0529 64.8438 73.4375V20.7031C64.8438 19.0877 66.158 17.7734 67.7736 17.7734C69.3889 17.7734 70.7031 19.0877 70.7031 20.7031V73.4375Z" fill="#FFB661"/>
</svg>
