<svg width="80" height="80" viewBox="0 0 80 80" fill="none" xmlns="http://www.w3.org/2000/svg">
<path d="M40 50C43.9782 50 47.7936 51.5803 50.6066 54.3934C53.4197 57.2064 55 61.0218 55 65C55 65.663 54.7366 66.2989 54.2678 66.7678C53.7989 67.2366 53.163 67.5 52.5 67.5H27.5C26.837 67.5 26.2011 67.2366 25.7322 66.7678C25.2634 66.2989 25 65.663 25 65C25 61.0218 26.5804 57.2064 29.3934 54.3934C32.2064 51.5803 36.0218 50 40 50ZM37.695 30H42.305C44.3458 30 46.3031 29.1893 47.7462 27.7462C49.1893 26.3031 50 24.3458 50 22.305C50 21.6937 49.7572 21.1074 49.3249 20.6751C48.8926 20.2428 48.3063 20 47.695 20H32.305C32.0023 20 31.7026 20.0596 31.4229 20.1755C31.1433 20.2913 30.8892 20.4611 30.6751 20.6751C30.4611 20.8892 30.2913 21.1433 30.1755 21.4229C30.0596 21.7026 30 22.0023 30 22.305C30 24.3458 30.8107 26.3031 32.2538 27.7462C33.6969 29.1893 35.6542 30 37.695 30ZM70 72.5C70 73.163 69.7366 73.7989 69.2678 74.2678C68.7989 74.7366 68.163 75 67.5 75H12.5C11.837 75 11.2011 74.7366 10.7322 74.2678C10.2634 73.7989 10 73.163 10 72.5C10 71.837 10.2634 71.2011 10.7322 70.7322C11.2011 70.2634 11.837 70 12.5 70H17.5V66C17.5 55.39 22.4425 46.725 30.4 43.385C31.0746 43.1123 31.6525 42.6442 32.0593 42.0409C32.4662 41.4376 32.6835 40.7264 32.6835 39.9987C32.6835 39.2711 32.4662 38.5599 32.0593 37.9566C31.6525 37.3533 31.0746 36.8852 30.4 36.6125C22.44 33.275 17.5 24.61 17.5 14V10H12.5C11.837 10 11.2011 9.73661 10.7322 9.26777C10.2634 8.79893 10 8.16304 10 7.5C10 6.83696 10.2634 6.20107 10.7322 5.73223C11.2011 5.26339 11.837 5 12.5 5H67.5C68.163 5 68.7989 5.26339 69.2678 5.73223C69.7366 6.20107 70 6.83696 70 7.5C70 8.16304 69.7366 8.79893 69.2678 9.26777C68.7989 9.73661 68.163 10 67.5 10H62.5V14C62.5 24.61 57.5575 33.275 49.6 36.615C48.9254 36.8877 48.3475 37.3558 47.9407 37.9591C47.5338 38.5624 47.3165 39.2736 47.3165 40.0013C47.3165 40.7289 47.5338 41.4401 47.9407 42.0434C48.3475 42.6467 48.9254 43.1148 49.6 43.3875C57.56 46.725 62.5 55.39 62.5 66V70H67.5C68.163 70 68.7989 70.2634 69.2678 70.7322C69.7366 71.2011 70 71.837 70 72.5ZM57.5 70V66C57.5 57.4425 53.7325 50.5425 47.6675 47.995C46.0848 47.3414 44.7317 46.2327 43.7797 44.8094C42.8276 43.3862 42.3194 41.7123 42.3194 40C42.3194 38.2877 42.8276 36.6138 43.7797 35.1906C44.7317 33.7673 46.0848 32.6586 47.6675 32.005C53.7325 29.4575 57.5 22.5575 57.5 14V10H22.5V14C22.5 22.5575 26.2675 29.4575 32.3325 32.005C33.9152 32.6586 35.2683 33.7673 36.2203 35.1906C37.1724 36.6138 37.6806 38.2877 37.6806 40C37.6806 41.7123 37.1724 43.3862 36.2203 44.8094C35.2683 46.2327 33.9152 47.3414 32.3325 47.995C26.2675 50.5425 22.5 57.4425 22.5 66V70H57.5Z" fill="#FFB661"/>
</svg>
