<svg width="50" height="50" viewBox="0 0 50 50" fill="none" xmlns="http://www.w3.org/2000/svg">
<path d="M25 3.125C24.5856 3.125 24.1882 3.28962 23.8951 3.58265C23.6021 3.87567 23.4375 4.2731 23.4375 4.6875V45.3125C23.4375 45.7269 23.6021 46.1243 23.8951 46.4174C24.1882 46.7104 24.5856 46.875 25 46.875C25.4144 46.875 25.8118 46.7104 26.1049 46.4174C26.3979 46.1243 26.5625 45.7269 26.5625 45.3125V4.6875C26.5625 4.2731 26.3979 3.87567 26.1049 3.58265C25.8118 3.28962 25.4144 3.125 25 3.125ZM31.25 14.0625C30.8356 14.0625 30.4382 14.2271 30.1451 14.5201C29.8521 14.8132 29.6875 15.2106 29.6875 15.625V35.9375C29.6875 36.3519 29.8521 36.7493 30.1451 37.0424C30.4382 37.3354 30.8356 37.5 31.25 37.5C31.6644 37.5 32.0618 37.3354 32.3549 37.0424C32.6479 36.7493 32.8125 36.3519 32.8125 35.9375V15.625C32.8125 15.2106 32.6479 14.8132 32.3549 14.5201C32.0618 14.2271 31.6644 14.0625 31.25 14.0625ZM37.5 9.375C37.0856 9.375 36.6882 9.53962 36.3951 9.83265C36.1021 10.1257 35.9375 10.5231 35.9375 10.9375V40.625C35.9375 41.0394 36.1021 41.4368 36.3951 41.7299C36.6882 42.0229 37.0856 42.1875 37.5 42.1875C37.9144 42.1875 38.3118 42.0229 38.6049 41.7299C38.8979 41.4368 39.0625 41.0394 39.0625 40.625V10.9375C39.0625 10.5231 38.8979 10.1257 38.6049 9.83265C38.3118 9.53962 37.9144 9.375 37.5 9.375ZM43.75 18.75C43.3356 18.75 42.9382 18.9146 42.6451 19.2076C42.3521 19.5007 42.1875 19.8981 42.1875 20.3125V31.25C42.1875 31.6644 42.3521 32.0618 42.6451 32.3549C42.9382 32.6479 43.3356 32.8125 43.75 32.8125C44.1644 32.8125 44.5618 32.6479 44.8549 32.3549C45.1479 32.0618 45.3125 31.6644 45.3125 31.25V20.3125C45.3125 19.8981 45.1479 19.5007 44.8549 19.2076C44.5618 18.9146 44.1644 18.75 43.75 18.75ZM18.75 14.0625C18.3356 14.0625 17.9382 14.2271 17.6451 14.5201C17.3521 14.8132 17.1875 15.2106 17.1875 15.625V35.9375C17.1875 36.3519 17.3521 36.7493 17.6451 37.0424C17.9382 37.3354 18.3356 37.5 18.75 37.5C19.1644 37.5 19.5618 37.3354 19.8549 37.0424C20.1479 36.7493 20.3125 36.3519 20.3125 35.9375V15.625C20.3125 15.2106 20.1479 14.8132 19.8549 14.5201C19.5618 14.2271 19.1644 14.0625 18.75 14.0625ZM12.5 9.375C12.0856 9.375 11.6882 9.53962 11.3951 9.83265C11.1021 10.1257 10.9375 10.5231 10.9375 10.9375V40.625C10.9375 41.0394 11.1021 41.4368 11.3951 41.7299C11.6882 42.0229 12.0856 42.1875 12.5 42.1875C12.9144 42.1875 13.3118 42.0229 13.6049 41.7299C13.8979 41.4368 14.0625 41.0394 14.0625 40.625V10.9375C14.0625 10.5231 13.8979 10.1257 13.6049 9.83265C13.3118 9.53962 12.9144 9.375 12.5 9.375ZM6.25 18.75C5.8356 18.75 5.43817 18.9146 5.14515 19.2076C4.85212 19.5007 4.6875 19.8981 4.6875 20.3125V31.25C4.6875 31.6644 4.85212 32.0618 5.14515 32.3549C5.43817 32.6479 5.8356 32.8125 6.25 32.8125C6.6644 32.8125 7.06183 32.6479 7.35485 32.3549C7.64788 32.0618 7.8125 31.6644 7.8125 31.25V20.3125C7.8125 19.8981 7.64788 19.5007 7.35485 19.2076C7.06183 18.9146 6.6644 18.75 6.25 18.75Z" fill="white"/>
</svg>
