<svg width="100" height="100" viewBox="0 0 100 100" fill="none" xmlns="http://www.w3.org/2000/svg">
<path fill-rule="evenodd" clip-rule="evenodd" d="M38.543 31.25C41.0294 31.25 43.4139 32.2377 45.1721 33.9959C46.9302 35.754 47.918 38.1386 47.918 40.625V53.125C47.918 53.9538 47.5887 54.7487 47.0027 55.3347C46.4166 55.9208 45.6218 56.25 44.793 56.25C43.9642 56.25 43.1693 55.9208 42.5833 55.3347C41.9972 54.7487 41.668 53.9538 41.668 53.125V40.625C41.668 39.7962 41.3387 39.0013 40.7527 38.4153C40.1666 37.8292 39.3718 37.5 38.543 37.5C37.7142 37.5 36.9193 37.8292 36.3333 38.4153C35.7472 39.0013 35.418 39.7962 35.418 40.625V53.125C35.418 53.9538 35.0887 54.7487 34.5027 55.3347C33.9166 55.9208 33.1218 56.25 32.293 56.25C31.4642 56.25 30.6693 55.9208 30.0833 55.3347C29.4972 54.7487 29.168 53.9538 29.168 53.125V40.625C29.168 38.1386 30.1557 35.754 31.9138 33.9959C33.672 32.2377 36.0566 31.25 38.543 31.25ZM52.0846 53.125V34.375C52.0846 33.5462 52.4139 32.7513 52.9999 32.1653C53.586 31.5792 54.3808 31.25 55.2096 31.25H61.4596C63.946 31.25 66.3306 32.2377 68.0888 33.9959C69.8469 35.754 70.8346 38.1386 70.8346 40.625V46.875C70.8346 49.3614 69.8469 51.746 68.0888 53.5041C66.3306 55.2623 63.946 56.25 61.4596 56.25H55.2096C54.3808 56.25 53.586 55.9208 52.9999 55.3347C52.4139 54.7487 52.0846 53.9538 52.0846 53.125ZM58.3346 50H61.4596C62.2884 50 63.0833 49.6708 63.6693 49.0847C64.2554 48.4987 64.5846 47.7038 64.5846 46.875V40.625C64.5846 39.7962 64.2554 39.0013 63.6693 38.4153C63.0833 37.8292 62.2884 37.5 61.4596 37.5H58.3346V50Z" fill="#FFB661"/>
<path fill-rule="evenodd" clip-rule="evenodd" d="M44.7923 41.6667C45.6211 41.6667 46.416 41.996 47.002 42.582C47.5881 43.1681 47.9173 43.9629 47.9173 44.7917C47.9173 45.6205 47.5881 46.4154 47.002 47.0015C46.416 47.5875 45.6211 47.9167 44.7923 47.9167H32.2923C31.4635 47.9167 30.6687 47.5875 30.0826 47.0015C29.4966 46.4154 29.1673 45.6205 29.1673 44.7917C29.1673 43.9629 29.4966 43.1681 30.0826 42.582C30.6687 41.996 31.4635 41.6667 32.2923 41.6667H44.7923ZM91.6673 82.2917C92.4961 82.2917 93.291 82.621 93.877 83.207C94.4631 83.7931 94.7923 84.5879 94.7923 85.4167C94.7923 86.2455 94.4631 87.0404 93.877 87.6265C93.291 88.2125 92.4961 88.5417 91.6673 88.5417H8.33398C7.50518 88.5417 6.71033 88.2125 6.12428 87.6265C5.53822 87.0404 5.20898 86.2455 5.20898 85.4167C5.20898 84.5879 5.53822 83.7931 6.12428 83.207C6.71033 82.621 7.50518 82.2917 8.33398 82.2917H91.6673Z" fill="#FFB661"/>
<path fill-rule="evenodd" clip-rule="evenodd" d="M78.675 11.4583C81.825 11.4583 84.8375 12.65 87.0625 14.7542C89.3542 16.9167 90.625 19.8583 90.625 22.9167V64.5833C90.625 67.6417 89.3542 70.5833 87.0625 72.7458C84.7888 74.8732 81.7887 76.0521 78.675 76.0416H21.325C18.2113 76.0521 15.2112 74.8732 12.9375 72.7458C11.8176 71.7008 10.9238 70.4373 10.3111 69.0335C9.69835 67.6296 9.37978 66.1151 9.375 64.5833V22.9167C9.375 19.8583 10.6458 16.9167 12.9375 14.7542C15.2112 12.6268 18.2113 11.4479 21.325 11.4583H78.675ZM21.325 17.7083C19.8074 17.6965 18.3424 18.2643 17.2292 19.2958C16.7293 19.7583 16.3292 20.318 16.0533 20.9406C15.7775 21.5633 15.6317 22.2357 15.625 22.9167V64.5833C15.625 65.9417 16.2125 67.2416 17.2292 68.2041C18.3125 69.2291 19.7917 69.7916 21.325 69.7916H78.675C80.2083 69.7916 81.6875 69.2291 82.7708 68.2041C83.2707 67.7417 83.6708 67.182 83.9467 66.5593C84.2225 65.9367 84.3683 65.2643 84.375 64.5833V22.9167C84.3683 22.2357 84.2225 21.5633 83.9467 20.9406C83.6708 20.318 83.2707 19.7583 82.7708 19.2958C81.6576 18.2643 80.1926 17.6965 78.675 17.7083H21.325Z" fill="#FFB661"/>
</svg>
