<svg width="28" height="28" viewBox="0 0 28 28" fill="none" xmlns="http://www.w3.org/2000/svg">
<g clip-path="url(#clip0_140_13711)">
<path d="M23.8395 4.06612C21.2091 1.44561 17.71 0.00147656 13.9859 0C10.2701 0 6.76545 1.44282 4.11781 4.06273C1.46546 6.68697 0.00344531 10.1746 0 13.8703V13.8771C0.0004375 16.1139 0.588109 18.3705 1.70363 20.4302L0.0382813 28L7.69519 26.2583C9.63441 27.2356 11.7982 27.7509 13.9806 27.7518H13.9862C17.7013 27.7518 21.206 26.3087 23.854 23.6887C26.5087 21.0622 27.9715 17.579 27.9731 13.881C27.9742 10.2091 26.5064 6.72334 23.8395 4.06612H23.8395ZM13.9859 25.5664H13.981C12.0214 25.5655 10.0798 25.0736 8.36631 24.1433L8.00428 23.9467L2.91277 25.1048L4.01866 20.0786L3.80548 19.711C2.74548 17.883 2.18531 15.8651 2.18531 13.8748C2.18936 7.43258 7.48251 2.18531 13.9854 2.18531C17.127 2.18663 20.0788 3.40452 22.2971 5.61422C24.5489 7.8581 25.7885 10.7937 25.7875 13.8804C25.7849 20.3241 20.4906 25.5664 13.9859 25.5664Z" fill="#FFB661"/>
<path d="M10.1802 7.75812H9.56715C9.35371 7.75812 9.00721 7.83802 8.71413 8.15695C8.42079 8.47611 7.5943 9.24753 7.5943 10.8164C7.5943 12.3853 8.74082 13.9011 8.90062 14.1141C9.06063 14.3268 11.1138 17.6491 14.3655 18.9272C17.0681 19.9894 17.6181 19.778 18.2045 19.7249C18.7911 19.6718 20.0974 18.9537 20.364 18.2092C20.6307 17.4648 20.6307 16.8265 20.5508 16.6931C20.4706 16.5602 20.2572 16.4806 19.9374 16.3213C19.6175 16.1616 18.0495 15.3772 17.7562 15.2706C17.4628 15.1644 17.2497 15.1112 17.0363 15.4306C16.8228 15.7493 16.1946 16.4868 16.0079 16.6995C15.8214 16.9125 15.6347 16.9392 15.3146 16.7796C14.9946 16.6196 13.9748 16.277 12.7526 15.191C11.8014 14.3456 11.1413 13.2677 10.9546 12.9485C10.7681 12.6296 10.9347 12.457 11.0951 12.2978C11.2389 12.1551 11.4331 11.9599 11.5931 11.7738C11.7529 11.5876 11.7984 11.4547 11.9052 11.2419C12.0118 11.0291 11.9584 10.8429 11.8785 10.6835C11.7984 10.5239 11.1845 8.94719 10.8999 8.31653H10.9001C10.6605 7.78552 10.4081 7.76747 10.1802 7.75812Z" fill="#FFB661"/>
</g>
<defs>
<clipPath id="clip0_140_13711">
<rect width="28" height="28" fill="white"/>
</clipPath>
</defs>
</svg>
