<svg width="50" height="50" viewBox="0 0 50 50" fill="none" xmlns="http://www.w3.org/2000/svg">
<path fill-rule="evenodd" clip-rule="evenodd" d="M25 3.125C18.9641 3.125 14.0625 8.02656 14.0625 14.0625C14.0625 20.0984 18.9641 25 25 25C31.0359 25 35.9375 20.0984 35.9375 14.0625C35.9375 8.02656 31.0359 3.125 25 3.125ZM25 6.25C29.3125 6.25 32.8125 9.75 32.8125 14.0625C32.8125 18.375 29.3125 21.875 25 21.875C20.6875 21.875 17.1875 18.375 17.1875 14.0625C17.1875 9.75 20.6875 6.25 25 6.25ZM6.25 43.75H25C25.4144 43.75 25.8118 43.9146 26.1049 44.2076C26.3979 44.5007 26.5625 44.8981 26.5625 45.3125C26.5625 45.7269 26.3979 46.1243 26.1049 46.4174C25.8118 46.7104 25.4144 46.875 25 46.875H4.6875C4.2731 46.875 3.87567 46.7104 3.58265 46.4174C3.28962 46.1243 3.125 45.7269 3.125 45.3125V42.1875C3.125 38.4579 4.60658 34.881 7.24381 32.2438C9.88104 29.6066 13.4579 28.125 17.1875 28.125H25C25.4144 28.125 25.8118 28.2896 26.1049 28.5826C26.3979 28.8757 26.5625 29.2731 26.5625 29.6875C26.5625 30.1019 26.3979 30.4993 26.1049 30.7924C25.8118 31.0854 25.4144 31.25 25 31.25H17.1875C14.2867 31.25 11.5047 32.4023 9.45352 34.4535C7.40234 36.5047 6.25 39.2867 6.25 42.1875V43.75ZM38.2828 28.125C32.6781 28.125 28.1281 32.675 28.1281 38.2797C28.1281 43.8844 32.6781 48.4344 38.2828 48.4344C43.8875 48.4344 48.4375 43.8844 48.4375 38.2797C48.4375 32.675 43.8875 28.125 38.2828 28.125ZM38.2828 31.25C42.1625 31.25 45.3125 34.4 45.3125 38.2797C45.3125 42.1594 42.1625 45.3094 38.2828 45.3094C34.4031 45.3094 31.2531 42.1594 31.2531 38.2797C31.2531 34.4 34.4031 31.25 38.2828 31.25Z" fill="black"/>
<path fill-rule="evenodd" clip-rule="evenodd" d="M37.633 38.3808L41.0689 34.848C41.2114 34.6985 41.382 34.5787 41.5711 34.4955C41.7601 34.4124 41.9638 34.3675 42.1702 34.3636C42.3767 34.3596 42.5819 34.3966 42.774 34.4725C42.9661 34.5483 43.1413 34.6615 43.2893 34.8054C43.4374 34.9494 43.5555 35.1212 43.6367 35.3111C43.718 35.501 43.7608 35.7051 43.7627 35.9116C43.7645 36.1181 43.7255 36.3229 43.6477 36.5142C43.5699 36.7055 43.455 36.8795 43.3095 37.0262L38.7533 41.7105C38.6079 41.8607 38.4338 41.9801 38.2413 42.0617C38.0489 42.1432 37.842 42.1852 37.633 42.1852C37.424 42.1852 37.2171 42.1432 37.0246 42.0617C36.8321 41.9801 36.6581 41.8607 36.5127 41.7105L33.2564 38.3621C33.111 38.2155 32.996 38.0415 32.9183 37.8502C32.8405 37.6589 32.8014 37.454 32.8033 37.2475C32.8052 37.041 32.848 36.8369 32.9292 36.647C33.0104 36.4572 33.1285 36.2853 33.2766 36.1413C33.4247 35.9974 33.5998 35.8842 33.7919 35.8084C33.984 35.7326 34.1892 35.6955 34.3957 35.6995C34.6022 35.7035 34.8058 35.7483 34.9949 35.8315C35.1839 35.9146 35.3546 36.0344 35.497 36.184L37.633 38.3808Z" fill="black"/>
</svg>
