<svg width="80" height="80" viewBox="0 0 80 80" fill="none" xmlns="http://www.w3.org/2000/svg">
<path d="M64.2645 39.9977C64.2645 32.7471 61.4138 26.1875 56.8244 21.4421C55.9246 20.5116 55.9493 19.0279 56.8797 18.128C57.8101 17.2281 59.294 17.2529 60.1939 18.1834C65.6072 23.7808 68.952 31.5005 68.952 39.9977C68.952 48.4971 65.6054 56.2189 60.1893 61.8167C59.2892 62.7469 57.8054 62.7714 56.8751 61.8713C55.9449 60.9712 55.9204 59.4875 56.8205 58.5572C61.4122 53.8115 64.2645 47.2501 64.2645 39.9977Z" fill="#FFB661"/>
<path d="M75.3125 39.9981C75.3125 29.5981 71.2227 20.1823 64.6327 13.3684C63.7329 12.438 63.7577 10.9543 64.6881 10.0544C65.6186 9.15451 67.1023 9.17934 68.0022 10.1098C75.4162 17.7756 80 28.3515 80 39.9981C80 51.6469 75.4144 62.2248 67.9977 69.891C67.0977 70.8213 65.614 70.8458 64.6837 69.9458C63.7534 69.0457 63.7288 67.562 64.6288 66.6317C71.2211 59.8176 75.3125 50.4001 75.3125 39.9981ZM0 39.9981C0 28.3538 4.58189 17.7799 11.9933 10.1144C12.893 9.18377 14.3769 9.15878 15.3075 10.0585C16.238 10.9582 16.263 12.442 15.3633 13.3726C8.77562 20.1861 4.6875 29.6002 4.6875 39.9981C4.68752 50.3981 8.77727 59.8137 15.3673 66.6276C16.2671 67.558 16.2423 69.0418 15.3119 69.9416C14.3814 70.8415 12.8977 70.8167 11.9978 69.8862C4.58381 62.2204 1.7516e-05 51.6446 0 39.9981Z" fill="#FFB661"/>
<path d="M11.0479 39.9976C11.0479 31.5029 14.3907 23.785 19.8014 18.1881C20.701 17.2575 22.1848 17.2324 23.1154 18.1321C24.0461 19.0318 24.0712 20.5155 23.1716 21.4462C18.5844 26.1911 15.7354 32.7492 15.7354 39.9976C15.7354 47.2481 18.586 53.8078 23.1754 58.5532C24.0753 59.4837 24.0504 60.9674 23.12 61.8673C22.1895 62.7672 20.7058 62.7424 19.8059 61.8119C14.3926 56.2145 11.0479 48.4947 11.0479 39.9976ZM53.2155 39.9978C53.2155 35.8969 51.6039 32.193 49.0151 29.5162C48.1152 28.5858 48.14 27.1019 49.0705 26.202C50.0009 25.3021 51.4848 25.3269 52.3847 26.2574C55.7974 29.7862 57.903 34.6503 57.903 39.9978C57.903 45.3478 55.7954 50.2137 52.3796 53.7431C51.4794 54.6731 49.9957 54.6974 49.0656 53.7972C48.1355 52.897 48.1112 51.4131 49.0114 50.483C51.6025 47.8058 53.2155 44.1005 53.2155 39.9978ZM22.0961 39.9978C22.0961 34.6527 24.1998 29.7909 27.6099 26.2624C28.5094 25.3317 29.9932 25.3063 30.924 26.2058C31.8547 27.1054 31.8801 28.5893 30.9806 29.52C28.3938 32.1966 26.7836 35.8988 26.7836 39.9978C26.7836 44.0987 28.3952 47.8025 30.9841 50.4794C31.884 51.4098 31.8593 52.8935 30.9288 53.7934C29.9984 54.6933 28.5147 54.6685 27.6148 53.738C24.2018 50.2092 22.0961 45.3453 22.0961 39.9978Z" fill="#FFB661"/>
<path d="M42.2831 40C42.2831 38.6765 41.2322 37.6563 40.0005 37.6562C38.7687 37.6562 37.7178 38.6765 37.7178 40C37.7178 41.3235 38.7687 42.3438 40.0005 42.3438C41.2322 42.3437 42.2831 41.3235 42.2831 40ZM46.9706 40C46.9706 43.8541 43.8789 47.0312 40.0005 47.0312C36.1221 47.0312 33.0303 43.8542 33.0303 40C33.0303 36.1458 36.1221 32.9688 40.0005 32.9688C43.8789 32.9688 46.9706 36.1458 46.9706 40Z" fill="#FFB661"/>
</svg>
