<svg width="50" height="50" viewBox="0 0 50 50" fill="none" xmlns="http://www.w3.org/2000/svg">
<g clip-path="url(#clip0_140_5705)">
<path d="M26.5625 24.3749V13.6458C26.5625 12.8124 25.8333 12.0833 25 12.0833C24.1667 12.0833 23.4375 12.8124 23.4375 13.6458V24.9999C23.4375 25.4166 23.6458 25.8333 23.8542 26.1458L28.125 30.4166C28.4375 30.7291 28.8542 30.8333 29.2708 30.8333C29.6875 30.8333 30.1042 30.7291 30.4167 30.4166C31.0417 29.7916 31.0417 28.8541 30.4167 28.2291L26.5625 24.3749Z" fill="white"/>
<path d="M42.2913 7.70825C37.8122 3.22909 31.7705 0.520752 24.9997 0.520752C18.2288 0.520752 12.1872 3.22909 7.70801 7.60409H7.60384C7.49968 7.60409 7.60384 7.60409 7.60384 7.70825C3.22884 12.1874 0.520508 18.2291 0.520508 24.9999C0.520508 31.7708 3.22884 37.8124 7.60384 42.2916V42.3958H7.70801C12.1872 46.7708 18.2288 49.4791 24.9997 49.4791C31.7705 49.4791 37.8122 46.7708 42.2913 42.3958H42.3955V42.2916C46.7705 37.8124 49.4788 31.7708 49.4788 24.9999C49.4788 18.2291 46.7705 12.1874 42.2913 7.70825ZM43.2288 26.5624H46.2497C45.9372 31.2499 44.0622 35.5208 41.1455 38.9583L38.958 36.7708C38.333 36.1458 37.3955 36.1458 36.7705 36.7708C36.1455 37.3958 36.1455 38.3333 36.7705 38.9583L38.958 41.1458C35.6247 44.0624 31.2497 45.9374 26.5622 46.2499V43.2291C26.5622 42.3958 25.833 41.6666 24.9997 41.6666C24.1663 41.6666 23.4372 42.3958 23.4372 43.2291V46.2499C18.7497 45.9374 14.4788 44.0624 11.0413 41.1458L13.2288 38.9583C13.8538 38.3333 13.8538 37.3958 13.2288 36.7708C12.6038 36.1458 11.6663 36.1458 11.0413 36.7708L8.85384 38.9583C5.93717 35.5208 4.06217 31.2499 3.74967 26.5624H6.77051C7.60384 26.5624 8.33301 25.8333 8.33301 24.9999C8.33301 24.1666 7.60384 23.4374 6.77051 23.4374H3.74967C4.06217 18.7499 5.93717 14.4791 8.85384 11.0416L11.0413 13.2291C11.3538 13.5416 11.7705 13.6458 12.1872 13.6458C12.6038 13.6458 13.0205 13.5416 13.333 13.2291C13.958 12.6041 13.958 11.6666 13.333 11.0416L11.1455 8.85409C14.4788 5.93742 18.8538 4.06242 23.5413 3.74992V6.77075C23.4372 7.60409 24.1663 8.33325 24.9997 8.33325C25.833 8.33325 26.5622 7.60409 26.5622 6.77075V3.74992C31.2497 4.06242 35.5205 5.93742 38.958 8.85409L36.7705 11.0416C36.1455 11.6666 36.1455 12.6041 36.7705 13.2291C37.083 13.5416 37.4997 13.6458 37.9163 13.6458C38.333 13.6458 38.7497 13.5416 39.0622 13.2291L41.2497 11.0416C44.1663 14.3749 46.0413 18.7499 46.3538 23.4374H43.333C42.4997 23.4374 41.7705 24.1666 41.7705 24.9999C41.7705 25.8333 42.3955 26.5624 43.2288 26.5624Z" fill="white"/>
</g>
<defs>
<clipPath id="clip0_140_5705">
<rect width="50" height="50" fill="white"/>
</clipPath>
</defs>
</svg>
