<svg width="100" height="100" viewBox="0 0 100 100" fill="none" xmlns="http://www.w3.org/2000/svg">
<path d="M84.6257 61.875C84.2555 61.6665 83.8688 61.4888 83.4695 61.3437V38.5938C83.872 38.4837 84.2602 38.3264 84.6257 38.125C86.2432 37.19 87.4244 35.6522 87.9105 33.8482C88.3966 32.0442 88.1481 30.1212 87.2195 28.5C86.2735 26.8941 84.7334 25.7249 82.9323 25.2454C81.1312 24.7659 79.2137 25.0145 77.5945 25.9375C77.226 26.1517 76.8805 26.403 76.5632 26.6875L56.907 15.3438C56.9393 14.9173 56.9393 14.489 56.907 14.0625C56.907 12.1977 56.1662 10.4093 54.8476 9.09066C53.5289 7.77204 51.7405 7.03125 49.8757 7.03125C48.0109 7.03125 46.2225 7.77204 44.9039 9.09066C43.5853 10.4093 42.8445 12.1977 42.8445 14.0625C42.8121 14.489 42.8121 14.9173 42.8445 15.3438L23.4382 26.6875C23.1209 26.403 22.7754 26.1517 22.407 25.9375C20.7877 25.0145 18.8702 24.7659 17.0691 25.2454C15.268 25.7249 13.728 26.8941 12.782 28.5C11.8533 30.1212 11.6048 32.0442 12.0909 33.8482C12.5771 35.6522 13.7582 37.19 15.3757 38.125C15.7413 38.3264 16.1294 38.4837 16.532 38.5938V61.3437C16.1326 61.4888 15.7459 61.6665 15.3757 61.875C13.7582 62.81 12.5771 64.3478 12.0909 66.1518C11.6048 67.9558 11.8533 69.8788 12.782 71.5C13.2546 72.2772 13.8762 72.9533 14.6109 73.4896C15.3456 74.0258 16.179 74.4117 17.0632 74.625C17.6048 74.8304 18.1731 74.9567 18.7507 75C19.9893 74.9997 21.2064 74.6766 22.282 74.0625C22.6504 73.8483 22.9959 73.597 23.3132 73.3125L42.9695 84.6562C42.9371 85.0827 42.9371 85.511 42.9695 85.9375C42.9695 87.8023 43.7103 89.5907 45.0289 90.9093C46.3475 92.228 48.1359 92.9688 50.0007 92.9688C51.8655 92.9688 53.6539 92.228 54.9726 90.9093C56.2912 89.5907 57.032 87.8023 57.032 85.9375C57.0643 85.511 57.0643 85.0827 57.032 84.6562L76.6882 73.3125C77.0055 73.597 77.351 73.8483 77.7195 74.0625C78.7951 74.6766 80.0121 74.9997 81.2507 75C81.8641 75.0093 82.4753 74.925 83.0632 74.75C83.9475 74.5367 84.7809 74.1509 85.5156 73.6146C86.2503 73.0783 86.8718 72.4022 87.3445 71.625C87.819 70.8095 88.1253 69.9071 88.2453 68.9713C88.3653 68.0354 88.2965 67.085 88.0431 66.1761C87.7896 65.2673 87.3567 64.4184 86.7697 63.6797C86.1828 62.9409 85.4538 62.3273 84.6257 61.875ZM50.0007 78.9062C48.3312 78.9073 46.7197 79.5186 45.4695 80.625L25.7507 69.25C26.0895 67.6103 25.8154 65.9033 24.9804 64.4521C24.1454 63.0009 22.8073 61.9061 21.2195 61.375V38.5938C22.8096 38.0459 24.1438 36.9341 24.9695 35.4688C25.8008 34.011 26.0783 32.3022 25.7507 30.6563L45.4695 19.375C46.7202 20.48 48.3317 21.0899 50.0007 21.0899C51.6697 21.0899 53.2812 20.48 54.532 19.375L74.2507 30.75C73.9137 32.3922 74.18 34.1008 75.0007 35.5625C75.8264 37.0278 77.1605 38.1396 78.7507 38.6875V61.4688C77.1629 61.9999 75.8248 63.0946 74.9898 64.5459C74.1548 65.9971 73.8807 67.7041 74.2195 69.3438L54.532 80.625C53.2817 79.5186 51.6702 78.9073 50.0007 78.9062ZM79.9382 30C80.3356 29.7694 80.792 29.6608 81.2507 29.6875C81.4475 29.6575 81.6477 29.6575 81.8445 29.6875C82.1474 29.7588 82.4319 29.893 82.6796 30.0815C82.9272 30.2699 83.1325 30.5083 83.282 30.7813C83.5675 31.3144 83.6359 31.9373 83.4728 32.5197C83.3097 33.1021 82.9278 33.5989 82.407 33.9063C81.8682 34.2171 81.2281 34.3011 80.6274 34.14C80.0267 33.9788 79.5146 33.5856 79.2038 33.0469C78.893 32.5082 78.809 31.868 78.9701 31.2673C79.1313 30.6666 79.5245 30.1546 80.0632 29.8438L79.9382 30ZM50.0007 11.7188C50.4643 11.7188 50.9174 11.8562 51.3028 12.1137C51.6883 12.3713 51.9887 12.7373 52.1661 13.1656C52.3434 13.5939 52.3899 14.0651 52.2994 14.5197C52.209 14.9744 51.9858 15.392 51.658 15.7198C51.3302 16.0476 50.9126 16.2708 50.458 16.3612C50.0033 16.4516 49.5321 16.4052 49.1038 16.2278C48.6755 16.0505 48.3095 15.75 48.052 15.3646C47.7944 14.9792 47.657 14.5261 47.657 14.0625C47.6651 13.4434 47.9146 12.852 48.3524 12.4142C48.7902 11.9764 49.3816 11.7268 50.0007 11.7188ZM16.8445 30.875C16.994 30.6021 17.1992 30.3637 17.4469 30.1752C17.6945 29.9868 17.9791 29.8526 18.282 29.7812C18.4338 29.7311 18.5912 29.6996 18.7507 29.6875C19.1637 29.6791 19.5714 29.7814 19.9314 29.9839C20.2914 30.1863 20.5907 30.4815 20.798 30.8388C21.0053 31.196 21.1132 31.6023 21.1104 32.0153C21.1076 32.4284 20.9942 32.8331 20.782 33.1875C20.4746 33.7084 19.9778 34.0903 19.3954 34.2533C18.813 34.4164 18.1901 34.348 17.657 34.0625C17.1301 33.7443 16.7496 33.2316 16.5976 32.6352C16.4456 32.0388 16.5343 31.4066 16.8445 30.875ZM19.9695 70C19.4272 70.3031 18.7877 70.3816 18.1882 70.2187C17.8853 70.1474 17.6008 70.0132 17.3531 69.8248C17.1055 69.6363 16.9002 69.3979 16.7507 69.125C16.4652 68.5919 16.3968 67.969 16.5599 67.3866C16.723 66.8042 17.1048 66.3074 17.6257 66C18.1644 65.6892 18.8046 65.6051 19.4053 65.7663C20.006 65.9275 20.518 66.3207 20.8288 66.8594C21.1396 67.3981 21.2237 68.0382 21.0625 68.6389C20.9014 69.2396 20.5082 69.7517 19.9695 70.0625V70ZM50.0007 88.2812C49.5372 88.2812 49.084 88.1438 48.6986 87.8863C48.3132 87.6287 48.0128 87.2627 47.8354 86.8344C47.658 86.4062 47.6116 85.9349 47.702 85.4803C47.7924 85.0256 48.0157 84.608 48.3434 84.2802C48.6712 83.9524 49.0888 83.7292 49.5435 83.6388C49.9981 83.5484 50.4694 83.5948 50.8976 83.7722C51.3259 83.9496 51.6919 84.25 51.9495 84.6354C52.207 85.0208 52.3445 85.474 52.3445 85.9375C52.3364 86.5566 52.0868 87.148 51.649 87.5858C51.2112 88.0236 50.6198 88.2732 50.0007 88.2812ZM83.157 69.125C83.0075 69.3979 82.8022 69.6363 82.5546 69.8248C82.3069 70.0132 82.0224 70.1474 81.7195 70.2187C81.1199 70.3816 80.4805 70.3031 79.9382 70C79.4227 69.6876 79.0474 69.1885 78.8902 68.6065C78.7331 68.0246 78.8062 67.4044 79.0945 66.875C79.297 66.4825 79.6077 66.1562 79.9898 65.9347C80.3719 65.7131 80.8094 65.6057 81.2507 65.625C81.6579 65.6179 82.0588 65.7262 82.407 65.9375C82.9233 66.2658 83.2908 66.783 83.4309 67.3786C83.5711 67.9741 83.4727 68.6009 83.157 69.125ZM51.1882 31.625C50.8243 31.4253 50.4158 31.3206 50.0007 31.3206C49.5856 31.3206 49.1772 31.4253 48.8132 31.625L34.7507 39.75C34.3992 39.9602 34.108 40.2576 33.9054 40.6135C33.7028 40.9695 33.5957 41.3717 33.5945 41.7812V58.0312C33.5957 58.4408 33.7028 58.843 33.9054 59.199C34.108 59.5549 34.3992 59.8523 34.7507 60.0625L48.8132 68.1875C49.1753 68.3929 49.5844 68.5009 50.0007 68.5009C50.417 68.5009 50.8262 68.3929 51.1882 68.1875L65.2507 60.0625C65.6022 59.8523 65.8934 59.5549 66.096 59.199C66.2986 58.843 66.4057 58.4408 66.407 58.0312V41.875C66.4057 41.4655 66.2986 41.0632 66.096 40.7073C65.8934 40.3514 65.6022 40.0539 65.2507 39.8438L51.1882 31.625ZM50.0007 36.4688L59.3757 41.875L50.0007 47.2812L40.6257 41.875L50.0007 36.4688ZM38.282 45.8438L47.657 51.25V62.1875L38.282 56.7812V45.8438ZM52.3445 62.0938V51.3438L61.7195 45.9375V56.7812L52.3445 62.0938Z" fill="#FFB661"/>
</svg>
