<svg width="80" height="80" viewBox="0 0 80 80" fill="none" xmlns="http://www.w3.org/2000/svg">
<g clip-path="url(#clip0_140_5676)">
<mask id="mask0_140_5676" style="mask-type:luminance" maskUnits="userSpaceOnUse" x="0" y="0" width="80" height="80">
<path d="M0 0H80V80H0V0Z" fill="white"/>
</mask>
<g mask="url(#mask0_140_5676)">
<path fill-rule="evenodd" clip-rule="evenodd" d="M67.4444 16.4027C67.4442 16.4027 67.4447 16.4025 67.4444 16.4027L60.8083 19.1619C60.7775 19.173 60.7524 19.1958 60.7384 19.2253C60.7333 19.2364 60.7303 19.2484 60.7295 19.2606C60.7291 19.2767 60.732 19.2926 60.7378 19.3075L60.7436 19.3233L69.5331 44.6809L69.54 44.7011C69.5442 44.7136 69.5494 44.7217 69.5564 44.7294C69.5684 44.7417 69.5828 44.7515 69.5986 44.7583C69.6406 44.7772 69.6766 44.7742 69.7017 44.7639C69.7016 44.7641 69.7019 44.7638 69.7017 44.7639L76.3386 42.0044C76.3693 41.9933 76.3944 41.9705 76.4084 41.9409C76.4136 41.9299 76.4166 41.9179 76.4172 41.9056C76.4176 41.8896 76.4148 41.8737 76.4089 41.8588L76.4033 41.843L67.6136 16.4853L67.6067 16.4652C67.6036 16.4546 67.598 16.445 67.5905 16.437C67.5784 16.4247 67.5641 16.4148 67.5483 16.408C67.5062 16.3892 67.4697 16.3924 67.4444 16.4027ZM71.0011 15.3206C70.3116 13.2745 68.0209 12.2875 66.0748 13.0928L59.4498 15.8474C57.6467 16.5863 56.6905 18.6097 57.3612 20.5031L66.1458 45.8456C66.8353 47.8917 69.1258 48.8788 71.0719 48.0734L71.0747 48.0723L77.697 45.3188C79.5001 44.58 80.4564 42.5566 79.7855 40.6631L71.0011 15.3206ZM11.2375 17.2491L11.237 17.2505L3.60046 43.0894C3.59646 43.1029 3.5923 43.1164 3.58796 43.1299C3.5753 43.1694 3.58858 43.2373 3.67124 43.2669L10.4036 45.6738L10.4358 45.6858C10.4373 45.6863 10.4389 45.6869 10.4442 45.6866C10.4593 45.6848 10.4738 45.6802 10.4872 45.673C10.5043 45.665 10.5197 45.6537 10.5324 45.6397C10.5451 45.6256 10.5549 45.6092 10.5612 45.5914L10.5616 45.59L18.1983 19.7511C18.2022 19.7375 18.2064 19.7241 18.2106 19.7106C18.2234 19.6711 18.2101 19.603 18.1275 19.5736L11.3951 17.1666L11.3628 17.1547C11.3612 17.1542 11.3597 17.1536 11.3545 17.1539C11.3394 17.1556 11.3247 17.1602 11.3114 17.1675C11.2943 17.1755 11.2789 17.1869 11.2662 17.2009C11.2536 17.2149 11.2438 17.2312 11.2375 17.2491ZM12.6145 13.7986C10.5945 13.0447 8.40358 14.2291 7.80608 16.2213L0.170458 42.057C-0.428917 43.9638 0.603426 45.9748 2.4664 46.6403L9.18421 49.0419C11.2042 49.7958 13.395 48.6113 13.9925 46.6192L13.9947 46.6122L21.6283 20.7834C22.2275 18.8769 21.1955 16.8659 19.3328 16.2005L12.6145 13.7986Z" fill="#FFB661"/>
<path fill-rule="evenodd" clip-rule="evenodd" d="M48.3392 21.1563C46.525 20.6899 44.9642 20.6232 43.8109 21.0846L43.7912 21.0924C41.0404 22.155 35.8069 25.6396 32.3084 30.2874C31.5975 31.2724 31.6759 32.7511 32.4676 33.6678C32.5162 33.7241 32.5612 33.7833 32.6023 33.845L32.6097 33.856C33.1845 34.4908 34.019 34.6488 34.7317 34.3433L34.7383 34.3407C35.304 34.1007 35.9451 33.6647 36.6959 33.0539C37.1547 32.6808 37.5601 32.3244 37.9875 31.9488C38.3036 31.671 38.6317 31.3825 39.0023 31.0689C39.782 30.4093 40.6754 29.7074 41.6203 29.2452C42.5833 28.7741 43.8022 28.4546 45.1008 28.8819C46.0875 29.2071 47.4751 29.9686 48.9508 30.8632C50.4775 31.7886 52.2589 32.9568 54.0929 34.203C57.7611 36.6952 61.7019 39.5413 64.3569 41.4802C66.6311 43.1161 67.4789 46.048 66.7397 48.6814L66.7359 48.695C65.8915 51.6152 63.2364 53.4968 60.4762 53.2861C60.4831 54.7721 59.9978 56.2699 58.9967 57.4711L58.994 57.4743C57.5148 59.2411 55.2297 59.9324 53.1353 59.3161C53.0706 60.79 52.5251 62.2508 51.4769 63.3946L51.4714 63.4005C49.6281 65.3932 46.7069 65.886 44.3422 64.4466L37.6073 60.3289C36.7634 59.813 36.4976 58.7107 37.0136 57.8668C37.5295 57.0228 38.6319 56.7569 39.4758 57.2728L46.2047 61.3869C46.2044 61.3868 46.2048 61.3871 46.2047 61.3869C47.0476 61.8996 48.1014 61.766 48.839 60.9711C50.03 59.668 49.6756 57.4532 48.3262 56.6383C48.3258 56.638 48.3253 56.6377 48.3248 56.6375L41.4212 52.4883C40.5736 51.9788 40.2989 50.8783 40.8083 50.0307C41.3176 49.1828 42.4178 48.9085 43.2658 49.4177L53.6689 55.6666C54.4858 56.1638 55.5361 56.0236 56.2465 55.176C57.2395 53.9824 57.0384 52.1743 56.0328 51.2439L45.9519 44.7908L45.9472 44.7878C45.115 44.2552 44.8714 43.1493 45.4028 42.3163C45.9342 41.4832 47.0398 41.2378 47.8736 41.768L47.8783 41.771L57.6451 47.9799C57.8301 48.0984 58.0084 48.2269 58.1794 48.3649L59.71 49.3447C60.9348 50.1372 62.7401 49.6049 63.2929 47.7068C63.6656 46.3686 63.1903 45.0518 62.2622 44.386L62.25 44.3771C59.6033 42.4444 55.699 39.6247 52.08 37.1658C50.2692 35.9355 48.5451 34.806 47.094 33.9264C45.5917 33.0158 44.5284 32.4649 43.9803 32.2843C43.9008 32.2582 43.6937 32.2185 43.1944 32.4628C42.6751 32.7169 42.0667 33.1683 41.3161 33.8035C41.0268 34.0501 40.7396 34.2992 40.4544 34.5505C39.9636 34.9803 39.4331 35.4449 38.9561 35.8328C38.1306 36.5044 37.1769 37.1968 36.1395 37.6371C33.9461 38.5755 31.3951 37.9863 29.809 36.0933C29.7672 36.0433 29.7279 35.991 29.6917 35.9368L29.6784 35.9166C27.8948 33.7647 27.722 30.4975 29.4209 28.1677L29.4364 28.1466C33.3287 22.9691 39.1036 19.0664 42.4908 17.7547C44.7 16.8749 47.1628 17.1553 49.2309 17.6871C51.4422 18.2555 53.5567 19.2113 54.9636 19.8474C55.1262 19.9208 55.2795 19.99 55.4223 20.0539C56.3509 20.4694 57.2269 20.4733 57.8926 20.3657C58.1578 20.3233 58.4186 20.2572 58.672 20.1682C58.744 20.1427 58.8149 20.1145 58.8847 20.0835C59.7637 19.6485 60.8311 20.0018 61.2759 20.8783C61.7234 21.7605 61.3712 22.8383 60.4892 23.286L59.6787 21.6888C60.4892 23.286 60.4886 23.2863 60.4878 23.2866L60.4864 23.2874L60.4834 23.2889L60.4767 23.2924L60.4604 23.3003L60.4172 23.3211C60.3837 23.3369 60.3408 23.3566 60.2887 23.3793C60.1851 23.4246 60.0448 23.4818 59.8723 23.543C59.415 23.7046 58.944 23.8246 58.4651 23.9016C57.2997 24.0902 55.6817 24.0941 53.9595 23.3238C53.8076 23.2557 53.65 23.1847 53.4873 23.1113C52.0565 22.4661 50.2289 21.6421 48.3392 21.1563ZM18.1594 41.2272L18.1587 41.2289L14.4331 50.5253C14.0425 51.5532 14.5428 53.008 15.8653 53.6572L16.2275 53.8219C16.2439 53.8294 16.2601 53.8371 16.2764 53.845C17.5119 54.4524 18.6537 53.9144 19.0219 53.005L19.0225 53.0033L22.7481 43.7068C23.1386 42.6791 22.6384 41.2243 21.3161 40.5749L20.9537 40.4103C20.9373 40.4029 20.921 40.3952 20.9048 40.3872C19.6694 39.7799 18.5275 40.3177 18.1594 41.2272ZM22.4586 37.1596C19.5839 35.7636 16.0703 36.8321 14.8369 39.8885L11.1033 49.2053L11.0948 49.2268C9.95857 52.1705 11.4764 55.5146 14.3233 56.8905L14.3615 56.9085L14.7226 57.0725C17.5973 58.4686 21.1109 57.4002 22.3444 54.3436L26.0779 45.0269L26.0864 45.0055C27.2226 42.0618 25.7048 38.7177 22.8579 37.3418C22.8453 37.3355 22.8325 37.3296 22.8197 37.3238L22.4586 37.1596Z" fill="#FFB661"/>
<path fill-rule="evenodd" clip-rule="evenodd" d="M27.8205 47.2983C26.4727 46.6461 25.2258 47.226 24.8222 48.2347L21.2295 57.1988C21.2295 57.1989 21.2297 57.1986 21.2295 57.1988C20.7827 58.3171 21.3363 59.9075 22.7655 60.596L23.1331 60.763L23.172 60.7813C24.5199 61.4335 25.7667 60.8536 26.1703 59.8449L29.763 50.8807M29.3597 44.0638C26.3867 42.6386 22.765 43.7349 21.4969 46.9033C21.4967 46.9035 21.4969 46.9032 21.4969 46.9033L21.4964 46.9044L17.9038 55.8685C16.6783 58.9324 18.2824 62.4285 21.2383 63.8361L21.2672 63.8496L21.6328 64.0158C24.6061 65.4411 28.2285 64.3444 29.4961 61.1752L33.0888 52.211C34.3144 49.1471 32.7102 45.651 29.7542 44.2435L29.7255 44.23L29.3597 44.0638ZM28.227 47.4836L27.8594 47.3164C27.8464 47.3105 27.8334 47.3044 27.8205 47.2983" fill="#FFB661"/>
<path fill-rule="evenodd" clip-rule="evenodd" d="M32.3907 54.3387C32.3907 54.339 32.3909 54.3386 32.3907 54.3387L30.1934 59.8498C29.746 60.9681 30.2998 62.5583 31.7293 63.2468L32.0968 63.414C32.1099 63.4198 32.1229 63.4259 32.1359 63.4322C33.4834 64.0843 34.7301 63.5048 35.1338 62.4964C35.1337 62.4965 35.1338 62.4962 35.1338 62.4964L37.3315 56.9847C37.7788 55.8664 37.2251 54.2762 35.7955 53.5876L35.4279 53.4206C35.4149 53.4146 35.4019 53.4085 35.389 53.4023C34.0415 52.7503 32.7946 53.3304 32.3907 54.3387ZM36.9282 50.1678C33.9549 48.7425 30.3327 49.839 29.0649 53.0084L26.8676 58.5195C26.8674 58.5198 26.8677 58.5192 26.8676 58.5195C25.6427 61.5831 27.2465 65.0797 30.2019 66.487L30.2309 66.5004L30.5966 66.6667C33.5699 68.092 37.1921 66.9954 38.4599 63.8261L40.6573 58.315L40.6577 58.3139C41.8824 55.2501 40.2784 51.7548 37.3227 50.3475L37.294 50.334L36.9282 50.1678ZM35.0698 21.8987C33.2184 21.242 31.2719 20.8634 29.8909 21.2242C27.7365 21.787 25.2041 21.9273 23.2899 21.9406C22.4814 21.9461 21.6729 21.9304 20.8652 21.8936C20.5605 21.8796 20.2559 21.8619 19.9516 21.8404L19.8974 21.8362L19.8819 21.835L19.8757 21.8345C19.8754 21.8345 19.8746 21.8345 20.0205 20.0493L19.8757 21.8345C18.8898 21.7539 18.1549 20.8893 18.2355 19.9034C18.316 18.9178 19.1802 18.184 20.1659 18.2643L20.1757 18.2651L20.2159 18.2681C20.2526 18.2709 20.309 18.2748 20.3834 18.2798C20.5321 18.2895 20.7523 18.3026 21.0299 18.3153C21.5859 18.3409 22.3677 18.365 23.2649 18.3587C25.0916 18.3459 27.268 18.2072 28.9854 17.7586C31.4759 17.1078 34.308 17.8279 36.2671 18.5228C37.1368 18.8329 37.9895 19.1887 38.8216 19.5887C39.1402 19.7417 39.3971 19.8731 39.5771 19.9678C39.6673 20.0153 39.7385 20.0536 39.7887 20.0811L39.8484 20.1139L39.866 20.1237L39.8718 20.127L39.8738 20.1281C39.8743 20.1284 39.8754 20.129 38.9951 21.6887L39.8754 20.129C40.7368 20.6153 41.041 21.7076 40.5549 22.569C40.069 23.43 38.9774 23.7343 38.1162 23.2492L38.1148 23.2484L38.109 23.2453L38.0719 23.2248C38.018 23.1954 37.9638 23.1664 37.9093 23.1379C37.6985 23.0272 37.4856 22.9204 37.2709 22.8176C36.5538 22.4729 35.8191 22.1662 35.0698 21.8987Z" fill="#FFB661"/>
</g>
</g>
<defs>
<clipPath id="clip0_140_5676">
<rect width="80" height="80" fill="white"/>
</clipPath>
</defs>
</svg>
