<svg width="125" height="125" viewBox="0 0 125 125" fill="none" xmlns="http://www.w3.org/2000/svg">
<path d="M34.4218 103.094C27.9725 106.797 20.703 108.125 16.3983 108.602C16.8749 104.297 18.203 97.0273 21.9022 90.5742C22.1386 90.1735 22.2931 89.7299 22.3568 89.2691C22.4205 88.8083 22.3921 88.3394 22.2733 87.8896C22.1544 87.4398 21.9475 87.0181 21.6644 86.6489C21.3814 86.2797 21.0279 85.9703 20.6244 85.7387C20.221 85.5071 19.7755 85.3579 19.314 85.2997C18.8524 85.2416 18.3839 85.2756 17.9356 85.3998C17.4873 85.524 17.068 85.736 16.7022 86.0234C16.3364 86.3108 16.0313 86.668 15.8046 87.0742C9.17957 98.6289 9.10144 111.824 9.10144 112.383C9.10144 113.315 9.47184 114.209 10.1311 114.869C10.7905 115.528 11.6847 115.898 12.6171 115.898C13.1757 115.898 26.371 115.82 37.9257 109.195C38.3263 108.965 38.6777 108.659 38.9598 108.293C39.2419 107.927 39.4491 107.509 39.5698 107.063C39.6904 106.617 39.722 106.152 39.6627 105.693C39.6035 105.235 39.4546 104.793 39.2245 104.393C38.9944 103.992 38.6877 103.641 38.3218 103.358C37.9559 103.076 37.5381 102.869 37.0921 102.748C36.6461 102.628 36.1808 102.596 35.7226 102.656C35.2644 102.715 34.8224 102.864 34.4218 103.094ZM120.738 12.793C120.765 11.6639 120.561 10.5412 120.139 9.49349C119.717 8.44579 119.086 7.49502 118.285 6.69922C116.664 5.07813 114.32 4.27734 112.203 4.25781C102.469 4.44141 76.2108 7.23437 51.3671 29.5352C46.9374 27.8125 40.2616 25.2539 35.1952 25.9062C27.7421 26.8633 16.7303 37.0039 5.94519 47.8242C5.24407 48.5215 4.73557 49.3885 4.46926 50.3407C4.20296 51.293 4.18794 52.298 4.42566 53.2578C4.90223 55.2344 6.34754 56.7852 8.28504 57.4062L25.4335 62.9141C24.1051 65.3211 22.8391 67.762 21.6366 70.2344C20.8824 71.8012 20.6344 73.5639 20.927 75.278C21.2196 76.9922 22.0382 78.5728 23.2694 79.8008L45.1952 101.727C46.4246 102.957 48.0056 103.775 49.7199 104.068C51.4341 104.361 53.1972 104.115 54.7655 103.363C57.3124 102.133 59.7264 100.859 62.078 99.5703L67.5897 116.715C67.9593 117.89 68.696 118.915 69.6917 119.64C70.6874 120.365 71.8894 120.751 73.121 120.742C74.6249 120.742 76.0741 120.152 77.1757 119.055C87.996 108.27 98.1366 97.2617 99.0897 89.8125C99.7499 84.6992 97.1835 78.0625 95.4608 73.6328C117.758 48.7891 120.555 22.5312 120.738 12.793ZM12.3749 51.3398C18.0975 45.6406 30.5272 33.5977 36.0897 32.8828C38.5702 32.5664 42.4647 33.7422 45.7538 34.9336C39.9452 40.9375 34.3046 48.1328 29.0468 56.6914L12.3749 51.3398ZM51.7069 97.0312C51.4532 97.1485 51.1696 97.1851 50.8944 97.1362C50.6193 97.0873 50.3657 96.9552 50.1679 96.7578L28.2382 74.8281C28.0409 74.6301 27.9092 74.3763 27.861 74.101C27.8128 73.8257 27.8504 73.5423 27.9686 73.2891C55.2772 16.7227 99.4491 11.5352 112.34 11.293H112.371C112.836 11.293 113.141 11.5 113.32 11.6797C113.449 11.8087 113.55 11.9624 113.618 12.1316C113.686 12.3007 113.719 12.4819 113.715 12.6641C113.465 25.5547 108.273 69.7266 51.7069 97.0312ZM92.1171 88.9141C91.4022 94.4726 79.3593 106.906 73.66 112.625L68.3007 95.957C76.8671 90.6992 84.0624 85.0547 90.0663 79.2461C91.2616 82.5312 92.4374 86.418 92.1171 88.9141Z" fill="#FFB661"/>
<path d="M94.25 51.6172C97.0118 48.8472 98.5626 45.0952 98.5626 41.1836C98.5626 37.272 97.0118 33.52 94.25 30.75C88.6719 25.1797 78.9531 25.1797 73.3828 30.75C70.5977 33.5352 69.0625 37.2422 69.0625 41.1836C69.0625 45.125 70.6016 48.832 73.3828 51.6172C76.168 54.4023 79.875 55.9375 83.8164 55.9375C87.7578 55.9375 91.4609 54.4023 94.25 51.6172ZM89.2734 46.6445C86.3555 49.5664 81.2656 49.5664 78.3555 46.6445C76.8945 45.1875 76.0898 43.2461 76.0898 41.1836C76.0898 39.1211 76.8945 37.1836 78.3555 35.7227C79.0704 35.0036 79.9207 34.4334 80.8574 34.0452C81.7941 33.657 82.7985 33.4584 83.8125 33.4609C85.3391 33.4627 86.831 33.9167 88.0999 34.7656C89.3687 35.6145 90.3576 36.8202 90.9419 38.2306C91.5261 39.641 91.6794 41.1929 91.3825 42.6904C91.0855 44.1878 90.3516 45.5638 89.2734 46.6445Z" fill="#FFB661"/>
</svg>
