<svg width="100" height="100" viewBox="0 0 100 100" fill="none" xmlns="http://www.w3.org/2000/svg">
<path d="M28.125 6.25C27.2962 6.25 26.5013 6.57924 25.9153 7.16529C25.3292 7.75134 25 8.5462 25 9.375V12.5H18.75C11.8781 12.5 6.25 18.1281 6.25 25V81.25C6.25 88.1219 11.8781 93.75 18.75 93.75H81.25C88.1219 93.75 93.75 88.1219 93.75 81.25V25C93.75 18.1281 88.1219 12.5 81.25 12.5H75V9.375C75 8.5462 74.6708 7.75134 74.0847 7.16529C73.4987 6.57924 72.7038 6.25 71.875 6.25C71.0462 6.25 70.2513 6.57924 69.6653 7.16529C69.0792 7.75134 68.75 8.5462 68.75 9.375V12.5H53.125V9.375C53.125 8.5462 52.7958 7.75134 52.2097 7.16529C51.6237 6.57924 50.8288 6.25 50 6.25C49.1712 6.25 48.3763 6.57924 47.7903 7.16529C47.2042 7.75134 46.875 8.5462 46.875 9.375V12.5H31.25V9.375C31.25 8.5462 30.9208 7.75134 30.3347 7.16529C29.7487 6.57924 28.9538 6.25 28.125 6.25ZM18.75 18.75H25V21.875C25 22.7038 25.3292 23.4987 25.9153 24.0847C26.5013 24.6708 27.2962 25 28.125 25C28.9538 25 29.7487 24.6708 30.3347 24.0847C30.9208 23.4987 31.25 22.7038 31.25 21.875V18.75H46.875V21.875C46.875 22.7038 47.2042 23.4987 47.7903 24.0847C48.3763 24.6708 49.1712 25 50 25C50.8288 25 51.6237 24.6708 52.2097 24.0847C52.7958 23.4987 53.125 22.7038 53.125 21.875V18.75H68.75V21.875C68.75 22.7038 69.0792 23.4987 69.6653 24.0847C70.2513 24.6708 71.0462 25 71.875 25C72.7038 25 73.4987 24.6708 74.0847 24.0847C74.6708 23.4987 75 22.7038 75 21.875V18.75H81.25C84.7656 18.75 87.5 21.4844 87.5 25V31.25H12.5V25C12.5 21.4844 15.2344 18.75 18.75 18.75ZM12.5 37.5H87.5V81.25C87.5 84.7656 84.7656 87.5 81.25 87.5H18.75C15.2344 87.5 12.5 84.7656 12.5 81.25V37.5Z" fill="#FFB661"/>
<path d="M23.4465 46.8843H29.6871C29.8926 46.8839 30.0961 46.924 30.286 47.0023C30.4759 47.0807 30.6486 47.1957 30.794 47.3408C30.9394 47.486 31.0548 47.6583 31.1335 47.8481C31.2122 48.0379 31.2527 48.2413 31.2527 48.4468V54.6874C31.2531 54.8929 31.213 55.0964 31.1347 55.2863C31.0564 55.4762 30.9413 55.6489 30.7962 55.7943C30.6511 55.9397 30.4787 56.0551 30.2889 56.1338C30.0991 56.2125 29.8957 56.253 29.6902 56.253H23.4434C23.029 56.253 22.6315 56.0884 22.3385 55.7954C22.0455 55.5024 21.8809 55.1049 21.8809 54.6905V48.4499C21.8809 48.0355 22.0455 47.6381 22.3385 47.3451C22.6315 47.052 23.029 46.8874 23.4434 46.8874L23.4465 46.8843ZM39.0621 46.8843H45.3027C45.7171 46.8843 46.1146 47.0489 46.4076 47.3419C46.7006 47.635 46.8652 48.0324 46.8652 48.4468V54.6874C46.8656 54.8929 46.8255 55.0964 46.7472 55.2863C46.6689 55.4762 46.5538 55.6489 46.4087 55.7943C46.2636 55.9397 46.0912 56.0551 45.9014 56.1338C45.7116 56.2125 45.5082 56.253 45.3027 56.253H39.0621C38.8567 56.2534 38.6531 56.2133 38.4632 56.135C38.2733 56.0566 38.1007 55.9416 37.9552 55.7965C37.8098 55.6514 37.6944 55.479 37.6157 55.2892C37.537 55.0994 37.4965 54.896 37.4965 54.6905V48.4499C37.4965 48.0355 37.6611 47.6381 37.9541 47.3451C38.2472 47.052 38.6446 46.8874 39.059 46.8874L39.0621 46.8843ZM54.6965 46.8843H60.9371C61.1426 46.8839 61.3461 46.924 61.536 47.0023C61.7259 47.0807 61.8986 47.1957 62.044 47.3408C62.1894 47.486 62.3048 47.6583 62.3835 47.8481C62.4622 48.0379 62.5027 48.2413 62.5027 48.4468V54.6874C62.5031 54.8929 62.463 55.0964 62.3847 55.2863C62.3064 55.4762 62.1913 55.6489 62.0462 55.7943C61.9011 55.9397 61.7287 56.0551 61.5389 56.1338C61.3491 56.2125 61.1457 56.253 60.9402 56.253H54.6996C54.2852 56.253 53.8878 56.0884 53.5948 55.7954C53.3017 55.5024 53.1371 55.1049 53.1371 54.6905V48.4499C53.1371 48.0355 53.3017 47.6381 53.5948 47.3451C53.8878 47.052 54.2852 46.8874 54.6996 46.8874L54.6965 46.8843ZM70.3121 46.8843H76.5527C76.9671 46.8843 77.3646 47.0489 77.6576 47.3419C77.9506 47.635 78.1152 48.0324 78.1152 48.4468V54.6874C78.1156 54.8929 78.0755 55.0964 77.9972 55.2863C77.9189 55.4762 77.8038 55.6489 77.6587 55.7943C77.5136 55.9397 77.3412 56.0551 77.1514 56.1338C76.9616 56.2125 76.7582 56.253 76.5527 56.253H70.3121C70.1067 56.2534 69.9031 56.2133 69.7132 56.135C69.5233 56.0566 69.3507 55.9416 69.2052 55.7965C69.0598 55.6514 68.9444 55.479 68.8657 55.2892C68.787 55.0994 68.7465 54.896 68.7465 54.6905V48.4499C68.7465 48.0355 68.9111 47.6381 69.2041 47.3451C69.4972 47.052 69.8946 46.8874 70.309 46.8874L70.3121 46.8843ZM23.4465 65.6249H29.6871C29.8926 65.6245 30.0961 65.6646 30.286 65.7429C30.4759 65.8213 30.6486 65.9363 30.794 66.0814C30.9394 66.2266 31.0548 66.399 31.1335 66.5887C31.2122 66.7785 31.2527 66.982 31.2527 67.1874V73.428C31.2527 73.8424 31.0881 74.2399 30.7951 74.5329C30.5021 74.8259 30.1046 74.9905 29.6902 74.9905H23.4434C23.029 74.9905 22.6315 74.8259 22.3385 74.5329C22.0455 74.2399 21.8809 73.8424 21.8809 73.428V67.1874C21.8805 66.982 21.9206 66.7784 21.9989 66.5885C22.0772 66.3986 22.1923 66.226 22.3374 66.0805C22.4825 65.9351 22.6549 65.8197 22.8447 65.741C23.0345 65.6623 23.2379 65.6218 23.4434 65.6218L23.4465 65.6249ZM39.0621 65.6249H45.3027C45.7171 65.6249 46.1146 65.7895 46.4076 66.0825C46.7006 66.3756 46.8652 66.773 46.8652 67.1874V73.428C46.8652 73.8424 46.7006 74.2399 46.4076 74.5329C46.1146 74.8259 45.7171 74.9905 45.3027 74.9905H39.0621C38.8567 74.9909 38.6531 74.9508 38.4632 74.8725C38.2733 74.7941 38.1007 74.6791 37.9552 74.534C37.8098 74.3889 37.6944 74.2165 37.6157 74.0267C37.537 73.8369 37.4965 73.6335 37.4965 73.428V67.1874C37.4961 66.982 37.5362 66.7784 37.6145 66.5885C37.6929 66.3986 37.8079 66.226 37.953 66.0805C38.0982 65.9351 38.2705 65.8197 38.4603 65.741C38.6501 65.6623 38.8535 65.6218 39.059 65.6218L39.0621 65.6249ZM54.6965 65.6249H60.9371C61.1426 65.6245 61.3461 65.6646 61.536 65.7429C61.7259 65.8213 61.8986 65.9363 62.044 66.0814C62.1894 66.2266 62.3048 66.399 62.3835 66.5887C62.4622 66.7785 62.5027 66.982 62.5027 67.1874V73.428C62.5027 73.8424 62.3381 74.2399 62.0451 74.5329C61.7521 74.8259 61.3546 74.9905 60.9402 74.9905H54.6996C54.2852 74.9905 53.8878 74.8259 53.5948 74.5329C53.3017 74.2399 53.1371 73.8424 53.1371 73.428V67.1874C53.1367 66.982 53.1768 66.7784 53.2552 66.5885C53.3335 66.3986 53.4485 66.226 53.5937 66.0805C53.7388 65.9351 53.9112 65.8197 54.1009 65.741C54.2907 65.6623 54.4942 65.6218 54.6996 65.6218L54.6965 65.6249ZM70.3121 65.6249H76.5527C76.9671 65.6249 77.3646 65.7895 77.6576 66.0825C77.9506 66.3756 78.1152 66.773 78.1152 67.1874V73.428C78.1152 73.8424 77.9506 74.2399 77.6576 74.5329C77.3646 74.8259 76.9671 74.9905 76.5527 74.9905H70.3121C70.1067 74.9909 69.9031 74.9508 69.7132 74.8725C69.5233 74.7941 69.3507 74.6791 69.2052 74.534C69.0598 74.3889 68.9444 74.2165 68.8657 74.0267C68.787 73.8369 68.7465 73.6335 68.7465 73.428V67.1874C68.7461 66.982 68.7862 66.7784 68.8645 66.5885C68.9429 66.3986 69.0579 66.226 69.203 66.0805C69.3482 65.9351 69.5205 65.8197 69.7103 65.741C69.9001 65.6623 70.1035 65.6218 70.309 65.6218L70.3121 65.6249Z" fill="#FFB661"/>
</svg>
