<svg width="100" height="100" viewBox="0 0 100 100" fill="none" xmlns="http://www.w3.org/2000/svg">
<g clip-path="url(#clip0_0_7)">
<path d="M91.2109 23.4375H79.2889C81.1322 20.9875 82.2266 17.9436 82.2266 14.6484C82.2266 6.57129 75.6553 0 67.5781 0C62.7127 0 59.125 1.74316 56.2873 5.48574C53.9133 8.61699 52.1773 12.9889 50 18.5127C47.8227 12.9887 46.0867 8.61699 43.7127 5.48574C40.875 1.74316 37.2873 0 32.4219 0C24.3447 0 17.7734 6.57129 17.7734 14.6484C17.7734 17.9436 18.8678 20.9875 20.7111 23.4375H8.78906C3.94277 23.4375 0 27.3803 0 32.2266V38.0859C0 41.9053 2.44941 45.1617 5.85938 46.3711V91.2109C5.85938 96.0572 9.80215 100 14.6484 100H85.3516C90.1979 100 94.1406 96.0572 94.1406 91.2109V46.3711C97.5506 45.1617 100 41.9053 100 38.0859V32.2266C100 27.3803 96.0572 23.4375 91.2109 23.4375ZM55.3777 20.8477C59.8658 9.46133 61.5721 5.85938 67.5781 5.85938C72.4244 5.85938 76.3672 9.80215 76.3672 14.6484C76.3672 19.4947 72.4244 23.4375 67.5781 23.4375H54.3529C54.7119 22.5361 55.0543 21.6684 55.3777 20.8477ZM32.4219 5.85938C38.4279 5.85938 40.1342 9.46133 44.6223 20.8477C44.9457 21.6684 45.2881 22.5361 45.6471 23.4375H32.4219C27.5756 23.4375 23.6328 19.4947 23.6328 14.6484C23.6328 9.80215 27.5756 5.85938 32.4219 5.85938ZM38.2812 94.1406H14.6484C13.033 94.1406 11.7188 92.8264 11.7188 91.2109V46.875H38.2812V94.1406ZM38.2812 41.0156H8.78906C7.17363 41.0156 5.85938 39.7014 5.85938 38.0859V32.2266C5.85938 30.6111 7.17363 29.2969 8.78906 29.2969H38.2812V41.0156ZM55.8594 94.1406H44.1406V29.2969H55.8594V94.1406ZM88.2812 91.2109C88.2812 92.8264 86.967 94.1406 85.3516 94.1406H61.7188V46.875H88.2812V91.2109ZM94.1406 38.0859C94.1406 39.7014 92.8264 41.0156 91.2109 41.0156H61.7188V29.2969H91.2109C92.8264 29.2969 94.1406 30.6111 94.1406 32.2266V38.0859Z" fill="#FFB661"/>
</g>
<defs>
<clipPath id="clip0_0_7">
<rect width="100" height="100" fill="white"/>
</clipPath>
</defs>
</svg>
