<svg width="40" height="50" viewBox="0 0 40 50" fill="none" xmlns="http://www.w3.org/2000/svg">
<path d="M35.2539 2.73975H29.7534C28.302 1.06338 26.1629 0 23.7793 0H15.8691C13.4855 0 11.3465 1.06338 9.89502 2.73975H4.39453C1.97139 2.73975 0 4.71504 0 7.14287V45.5969C0 48.0247 1.97139 50 4.39453 50H35.2539C37.6771 50 39.6484 48.0247 39.6484 45.5969V7.14287C39.6484 4.71494 37.6771 2.73975 35.2539 2.73975ZM15.8691 2.93545H23.7793C26.0427 2.93545 27.9224 4.45059 28.54 6.45791H11.1084C11.725 4.4541 13.6022 2.93545 15.8691 2.93545ZM36.7188 45.5969C36.7188 46.4062 36.0616 47.0646 35.2539 47.0646H4.39453C3.58682 47.0646 2.92969 46.4062 2.92969 45.5969V7.14287C2.92969 6.33359 3.58682 5.6752 4.39453 5.6752H8.28574C8.06902 6.40571 7.95896 7.1637 7.95898 7.92568C7.95898 8.73623 8.61484 9.39336 9.42383 9.39336H30.2246C31.0336 9.39336 31.6895 8.73623 31.6895 7.92568C31.6895 7.1637 31.5794 6.40571 31.3627 5.6752H35.2539C36.0616 5.6752 36.7188 6.33359 36.7188 7.14287V45.5969Z" fill="white"/>
<path d="M12.6036 29.1645L10.4493 31.3229L9.92251 30.7951C9.35054 30.2219 8.423 30.2219 7.85093 30.7951C7.27886 31.3683 7.27886 32.2976 7.85093 32.8707L9.41343 34.4362C9.9854 35.0094 10.9129 35.0095 11.485 34.4362L14.675 31.2399C15.2471 30.6668 15.2471 29.7375 14.675 29.1644C14.1031 28.5912 13.1755 28.5912 12.6036 29.1645ZM30.6641 30.3327H18.8477C18.0387 30.3327 17.3829 30.9898 17.3829 31.8004C17.3829 32.6109 18.0387 33.2681 18.8477 33.2681H30.6641C31.4731 33.2681 32.129 32.6109 32.129 31.8004C32.129 30.9898 31.4731 30.3327 30.6641 30.3327ZM12.6036 37.5793L10.4493 39.7377L9.92251 39.21C9.35054 38.6367 8.423 38.6367 7.85093 39.21C7.27886 39.7831 7.27886 40.7124 7.85093 41.2855L9.41343 42.8511C9.9854 43.4242 10.9129 43.4243 11.485 42.8511L14.675 39.6548C15.2471 39.0816 15.2471 38.1523 14.675 37.5792C14.1031 37.0061 13.1755 37.0061 12.6036 37.5793ZM30.6641 38.7476H18.8477C18.0387 38.7476 17.3829 39.4047 17.3829 40.2152C17.3829 41.0258 18.0387 41.6829 18.8477 41.6829H30.6641C31.4731 41.6829 32.129 41.0258 32.129 40.2152C32.129 39.4047 31.4731 38.7476 30.6641 38.7476ZM22.6178 23.5427L27.1485 19.0032V19.1781C27.1485 19.9887 27.8043 20.6458 28.6133 20.6458C29.4223 20.6458 30.0782 19.9887 30.0782 19.1781C30.0782 15.0265 30.085 15.413 30.0614 15.249C29.9578 14.531 29.3433 13.992 28.6128 13.9922H24.9024C24.0934 13.9922 23.4375 14.6493 23.4375 15.4599C23.4375 16.2704 24.0934 16.9275 24.9024 16.9275H25.0769L21.5821 20.4292L17.1491 15.9876C16.5771 15.4144 15.6496 15.4144 15.0775 15.9876L9.80405 21.2714C9.23198 21.8445 9.23198 22.7738 9.80405 23.347C10.376 23.9202 11.3036 23.9202 11.8756 23.347L16.1133 19.1011L20.5463 23.5427C21.1182 24.1158 22.0458 24.1159 22.6178 23.5427Z" fill="white"/>
</svg>
