<svg width="60" height="60" viewBox="0 0 60 60" fill="none" xmlns="http://www.w3.org/2000/svg">
<path d="M43.0891 25.6221C42.7831 25.6221 42.4896 25.7436 42.2732 25.96C42.0568 26.1764 41.9353 26.4699 41.9353 26.7759V29.0474C41.9353 29.0935 41.9097 33.7716 39.6914 39.2112C36.7816 46.3466 31.6554 51.3074 24.4545 53.9647C17.2814 51.3176 12.166 46.3839 9.2497 39.2896C7.01043 33.8422 6.97385 29.0935 6.97373 29.0474V10.798L24.4545 6.00229L38.4174 9.83306C38.7118 9.91176 39.0254 9.87081 39.2897 9.71916C39.554 9.56752 39.7476 9.31747 39.8282 9.02361C39.9088 8.72975 39.8699 8.41593 39.72 8.15065C39.57 7.88537 39.3213 7.69016 39.0279 7.60763L24.7598 3.69321V3.69425C24.5603 3.63873 24.3494 3.63837 24.1497 3.69321L5.51516 8.80533C5.27132 8.8722 5.0562 9.01732 4.90287 9.21836C4.74955 9.41941 4.6665 9.66525 4.6665 9.91809V29.0474C4.6665 29.2562 4.69408 34.2281 7.08127 40.0827C8.48816 43.5327 10.4274 46.5732 12.845 49.12C15.8697 52.3061 19.6463 54.7156 24.0699 56.2815C24.3189 56.3702 24.591 56.3702 24.84 56.2815C29.2637 54.7156 33.0404 52.3061 36.0651 49.12C38.4827 46.5732 40.4219 43.5326 41.8288 40.0827C44.216 34.2284 44.2434 29.2562 44.2434 29.0474V26.7759C44.2434 26.6243 44.2136 26.4743 44.1556 26.3342C44.0975 26.1942 44.0125 26.067 43.9053 25.9598C43.7981 25.8527 43.6709 25.7677 43.5308 25.7098C43.3908 25.6518 43.2407 25.622 43.0891 25.6221Z" fill="#FFB661"/>
<path d="M23.543 48.9043C23.3419 48.9043 23.1442 48.8517 22.9697 48.7518C22.7951 48.6519 22.6498 48.508 22.5479 48.3346C18.7007 41.7808 8.44587 27.8267 8.3426 27.6864C8.17839 27.4632 8.09998 27.1883 8.12172 26.9121C8.14346 26.6358 8.26388 26.3766 8.46098 26.1819L11.6147 23.0654C11.8066 22.8758 12.0589 22.7594 12.3278 22.7365C12.5967 22.7136 12.8651 22.7857 13.0863 22.9401L23.3028 30.0744C30.1382 21.3084 36.4869 15.2539 40.6639 11.6806C45.3658 7.65884 48.359 5.84891 48.4841 5.7738C48.6635 5.66619 48.8687 5.60935 49.0779 5.60938H54.1796C54.4135 5.60936 54.6419 5.68044 54.8345 5.81318C55.0271 5.94592 55.1748 6.13405 55.258 6.35264C55.3412 6.57124 55.356 6.80996 55.3005 7.03718C55.245 7.26439 55.1217 7.46936 54.947 7.62491C40.4547 20.5336 24.7031 48.0452 24.5456 48.3211C24.4454 48.497 24.3007 48.6434 24.1261 48.7457C23.9514 48.848 23.7529 48.9025 23.5505 48.9039L23.543 48.9043ZM10.7909 27.1238C12.8585 29.9538 19.7352 39.4353 23.5232 45.4964C25.0539 42.9091 28.261 37.6145 32.3544 31.555C39.2305 21.3763 45.5754 13.4411 51.2511 7.91707H49.4104C47.5994 9.07968 36.6574 16.4591 24.4584 32.3521C24.2775 32.5877 24.0127 32.7445 23.7192 32.7899C23.4256 32.8352 23.1259 32.7656 22.8823 32.5955L12.5536 25.3826L10.7909 27.1238Z" fill="#FFB661"/>
</svg>
