<svg width="60" height="60" viewBox="0 0 60 60" fill="none" xmlns="http://www.w3.org/2000/svg">
<g clip-path="url(#clip0_0_37)">
<path d="M37.9711 28.7394C37.9259 28.5691 37.8364 28.4138 37.7118 28.2892C37.5872 28.1646 37.4319 28.0751 37.2615 28.0299C37.0912 27.9846 36.912 27.9852 36.742 28.0315C36.572 28.0778 36.4172 28.1682 36.2934 28.2936L35.0003 29.5865L33.7073 28.2936C33.5188 28.1109 33.2661 28.0097 33.0036 28.0117C32.7411 28.0138 32.4899 28.119 32.3043 28.3046C32.1187 28.4902 32.0136 28.7413 32.0115 29.0038C32.0094 29.2663 32.1107 29.5191 32.2933 29.7076L33.5863 31.0006L32.2932 32.2936C32.198 32.3859 32.122 32.4963 32.0698 32.6182C32.0177 32.7401 31.9902 32.8712 31.9892 33.0039C31.9882 33.1365 32.0135 33.268 32.0638 33.3907C32.1141 33.5135 32.1883 33.625 32.282 33.7188C32.3758 33.8126 32.4873 33.8868 32.6101 33.937C32.7328 33.9873 32.8643 34.0127 32.997 34.0116C33.1296 34.0106 33.2607 33.9832 33.3826 33.931C33.5046 33.8788 33.6149 33.8029 33.7072 33.7076L35.0002 32.4147L36.2933 33.7077C36.4819 33.8898 36.7345 33.9905 36.9966 33.9882C37.2588 33.9858 37.5096 33.8807 37.6949 33.6953C37.8803 33.5099 37.9855 33.2592 37.9878 32.997C37.9901 32.7349 37.8894 32.4823 37.7074 32.2936L36.4144 31.0006L37.7075 29.7076C37.8328 29.5837 37.9232 29.429 37.9695 29.2589C38.0159 29.0889 38.0164 28.9097 37.9711 28.7394ZM17.0005 22.0007C17.0005 22.2659 17.1058 22.5202 17.2935 22.7077C17.3863 22.8005 17.4965 22.8742 17.6178 22.9245C17.7391 22.9748 17.8691 23.0006 18.0004 23.0006C18.1318 23.0006 18.2618 22.9748 18.3831 22.9245C18.5044 22.8742 18.6146 22.8005 18.7074 22.7077L20.0003 21.4147L21.2934 22.7078C21.482 22.8898 21.7346 22.9905 21.9968 22.9882C22.2589 22.9859 22.5097 22.8807 22.695 22.6953C22.8804 22.51 22.9856 22.2592 22.9879 21.9971C22.9902 21.7349 22.8895 21.4823 22.7075 21.2937L21.4146 20.0006L22.7076 18.7076C22.8897 18.519 22.9904 18.2664 22.988 18.0042C22.9857 17.7421 22.8805 17.4913 22.6952 17.3059C22.5098 17.1206 22.259 17.0154 21.9969 17.0131C21.7347 17.0107 21.4821 17.1115 21.2935 17.2935L20.0005 18.5864L18.7074 17.2934C18.5188 17.1113 18.2662 17.0106 18.0041 17.013C17.7419 17.0153 17.4911 17.1205 17.3058 17.3058C17.1204 17.4912 17.0152 17.742 17.0129 18.0041C17.0106 18.2663 17.1113 18.5189 17.2933 18.7075L18.5863 20.0005L17.2932 21.2936C17.1058 21.4812 17.0005 21.7355 17.0005 22.0007ZM34.0248 21.1629C34.0672 21.2873 34.1337 21.402 34.2205 21.5007C34.3073 21.5993 34.4127 21.6799 34.5306 21.7377C34.6486 21.7956 34.7768 21.8297 34.9079 21.8379C35.0391 21.8462 35.1705 21.8286 35.2948 21.786C35.5457 21.7002 35.7523 21.5183 35.8691 21.2802C35.9858 21.0421 36.0032 20.7674 35.9174 20.5165L34.9468 17.6777C34.9396 17.6566 34.9224 17.6413 34.9137 17.6209C34.886 17.5593 34.852 17.5006 34.8123 17.446C34.7034 17.3166 34.5786 17.2015 34.4409 17.1034C34.4199 17.0932 34.396 17.0945 34.3746 17.0857C34.3535 17.0771 34.3388 17.06 34.3168 17.0527C34.2759 17.0447 34.2344 17.0396 34.1928 17.0372C34.1275 17.0221 34.0608 17.0137 33.9938 17.0123C33.9258 17.014 33.8581 17.0231 33.792 17.0392C33.7534 17.0421 33.7148 17.0473 33.6767 17.0546L30.8384 18.0252C30.5913 18.1141 30.3891 18.2966 30.2754 18.5333C30.1617 18.7699 30.1456 19.0418 30.2306 19.2902C30.3156 19.5386 30.4948 19.7437 30.7296 19.8611C30.9645 19.9786 31.2361 19.999 31.4858 19.9179L31.9678 19.753C30.2752 22.3355 27.7011 24.2142 24.7255 25.039C17.089 27.2216 17.0005 35.9128 17.0005 36.0007C17.0004 36.1321 17.0263 36.2621 17.0765 36.3835C17.1267 36.5049 17.2004 36.6151 17.2933 36.708C17.3861 36.8009 17.4964 36.8745 17.6178 36.9248C17.7391 36.975 17.8692 37.0008 18.0006 37.0008C18.1319 37.0008 18.262 36.975 18.3833 36.9248C18.5047 36.8745 18.615 36.8009 18.7079 36.708C18.8007 36.6151 18.8744 36.5049 18.9246 36.3835C18.9749 36.2621 19.0007 36.1321 19.0006 36.0007C19.0006 35.9284 19.0723 28.7342 25.2755 26.9627C28.826 25.9839 31.8782 23.7049 33.8252 20.5787L34.0248 21.1629ZM45.5503 9.17577C45.3308 9.02946 45.0625 8.97578 44.8036 9.02642C44.5447 9.07705 44.3164 9.2279 44.1682 9.44611L40.845 14.4315L39.7073 13.2938C39.5188 13.1111 39.266 13.0099 39.0035 13.012C38.741 13.014 38.4899 13.1192 38.3043 13.3048C38.1187 13.4904 38.0135 13.7416 38.0114 14.0041C38.0094 14.2665 38.1106 14.5193 38.2933 14.7078L40.2933 16.7078C40.3979 16.8125 40.5244 16.8927 40.6637 16.9425C40.803 16.9924 40.9517 17.0107 41.0989 16.9961C41.2461 16.9815 41.3883 16.9344 41.5151 16.8582C41.642 16.782 41.7503 16.6786 41.8323 16.5555L45.8323 10.5555C45.9767 10.3348 46.0282 10.066 45.9754 9.80759C45.9226 9.54917 45.7698 9.32207 45.5503 9.17577Z" fill="#FFB661"/>
<path d="M53.0001 10.752V5.99995H54.0001C55.6569 5.99995 57.0001 4.65676 57.0001 2.99998C57.0001 1.34319 55.6569 0 54.0001 0H6.00048C4.34369 0 3.0005 1.34308 3.0005 2.99998C3.0005 4.65688 4.34369 5.99995 6.00048 5.99995H7.00043V10.752C4.21087 14.0807 2.17805 17.9758 1.04272 22.1678C-0.0926237 26.3598 -0.303359 30.7484 0.425098 35.0299C1.15355 39.3114 2.8038 43.3834 5.26158 46.964C7.71937 50.5447 10.926 53.5484 14.6594 55.7672C14.675 55.7792 14.6831 55.7969 14.6996 55.8081C14.7562 55.8426 14.8161 55.8711 14.8784 55.8933C16.042 56.5771 17.2506 57.1814 18.4957 57.7021C18.5449 57.7265 18.5962 57.7466 18.6488 57.7624C25.9225 60.7452 34.078 60.7452 41.3517 57.7624C41.4043 57.7466 41.4555 57.7265 41.5047 57.7021C42.7499 57.1814 43.9585 56.5771 45.1222 55.8933C45.1845 55.871 45.2444 55.8425 45.301 55.8081C45.3175 55.7969 45.3255 55.7792 45.3412 55.7672C49.0746 53.5484 52.2812 50.5446 54.7389 46.964C57.1967 43.3834 58.847 39.3114 59.5754 35.0299C60.3039 30.7484 60.0931 26.3598 58.9578 22.1678C57.8225 17.9758 55.7897 14.0807 53.0001 10.752ZM6.00048 3.99993C5.73536 3.99965 5.48118 3.89421 5.29371 3.70674C5.10624 3.51927 5.0008 3.26509 5.00052 2.99998C5.00074 2.73484 5.10616 2.48062 5.29364 2.29314C5.48112 2.10566 5.73534 2.00024 6.00048 2.00002H54.0001C54.5524 2.00002 55.0001 2.44768 55.0001 2.99998C55.0001 3.55228 54.5524 3.99993 54.0001 3.99993H6.00048ZM10.0004 39.9996C9.73529 39.9994 9.48111 39.8939 9.29364 39.7065C9.10617 39.519 9.00073 39.2648 9.00045 38.9997V5.99995H51.0001V38.9997C50.9999 39.2648 50.8945 39.5191 50.707 39.7065C50.5195 39.894 50.2653 39.9994 50.0002 39.9996H10.0004ZM37.0002 41.9997V43.9997C37 44.2648 36.8946 44.5191 36.7071 44.7065C36.5196 44.894 36.2654 44.9994 36.0002 44.9997H24.0003C23.7352 44.9994 23.481 44.894 23.2935 44.7065C23.106 44.5191 23.0006 44.2648 23.0004 43.9997V41.9997H37.0002ZM2.00055 29.9998C2.00474 24.301 3.74921 18.7395 7.00055 14.0592V38.9997C7.0023 40.6558 8.34444 41.9979 10.0005 41.9997H21.0005V43.9997C21.0007 44.2064 21.0223 44.4125 21.0649 44.6148L14.9792 53.611C6.90117 48.4766 2.00605 39.5713 2.00055 29.9998ZM18.5476 55.5404C17.9209 55.2582 17.3029 54.96 16.7015 54.6341L22.2528 46.4279C22.7603 46.7983 23.372 46.9984 24.0002 46.9997H24.3601L18.5476 55.5404ZM27.0003 57.8367C24.7594 57.598 22.5559 57.0876 20.4383 56.3166L26.7792 46.9997H27.0002L27.0003 57.8367ZM31.0002 57.9742C30.6678 57.9859 30.3356 57.9996 30.0003 57.9996C29.665 57.9996 29.3328 57.9859 29.0003 57.9742V46.9997H31.0004V57.9742H31.0002ZM33.0003 57.8367V46.9997H33.2213L39.5621 56.3166C37.4446 57.0876 35.2411 57.598 33.0003 57.8367ZM41.4529 55.5404L35.6404 46.9997H36.0002C36.6285 46.9984 37.2401 46.7982 37.7476 46.4279L43.299 54.6341C42.6976 54.96 42.0796 55.2582 41.4529 55.5404ZM45.0215 53.6109L38.9358 44.6147C38.9784 44.4124 39.0001 44.2063 39.0002 43.9996V41.9996H50.0002C51.6563 41.9978 52.9984 40.6557 53.0001 38.9996V14.0592C56.2515 18.7395 57.996 24.301 58.0001 29.9998C57.9945 39.5713 53.0994 48.4766 45.0215 53.6109Z" fill="#FFB661"/>
</g>
<defs>
<clipPath id="clip0_0_37">
<rect width="60" height="60" fill="white"/>
</clipPath>
</defs>
</svg>
