<svg width="125" height="125" viewBox="0 0 125 125" fill="none" xmlns="http://www.w3.org/2000/svg">
<path d="M89.7698 53.3796C89.1322 53.3796 88.5208 53.6329 88.07 54.0837C87.6192 54.5345 87.3659 55.1459 87.3659 55.7835V60.5157C87.3659 60.6118 87.3126 70.3577 82.6912 81.6904C76.6291 96.5558 65.9496 106.891 50.9477 112.427C36.0037 106.912 25.3467 96.6335 19.271 81.8536C14.6058 70.5048 14.5296 60.6118 14.5294 60.5157V22.4962L50.9477 12.5051L80.0371 20.4859C80.6504 20.6498 81.3036 20.5645 81.8542 20.2486C82.4049 19.9327 82.8082 19.4117 82.9761 18.7995C83.1441 18.1873 83.063 17.5335 82.7507 16.9808C82.4383 16.4282 81.9201 16.0215 81.309 15.8496L51.5837 7.69451V7.69668C51.168 7.58101 50.7287 7.58027 50.3126 7.69451L11.4907 18.3448C10.9827 18.4841 10.5345 18.7864 10.2151 19.2053C9.89566 19.6241 9.72265 20.1363 9.72266 20.663V60.5157C9.72266 60.9508 9.78011 71.3089 14.7534 83.5061C17.6844 90.6936 21.7246 97.0279 26.7611 102.334C33.0626 108.971 40.9306 113.991 50.1465 117.253C50.6652 117.438 51.232 117.438 51.7508 117.253C60.9669 113.991 68.8349 108.971 75.1364 102.334C80.1731 97.0279 84.213 90.6933 87.1441 83.5061C92.1174 71.3094 92.1746 60.9508 92.1746 60.5157V55.7835C92.1746 55.4677 92.1124 55.155 91.9915 54.8633C91.8706 54.5716 91.6935 54.3066 91.4702 54.0833C91.2468 53.8601 90.9817 53.6831 90.69 53.5623C90.3982 53.4416 90.0855 53.3795 89.7698 53.3796Z" fill="#FFB661"/>
<path d="M49.0492 101.884C48.6301 101.884 48.2184 101.774 47.8548 101.566C47.4911 101.358 47.1882 101.058 46.9761 100.697C38.961 87.0434 17.5968 57.9722 17.3816 57.6799C17.0395 57.2149 16.8762 56.6423 16.9215 56.0668C16.9668 55.4913 17.2176 54.9513 17.6283 54.5455L24.1985 48.053C24.5983 47.6578 25.124 47.4153 25.6841 47.3676C26.2443 47.32 26.8034 47.4701 27.2643 47.7919L48.5487 62.6549C62.7891 44.3924 76.0155 31.7789 84.7177 24.3345C94.5134 15.9559 100.749 12.1852 101.01 12.0287C101.383 11.8045 101.811 11.6861 102.247 11.6862H112.875C113.363 11.6861 113.838 11.8342 114.24 12.1107C114.641 12.3873 114.949 12.7792 115.122 13.2346C115.295 13.69 115.326 14.1874 115.211 14.6607C115.095 15.1341 114.838 15.5611 114.474 15.8852C84.2819 42.7782 51.466 100.094 51.1379 100.669C50.9292 101.035 50.6278 101.34 50.2639 101.553C49.9 101.767 49.4865 101.88 49.0648 101.883L49.0492 101.884ZM22.4824 56.5078C26.7898 62.4037 41.1162 82.1568 49.0078 94.7842C52.1968 89.3938 58.8783 78.3636 67.4062 65.7395C81.7314 44.534 94.9499 28.0023 106.774 16.4938H102.94C99.1667 18.916 76.3708 34.2898 50.9562 67.4001C50.5794 67.891 50.0278 68.2177 49.4162 68.3122C48.8046 68.4067 48.1801 68.2617 47.6727 67.9073L26.1545 52.8804L22.4824 56.5078Z" fill="#FFB661"/>
</svg>
