<svg width="60" height="60" viewBox="0 0 60 60" fill="none" xmlns="http://www.w3.org/2000/svg">
<g clip-path="url(#clip0_0_47)">
<path d="M48.7268 29.9868C48.7249 25.7011 47.2644 21.5553 44.5633 18.223C44.4907 18.1333 44.401 18.0588 44.2996 18.0038C44.1981 17.9488 44.0868 17.9143 43.972 17.9023C43.8572 17.8903 43.7412 17.901 43.6305 17.9338C43.5199 17.9666 43.4168 18.0209 43.3271 18.0936C43.2375 18.1663 43.163 18.2559 43.108 18.3574C43.0529 18.4588 43.0184 18.5701 43.0064 18.6849C42.9944 18.7997 43.0051 18.9157 43.0379 19.0264C43.0708 19.1371 43.1251 19.2402 43.1977 19.3298C43.3032 19.4604 43.4067 19.5926 43.5082 19.7263H36.5757C36.5596 19.7263 36.5442 19.7199 36.5329 19.7085C36.5215 19.6972 36.5151 19.6817 36.5151 19.6657V14.3266C38.0114 14.9479 39.4104 15.7813 40.6691 16.8013C40.8502 16.948 41.0821 17.0169 41.314 16.9926C41.5458 16.9683 41.7585 16.853 41.9053 16.6719C42.0521 16.4908 42.1209 16.2588 42.0966 16.027C42.0724 15.7952 41.957 15.5825 41.7759 15.4357C38.2011 12.5381 33.6899 11.067 29.0745 11.2944C24.4256 11.523 20.0513 13.4629 16.7576 16.7567C13.4638 20.0505 11.5238 24.4248 11.2953 29.0736C11.0682 33.6894 12.539 38.2002 15.4366 41.775C15.519 41.8768 15.6231 41.9589 15.7413 42.0153C15.8596 42.0716 15.989 42.1007 16.1199 42.1005C16.2859 42.1004 16.4485 42.0533 16.5889 41.9647C16.7292 41.876 16.8416 41.7494 16.9129 41.5996C16.9843 41.4497 17.0118 41.2827 16.9922 41.1178C16.9726 40.953 16.9067 40.7971 16.8022 40.6681C14.1776 37.43 12.8454 33.343 13.051 29.16C13.2582 24.9479 15.016 20.9843 18.0007 17.9997C20.9853 15.0151 24.9488 13.2573 29.1609 13.0501C29.4614 13.0353 29.7613 13.0294 30.0604 13.0304V17.0087C30.0608 17.1401 30.0351 17.2702 29.9848 17.3915C29.9345 17.5129 29.8606 17.6231 29.7675 17.7157L27.1106 20.3727C27.018 20.4658 26.9078 20.5397 26.7864 20.5899C26.665 20.6402 26.5349 20.6659 26.4035 20.6655H24.1586C23.7908 19.5747 22.7587 18.7868 21.5454 18.7868C20.0247 18.7868 18.7877 20.0239 18.7877 21.5444C18.7877 23.0651 20.0249 24.3022 21.5454 24.3022C22.7587 24.3022 23.7907 23.5142 24.1586 22.4233H26.4035C26.7658 22.4243 27.1247 22.3535 27.4594 22.2148C27.7942 22.0762 28.0981 21.8726 28.3536 21.6157L31.0105 18.9587C31.2674 18.7032 31.4711 18.3993 31.6098 18.0646C31.7484 17.7299 31.8193 17.371 31.8184 17.0087V13.1267C32.8133 13.2333 33.7968 13.4276 34.7574 13.7075V19.6657C34.7574 20.6683 35.5732 21.4841 36.5758 21.4841H44.6823C45.2249 22.4184 45.6766 23.4026 46.031 24.4233H34.492C34.1242 23.3325 33.0921 22.5445 31.8787 22.5445C30.3581 22.5445 29.1211 23.7817 29.1211 25.3022C29.1211 26.8227 30.3582 28.0598 31.8787 28.0598C33.0921 28.0598 34.124 27.2719 34.492 26.1811H46.537C46.7588 27.147 46.8957 28.1305 46.9461 29.1202H37.354C36.9916 29.1193 36.6327 29.1902 36.298 29.3288C35.9633 29.4675 35.6594 29.6711 35.4038 29.928L32.747 32.585C32.6543 32.6781 32.5441 32.752 32.4227 32.8022C32.3014 32.8525 32.1712 32.8782 32.0399 32.8779H28.8556C28.4878 31.7871 27.4557 30.9991 26.2424 30.9991C24.7217 30.9991 23.4847 32.2363 23.4847 33.7568C23.4847 35.2773 24.7218 36.5144 26.2424 36.5144C27.4557 36.5144 28.4877 35.7265 28.8556 34.6357H32.0399C32.4022 34.6367 32.7611 34.5658 33.0958 34.4271C33.4306 34.2885 33.7345 34.0848 33.99 33.8279L36.6468 31.1709C36.7395 31.0778 36.8497 31.004 36.9711 30.9537C37.0925 30.9034 37.2226 30.8777 37.354 30.8781H46.9465C46.8954 31.8679 46.7579 32.8514 46.5354 33.8172H39.2327C38.8704 33.8163 38.5115 33.8872 38.1768 34.0258C37.842 34.1645 37.5381 34.3681 37.2826 34.625L31.8074 40.1002C31.5505 40.3557 31.3469 40.6596 31.2082 40.9943C31.0696 41.329 30.9987 41.6879 30.9997 42.0501V46.9384C30.946 46.9415 30.8925 46.9455 30.8388 46.9481C29.2749 47.0255 27.7078 46.8869 26.1818 46.5361V42.0501C26.1828 41.6878 26.1119 41.3289 25.9733 40.9942C25.8346 40.6595 25.631 40.3556 25.3741 40.1001L20.8383 35.5644C20.7451 35.4718 20.6713 35.3616 20.621 35.2402C20.5708 35.1189 20.5451 34.9887 20.5454 34.8574V31.6731C21.6362 31.3052 22.4242 30.2731 22.4242 29.0599C22.4242 27.5393 21.187 26.3022 19.6665 26.3022C18.146 26.3022 16.9088 27.5394 16.9088 29.0599C16.9088 30.2733 17.6968 31.3052 18.7876 31.6731V34.8574C18.7866 35.2197 18.8575 35.5786 18.9961 35.9133C19.1348 36.248 19.3385 36.5519 19.5954 36.8074L24.1312 41.3433C24.2243 41.4359 24.2981 41.5461 24.3484 41.6674C24.3986 41.7888 24.4243 41.9189 24.424 42.0502V46.0302C22.5747 45.3883 20.8513 44.4296 19.3306 43.197C19.1495 43.0503 18.9176 42.9814 18.6857 43.0057C18.4539 43.03 18.2412 43.1453 18.0944 43.3264C17.9477 43.5075 17.8788 43.7395 17.9031 43.9713C17.9273 44.2032 18.0427 44.4159 18.2238 44.5626C21.5584 47.2654 25.7072 48.7268 29.9961 48.7268C30.3051 48.7268 30.615 48.7192 30.9252 48.7039C35.5741 48.4753 39.9484 46.5354 43.2422 43.2416C46.5359 39.9478 48.4759 35.5735 48.7044 30.9247C48.7194 30.6187 48.7265 30.3132 48.7267 30.0083C48.7267 30.0052 48.7271 30.0024 48.7271 29.9994C48.7275 29.9949 48.7269 29.9909 48.7268 29.9868ZM21.5455 22.5444C20.9941 22.5444 20.5456 22.0958 20.5456 21.5444C20.5456 20.9932 20.9941 20.5446 21.5455 20.5446C22.0968 20.5446 22.5453 20.9932 22.5453 21.5444C22.5454 22.0959 22.097 22.5444 21.5455 22.5444ZM31.8788 26.302C31.3275 26.302 30.879 25.8534 30.879 25.3022C30.879 24.7509 31.3275 24.3023 31.8788 24.3023C32.4302 24.3023 32.8787 24.7509 32.8787 25.3022C32.8787 25.8534 32.4302 26.302 31.8788 26.302ZM26.2426 34.7565C25.6912 34.7565 25.2427 34.3079 25.2427 33.7567C25.2427 33.2054 25.6912 32.7568 26.2426 32.7568C26.794 32.7568 27.2424 33.2054 27.2424 33.7567C27.2424 34.3079 26.794 34.7565 26.2426 34.7565ZM19.6667 30.0595C19.1154 30.0595 18.6669 29.6109 18.6669 29.0597C18.6669 28.5084 19.1154 28.0598 19.6667 28.0598C20.2181 28.0598 20.6666 28.5084 20.6666 29.0597C20.6666 29.6109 20.2181 30.0595 19.6667 30.0595ZM41.9994 41.9983C39.4727 44.525 36.2444 46.1721 32.7579 46.7438V42.0499C32.7575 41.9185 32.7832 41.7884 32.8335 41.6671C32.8838 41.5457 32.9576 41.4355 33.0507 41.3429L38.5258 35.8678C38.6185 35.7746 38.7287 35.7008 38.85 35.6505C38.9714 35.6002 39.1016 35.5745 39.2329 35.5748H46.0293C45.1963 37.9715 43.8287 40.1689 41.9994 41.9983Z" fill="#FFB661"/>
<path d="M59.7893 26.4639C59.6509 25.301 58.6723 24.4241 57.5128 24.4241H54.6819C54.0476 21.5974 52.9451 18.9345 51.3967 16.4887L53.3973 14.4881C54.2172 13.668 54.289 12.356 53.5645 11.4361C52.8335 10.5076 52.0484 9.62298 51.2133 8.78684C50.3771 7.95174 49.4925 7.16663 48.564 6.43559C47.6441 5.71102 46.3318 5.78285 45.5119 6.60281L43.5114 8.60344C41.0658 7.05504 38.4027 5.95254 35.576 5.3182V2.48719C35.576 1.32762 34.6991 0.348984 33.536 0.210703C32.3597 0.0707812 31.17 0 30 0C28.83 0 27.6403 0.0707812 26.4641 0.210703C25.301 0.348984 24.4241 1.32762 24.4241 2.48719V5.31809C21.5974 5.95242 18.9343 7.05492 16.4887 8.60332L14.4882 6.60281C13.6679 5.78262 12.356 5.71102 11.4362 6.43547C10.5077 7.16648 9.623 7.9516 8.78684 8.78672C7.95171 9.6228 7.16664 10.5074 6.4357 11.436C5.71102 12.356 5.78297 13.668 6.60281 14.4881L8.60344 16.4887C7.05516 18.9342 5.95266 21.5973 5.31832 24.4241H2.48719C1.32773 24.4241 0.349102 25.301 0.210703 26.464C0.0709898 27.6375 0.000633146 28.8182 0 30C0 31.1702 0.0707812 32.3599 0.210703 33.5361C0.349102 34.699 1.32773 35.5759 2.48719 35.5759H5.3182C5.95254 38.4028 7.05504 41.0658 8.60332 43.5111L6.60269 45.5119C5.78285 46.332 5.71102 47.644 6.43547 48.5639C7.16652 49.4924 7.95163 50.377 8.78672 51.2132C9.62286 52.0483 10.5075 52.8334 11.436 53.5644C12.3561 54.289 13.6682 54.2171 14.4881 53.3972L16.4886 51.3967C18.9342 52.945 21.5973 54.0476 24.424 54.6819V57.5129C24.424 58.6725 25.3009 59.6511 26.464 59.7894C27.6403 59.9292 28.83 60 30 60C31.17 60 32.3597 59.9292 33.5359 59.7893C34.699 59.651 35.5759 58.6724 35.5759 57.5128V54.6818C38.4026 54.0475 41.0657 52.945 43.5112 51.3966L45.5118 53.3971C46.3318 54.2171 47.6439 54.2887 48.5638 53.5644C49.4923 52.8334 50.3769 52.0483 51.213 51.2132C52.0482 50.3771 52.8334 49.4925 53.5643 48.5639C54.289 47.6439 54.217 46.3318 53.3972 45.5118L51.3966 43.5111C52.945 41.0655 54.0475 38.4026 54.6818 35.5758H57.5127C58.6721 35.5758 59.6508 34.6989 59.7892 33.5359C59.929 32.3624 59.9994 31.1818 60 30C60 28.8298 59.9292 27.6401 59.7893 26.4639ZM58.0439 33.3284C58.0107 33.6075 57.7825 33.818 57.5129 33.818H53.9682C53.7643 33.8179 53.5667 33.8889 53.4093 34.0185C53.2519 34.1482 53.1446 34.3286 53.1056 34.5288C52.5021 37.6263 51.303 40.5225 49.5417 43.137C49.4278 43.3061 49.3762 43.5096 49.3958 43.7125C49.4154 43.9155 49.505 44.1053 49.6492 44.2495L52.1544 46.7546C52.345 46.9452 52.3575 47.2554 52.1836 47.4763C51.4955 48.3504 50.7564 49.1831 49.9703 49.9702C49.1832 50.7563 48.3505 51.4954 47.4764 52.1835C47.2557 52.3575 46.9455 52.3447 46.755 52.1542L44.2498 49.6491C44.1056 49.5049 43.9157 49.4153 43.7128 49.3957C43.5098 49.3761 43.3063 49.4277 43.1372 49.5416C40.5227 51.3028 37.6266 52.5019 34.5291 53.1055C34.3289 53.1445 34.1486 53.2519 34.0189 53.4093C33.8892 53.5667 33.8183 53.7642 33.8183 53.9681V57.5128C33.8183 57.7823 33.6079 58.0106 33.3287 58.0438C32.224 58.1753 31.1125 58.2415 30 58.2422C28.899 58.2422 27.7792 58.1755 26.6715 58.0438C26.3924 58.0106 26.1819 57.7823 26.1819 57.5128V53.9681C26.1819 53.7642 26.111 53.5667 25.9813 53.4093C25.8517 53.2519 25.6713 53.1445 25.4712 53.1055C22.3737 52.5019 19.4775 51.3028 16.863 49.5416C16.7181 49.4437 16.5472 49.3915 16.3723 49.3916C16.2568 49.3915 16.1424 49.4142 16.0357 49.4584C15.929 49.5026 15.832 49.5674 15.7504 49.6491L13.2451 52.1542C13.0546 52.3446 12.7444 52.3574 12.5237 52.1834C11.6496 51.4953 10.8168 50.7563 10.0298 49.97C9.24366 49.183 8.50457 48.3502 7.81641 47.4762C7.64262 47.2554 7.65516 46.9452 7.8457 46.7546L10.3509 44.2494C10.4951 44.1052 10.5847 43.9154 10.6043 43.7124C10.6239 43.5094 10.5723 43.306 10.4584 43.1368C8.6973 40.5226 7.49813 37.6263 6.89449 34.5287C6.85548 34.3286 6.74809 34.1482 6.59072 34.0186C6.43334 33.8889 6.23578 33.818 6.03188 33.818H2.48719C2.21766 33.818 1.98938 33.6075 1.95621 33.3285C1.82449 32.2211 1.75781 31.1011 1.75781 30C1.75781 28.8989 1.82449 27.7789 1.95609 26.6716C1.98926 26.3925 2.21754 26.182 2.48707 26.182H6.03176C6.23568 26.1821 6.43326 26.1112 6.59064 25.9815C6.74802 25.8518 6.8554 25.6714 6.89437 25.4713C7.49801 22.3737 8.69707 19.4775 10.4583 16.863C10.5722 16.6939 10.6238 16.4904 10.6042 16.2875C10.5846 16.0845 10.495 15.8947 10.3508 15.7505L7.8457 13.2452C7.65516 13.0547 7.64262 12.7445 7.81652 12.5236C8.50464 11.6495 9.24369 10.8168 10.0298 10.0297C10.8169 9.24358 11.6496 8.50453 12.5237 7.81641C12.7445 7.6425 13.0547 7.65516 13.2451 7.8457L15.7504 10.3508C15.8945 10.495 16.0844 10.5846 16.2874 10.6042C16.4903 10.6238 16.6938 10.5722 16.8629 10.4583C19.4774 8.69707 22.3736 7.49801 25.4711 6.89449C25.6712 6.85547 25.8516 6.74807 25.9812 6.59067C26.1109 6.43327 26.1818 6.23569 26.1818 6.03176V2.48719C26.1818 2.21766 26.3923 1.98938 26.6714 1.95621C27.7792 1.82449 28.899 1.75781 30 1.75781C31.101 1.75781 32.2208 1.82449 33.3285 1.95621C33.6076 1.98938 33.8181 2.21766 33.8181 2.48719V6.03188C33.8181 6.2358 33.889 6.43337 34.0187 6.59077C34.1483 6.74816 34.3287 6.85557 34.5288 6.89461C37.6263 7.49813 40.5225 8.69719 43.137 10.4584C43.3061 10.5723 43.5095 10.6239 43.7125 10.6043C43.9155 10.5847 44.1053 10.4951 44.2495 10.3509L46.7548 7.8457C46.9452 7.65527 47.2554 7.6425 47.4762 7.81652C48.3503 8.50458 49.183 9.24364 49.97 10.0298C50.7562 10.8169 51.4953 11.6497 52.1835 12.5238C52.3573 12.7446 52.3447 13.0548 52.1542 13.2454L49.6489 15.7505C49.5048 15.8947 49.4152 16.0845 49.3956 16.2875C49.376 16.4904 49.4276 16.6939 49.5415 16.863C51.3028 19.4776 52.5019 22.3738 53.1054 25.4712C53.1444 25.6713 53.2518 25.8517 53.4091 25.9814C53.5665 26.1111 53.7641 26.182 53.968 26.182H57.5127C57.7822 26.182 58.0105 26.3925 58.0437 26.6715C58.1755 27.7789 58.2422 28.8989 58.2422 30C58.2422 31.1011 58.1755 32.2211 58.0439 33.3284Z" fill="#FFB661"/>
</g>
<defs>
<clipPath id="clip0_0_47">
<rect width="60" height="60" fill="white"/>
</clipPath>
</defs>
</svg>
