<svg width="100" height="100" viewBox="0 0 100 100" fill="none" xmlns="http://www.w3.org/2000/svg">
<g clip-path="url(#clip0_0_25)">
<path d="M24.2802 23.0658C24.2801 17.4418 19.721 12.8826 14.097 12.8826C8.47304 12.8826 3.9139 17.4418 3.91388 23.0658C3.91388 28.6898 8.47303 33.2489 14.097 33.2489C19.721 33.2489 24.2802 28.6898 24.2802 23.0658ZM28.194 23.0658C28.194 30.8514 21.8826 37.1628 14.097 37.1628C6.31145 37.1628 0 30.8514 0 23.0658C1.79069e-05 15.2802 6.31146 8.96877 14.097 8.96875C21.8826 8.96875 28.194 15.2802 28.194 23.0658Z" fill="#FFB661"/>
<path d="M96.0867 23.0658C96.0866 17.4419 91.5275 12.8827 85.9035 12.8826H68.4696C67.3888 12.8826 66.5126 12.0065 66.5126 10.9257C66.5126 9.8449 67.3888 8.96875 68.4696 8.96875H85.9035C93.6892 8.9688 100.001 15.2803 100.001 23.0658C100.001 30.8514 93.6889 37.1627 85.9035 37.1628H14.0976C13.0168 37.1628 12.1406 36.2866 12.1406 35.2059C12.1407 34.1251 13.0168 33.2489 14.0976 33.2489H85.9035C91.5274 33.2489 96.0867 28.6898 96.0867 23.0658ZM50.9222 8.96875C52.003 8.96875 52.8791 9.8449 52.8791 10.9257C52.8791 12.0065 52.003 12.8826 50.9222 12.8826H14.0976C13.0168 12.8826 12.1406 12.0065 12.1406 10.9257C12.1406 9.8449 13.0168 8.96875 14.0976 8.96875H50.9222Z" fill="#FFB661"/>
<path d="M24.2802 47.3463C24.2801 41.7223 19.721 37.1631 14.097 37.1631C8.47304 37.1632 3.9139 41.7223 3.91388 47.3463C3.91388 52.9703 8.47303 57.5294 14.097 57.5294C19.721 57.5294 24.2802 52.9703 24.2802 47.3463ZM28.194 47.3463C28.194 55.1319 21.8826 61.4433 14.097 61.4433C6.31144 61.4433 0 55.1319 0 47.3463C1.79069e-05 39.5607 6.31146 33.2493 14.097 33.2493C21.8826 33.2493 28.194 39.5607 28.194 47.3463Z" fill="#FFB661"/>
<path d="M88.4578 83.1198C88.4578 80.9117 86.6681 79.122 84.46 79.122H51.1322C51.8206 80.2952 52.2157 81.6613 52.2157 83.1198C52.2157 84.5783 51.8205 85.9443 51.1322 87.1174L84.46 87.1176C86.6679 87.1176 88.4578 85.3276 88.4578 83.1198ZM48.7915 51.2545C49.4842 49.4449 51.7018 48.7991 53.2551 49.927L53.3285 49.9821L62.9574 57.4282L67.6471 55.48L67.6475 55.4798C68.2976 55.2099 69.0224 55.1829 69.6897 55.4022L69.754 55.4243L69.8179 55.4478C70.4531 55.6897 70.9848 56.1445 71.322 56.7347L71.3552 56.7942L75.9397 65.2702L75.9399 65.2704C76.9976 67.2262 75.5815 69.6024 73.3577 69.6024H46.0336C43.9754 69.6024 42.5562 67.5391 43.2924 65.617L48.7915 51.2545ZM47.4559 65.6885H71.7161L68.3328 59.4334L63.9345 61.2606C63.4564 61.4592 62.9343 61.5278 62.4212 61.4596C61.9081 61.3913 61.4221 61.1886 61.0126 60.8719L51.9758 53.8838L47.4559 65.6885ZM96.0859 47.3463C96.0859 41.8951 91.803 37.4435 86.417 37.1752V57.5155C89.0256 57.386 91.3709 56.2781 93.1032 54.5458L93.1038 54.5452C94.9486 52.7021 96.0859 50.1591 96.0859 47.3463ZM99.9998 47.3463C99.9998 51.2378 98.4207 54.765 95.8706 57.3132L95.8708 57.3134C93.434 59.7501 90.1062 61.3001 86.417 61.4327V75.4519C89.84 76.3228 92.3717 79.4256 92.3717 83.1198C92.3717 87.4892 88.8295 91.0314 84.46 91.0315L43.4562 91.0313C37.5792 91.0313 32.8149 86.2671 32.8149 80.39V61.4422H14.0976C13.0168 61.4422 12.1406 60.5661 12.1406 59.4853C12.1407 58.4045 13.0168 57.5283 14.0976 57.5283H32.8149V35.2059C32.815 34.1251 33.6911 33.2489 34.7719 33.2489C35.8527 33.2489 36.7288 34.1251 36.7288 35.2059V59.4534C36.729 59.464 36.7296 59.4746 36.7296 59.4853C36.7296 59.4956 36.729 59.5059 36.7288 59.5162V80.39C36.7288 84.1055 39.7408 87.1174 43.4562 87.1174H44.3041L44.4072 87.1161C46.5675 87.0613 48.3018 85.293 48.3019 83.1198C48.3019 80.9119 46.5119 79.122 44.3041 79.122C43.2233 79.122 42.3472 78.2458 42.3471 77.165C42.3471 76.118 43.1693 75.263 44.2033 75.2106L44.3041 75.2081H82.5031V59.5007C82.5031 59.4956 82.5027 59.4904 82.5027 59.4853C82.5027 59.48 82.5031 59.4748 82.5031 59.4696V35.2059C82.5031 34.1251 83.3792 33.2489 84.46 33.2489C84.7145 33.2489 84.9574 33.2982 85.1804 33.3866C85.4037 33.298 85.6469 33.2485 85.9018 33.2485C93.6892 33.2485 99.9997 39.5613 99.9998 47.3463Z" fill="#FFB661"/>
<path d="M68.4567 46.5258C68.4567 45.4451 67.5805 44.5689 66.4997 44.5689C65.4189 44.5689 64.5428 45.4451 64.5428 46.5258C64.5428 47.6066 65.4189 48.4828 66.4997 48.4828C67.5805 48.4828 68.4567 47.6066 68.4567 46.5258ZM72.3705 46.5258C72.3705 49.7682 69.7421 52.3967 66.4997 52.3967C63.2574 52.3967 60.6289 49.7682 60.6289 46.5258C60.6289 43.2835 63.2574 40.655 66.4997 40.655C69.7421 40.655 72.3705 43.2835 72.3705 46.5258Z" fill="#FFB661"/>
</g>
<defs>
<clipPath id="clip0_0_25">
<rect width="100" height="100" fill="white"/>
</clipPath>
</defs>
</svg>
