<svg width="80" height="80" viewBox="0 0 80 80" fill="none" xmlns="http://www.w3.org/2000/svg">
<g clip-path="url(#clip0_140_5277)">
<path d="M19.4241 18.4527C19.4241 13.9535 15.7768 10.3062 11.2776 10.3062C6.77843 10.3062 3.13112 13.9535 3.1311 18.4527C3.1311 22.9519 6.77842 26.5992 11.2776 26.5992C15.7768 26.5992 19.4241 22.9519 19.4241 18.4527ZM22.5552 18.4527C22.5552 24.6811 17.5061 29.7303 11.2776 29.7303C5.04916 29.7303 0 24.6811 0 18.4527C1.43256e-05 12.2242 5.04917 7.17506 11.2776 7.17505C17.5061 7.17505 22.5552 12.2242 22.5552 18.4527Z" fill="#FFB661"/>
<path d="M76.8697 18.4527C76.8697 13.9536 73.2224 10.3062 68.7232 10.3062H54.7761C53.9114 10.3062 53.2105 9.60523 53.2105 8.7406C53.2105 7.87597 53.9114 7.17505 54.7761 7.17505H68.7232C74.9517 7.17509 80.0008 12.2243 80.0008 18.4527C80.0008 24.6812 74.9515 29.7302 68.7232 29.7303H11.2784C10.4138 29.7303 9.71289 29.0294 9.71289 28.1647C9.71292 27.3001 10.4138 26.5992 11.2784 26.5992H68.7232C73.2223 26.5991 76.8697 22.9519 76.8697 18.4527ZM40.7381 7.17505C41.6028 7.17505 42.3037 7.87597 42.3037 8.7406C42.3037 9.60523 41.6028 10.3062 40.7381 10.3062H11.2784C10.4138 10.3062 9.71289 9.60523 9.71289 8.7406C9.71289 7.87597 10.4138 7.17505 11.2784 7.17505H40.7381Z" fill="#FFB661"/>
<path d="M19.4241 37.877C19.4241 33.3778 15.7768 29.7305 11.2776 29.7305C6.77843 29.7305 3.13112 33.3778 3.1311 37.877C3.1311 42.3762 6.77842 46.0235 11.2776 46.0235C15.7768 46.0235 19.4241 42.3762 19.4241 37.877ZM22.5552 37.877C22.5552 44.1055 17.5061 49.1546 11.2776 49.1546C5.04916 49.1546 0 44.1054 0 37.877C1.43256e-05 31.6485 5.04917 26.5994 11.2776 26.5994C17.5061 26.5994 22.5552 31.6485 22.5552 37.877Z" fill="#FFB661"/>
<path d="M70.7667 66.4959C70.7667 64.7294 69.3348 63.2977 67.5684 63.2976H40.9061C41.4568 64.2362 41.773 65.3291 41.773 66.4959C41.773 67.6627 41.4568 68.7555 40.9061 69.694L67.5684 69.6941C69.3347 69.6941 70.7667 68.2621 70.7667 66.4959ZM39.0336 41.0036C39.5878 39.556 41.3618 39.0393 42.6044 39.9416L42.6632 39.9857L50.3663 45.9426L54.1181 44.3841L54.1184 44.3839C54.6385 44.168 55.2183 44.1464 55.7522 44.3218L55.8036 44.3395L55.8547 44.3583C56.3629 44.5518 56.7882 44.9157 57.058 45.3878L57.0846 45.4354L60.7522 52.2162L60.7523 52.2164C61.5985 53.781 60.4656 55.682 58.6866 55.682H36.8273C35.1807 55.682 34.0453 54.0314 34.6343 52.4937L39.0336 41.0036ZM37.9651 52.5509H57.3733L54.6667 47.5468L51.148 49.0085C50.7655 49.1674 50.3479 49.2223 49.9373 49.1677C49.5268 49.1131 49.1381 48.9509 48.8105 48.6976L41.581 43.1071L37.9651 52.5509ZM76.8691 37.8771C76.8691 33.5162 73.4428 29.9548 69.134 29.7402V46.0125C71.2209 45.9089 73.0971 45.0225 74.4829 43.6367L74.4834 43.6362C75.9592 42.1617 76.8691 40.1273 76.8691 37.8771ZM80.0002 37.8771C80.0002 40.9903 78.737 43.812 76.6968 45.8506L76.697 45.8507C74.7476 47.8001 72.0853 49.0401 69.134 49.1462V60.3615C71.8724 61.0583 73.8978 63.5405 73.8978 66.4959C73.8978 69.9914 71.0639 72.8252 67.5684 72.8252L34.7654 72.8251C30.0637 72.8251 26.2523 69.0137 26.2523 64.312V49.1538H11.2784C10.4138 49.1538 9.71289 48.4529 9.71289 47.5883C9.71292 46.7236 10.4138 46.0227 11.2784 46.0227H26.2523V28.1647C26.2524 27.3001 26.9533 26.5992 27.8179 26.5992C28.6825 26.5992 29.3834 27.3001 29.3835 28.1647V47.5628C29.3836 47.5713 29.3841 47.5797 29.3841 47.5883C29.3841 47.5965 29.3836 47.6048 29.3835 47.613V64.312C29.3835 67.2844 31.793 69.694 34.7654 69.694H35.4436L35.5262 69.6929C37.2544 69.6491 38.6419 68.2345 38.6419 66.4959C38.6419 64.7296 37.2099 63.2976 35.4436 63.2976C34.579 63.2976 33.8781 62.5967 33.8781 61.7321C33.8781 60.8945 34.5359 60.2104 35.3631 60.1685L35.4436 60.1665H66.0029V47.6006C66.0028 47.5965 66.0026 47.5924 66.0026 47.5883C66.0026 47.5841 66.0028 47.5799 66.0029 47.5757V28.1647C66.0029 27.3001 66.7038 26.5992 67.5684 26.5992C67.772 26.5992 67.9663 26.6386 68.1447 26.7094C68.3234 26.6384 68.5179 26.5989 68.7218 26.5989C74.9518 26.5989 80.0002 31.6491 80.0002 37.8771Z" fill="#FFB661"/>
<path d="M54.7661 37.2208C54.7661 36.3562 54.0652 35.6553 53.2006 35.6553C52.3359 35.6553 51.635 36.3562 51.635 37.2208C51.635 38.0855 52.3359 38.7864 53.2006 38.7864C54.0652 38.7864 54.7661 38.0855 54.7661 37.2208ZM57.8972 37.2208C57.8972 39.8147 55.7945 41.9175 53.2006 41.9175C50.6067 41.9175 48.5039 39.8147 48.5039 37.2208C48.5039 34.6269 50.6067 32.5242 53.2006 32.5242C55.7945 32.5242 57.8972 34.6269 57.8972 37.2208Z" fill="#FFB661"/>
</g>
<defs>
<clipPath id="clip0_140_5277">
<rect width="80" height="80" fill="white"/>
</clipPath>
</defs>
</svg>
