<svg width="100" height="100" viewBox="0 0 100 100" fill="none" xmlns="http://www.w3.org/2000/svg">
<g clip-path="url(#clip0_0_13)">
<path d="M94.1406 35.6602V26.3672C94.1406 21.5209 90.1979 17.5781 85.3516 17.5781H80.7057L63.9877 0.860156C63.9842 0.856641 63.9801 0.85332 63.9766 0.849609C63.4384 0.31787 62.7158 0.014298 61.9594 0.00214844C61.9441 0.00195312 61.9295 0 61.9143 0H20.5078C18.8898 0 17.5781 1.31172 17.5781 2.92969V17.5781H14.6484C9.80215 17.5781 5.85938 21.5209 5.85938 26.3672V35.6602C2.44941 36.8695 0 40.126 0 43.9453V79.4922C0 84.3385 3.94277 88.2812 8.78906 88.2812H17.5781V97.0703C17.5781 98.6883 18.8898 100 20.5078 100H79.4922C81.1102 100 82.4219 98.6883 82.4219 97.0703V88.2812H91.2109C96.0572 88.2812 100 84.3385 100 79.4922V43.9453C100 40.126 97.5506 36.8695 94.1406 35.6602ZM82.4219 23.4375H85.3516C86.967 23.4375 88.2812 24.7518 88.2812 26.3672V35.1562H82.4219V23.4375ZM64.8438 10.0025L72.4193 17.5781H64.8438V10.0025ZM23.4375 5.85938H58.9844V20.5078C58.9844 22.1258 60.2961 23.4375 61.9141 23.4375H76.5625V35.1562H23.4375V5.85938ZM11.7188 26.3672C11.7188 24.7518 13.033 23.4375 14.6484 23.4375H17.5781V35.1562H11.7188V26.3672ZM76.5625 94.1406H23.4375V64.8438H76.5625V94.1406ZM94.1406 79.4922C94.1406 81.1076 92.8264 82.4219 91.2109 82.4219H82.4219V64.8438H85.3516C86.9695 64.8438 88.2812 63.532 88.2812 61.9141C88.2812 60.2961 86.9695 58.9844 85.3516 58.9844H14.6484C13.0305 58.9844 11.7188 60.2961 11.7188 61.9141C11.7188 63.532 13.0305 64.8438 14.6484 64.8438H17.5781V82.4219H8.78906C7.17363 82.4219 5.85938 81.1076 5.85938 79.4922V43.9453C5.85938 42.3299 7.17363 41.0156 8.78906 41.0156H91.2109C92.8264 41.0156 94.1406 42.3299 94.1406 43.9453V79.4922Z" fill="#FFB661"/>
<path d="M67.7734 70.7031H32.2266C30.6086 70.7031 29.2969 72.0148 29.2969 73.6328C29.2969 75.2508 30.6086 76.5625 32.2266 76.5625H67.7734C69.3914 76.5625 70.7031 75.2508 70.7031 73.6328C70.7031 72.0148 69.3914 70.7031 67.7734 70.7031ZM67.7734 82.4219H32.2266C30.6086 82.4219 29.2969 83.7336 29.2969 85.3516C29.2969 86.9695 30.6086 88.2812 32.2266 88.2812H67.7734C69.3914 88.2812 70.7031 86.9695 70.7031 85.3516C70.7031 83.7336 69.3914 82.4219 67.7734 82.4219ZM20.5078 46.875H14.6484C13.0305 46.875 11.7188 48.1867 11.7188 49.8047C11.7188 51.4227 13.0305 52.7344 14.6484 52.7344H20.5078C22.1258 52.7344 23.4375 51.4227 23.4375 49.8047C23.4375 48.1867 22.1258 46.875 20.5078 46.875Z" fill="#FFB661"/>
</g>
<defs>
<clipPath id="clip0_0_13">
<rect width="100" height="100" fill="white"/>
</clipPath>
</defs>
</svg>
