<svg width="80" height="80" viewBox="0 0 80 80" fill="none" xmlns="http://www.w3.org/2000/svg">
<path d="M64.6875 4.38359H55.8867C53.5644 1.70141 50.1419 0 46.3281 0H33.6719C29.8581 0 26.4356 1.70141 24.1133 4.38359H15.3125C11.4355 4.38359 8.28125 7.54406 8.28125 11.4286V72.955C8.28125 76.8395 11.4355 80 15.3125 80H64.6875C68.5645 80 71.7188 76.8395 71.7188 72.955V11.4286C71.7188 7.54391 68.5645 4.38359 64.6875 4.38359ZM33.6719 4.69672H46.3281C49.9495 4.69672 52.957 7.12094 53.9453 10.3327H26.0547C27.0413 7.12656 30.0448 4.69672 33.6719 4.69672ZM67.0312 72.955C67.0312 74.2498 65.9798 75.3033 64.6875 75.3033H15.3125C14.0202 75.3033 12.9688 74.2498 12.9688 72.955V11.4286C12.9688 10.1337 14.0202 9.08031 15.3125 9.08031H21.5384C21.1917 10.2491 21.0156 11.4619 21.0156 12.6811C21.0156 13.978 22.065 15.0294 23.3594 15.0294H56.6406C57.935 15.0294 58.9844 13.978 58.9844 12.6811C58.9844 11.4619 58.8083 10.2491 58.4616 9.08031H64.6875C65.9798 9.08031 67.0312 10.1337 67.0312 11.4286V72.955Z" fill="#FFB661"/>
<path d="M28.447 46.6631L25.0001 50.1165L24.1573 49.2721C23.2421 48.355 21.758 48.355 20.8427 49.2721C19.9274 50.1892 19.9274 51.676 20.8427 52.5931L23.3427 55.0979C24.2579 56.015 25.742 56.0151 26.6573 55.0979L31.7613 49.9839C32.6766 49.0668 32.6766 47.58 31.7613 46.6629C30.8462 45.7459 29.3621 45.7459 28.447 46.6631ZM57.3438 48.5323H38.4376C37.1432 48.5323 36.0938 49.5837 36.0938 50.8806C36.0938 52.1775 37.1432 53.2289 38.4376 53.2289H57.3438C58.6382 53.2289 59.6876 52.1775 59.6876 50.8806C59.6876 49.5837 58.6382 48.5323 57.3438 48.5323ZM28.447 60.1268L25.0001 63.5803L24.1573 62.7359C23.2421 61.8187 21.758 61.8187 20.8427 62.7359C19.9274 63.6529 19.9274 65.1398 20.8427 66.0568L23.3427 68.5617C24.2579 69.4787 25.742 69.4789 26.6573 68.5617L31.7613 63.4476C32.6766 62.5306 32.6766 61.0437 31.7613 60.1267C30.8462 59.2096 29.3621 59.2096 28.447 60.1268ZM57.3438 61.996H38.4376C37.1432 61.996 36.0938 63.0474 36.0938 64.3443C36.0938 65.6412 37.1432 66.6926 38.4376 66.6926H57.3438C58.6382 66.6926 59.6876 65.6412 59.6876 64.3443C59.6876 63.0474 58.6382 61.996 57.3438 61.996ZM44.4698 37.6682L51.7188 30.4051V30.685C51.7188 31.9818 52.7682 33.0332 54.0626 33.0332C55.357 33.0332 56.4063 31.9818 56.4063 30.685C56.4063 24.0423 56.4173 24.6607 56.3795 24.3984C56.2137 23.2495 55.2305 22.3871 54.0618 22.3875H48.1251C46.8307 22.3875 45.7813 23.4389 45.7813 24.7357C45.7813 26.0326 46.8307 27.084 48.1251 27.084H48.4043L42.8126 32.6867L35.7198 25.5801C34.8046 24.6629 33.3205 24.6629 32.4052 25.5801L23.9677 34.0342C23.0524 34.9512 23.0524 36.4381 23.9677 37.3551C24.8829 38.2723 26.367 38.2723 27.2823 37.3551L34.0626 30.5617L41.1554 37.6682C42.0704 38.5853 43.5546 38.5854 44.4698 37.6682Z" fill="#FFB661"/>
</svg>
