<svg width="50" height="50" viewBox="0 0 50 50" fill="none" xmlns="http://www.w3.org/2000/svg">
<g clip-path="url(#clip0_0_8)">
<path d="M17.6758 29.3945C16.8668 29.3945 16.2109 30.0504 16.2109 30.8594V33.7891C16.2109 34.598 16.8668 35.2539 17.6758 35.2539C18.4848 35.2539 19.1406 34.598 19.1406 33.7891V30.8594C19.1406 30.0504 18.4848 29.3945 17.6758 29.3945ZM32.3242 35.2539C33.1332 35.2539 33.7891 34.598 33.7891 33.7891V30.8594C33.7891 30.0504 33.1332 29.3945 32.3242 29.3945C31.5152 29.3945 30.8594 30.0504 30.8594 30.8594V33.7891C30.8594 34.598 31.5152 35.2539 32.3242 35.2539ZM26.5625 10.3516H42.5781C43.3871 10.3516 44.043 9.6957 44.043 8.88672C44.043 8.07773 43.3871 7.42188 42.5781 7.42188H26.5625C25.7535 7.42188 25.0977 8.07773 25.0977 8.88672C25.0977 9.6957 25.7535 10.3516 26.5625 10.3516Z" fill="black"/>
<path d="M50 17.1875V6.34766C50 2.84756 47.1524 0 43.6523 0H25.4883C21.9882 0 19.1406 2.84756 19.1406 6.34766V17.6758H17.1875C11.8333 17.6758 7.34287 21.4424 6.2251 26.4648H5.95703V17.4238C7.66201 16.8191 8.88672 15.1909 8.88672 13.2812C8.88672 10.8581 6.91533 8.88672 4.49219 8.88672C2.06904 8.88672 0.0976562 10.8581 0.0976562 13.2812C0.0976562 15.1909 1.32236 16.8191 3.02734 17.4238V26.6837C1.27178 27.26 0 28.9135 0 30.8594V36.7188C0 39.1419 1.97139 41.1133 4.39453 41.1133H6.20381C7.28477 46.1845 11.7986 50 17.1875 50H32.8125C38.2014 50 42.7152 46.1845 43.7962 41.1133H45.6055C48.0286 41.1133 50 39.1419 50 36.7188V30.8594C50 28.4362 48.0286 26.4648 45.6055 26.4648H43.7743C43.5469 25.4418 43.1772 24.4556 42.676 23.5352H43.6523C47.1524 23.5352 50 20.6876 50 17.1875ZM22.0703 6.34766C22.0703 4.46299 23.6036 2.92969 25.4883 2.92969H43.6523C45.537 2.92969 47.0703 4.46299 47.0703 6.34766V17.1875C47.0703 19.0722 45.537 20.6055 43.6523 20.6055H26.4648C26.2374 20.6055 26.0132 20.6584 25.8098 20.7601L22.0703 22.6298V6.34766ZM4.49219 11.8164C5.2999 11.8164 5.95703 12.4735 5.95703 13.2812C5.95703 14.089 5.2999 14.7461 4.49219 14.7461C3.68447 14.7461 3.02734 14.089 3.02734 13.2812C3.02734 12.4735 3.68447 11.8164 4.49219 11.8164ZM2.92969 36.7188V30.8594C2.92969 30.0517 3.58682 29.3945 4.39453 29.3945H5.95703V38.1836H4.39453C3.58682 38.1836 2.92969 37.5265 2.92969 36.7188ZM47.0703 30.8594V36.7188C47.0703 37.5265 46.4132 38.1836 45.6055 38.1836H44.043V29.3945H45.6055C46.4132 29.3945 47.0703 30.0517 47.0703 30.8594ZM41.1133 28.9062V38.7695C41.1133 43.3466 37.3895 47.0703 32.8125 47.0703H17.1875C12.6104 47.0703 8.88672 43.3466 8.88672 38.7695V28.9062C8.88672 24.3292 12.6104 20.6055 17.1875 20.6055H19.1406V25C19.1406 26.0871 20.2873 26.7969 21.2605 26.3102L26.8106 23.5352H39.1389C40.4137 25.0344 41.1136 26.9383 41.1133 28.9062Z" fill="black"/>
<path d="M26.5625 16.2109H42.5781C43.3871 16.2109 44.043 15.5551 44.043 14.7461C44.043 13.9371 43.3871 13.2812 42.5781 13.2812H26.5625C25.7535 13.2812 25.0977 13.9371 25.0977 14.7461C25.0977 15.5551 25.7535 16.2109 26.5625 16.2109ZM20.6055 39.6484C20.6055 40.4574 21.2613 41.1133 22.0703 41.1133H27.9297C28.7387 41.1133 29.3945 40.4574 29.3945 39.6484C29.3945 38.8395 28.7387 38.1836 27.9297 38.1836H22.0703C21.2613 38.1836 20.6055 38.8395 20.6055 39.6484Z" fill="black"/>
</g>
<defs>
<clipPath id="clip0_0_8">
<rect width="50" height="50" fill="white"/>
</clipPath>
</defs>
</svg>
