<svg width="80" height="80" viewBox="0 0 80 80" fill="none" xmlns="http://www.w3.org/2000/svg">
<path fill-rule="evenodd" clip-rule="evenodd" d="M26.6673 12.5266C26.6673 11.3187 26.9053 10.1227 27.3677 9.00691C27.8302 7.89109 28.5079 6.87733 29.3623 6.02356C30.2167 5.16979 31.231 4.49276 32.3471 4.03114C33.4633 3.56952 34.6594 3.33238 35.8673 3.33325H44.144C46.5816 3.33414 48.9191 4.30311 50.6425 6.0271C52.3658 7.75109 53.334 10.0889 53.334 12.5266C53.334 14.4733 55.4406 15.6899 57.1273 14.7166C58.173 14.1128 59.3274 13.7208 60.5246 13.5632C61.7218 13.4056 62.9383 13.4854 64.1047 13.7981C65.2711 14.1107 66.3644 14.6501 67.3223 15.3853C68.2801 16.1206 69.0838 17.0374 69.6873 18.0833L73.824 25.2499C74.4278 26.2956 74.8197 27.4501 74.9773 28.6473C75.1349 29.8445 75.0551 31.061 74.7425 32.2273C74.4298 33.3937 73.8905 34.487 73.1552 35.4449C72.42 36.4028 71.5032 37.2064 70.4573 37.8099C70.0723 38.0314 69.7525 38.3505 69.5302 38.735C69.3078 39.1195 69.1908 39.5558 69.1908 39.9999C69.1908 40.4441 69.3078 40.8804 69.5302 41.2649C69.7525 41.6493 70.0723 41.9684 70.4573 42.1899C71.5032 42.7934 72.42 43.5971 73.1552 44.5549C73.8905 45.5128 74.4298 46.6062 74.7425 47.7725C75.0551 48.9389 75.1349 50.1554 74.9773 51.3526C74.8197 52.5498 74.4278 53.7042 73.824 54.7499L69.6873 61.9166C69.0838 62.9625 68.2801 63.8792 67.3223 64.6145C66.3644 65.3498 65.2711 65.8891 64.1047 66.2018C62.9383 66.5144 61.7218 66.5942 60.5246 66.4366C59.3274 66.279 58.173 65.8871 57.1273 65.2832C56.743 65.0606 56.3067 64.9432 55.8626 64.9428C55.4184 64.9425 54.982 65.0592 54.5973 65.2813C54.2127 65.5034 53.8933 65.8229 53.6715 66.2078C53.4497 66.5926 53.3333 67.0291 53.334 67.4733C53.334 69.9115 52.3654 72.2498 50.6413 73.9739C48.9172 75.698 46.5788 76.6666 44.1406 76.6666H35.864C34.6564 76.667 33.4606 76.4296 32.3448 75.9677C31.229 75.5059 30.2152 74.8288 29.3611 73.9751C28.5071 73.1214 27.8296 72.1078 27.3674 70.9922C26.9052 69.8766 26.6673 68.6808 26.6673 67.4733C26.6676 67.0296 26.5511 66.5936 26.3295 66.2093C26.1078 65.8249 25.7889 65.5057 25.4048 65.2837C25.0206 65.0617 24.5848 64.9448 24.1411 64.9447C23.6974 64.9447 23.2615 65.0614 22.8773 65.2832C21.8316 65.8871 20.6772 66.279 19.48 66.4366C18.2828 66.5942 17.0662 66.5144 15.8999 66.2018C14.7335 65.8891 13.6402 65.3498 12.6823 64.6145C11.7244 63.8792 10.9208 62.9625 10.3173 61.9166L6.17729 54.7499C5.57346 53.7042 5.18155 52.5498 5.02395 51.3526C4.86635 50.1554 4.94615 48.9389 5.25878 47.7725C5.57142 46.6062 6.11077 45.5128 6.84603 44.5549C7.58129 43.5971 8.49806 42.7934 9.54396 42.1899C9.92893 41.9684 10.2487 41.6493 10.4711 41.2649C10.6934 40.8804 10.8105 40.4441 10.8105 39.9999C10.8105 39.5558 10.6934 39.1195 10.4711 38.735C10.2487 38.3505 9.92893 38.0314 9.54396 37.8099C8.49806 37.2064 7.58129 36.4028 6.84603 35.4449C6.11077 34.487 5.57142 33.3937 5.25878 32.2273C4.94615 31.061 4.86635 29.8445 5.02395 28.6473C5.18155 27.4501 5.57346 26.2956 6.17729 25.2499L10.3173 18.0833C10.9208 17.0374 11.7244 16.1206 12.6823 15.3853C13.6402 14.6501 14.7335 14.1107 15.8999 13.7981C17.0662 13.4854 18.2828 13.4056 19.48 13.5632C20.6772 13.7208 21.8316 14.1128 22.8773 14.7166C23.2615 14.9384 23.6974 15.0552 24.1411 15.0551C24.5848 15.055 25.0206 14.9381 25.4048 14.7161C25.7889 14.4941 26.1078 14.1749 26.3295 13.7906C26.5511 13.4062 26.6676 12.9703 26.6673 12.5266ZM35.8673 9.99992C35.5352 9.99948 35.2063 10.0645 34.8994 10.1913C34.5924 10.3181 34.3135 10.5041 34.0785 10.7388C33.8435 10.9735 33.6571 11.2521 33.5299 11.5589C33.4028 11.8657 33.3373 12.1945 33.3373 12.5266C33.3373 19.6066 25.6773 24.0266 19.5473 20.4899C19.2597 20.3238 18.9423 20.216 18.613 20.1727C18.2838 20.1293 17.9493 20.1513 17.6285 20.2374C17.3078 20.3235 17.0072 20.4719 16.7439 20.6742C16.4806 20.8766 16.2597 21.1288 16.094 21.4166L11.954 28.5833C11.7878 28.8708 11.68 29.1883 11.6367 29.5175C11.5934 29.8467 11.6154 30.1813 11.7014 30.502C11.7875 30.8227 11.936 31.1234 12.1383 31.3867C12.3406 31.65 12.5929 31.8708 12.8806 32.0366C19.0106 35.5766 19.0106 44.4233 12.8806 47.9633C12.5929 48.129 12.3406 48.3499 12.1383 48.6132C11.936 48.8765 11.7875 49.1771 11.7014 49.4978C11.6154 49.8186 11.5934 50.1531 11.6367 50.4823C11.68 50.8116 11.7878 51.1291 11.954 51.4166L16.094 58.5833C16.2597 58.871 16.4806 59.1233 16.7439 59.3256C17.0072 59.5279 17.3078 59.6764 17.6285 59.7624C17.9493 59.8485 18.2838 59.8705 18.613 59.8272C18.9423 59.7838 19.2597 59.676 19.5473 59.5099C25.674 55.9666 33.334 60.3933 33.334 67.4733C33.334 68.8666 34.4673 69.9999 35.864 69.9999H44.1406C45.5373 69.9999 46.6673 68.8666 46.6673 67.4733C46.6673 60.3933 54.3306 55.9733 60.4606 59.5066C60.748 59.6728 61.0653 59.7808 61.3944 59.8244C61.7235 59.868 62.0579 59.8463 62.3786 59.7605C62.6993 59.6748 63 59.5267 63.2634 59.3247C63.5269 59.1227 63.7479 58.8707 63.914 58.5833L68.0506 51.4166C68.2169 51.1292 68.3249 50.812 68.3684 50.4829C68.412 50.1538 68.3903 49.8193 68.3046 49.4986C68.2188 49.1779 68.0707 48.8772 67.8687 48.6138C67.6667 48.3503 67.4148 48.1293 67.1273 47.9633C60.994 44.4233 60.994 35.5766 67.1273 32.0366C67.4148 31.8706 67.6667 31.6495 67.8687 31.3861C68.0707 31.1226 68.2188 30.822 68.3046 30.5013C68.3903 30.1805 68.412 29.8461 68.3684 29.517C68.3249 29.1879 68.2169 28.8706 68.0506 28.5833L63.914 21.4166C63.7482 21.1288 63.5274 20.8766 63.264 20.6742C63.0007 20.4719 62.7001 20.3235 62.3794 20.2374C62.0587 20.1513 61.7241 20.1293 61.3949 20.1727C61.0656 20.216 60.7482 20.3238 60.4606 20.4899C54.3273 24.0333 46.6673 19.6066 46.6673 12.5266C46.6673 11.8565 46.4011 11.2138 45.9272 10.74C45.4534 10.2661 44.8107 9.99992 44.1406 9.99992H35.8673ZM40.0006 29.9999C37.3485 29.9999 34.8049 31.0535 32.9296 32.9289C31.0542 34.8042 30.0006 37.3478 30.0006 39.9999C30.0006 42.6521 31.0542 45.1956 32.9296 47.071C34.8049 48.9464 37.3485 49.9999 40.0006 49.9999C42.6528 49.9999 45.1963 48.9464 47.0717 47.071C48.9471 45.1956 50.0006 42.6521 50.0006 39.9999C50.0006 37.3478 48.9471 34.8042 47.0717 32.9289C45.1963 31.0535 42.6528 29.9999 40.0006 29.9999ZM23.334 39.9999C23.334 35.5796 25.0899 31.3404 28.2155 28.2148C31.3411 25.0892 35.5803 23.3333 40.0006 23.3333C44.4209 23.3333 48.6601 25.0892 51.7857 28.2148C54.9113 31.3404 56.6673 35.5796 56.6673 39.9999C56.6673 44.4202 54.9113 48.6594 51.7857 51.785C48.6601 54.9106 44.4209 56.6666 40.0006 56.6666C35.5803 56.6666 31.3411 54.9106 28.2155 51.785C25.0899 48.6594 23.334 44.4202 23.334 39.9999Z" fill="#FFB661"/>
</svg>
