<svg width="100" height="100" viewBox="0 0 100 100" fill="none" xmlns="http://www.w3.org/2000/svg">
<path d="M99.8535 33.1107L99.7863 32.7354C99.7742 32.6773 99.768 32.6193 99.7559 32.5629L92.743 15.6256V7.29297H7.14102V15.6258L0.244142 32.5615C0.228908 32.6287 0.219728 32.6959 0.207423 32.7613L0.143361 33.1107C0.0476094 33.7262 -0.000320422 34.3481 1.61196e-06 34.9709C1.61196e-06 39.4998 2.52695 43.4365 6.25 45.449V92.707H93.75V45.449C97.4701 43.4363 100 39.4996 100 34.9709C100 34.3377 99.948 33.7166 99.8535 33.1107ZM95.1447 32.293H79.8371L77.9969 19.9227H90.1062L95.1447 32.293ZM11.3098 11.4586H88.5771V15.6258H11.3098V11.4586ZM76.2451 36.4586L76.4709 37.9707L75.2381 39.6109C73.7611 41.5793 71.5027 42.7084 69.0461 42.7084C66.5895 42.7084 64.3311 41.5793 62.8541 39.6109L61.5967 37.9355L61.5234 36.4586H76.2451ZM61.3189 32.293L60.7117 19.9227H73.7824L75.6258 32.293H61.3189ZM57.3518 36.4584L57.425 37.9691L56.1891 39.6109C54.7121 41.5793 52.4537 42.7084 50 42.7084C47.5402 42.7084 45.285 41.5793 43.8049 39.6109L42.5414 37.9248L42.6147 36.4584H57.3518ZM42.8254 32.293L43.451 19.9227H56.543L57.1473 32.293H42.8254ZM24.3957 32.293L26.2145 19.9227H39.282L38.6533 32.293H24.3957ZM38.4398 36.4586L38.3635 37.9859L37.1428 39.6109C35.6627 41.5793 33.4074 42.7084 30.9508 42.7084C28.4941 42.7084 26.2389 41.5793 24.7588 39.6109L23.5564 38.0104L23.7854 36.4586H38.4398ZM9.89082 19.9227H22.0033L20.1846 32.293H4.85254L9.89082 19.9227ZM4.30899 36.4586H19.5738L19.2473 38.0775L18.0967 39.6111C16.6166 41.5795 14.3613 42.7086 11.9016 42.7086C8.14512 42.7086 5.00488 40.017 4.30899 36.4586ZM81.25 88.5445H64.5813V73.957H66.6656C67.8162 73.957 68.75 73.0262 68.75 71.8758C68.75 70.7254 67.8162 69.7945 66.6656 69.7945H64.5813V55.207H81.25V88.5445ZM89.5816 88.5445H85.4156V51.0445H60.4156V88.5445H10.4156V46.7828C10.9008 46.8438 11.4014 46.876 11.9018 46.876C15.7959 46.876 19.2564 45.0053 21.4264 42.1137C23.5992 45.0053 27.0568 46.876 30.951 46.876C34.8451 46.876 38.3027 45.0053 40.4756 42.1137C42.6453 45.0053 46.1061 46.876 50.0002 46.876C53.8943 46.876 57.3488 45.0053 59.5217 42.1137C61.6945 45.0053 65.1521 46.876 69.0463 46.876C72.9404 46.876 76.398 45.0053 78.5709 42.1137C80.7438 45.0053 84.1982 46.876 88.0924 46.876C88.5903 46.876 89.0876 46.8449 89.5816 46.7828V88.5445ZM88.092 42.7086C85.6385 42.7086 83.3801 41.5795 81.9029 39.6111L80.6914 38.0029L80.4565 36.4588H95.6848C94.9891 40.017 91.8518 42.7086 88.092 42.7086Z" fill="#FFB661"/>
<path d="M14.582 51.0444V80.2069H56.2508V51.0444H14.582ZM52.082 76.0444H18.7508V55.2069H52.082V76.0444Z" fill="#FFB661"/>
<path d="M47.9008 65.6257C47.6269 65.6248 47.3556 65.6783 47.1026 65.783C46.8495 65.8878 46.6198 66.0418 46.4268 66.236L42.2611 70.4048C42.0671 70.5974 41.9133 70.8266 41.8085 71.0791C41.7037 71.3315 41.6501 71.6023 41.6508 71.8757C41.6508 73.0263 42.5846 73.9569 43.732 73.9569C44.0059 73.9579 44.2772 73.9044 44.5303 73.7996C44.7833 73.6948 45.013 73.5409 45.2061 73.3466L49.3717 69.1841C49.5658 68.9903 49.7196 68.7601 49.8244 68.5066C49.9291 68.2531 49.9827 67.9814 49.982 67.7071C49.982 66.5595 49.0514 65.6257 47.9008 65.6257ZM47.9008 57.2944C47.6269 57.2935 47.3556 57.347 47.1026 57.4518C46.8495 57.5566 46.6198 57.7105 46.4268 57.9048L33.9268 70.4017C33.536 70.7927 33.3165 71.3229 33.3164 71.8757C33.3164 73.0263 34.2502 73.9569 35.4008 73.9569C35.9746 73.9569 36.4963 73.7249 36.8717 73.3466L49.3717 60.8497C49.5658 60.6565 49.7196 60.4268 49.8244 60.1738C49.9291 59.9208 49.9827 59.6495 49.982 59.3757C49.9822 59.1023 49.9285 58.8316 49.824 58.579C49.7194 58.3264 49.5661 58.0969 49.3729 57.9036C49.1796 57.7103 48.95 57.557 48.6975 57.4525C48.4449 57.348 48.1741 57.2943 47.9008 57.2944Z" fill="#FFB661"/>
</svg>
