<svg width="164" height="15" viewBox="36 39 164 15" fill="none" xmlns="http://www.w3.org/2000/svg">
<path d="M41.3574 52.3333C44.3029 52.3333 46.6908 49.9455 46.6908 47C46.6908 44.0545 44.3029 41.6667 41.3574 41.6667C38.4119 41.6667 36.0241 44.0545 36.0241 47C36.0241 49.9455 38.4119 52.3333 41.3574 52.3333ZM199.708 47.7071C200.098 47.3166 200.098 46.6834 199.708 46.2929L193.344 39.9289C192.953 39.5384 192.32 39.5384 191.929 39.9289C191.539 40.3195 191.539 40.9526 191.929 41.3431L197.586 47L191.929 52.6569C191.539 53.0474 191.539 53.6805 191.929 54.0711C192.32 54.4616 192.953 54.4616 193.344 54.0711L199.708 47.7071ZM41.3574 47V48L199 48V47V46L41.3574 46V47Z" fill="#FFB661"/>
</svg>
