<svg width="80" height="80" viewBox="0 0 80 80" fill="none" xmlns="http://www.w3.org/2000/svg">
<path d="M73.753 57.17H71.4244V54.2297C71.4244 47.2678 65.7605 41.6042 58.7988 41.6042H42.8672V30.7303H49.8516C53.2961 30.7303 56.0984 27.928 56.0984 24.4833V9.31954C56.0984 5.87501 53.2961 3.07251 49.8516 3.07251H31.1911C27.7466 3.07251 24.9442 5.87485 24.9442 9.31954V24.4831C24.9442 27.9277 27.7466 30.7302 31.1911 30.7302H38.1755V41.6041H21.3053C14.3434 41.6041 8.68 47.2678 8.68 54.2295V57.1699H6.24703C2.80234 57.17 0 59.9724 0 63.417V70.6805C0 74.125 2.80234 76.9274 6.24703 76.9274H15.8042C19.2488 76.9274 22.0511 74.125 22.0511 70.6805V63.417C22.0511 59.9724 19.2488 57.17 15.8042 57.17H13.3716V54.2297C13.3716 49.8552 16.9306 46.2961 21.3052 46.2961H38.1753V57.17H35.7427C32.298 57.17 29.4956 59.9724 29.4956 63.417V70.6805C29.4956 74.125 32.298 76.9274 35.7427 76.9274H45.2998C48.7444 76.9274 51.5467 74.125 51.5467 70.6805V63.417C51.5467 59.9724 48.7444 57.17 45.2998 57.17H42.8672V46.2961H58.7991C63.1737 46.2961 66.7328 49.8552 66.7328 54.2297V57.17H64.1958C60.7513 57.17 57.9489 59.9724 57.9489 63.417V70.6805C57.9489 74.125 60.7513 76.9274 64.1958 76.9274H73.753C77.1977 76.9274 80 74.125 80 70.6805V63.417C80 59.9724 77.1977 57.17 73.753 57.17ZM15.8044 61.8617C16.6619 61.8617 17.3595 62.5595 17.3595 63.417V70.6805C17.3595 71.538 16.6619 72.2356 15.8044 72.2356H6.24719C5.38969 72.2356 4.69187 71.538 4.69187 70.6805V63.417C4.69187 62.5595 5.38969 61.8617 6.24719 61.8617H15.8044ZM45.3 61.8617C46.1575 61.8617 46.8552 62.5595 46.8552 63.417V70.6805C46.8552 71.538 46.1575 72.2356 45.3 72.2356H35.7428C34.8853 72.2356 34.1875 71.538 34.1875 70.6805V63.417C34.1875 62.5595 34.8853 61.8617 35.7428 61.8617H45.3ZM31.1911 26.0386C30.3336 26.0386 29.6359 25.3408 29.6359 24.4833V9.31954C29.6359 8.46204 30.3336 7.76423 31.1911 7.76423H49.8514C50.7089 7.76423 51.4066 8.46189 51.4066 9.31954V24.4831C51.4066 25.3406 50.7089 26.0384 49.8514 26.0384H31.1911V26.0386ZM75.3083 70.6806C75.3083 71.5381 74.6105 72.2358 73.753 72.2358H64.1958C63.3383 72.2358 62.6406 71.5381 62.6406 70.6806V63.4172C62.6406 62.5597 63.3383 61.8619 64.1958 61.8619H73.753C74.6105 61.8619 75.3083 62.5595 75.3083 63.4172V70.6806Z" fill="#FFB661"/>
</svg>
