<svg width="80" height="80" viewBox="0 0 80 80" fill="none" xmlns="http://www.w3.org/2000/svg">
<path d="M73.2874 9.08744C64.0462 -0.205958 48.7948 0.25602 39.9962 9.91616C31.1969 0.256361 15.9462 -0.206129 6.70494 9.08761C-2.48468 18.2393 -2.17162 33.3093 7.29686 42.1422C2.45277 46.7687 5.22788 55.0822 11.8212 55.8926C11.4263 60.4074 15.269 64.5476 19.8144 64.4708C20.093 69.4409 25.0814 72.9986 29.864 71.6852C31.433 77.6064 38.9756 79.6297 43.3029 75.2717C45.7605 72.8288 47.7149 71.2883 47.8395 67.5884C51.9004 67.4752 55.4139 63.914 55.4758 59.8555C59.5757 59.7923 63.1477 56.219 63.2108 52.1204C67.464 52.0558 71.1518 48.217 70.9538 43.8834L73.2871 41.5503C82.2374 32.6002 82.2373 18.0374 73.2874 9.08744ZM10.815 45.8779L13.0066 43.6863C13.2762 43.4164 13.5964 43.2024 13.949 43.0566C14.3015 42.9108 14.6794 42.8361 15.0609 42.8367C17.6122 42.8198 18.9439 45.9741 17.1148 47.7945L14.9232 49.9861C12.0864 52.5978 8.20303 48.7159 10.815 45.8779ZM16.9259 56.4408C16.9259 55.6647 17.2282 54.9352 17.7768 54.3865L19.9696 52.1939C20.2387 51.9236 20.5586 51.7094 20.911 51.5635C21.2634 51.4177 21.6411 51.3431 22.0225 51.3442C24.5955 51.3397 25.8997 54.4867 24.0766 56.3033L22.1429 58.237C21.5518 58.9069 20.7398 59.3602 19.8308 59.3457C18.2696 59.3778 16.8936 58.0023 16.9259 56.4408ZM25.7698 65.972C24.6429 64.8908 24.6429 62.9452 25.7698 61.864L27.7035 59.9301C28.8309 58.5917 30.8102 58.4174 32.0697 59.6722C33.2023 60.8049 33.2023 62.6475 32.0697 63.7804L29.878 65.9722C28.7455 67.1052 26.9025 67.1051 25.7698 65.972ZM41.8677 69.4533L39.6761 71.6448C39.407 71.9154 39.0869 72.13 38.7343 72.276C38.3817 72.4221 38.0037 72.4968 37.622 72.4958C37.2403 72.4968 36.8623 72.4221 36.5096 72.2761C36.157 72.13 35.8369 71.9154 35.5677 71.6448C34.441 70.5634 34.4405 68.6179 35.5679 67.5366L37.7593 65.345C38.8919 64.2123 40.735 64.2123 41.8675 65.3449C42.9946 66.4263 42.9948 68.3718 41.8677 69.4533ZM64.9766 46.1509C63.8952 47.2778 61.9497 47.278 60.8684 46.1509L49.4546 34.7371L45.8277 38.364L57.2415 49.7778C58.3741 50.9106 58.3741 52.7533 57.2415 53.8861C56.1088 55.0191 54.266 55.0188 53.1333 53.8861L41.913 42.6658L41.7195 42.4722L38.0925 46.0991L38.2861 46.2927L49.5064 57.513C50.6391 58.6457 50.6391 60.4886 49.5064 61.6214C48.3737 62.7541 46.5307 62.7541 45.398 61.6214L45.3958 61.6236C43.3118 59.6088 40.3992 58.9454 37.7685 59.6334C36.9311 56.2115 33.4912 53.6209 30.0321 53.6963C29.8643 50.0131 26.7505 46.6859 23.0708 46.2884C23.5563 39.9691 16.6161 35.6173 11.139 38.7302C3.51111 31.9165 3.04127 19.9552 10.3322 12.7144C17.5812 5.41454 29.5588 5.89823 36.3696 13.5431L30.0288 19.8839L35.1097 24.9648C39.0126 28.868 45.0268 29.405 49.511 26.5764L64.9771 42.0427C66.1092 43.1753 66.1092 45.0182 64.9766 46.1509ZM69.6605 37.9234L68.879 38.7048C68.7896 38.6062 68.6978 38.5099 68.6037 38.4158L49.7126 19.5245L47.899 21.3379C45.373 23.8639 41.2628 23.8642 38.7363 21.3379L37.2823 19.8839L44.4518 12.7144C61.8676 -3.31516 85.6866 20.5189 69.6605 37.9234Z" fill="#FFB661"/>
</svg>
