<svg width="100" height="100" viewBox="0 0 100 100" fill="none" xmlns="http://www.w3.org/2000/svg">
<path fill-rule="evenodd" clip-rule="evenodd" d="M88.5037 5.82916L88.9328 7.66898L90.8599 5.74538C91.0826 5.52329 91.3468 5.34712 91.6377 5.22692C91.9286 5.10673 92.2403 5.04487 92.5552 5.04487C92.87 5.04487 93.1818 5.10673 93.4727 5.22692C93.7635 5.34712 94.0278 5.52329 94.2505 5.74538C94.4731 5.96747 94.6497 6.23112 94.7702 6.5213C94.8906 6.81147 94.9527 7.12248 94.9527 7.43656C94.9527 7.75064 94.8906 8.06165 94.7702 8.35182C94.6497 8.642 94.4731 8.90565 94.2505 9.12774L92.3199 11.0536L94.1607 11.4806C97.8251 12.3299 99.1251 16.8669 96.4652 19.5205L90.31 25.6608C89.1584 26.81 87.7322 27.6474 86.166 28.0938C84.5998 28.5403 82.9454 28.581 81.3591 28.2122L76.2968 27.0381L71.2266 32.095C76.1394 37.7392 78.8397 44.9658 78.8291 52.4408C78.8291 69.6086 64.8781 83.526 47.6689 83.526C30.4596 83.526 16.5098 69.6075 16.5098 52.4408C16.5098 35.2742 30.4608 21.3568 47.6689 21.3568C52.5092 21.3496 57.2841 22.4722 61.6118 24.6347C63.0154 25.336 63.2225 27.1896 62.1123 28.2972C61.3299 29.0776 60.1254 29.2268 59.129 28.7471C55.5559 27.0254 51.6381 26.1338 47.67 26.1394C33.1081 26.1394 21.3039 37.9152 21.3039 52.4408C21.3039 66.9677 33.1081 78.7434 47.6689 78.7434C62.2308 78.7434 74.035 66.9677 74.035 52.4408C74.035 45.9814 71.6994 40.0649 67.8268 35.4866L61.009 42.288C63.2445 45.2023 64.4533 48.7712 64.4478 52.4408C64.4478 61.6847 56.935 69.1794 47.6689 69.1794C38.4027 69.1794 30.8911 61.6847 30.8911 52.4408C30.8911 43.197 38.4039 35.7035 47.6689 35.7035C48.327 35.7035 48.977 35.7413 49.6155 35.8148C51.5346 36.0363 52.0603 38.3249 50.6947 39.6873C50.0838 40.2978 49.214 40.5526 48.3511 40.5044C48.1239 40.4919 47.8964 40.4858 47.6689 40.4861C41.05 40.4861 35.6852 45.8379 35.6852 52.4408C35.6852 59.0437 41.05 64.3968 47.6689 64.3968C54.2877 64.3968 59.6537 59.0437 59.6537 52.4408C59.6537 49.9457 58.8874 47.6296 57.577 45.7117L50.185 53.0859C49.7356 53.5343 49.126 53.7861 48.4903 53.7861C47.8547 53.7861 47.2451 53.5343 46.7956 53.0859C46.3462 52.6375 46.0937 52.0294 46.0937 51.3953C46.0937 50.7612 46.3462 50.153 46.7956 49.7047L72.9086 23.6523L71.7305 18.6046C71.3602 17.0214 71.4009 15.3702 71.8486 13.8071C72.2963 12.244 73.1364 10.8207 74.2892 9.67177L80.4444 3.5314C83.1044 0.878995 87.65 2.17593 88.5037 5.82916ZM84.921 11.5713L83.8338 6.91377L77.6786 13.0541C77.1024 13.6289 76.6825 14.3407 76.4587 15.1222C76.2348 15.9038 76.2144 16.7294 76.3992 17.5211L76.8825 19.5905L84.921 11.5713ZM93.0758 16.1392L88.4186 15.0581L80.3811 23.0761L82.4451 23.5547C83.2384 23.7387 84.0655 23.7181 84.8486 23.4948C85.6316 23.2715 86.3447 22.8529 86.9206 22.2785L93.0758 16.1392Z" fill="#FFB661"/>
<path d="M47.6683 7.01025C54.1664 7.01025 60.3469 8.36802 65.9406 10.815C66.861 11.2167 67.2718 12.2634 67.0474 13.2413C66.7172 14.6828 65.0973 15.6584 63.7351 15.0742C58.659 12.9015 53.192 11.7845 47.6683 11.7917C25.1645 11.7917 6.92208 29.9913 6.92208 52.4409C6.92208 74.8906 25.1645 93.0901 47.6683 93.0901C70.1722 93.0901 88.4157 74.8906 88.4157 52.4409C88.4157 46.6575 87.2054 41.1553 85.0217 36.1741C84.4281 34.8198 85.3933 33.1992 86.8361 32.8595C87.814 32.6288 88.8679 33.0316 89.2786 33.9487C91.8789 39.7681 93.2185 46.0695 93.2099 52.4409C93.2099 77.5326 72.8207 97.8727 47.6683 97.8727C22.5183 97.8727 2.12793 77.5326 2.12793 52.4409C2.12793 27.3515 22.5172 7.01025 47.6683 7.01025Z" fill="#FFB661"/>
</svg>
