<svg width="125" height="125" viewBox="0 0 125 125" fill="none" xmlns="http://www.w3.org/2000/svg">
<path fill-rule="evenodd" clip-rule="evenodd" d="M110.629 7.28621L111.166 9.58598L113.574 7.18148C113.853 6.90387 114.183 6.68365 114.547 6.53341C114.91 6.38317 115.3 6.30584 115.693 6.30584C116.087 6.30584 116.477 6.38317 116.84 6.53341C117.204 6.68365 117.534 6.90387 117.813 7.18148C118.091 7.45909 118.312 7.78866 118.462 8.15138C118.613 8.5141 118.69 8.90285 118.69 9.29546C118.69 9.68806 118.613 10.0768 118.462 10.4395C118.312 10.8023 118.091 11.1318 117.813 11.4094L115.399 13.8168L117.7 14.3505C122.281 15.4121 123.906 21.0834 120.581 24.4003L112.887 32.0758C111.448 33.5123 109.665 34.559 107.707 35.1171C105.749 35.6751 103.681 35.726 101.698 35.265L95.3706 33.7974L89.0327 40.1185C95.1738 47.1737 98.5492 56.207 98.5359 65.5508C98.5359 87.0105 81.0971 104.407 59.5856 104.407C38.074 104.407 20.6367 87.0091 20.6367 65.5508C20.6367 44.0925 38.0755 26.6958 59.5856 26.6958C65.636 26.6868 71.6046 28.09 77.0143 30.7932C78.7688 31.6698 79.0277 33.9868 77.6399 35.3712C76.6619 36.3468 75.1562 36.5333 73.9108 35.9336C69.4444 33.7815 64.5471 32.667 59.587 32.674C41.3846 32.674 26.6294 47.3937 26.6294 65.5508C26.6294 83.7094 41.3846 98.429 59.5856 98.429C77.788 98.429 92.5432 83.7094 92.5432 65.5508C92.5432 57.4765 89.6238 50.0808 84.7831 44.3579L76.2607 52.8598C79.0551 56.5026 80.5662 60.9637 80.5593 65.5508C80.5593 77.1056 71.1683 86.474 59.5856 86.474C48.0029 86.474 38.6133 77.1056 38.6133 65.5508C38.6133 53.996 48.0043 44.6291 59.5856 44.6291C60.4082 44.6291 61.2207 44.6764 62.0189 44.7683C64.4177 45.0452 65.0749 47.9059 63.3679 49.6088C62.6042 50.3721 61.517 50.6906 60.4384 50.6303C60.1544 50.6147 59.87 50.607 59.5856 50.6073C51.312 50.6073 44.606 57.2972 44.606 65.5508C44.606 73.8044 51.312 80.4957 59.5856 80.4957C67.8591 80.4957 74.5666 73.8044 74.5666 65.5508C74.5666 62.4319 73.6088 59.5367 71.9708 57.1394L62.7308 66.3571C62.1689 66.9176 61.407 67.2324 60.6124 67.2324C59.8179 67.2324 59.0559 66.9176 58.494 66.3571C57.9322 65.7966 57.6166 65.0365 57.6166 64.2438C57.6166 63.4512 57.9322 62.691 58.494 62.1306L91.1353 29.5651L89.6626 23.2555C89.1998 21.2765 89.2506 19.2125 89.8103 17.2587C90.3699 15.3048 91.42 13.5257 92.861 12.0895L100.555 4.41401C103.88 1.0985 109.562 2.71967 110.629 7.28621ZM106.151 14.4638L104.792 8.64197L97.0978 16.3174C96.3775 17.0359 95.8527 17.9256 95.5729 18.9026C95.2931 19.8795 95.2675 20.9116 95.4986 21.9011L96.1026 24.4878L106.151 14.4638ZM116.344 20.1738L110.523 18.8223L100.476 28.8449L103.056 29.4432C104.047 29.6732 105.081 29.6474 106.06 29.3683C107.039 29.0891 107.93 28.5659 108.65 27.8478L116.344 20.1738Z" fill="#FFB661"/>
<path d="M59.5857 8.76245C67.7082 8.76245 75.4339 10.4597 82.426 13.5184C83.5765 14.0205 84.09 15.3289 83.8095 16.5512C83.3968 18.3532 81.3719 19.5726 79.6691 18.8424C73.324 16.1265 66.4902 14.7303 59.5857 14.7393C31.4558 14.7393 8.65284 37.4887 8.65284 65.5508C8.65284 93.6128 31.4558 116.362 59.5857 116.362C87.7155 116.362 110.52 93.6128 110.52 65.5508C110.52 58.3215 109.007 51.4437 106.277 45.2173C105.535 43.5244 106.742 41.4986 108.545 41.074C109.768 40.7856 111.085 41.2892 111.599 42.4355C114.849 49.7097 116.523 57.5866 116.513 65.5508C116.513 96.9154 91.0261 122.341 59.5857 122.341C28.1481 122.341 2.66016 96.9154 2.66016 65.5508C2.66016 34.189 28.1467 8.76245 59.5857 8.76245Z" fill="#FFB661"/>
</svg>
