<svg width="50" height="50" viewBox="0 0 50 50" fill="none" xmlns="http://www.w3.org/2000/svg">
<path fill-rule="evenodd" clip-rule="evenodd" d="M44.2509 2.91458L44.4654 3.83449L45.429 2.87269C45.5403 2.76164 45.6724 2.67356 45.8179 2.61346C45.9633 2.55336 46.1192 2.52243 46.2766 2.52243C46.434 2.52243 46.5899 2.55336 46.7354 2.61346C46.8808 2.67356 47.0129 2.76164 47.1243 2.87269C47.2356 2.98373 47.3239 3.11556 47.3841 3.26065C47.4443 3.40574 47.4754 3.56124 47.4754 3.71828C47.4754 3.87532 47.4443 4.03082 47.3841 4.17591C47.3239 4.321 47.2356 4.45283 47.1243 4.56387L46.159 5.52682L47.0794 5.7403C48.9116 6.16496 49.5616 8.43345 48.2316 9.76023L45.154 12.8304C44.5782 13.405 43.8651 13.8237 43.082 14.0469C42.2989 14.2701 41.4717 14.2905 40.6786 14.1061L38.1474 13.519L35.6123 16.0475C38.0687 18.8696 39.4189 22.4829 39.4136 26.2204C39.4136 34.8043 32.4381 41.763 23.8335 41.763C15.2288 41.763 8.25391 34.8037 8.25391 26.2204C8.25391 17.6371 15.2294 10.6784 23.8335 10.6784C26.2536 10.6748 28.6411 11.2361 30.8049 12.3174C31.5067 12.668 31.6103 13.5948 31.0552 14.1486C30.664 14.5388 30.0617 14.6134 29.5635 14.3735C27.777 13.5127 25.8181 13.0669 23.834 13.0697C16.5531 13.0697 10.651 18.9576 10.651 26.2204C10.651 33.4838 16.5531 39.3717 23.8335 39.3717C31.1144 39.3717 37.0165 33.4838 37.0165 26.2204C37.0165 22.9907 35.8487 20.0324 33.9124 17.7433L30.5035 21.144C31.6213 22.6011 32.2257 24.3856 32.2229 26.2204C32.2229 30.8423 28.4665 34.5897 23.8335 34.5897C19.2004 34.5897 15.4446 30.8423 15.4446 26.2204C15.4446 21.5985 19.201 17.8517 23.8335 17.8517C24.1625 17.8517 24.4875 17.8707 24.8068 17.9074C25.7663 18.0182 26.0292 19.1624 25.3464 19.8436C25.0409 20.1489 24.606 20.2763 24.1746 20.2522C24.061 20.246 23.9472 20.2429 23.8335 20.243C20.524 20.243 17.8416 22.919 17.8416 26.2204C17.8416 29.5219 20.524 32.1984 23.8335 32.1984C27.1429 32.1984 29.8259 29.5219 29.8259 26.2204C29.8259 24.9728 29.4427 23.8148 28.7875 22.8558L25.0915 26.5429C24.8668 26.7671 24.562 26.8931 24.2442 26.8931C23.9264 26.8931 23.6216 26.7671 23.3968 26.5429C23.1721 26.3187 23.0459 26.0147 23.0459 25.6976C23.0459 25.3806 23.1721 25.0765 23.3968 24.8523L36.4533 11.8261L35.8643 9.30228C35.6791 8.51071 35.6995 7.68512 35.9233 6.90357C36.1472 6.12202 36.5672 5.41036 37.1436 4.83588L40.2212 1.7657C41.5512 0.439497 43.824 1.08797 44.2509 2.91458ZM42.4595 5.78563L41.9159 3.45688L38.8383 6.52707C38.5502 6.81444 38.3403 7.17033 38.2284 7.56112C38.1164 7.95191 38.1062 8.36472 38.1986 8.76055L38.4403 9.79523L42.4595 5.78563ZM46.5369 8.06962L44.2083 7.52904L40.1896 11.5381L41.2216 11.7774C41.6182 11.8694 42.0318 11.859 42.4233 11.7474C42.8148 11.6357 43.1714 11.4264 43.4593 11.1392L46.5369 8.06962Z" fill="black"/>
<path d="M23.8337 3.50513C27.0827 3.50513 30.173 4.18401 32.9698 5.40749C33.43 5.60835 33.6354 6.13171 33.5232 6.62065C33.3581 7.34142 32.5482 7.82921 31.8671 7.53711C29.329 6.45073 26.5955 5.89226 23.8337 5.89585C12.5817 5.89585 3.46055 14.9956 3.46055 26.2205C3.46055 37.4453 12.5817 46.5451 23.8337 46.5451C35.0856 46.5451 44.2074 37.4453 44.2074 26.2205C44.2074 23.3288 43.6022 20.5776 42.5104 18.0871C42.2136 17.4099 42.6962 16.5996 43.4176 16.4297C43.9065 16.3144 44.4335 16.5158 44.6388 16.9743C45.939 19.884 46.6088 23.0348 46.6045 26.2205C46.6045 38.7663 36.4098 48.9364 23.8337 48.9364C11.2587 48.9364 1.06348 38.7663 1.06348 26.2205C1.06348 13.6758 11.2581 3.50513 23.8337 3.50513Z" fill="black"/>
</svg>
