<svg width="50" height="50" viewBox="0 0 50 50" fill="none" xmlns="http://www.w3.org/2000/svg">
<path d="M13.6095 12.9562L14.212 12.8968C14.8554 12.8333 15.4297 13.3038 15.4933 13.948C15.5567 14.5921 15.086 15.1658 14.442 15.2292L11.1008 15.5587C11.0617 15.5626 11.0229 15.5645 10.9844 15.5645C10.389 15.5645 9.8793 15.1125 9.81953 14.5076L9.49004 11.1663C9.42656 10.5222 9.89717 9.94866 10.5413 9.88509C11.1848 9.82191 11.759 10.2921 11.8226 10.9363L11.8674 11.3909C13.8724 9.22972 16.3594 7.57425 19.1852 6.53753C22.9959 5.13939 27.0646 5.00286 30.9507 6.14261C31.5717 6.32474 31.9275 6.97591 31.7454 7.597C31.5633 8.218 30.912 8.57386 30.2911 8.39173C24.2122 6.60872 17.8085 8.43646 13.6096 12.9564L13.6095 12.9562ZM10.8501 18.9176C13.7844 18.9176 16.1716 21.3035 16.1716 24.2363C16.1716 27.4776 14.3064 30.9224 10.8501 30.9224C9.13945 30.9224 7.66016 30.0506 6.68467 28.4677C5.9501 27.2757 5.52871 25.7333 5.52871 24.2362C5.52871 21.3034 7.91582 18.9175 10.8501 18.9175V18.9176ZM7.87246 24.2363C7.87246 25.6531 8.60029 28.5786 10.8501 28.5786C12.904 28.5786 13.8278 26.0394 13.8278 24.2363C13.8278 22.5959 12.492 21.2614 10.8501 21.2614C9.2082 21.2614 7.87246 22.5959 7.87246 24.2363ZM20.9191 36.6102V41.6152C20.9191 43.2734 19.5701 44.6224 17.9119 44.6224H3.78848C2.13037 44.6224 0.78125 43.2734 0.78125 41.6152V36.6102C0.78125 33.6866 3.30254 31.3081 6.40166 31.3081H15.2987C18.3978 31.3081 20.9191 33.6866 20.9191 36.6102ZM18.5754 36.6102C18.5754 34.9789 17.1055 33.6519 15.2987 33.6519H6.40166C4.59492 33.6519 3.125 34.9789 3.125 36.6102V41.6152C3.12521 41.7911 3.19518 41.9597 3.31956 42.0841C3.44394 42.2085 3.61258 42.2784 3.78848 42.2786H17.9119C18.0878 42.2784 18.2565 42.2085 18.3808 42.0841C18.5052 41.9597 18.5752 41.7911 18.5754 41.6152V36.6102ZM43.0855 31.3952C42.942 30.7642 42.3145 30.3688 41.683 30.5124L38.4082 31.2571C37.7771 31.4005 37.3818 32.0284 37.5254 32.6596C37.6688 33.2907 38.2966 33.6859 38.9279 33.5425L39.4478 33.4242C36.0411 38.1772 30.2575 40.8569 24.3265 40.2338C23.682 40.1672 23.1062 40.6332 23.0386 41.2769C22.971 41.9205 23.438 42.4972 24.0817 42.5648C24.7327 42.6331 25.3815 42.6666 26.0271 42.6666C32.1442 42.6666 37.9188 39.6517 41.4294 34.6816L41.5449 35.1898C41.6686 35.7334 42.1517 36.102 42.6865 36.102C42.7726 36.102 42.86 36.0924 42.9475 36.0726C43.5785 35.929 43.9738 35.3011 43.8303 34.67L43.0855 31.3952ZM49.2188 18.1351C49.2188 23.9329 44.5007 28.6497 38.7014 28.6497C32.9021 28.6497 28.1867 23.9329 28.1867 18.1351C28.1867 12.3372 32.9036 7.61761 38.7014 7.61761C44.4991 7.61761 49.2188 12.3357 49.2188 18.1351ZM46.875 18.1351C46.875 13.6281 43.2083 9.96136 38.7014 9.96136C34.1944 9.96136 30.5305 13.6281 30.5305 18.1351C30.5305 22.6421 34.1959 26.306 38.7014 26.306C43.2068 26.306 46.875 22.6406 46.875 18.1351ZM41.0045 17.7073C40.3641 17.2851 39.6079 17.1273 38.9408 16.9879H38.9406C37.5164 16.6867 37.4621 16.5467 37.4621 16.0035C37.4621 15.4849 38.0297 15.0467 38.7014 15.0467C39.1678 15.0467 39.5916 15.25 39.8074 15.5774C40.1638 16.1178 40.8907 16.2668 41.4309 15.9106C41.9712 15.5543 42.1204 14.8275 41.7642 14.2871C41.3208 13.6149 40.6517 13.127 39.8732 12.8818V12.5626C39.8732 11.9155 39.3485 11.3908 38.7014 11.3908C38.0542 11.3908 37.5295 11.9155 37.5295 12.5626V12.8852C36.1277 13.3335 35.1184 14.5616 35.1184 16.0035C35.1184 17.4183 35.8144 18.1745 36.3982 18.5599C37.0357 18.9806 37.7911 19.1404 38.4589 19.2816C38.4599 19.2816 38.4609 19.2821 38.4619 19.2823C39.8863 19.5795 39.9406 19.7194 39.9406 20.2638C39.9406 20.784 39.373 21.2235 38.7015 21.2235C38.236 21.2235 37.8123 21.0191 37.5953 20.69C37.239 20.1496 36.5121 20.0006 35.9719 20.3568C35.4315 20.713 35.2823 21.4399 35.6386 21.9802C36.0825 22.6534 36.7518 23.1421 37.5296 23.3878V23.7047C37.5296 24.3519 38.0543 24.8766 38.7015 24.8766C39.3486 24.8766 39.8733 24.3519 39.8733 23.7047V23.3848C41.2751 22.9361 42.2844 21.707 42.2844 20.2638C42.2844 18.8481 41.5884 18.0921 41.0046 17.7072L41.0045 17.7073Z" fill="black"/>
</svg>
