<svg width="100" height="100" viewBox="0 0 100 100" fill="none" xmlns="http://www.w3.org/2000/svg">
<path fill-rule="evenodd" clip-rule="evenodd" d="M88.5017 5.82892L88.9309 7.66873L90.858 5.74513C91.0806 5.52304 91.3449 5.34687 91.6358 5.22668C91.9266 5.10649 92.2384 5.04462 92.5532 5.04462C92.8681 5.04462 93.1798 5.10649 93.4707 5.22668C93.7616 5.34687 94.0259 5.52304 94.2485 5.74513C94.4711 5.96722 94.6477 6.23088 94.7682 6.52105C94.8887 6.81123 94.9507 7.12223 94.9507 7.43632C94.9507 7.7504 94.8887 8.0614 94.7682 8.35158C94.6477 8.64175 94.4711 8.90541 94.2485 9.1275L92.318 11.0534L94.1588 11.4803C97.8231 12.3297 99.1232 16.8667 96.4632 19.5202L90.308 25.6606C89.1565 26.8098 87.7302 27.6472 86.1641 28.0936C84.5979 28.54 82.9435 28.5808 81.3571 28.212L76.2949 27.0379L71.2246 32.0948C76.1375 37.7389 78.8378 44.9655 78.8271 52.4406C78.8271 69.6084 64.8761 83.5258 47.6669 83.5258C30.4577 83.5258 16.5078 69.6072 16.5078 52.4406C16.5078 35.274 30.4588 21.3566 47.6669 21.3566C52.5072 21.3494 57.2821 22.4719 61.6099 24.6345C63.0135 25.3358 63.2206 27.1894 62.1103 28.2969C61.328 29.0774 60.1234 29.2266 59.1271 28.7468C55.5539 27.0251 51.6362 26.1336 47.6681 26.1392C33.1061 26.1392 21.302 37.9149 21.302 52.4406C21.302 66.9674 33.1061 78.7432 47.6669 78.7432C62.2288 78.7432 74.033 66.9674 74.033 52.4406C74.033 45.9812 71.6975 40.0646 67.8249 35.4863L61.007 42.2878C63.2426 45.202 64.4514 48.7709 64.4459 52.4406C64.4459 61.6844 56.9331 69.1791 47.6669 69.1791C38.4008 69.1791 30.8891 61.6844 30.8891 52.4406C30.8891 43.1968 38.4019 35.7032 47.6669 35.7032C48.325 35.7032 48.975 35.7411 49.6136 35.8146C51.5326 36.0361 52.0584 38.3246 50.6927 39.687C50.0818 40.2976 49.212 40.5524 48.3492 40.5042C48.122 40.4917 47.8945 40.4856 47.6669 40.4858C41.0481 40.4858 35.6833 45.8377 35.6833 52.4406C35.6833 59.0435 41.0481 64.3965 47.6669 64.3965C54.2858 64.3965 59.6517 59.0435 59.6517 52.4406C59.6517 49.9454 58.8855 47.6293 57.575 45.7115L50.1831 53.0856C49.7336 53.534 49.124 53.7859 48.4884 53.7859C47.8527 53.7859 47.2431 53.534 46.7937 53.0856C46.3442 52.6373 46.0917 52.0291 46.0917 51.395C46.0917 50.7609 46.3442 50.1528 46.7937 49.7044L72.9067 23.652L71.7285 18.6043C71.3583 17.0212 71.3989 15.37 71.8467 13.8069C72.2944 12.2438 73.1344 10.8205 74.2873 9.67152L80.4425 3.53116C83.1024 0.878751 87.6481 2.17569 88.5017 5.82892ZM84.9191 11.571L83.8318 6.91353L77.6766 13.0539C77.1004 13.6286 76.6806 14.3404 76.4567 15.122C76.2329 15.9036 76.2124 16.7292 76.3973 17.5209L76.8805 19.5902L84.9191 11.571ZM93.0738 16.139L88.4166 15.0578L80.3792 23.0759L82.4432 23.5545C83.2364 23.7385 84.0636 23.7179 84.8466 23.4946C85.6296 23.2713 86.3427 22.8526 86.9186 22.2782L93.0738 16.139Z" fill="#FFB661"/>
<path d="M47.6674 7.00977C54.1654 7.00977 60.3459 8.36753 65.9397 10.8145C66.8601 11.2162 67.2708 12.2629 67.0464 13.2408C66.7163 14.6824 65.0963 15.6579 63.7341 15.0737C58.658 12.901 53.191 11.784 47.6674 11.7912C25.1635 11.7912 6.9211 29.9908 6.9211 52.4404C6.9211 74.8901 25.1635 93.0896 47.6674 93.0896C70.1712 93.0896 88.4148 74.8901 88.4148 52.4404C88.4148 46.657 87.2044 41.1548 85.0208 36.1736C84.4271 34.8193 85.3924 33.1987 86.8351 32.859C87.813 32.6283 88.8669 33.0311 89.2776 33.9482C91.8779 39.7676 93.2175 46.069 93.2089 52.4404C93.2089 77.5321 72.8197 97.8722 47.6674 97.8722C22.5173 97.8722 2.12695 77.5321 2.12695 52.4404C2.12695 27.351 22.5162 7.00977 47.6674 7.00977Z" fill="#FFB661"/>
</svg>
