<svg width="80" height="80" viewBox="0 0 80 80" fill="none" xmlns="http://www.w3.org/2000/svg">
<path d="M58.75 75.0001C53.925 75.0001 50 71.0751 50 66.2501V33.4176C47.6972 31.9548 45.8018 29.9332 44.4905 27.5409C43.1792 25.1485 42.4944 22.4633 42.5 19.7351C42.4945 16.7408 43.3197 13.8037 44.8839 11.2504C46.4481 8.69709 48.6899 6.62778 51.36 5.27262C51.7415 5.07873 52.1663 4.9858 52.5939 5.00268C53.0215 5.01957 53.4376 5.1457 53.8026 5.36906C54.1676 5.59242 54.4693 5.90556 54.6789 6.27861C54.8885 6.65167 54.9991 7.07221 55 7.50012V18.3076L58.75 19.8076L62.5 18.3076V7.50012C62.501 7.07221 62.6116 6.65167 62.8212 6.27861C63.0308 5.90556 63.3325 5.59242 63.6975 5.36906C64.0625 5.1457 64.4786 5.01957 64.9062 5.00268C65.3338 4.9858 65.7586 5.07873 66.14 5.27262C68.8102 6.62843 71.0519 8.69823 72.6161 11.2519C74.1802 13.8056 75.0055 16.743 75 19.7376C75.005 22.4657 74.3199 25.1506 73.0086 27.5428C71.6974 29.9351 69.8024 31.9568 67.5 33.4201V66.2501C67.5 71.0751 63.575 75.0001 58.75 75.0001ZM50 12.6651C48.4075 14.6276 47.5 17.1026 47.5 19.7351C47.5 23.9701 49.8525 27.8076 53.64 29.7476C54.0495 29.9574 54.3932 30.2762 54.6331 30.6688C54.8731 31.0613 55 31.5125 55 31.9726V66.2501C55 68.3176 56.6825 70.0001 58.75 70.0001C60.8175 70.0001 62.5 68.3176 62.5 66.2501V31.9726C62.5 31.5125 62.627 31.0613 62.8669 30.6688C63.1069 30.2762 63.4506 29.9574 63.86 29.7476C65.709 28.81 67.2617 27.3781 68.3456 25.6109C69.4296 23.8438 70.0023 21.8107 70 19.7376C70.0047 17.1636 69.1217 14.6666 67.5 12.6676V20.0001C67.5 21.0226 66.8775 21.9401 65.93 22.3226L59.68 24.8226C59.0841 25.0627 58.4184 25.0627 57.8225 24.8226L51.5725 22.3226C51.1086 22.1366 50.711 21.816 50.4308 21.4021C50.1505 20.9882 50.0005 20.4999 50 20.0001V12.6651Z" fill="#FFB661"/>
<path d="M42.685 75H37.3175C36.0594 74.9953 34.849 74.5185 33.9258 73.6638C33.0026 72.8091 32.434 71.639 32.3325 70.385L32.0175 66.2975C30.2996 65.7758 28.6373 65.0858 27.055 64.2375L23.94 66.905C22.9821 67.7203 21.753 68.1462 20.4961 68.0985C19.2391 68.0508 18.0459 67.533 17.1525 66.6475L13.3525 62.845C12.467 61.9512 11.949 60.7578 11.9009 59.5006C11.8527 58.2434 12.2779 57.0139 13.0925 56.055L15.76 52.9425C14.9117 51.3602 14.2217 49.6979 13.7 47.98L9.615 47.6675C8.36125 47.5666 7.19112 46.9985 6.3364 46.0757C5.48168 45.1529 5.00472 43.9428 5 42.685V37.315C5 34.7175 7.0275 32.5275 9.6175 32.33L13.7025 32.0175C14.2225 30.3 14.9125 28.64 15.7625 27.055L13.0925 23.9375C12.2777 22.9786 11.8526 21.7488 11.9012 20.4914C11.9498 19.234 12.4686 18.0407 13.355 17.1475L17.15 13.35C18.0435 12.464 19.237 11.9456 20.4944 11.8975C21.7517 11.8493 22.9814 12.2749 23.94 13.09L27.055 15.7575C28.6373 14.9092 30.2996 14.2192 32.0175 13.6975L32.3325 9.61C32.4351 8.35736 33.0039 7.18878 33.9265 6.33522C34.849 5.48165 36.0582 5.00519 37.315 5H40C40.663 5 41.2989 5.26339 41.7678 5.73223C42.2366 6.20107 42.5 6.83696 42.5 7.5C42.5 8.16304 42.2366 8.79893 41.7678 9.26777C41.2989 9.73661 40.663 10 40 10H37.315L36.865 15.8525C36.8238 16.383 36.6145 16.8866 36.2673 17.2899C35.9202 17.6932 35.4535 17.9753 34.935 18.095C32.5142 18.6526 30.204 19.6117 28.1 20.9325C27.649 21.2167 27.1186 21.3484 26.587 21.3084C26.0555 21.2683 25.5508 21.0586 25.1475 20.71L20.685 16.8875L16.89 20.6875L20.7125 25.1475C21.425 25.9775 21.5125 27.175 20.9325 28.1C19.6137 30.205 18.6547 32.5149 18.095 34.935C17.9755 35.454 17.6932 35.9213 17.2893 36.2685C16.8854 36.6157 16.3811 36.8247 15.85 36.865L10 37.315V42.685L15.85 43.135C16.381 43.1757 16.8851 43.3848 17.2889 43.732C17.6927 44.0791 17.9751 44.5461 18.095 45.065C18.6526 47.4858 19.6117 49.796 20.9325 51.9C21.2151 52.3514 21.3461 52.8812 21.3066 53.4123C21.267 53.9434 21.0589 54.448 20.7125 54.8525L16.89 59.3125L20.6875 63.1125L25.1475 59.29C25.5514 58.9425 26.0559 58.7335 26.5872 58.6934C27.1185 58.6534 27.6486 58.7845 28.1 59.0675C30.22 60.3925 32.52 61.3475 34.935 61.905C35.4535 62.0247 35.9202 62.3068 36.2673 62.7101C36.6145 63.1134 36.8238 63.617 36.865 64.1475L37.315 70H42.6825C42.7053 69.6708 42.7931 69.3494 42.9407 69.0543C43.0883 68.7592 43.2929 68.4963 43.5427 68.2806C43.7924 68.065 44.0824 67.9009 44.3958 67.7979C44.7093 67.6949 45.04 67.6549 45.369 67.6803C45.698 67.7057 46.0187 67.796 46.3126 67.9459C46.6065 68.0959 46.8679 68.3025 47.0815 68.554C47.2952 68.8054 47.457 69.0966 47.5576 69.4109C47.6581 69.7252 47.6955 70.0562 47.6675 70.385C47.566 71.6385 46.9978 72.8083 46.0751 73.6629C45.1525 74.5175 43.9426 74.9947 42.685 75Z" fill="#FFB661"/>
<path d="M22.5001 39.9999C22.4867 35.8598 23.947 31.8499 26.6197 28.688C29.2924 25.5262 33.003 23.4185 37.0876 22.7424C37.4115 22.6866 37.7432 22.6956 38.0636 22.7687C38.384 22.8419 38.6867 22.9778 38.9543 23.1687C39.2218 23.3595 39.4489 23.6015 39.6224 23.8806C39.7959 24.1598 39.9124 24.4705 39.9651 24.7949C40.0743 25.4486 39.9194 26.119 39.5345 26.6586C39.1497 27.1981 38.5663 27.5628 37.9126 27.6724C34.9964 28.1572 32.3476 29.6634 30.44 31.9219C28.5324 34.1803 27.4903 37.0436 27.5001 39.9999C27.5001 48.6324 36.0751 54.6524 44.1676 51.7899C44.7859 51.5933 45.4564 51.6448 46.0375 51.9334C46.6185 52.2221 47.0646 52.7254 47.2814 53.3369C47.4982 53.9484 47.4688 54.6203 47.1994 55.2105C46.93 55.8007 46.4416 56.2631 45.8376 56.4999C34.4551 60.5274 22.5001 52.0399 22.5001 39.9999Z" fill="#FFB661"/>
</svg>
