<svg width="100" height="100" viewBox="0 0 100 100" fill="none" xmlns="http://www.w3.org/2000/svg">
<path d="M85.3516 52.3734H75.5629C74.2307 52.3734 72.9408 52.5555 71.7133 52.8902C69.2918 48.1301 64.3481 44.8594 58.6514 44.8594H41.3486C35.652 44.8594 30.7082 48.1301 28.2867 52.8902C27.0322 52.5474 25.7376 52.3736 24.4371 52.3734H14.6484C6.57129 52.3734 0 58.9447 0 67.0219V82.6699C0 87.5162 3.94277 91.459 8.78906 91.459H91.2109C96.0572 91.459 100 87.5162 100 82.6699V67.0219C100 58.9447 93.4287 52.3734 85.3516 52.3734ZM26.7002 59.5082V85.5998H8.78906C7.17363 85.5998 5.85938 84.2855 5.85938 82.6701V67.0221C5.85938 62.1758 9.80215 58.233 14.6484 58.233H24.4371C25.2324 58.233 26.0025 58.341 26.7357 58.54C26.7133 58.8623 26.7014 59.1852 26.7002 59.5082ZM67.4404 85.5998H32.5596V59.508C32.5596 54.6617 36.5023 50.7189 41.3486 50.7189H58.6514C63.4977 50.7189 67.4404 54.6617 67.4404 59.508V85.5998ZM94.1406 82.6701C94.1406 84.2855 92.8264 85.5998 91.2109 85.5998H73.2998V59.508C73.2986 59.185 73.2867 58.8621 73.2643 58.5398C74.0135 58.3362 74.7865 58.2329 75.5629 58.2328H85.3516C90.1979 58.2328 94.1406 62.1756 94.1406 67.0219V82.6701Z" fill="#FFB661"/>
<path d="M19.5422 24.7078C12.3646 24.7078 6.52539 30.547 6.52539 37.7246C6.5252 44.9021 12.3646 50.7414 19.5422 50.7414C26.7195 50.7414 32.559 44.9021 32.559 37.7246C32.559 30.547 26.7197 24.7078 19.5422 24.7078ZM19.542 44.882C15.5953 44.882 12.3846 41.6712 12.3846 37.7246C12.3846 33.7779 15.5953 30.5671 19.542 30.5671C23.4887 30.5671 26.6994 33.7779 26.6994 37.7246C26.6994 41.6712 23.4887 44.882 19.542 44.882ZM49.9992 8.54077C40.4102 8.54077 32.609 16.3419 32.609 25.931C32.609 35.5201 40.4102 43.3212 49.9992 43.3212C59.5883 43.3212 67.3895 35.5201 67.3895 25.931C67.3895 16.3421 59.5883 8.54077 49.9992 8.54077ZM49.9992 37.4619C43.641 37.4619 38.4684 32.2892 38.4684 25.931C38.4684 19.573 43.641 14.4001 49.9992 14.4001C56.3574 14.4001 61.5301 19.5728 61.5301 25.931C61.5301 32.2892 56.3574 37.4619 49.9992 37.4619ZM80.4563 24.7078C73.2789 24.7078 67.4395 30.547 67.4395 37.7246C67.4396 44.9021 73.2789 50.7414 80.4563 50.7414C87.6338 50.7414 93.473 44.9021 93.473 37.7246C93.473 30.547 87.6338 24.7078 80.4563 24.7078ZM80.4563 44.882C76.5098 44.882 73.2988 41.6712 73.2988 37.7246C73.299 33.7779 76.5098 30.5671 80.4563 30.5671C84.4029 30.5671 87.6137 33.7779 87.6137 37.7246C87.6137 41.6712 84.4029 44.882 80.4563 44.882Z" fill="#FFB661"/>
</svg>
