<svg width="40" height="50" viewBox="0 0 40 50" fill="none" xmlns="http://www.w3.org/2000/svg">
<path d="M35.2539 2.73975H29.7534C28.302 1.06338 26.1629 0 23.7793 0H15.8691C13.4855 0 11.3465 1.06338 9.89502 2.73975H4.39453C1.97139 2.73975 0 4.71504 0 7.14287V45.5969C0 48.0247 1.97139 50 4.39453 50H35.2539C37.6771 50 39.6484 48.0247 39.6484 45.5969V7.14287C39.6484 4.71494 37.6771 2.73975 35.2539 2.73975ZM15.8691 2.93545H23.7793C26.0427 2.93545 27.9224 4.45059 28.54 6.45791H11.1084C11.725 4.4541 13.6022 2.93545 15.8691 2.93545ZM36.7188 45.5969C36.7188 46.4062 36.0616 47.0646 35.2539 47.0646H4.39453C3.58682 47.0646 2.92969 46.4062 2.92969 45.5969V7.14287C2.92969 6.33359 3.58682 5.6752 4.39453 5.6752H8.28574C8.06902 6.40571 7.95896 7.1637 7.95898 7.92568C7.95898 8.73623 8.61484 9.39336 9.42383 9.39336H30.2246C31.0336 9.39336 31.6895 8.73623 31.6895 7.92568C31.6895 7.1637 31.5794 6.40571 31.3627 5.6752H35.2539C36.0616 5.6752 36.7188 6.33359 36.7188 7.14287V45.5969Z" fill="white"/>
</svg>
