<svg width="164" height="15" viewBox="0 0 164 15" fill="none" xmlns="http://www.w3.org/2000/svg">
<path d="M5.3338 12.6992C8.27976 12.6992 10.6679 10.3111 10.6679 7.36511C10.6679 4.41915 8.27976 2.03098 5.3338 2.03098C2.38784 2.03098 -0.000325728 4.41915 -0.000325728 7.36511C-0.000325728 10.3111 2.38784 12.6992 5.3338 12.6992ZM163.708 8.07232C164.098 7.68174 164.098 7.04848 163.708 6.6579L157.343 0.292989C156.952 -0.0975931 156.319 -0.0975931 155.928 0.292989C155.538 0.683572 155.538 1.31683 155.928 1.70741L161.586 7.36511L155.928 13.0228C155.538 13.4134 155.538 14.0466 155.928 14.4372C156.319 14.8278 156.952 14.8278 157.343 14.4372L163.708 8.07232ZM5.3338 7.36511V8.36526L163 8.36526V7.36511V6.36496L5.3338 6.36496V7.36511Z" fill="#FFB661"/>
</svg>
