<svg width="44" height="44" viewBox="0 0 44 44" fill="none" xmlns="http://www.w3.org/2000/svg">
<path d="M15.7143 0H4.71429C2.11514 0 0 2.11514 0 4.71429V15.7143C0 18.3134 2.11514 20.4286 4.71429 20.4286H15.7143C18.3134 20.4286 20.4286 18.3134 20.4286 15.7143V4.71429C20.4286 2.11514 18.3134 0 15.7143 0ZM17.2857 15.7143C17.2857 16.5801 16.5801 17.2857 15.7143 17.2857H4.71429C3.84843 17.2857 3.14286 16.5801 3.14286 15.7143V4.71429C3.14286 3.84843 3.84843 3.14286 4.71429 3.14286H15.7143C16.5801 3.14286 17.2857 3.84843 17.2857 4.71429V15.7143ZM15.7143 23.5714H4.71429C2.11514 23.5714 0 25.6866 0 28.2857V39.2857C0 41.8849 2.11514 44 4.71429 44H15.7143C18.3134 44 20.4286 41.8849 20.4286 39.2857V28.2857C20.4286 25.6866 18.3134 23.5714 15.7143 23.5714ZM17.2857 39.2857C17.2857 40.1516 16.5801 40.8571 15.7143 40.8571H4.71429C3.84843 40.8571 3.14286 40.1516 3.14286 39.2857V28.2857C3.14286 27.4199 3.84843 26.7143 4.71429 26.7143H15.7143C16.5801 26.7143 17.2857 27.4199 17.2857 28.2857V39.2857ZM39.2857 23.5714H28.2857C25.6866 23.5714 23.5714 25.6866 23.5714 28.2857V39.2857C23.5714 41.8849 25.6866 44 28.2857 44H39.2857C41.8849 44 44 41.8849 44 39.2857V28.2857C44 25.6866 41.8849 23.5714 39.2857 23.5714ZM40.8571 39.2857C40.8571 40.1516 40.1516 40.8571 39.2857 40.8571H28.2857C27.4199 40.8571 26.7143 40.1516 26.7143 39.2857V28.2857C26.7143 27.4199 27.4199 26.7143 28.2857 26.7143H39.2857C40.1516 26.7143 40.8571 27.4199 40.8571 28.2857V39.2857ZM23.5714 9.42857C23.5714 9.0118 23.737 8.6121 24.0317 8.3174C24.3264 8.0227 24.7261 7.85714 25.1429 7.85714H32.2143V1.57143C32.2143 1.15466 32.3798 0.754961 32.6745 0.460261C32.9692 0.165561 33.3689 0 33.7857 0C34.2025 0 34.6022 0.165561 34.8969 0.460261C35.1916 0.754961 35.3571 1.15466 35.3571 1.57143V7.85714H42.4286C42.8453 7.85714 43.245 8.0227 43.5397 8.3174C43.8344 8.6121 44 9.0118 44 9.42857C44 9.84534 43.8344 10.245 43.5397 10.5397C43.245 10.8344 42.8453 11 42.4286 11H35.3571V18.8571C35.3571 19.2739 35.1916 19.6736 34.8969 19.9683C34.6022 20.263 34.2025 20.4286 33.7857 20.4286C33.3689 20.4286 32.9692 20.263 32.6745 19.9683C32.3798 19.6736 32.2143 19.2739 32.2143 18.8571V11H25.1429C24.7261 11 24.3264 10.8344 24.0317 10.5397C23.737 10.245 23.5714 9.84534 23.5714 9.42857Z" fill="white"/>
</svg>
