<svg width="25" height="30" viewBox="0 0 25 30" fill="none" xmlns="http://www.w3.org/2000/svg">
<path d="M5.24313 15.3522L3.06329 17.5362L2.53029 17.0022C1.95153 16.4221 1.01299 16.4221 0.43414 17.0022C-0.144713 17.5821 -0.144713 18.5224 0.43414 19.1024L2.01517 20.6865C2.59392 21.2664 3.53246 21.2665 4.11131 20.6865L7.33918 17.4523C7.91803 16.8723 7.91803 15.932 7.33918 15.3521C6.76042 14.7721 5.82189 14.7721 5.24313 15.3522ZM23.5178 16.5343H11.5613C10.7427 16.5343 10.0791 17.1992 10.0791 18.0194C10.0791 18.8395 10.7427 19.5044 11.5613 19.5044H23.5178C24.3364 19.5044 25 18.8395 25 18.0194C25 17.1992 24.3364 16.5343 23.5178 16.5343ZM5.24313 23.8668L3.06329 26.0508L2.53029 25.5168C1.95153 24.9368 1.01299 24.9368 0.43414 25.5168C-0.144713 26.0967 -0.144713 27.0371 0.43414 27.617L2.01517 29.2011C2.59392 29.781 3.53246 29.7811 4.11131 29.2011L7.33918 25.9669C7.91803 25.387 7.91803 24.4466 7.33918 23.8667C6.76042 23.2868 5.82189 23.2868 5.24313 23.8668ZM23.5178 25.0489H11.5613C10.7427 25.0489 10.0791 25.7138 10.0791 26.534C10.0791 27.3541 10.7427 28.0191 11.5613 28.0191H23.5178C24.3364 28.0191 25 27.3541 25 26.534C25 25.7138 24.3364 25.0489 23.5178 25.0489ZM15.3761 9.66373L19.9605 5.07045V5.24743C19.9605 6.06759 20.6242 6.73251 21.4427 6.73251C22.2613 6.73251 22.9249 6.06759 22.9249 5.24743C22.9249 1.04654 22.9319 1.43765 22.908 1.27174C22.8031 0.545158 22.1814 -0.000197575 21.4422 5.36959e-08H17.6878C16.8692 5.36959e-08 16.2056 0.664922 16.2056 1.48508C16.2056 2.30524 16.8692 2.97016 17.6878 2.97016H17.8644L14.3281 6.51334L9.84254 2.01907C9.26378 1.43903 8.32525 1.43903 7.74639 2.01907L2.41042 7.36551C1.83157 7.94545 1.83157 8.88577 2.41042 9.46571C2.98918 10.0458 3.92772 10.0458 4.50657 9.46571L8.79452 5.16947L13.2801 9.66373C13.8587 10.2437 14.7974 10.2438 15.3761 9.66373Z" fill="white"/>
</svg>
