<svg width="28" height="28" viewBox="0 0 28 28" fill="none" xmlns="http://www.w3.org/2000/svg">
<path d="M1.47368 22.1053C0.659818 22.1053 0 22.7651 0 23.5789V26.5263C0 27.3402 0.659818 28 1.47368 28C2.28755 28 2.94737 27.3402 2.94737 26.5263V23.5789C2.94737 22.7651 2.28755 22.1053 1.47368 22.1053ZM16.2105 28C17.0244 28 17.6842 27.3402 17.6842 26.5263V23.5789C17.6842 22.7651 17.0244 22.1053 16.2105 22.1053C15.3967 22.1053 14.7368 22.7651 14.7368 23.5789V26.5263C14.7368 27.3402 15.3967 28 16.2105 28ZM10.414 2.94737H26.5263C27.3402 2.94737 28 2.28755 28 1.47368C28 0.659818 27.3402 0 26.5263 0H10.414C9.60017 0 8.94035 0.659818 8.94035 1.47368C8.94035 2.28755 9.60017 2.94737 10.414 2.94737Z" fill="white"/>
</svg>
