<svg width="41" height="44" viewBox="0 0 41 44" fill="none" xmlns="http://www.w3.org/2000/svg">
<path d="M20.4286 0C20.0118 0 19.6121 0.165561 19.3174 0.460261C19.0227 0.754961 18.8571 1.15466 18.8571 1.57143V42.4286C18.8571 42.8453 19.0227 43.245 19.3174 43.5397C19.6121 43.8344 20.0118 44 20.4286 44C20.8453 44 21.245 43.8344 21.5397 43.5397C21.8344 43.245 22 42.8453 22 42.4286V1.57143C22 1.15466 21.8344 0.754961 21.5397 0.460261C21.245 0.165561 20.8453 0 20.4286 0ZM26.7143 11C26.2975 11 25.8978 11.1656 25.6031 11.4603C25.3084 11.755 25.1429 12.1547 25.1429 12.5714V33C25.1429 33.4168 25.3084 33.8165 25.6031 34.1112C25.8978 34.4059 26.2975 34.5714 26.7143 34.5714C27.1311 34.5714 27.5308 34.4059 27.8255 34.1112C28.1202 33.8165 28.2857 33.4168 28.2857 33V12.5714C28.2857 12.1547 28.1202 11.755 27.8255 11.4603C27.5308 11.1656 27.1311 11 26.7143 11ZM33 6.28571C32.5832 6.28571 32.1835 6.45128 31.8888 6.74598C31.5941 7.04068 31.4286 7.44037 31.4286 7.85714V37.7143C31.4286 38.1311 31.5941 38.5308 31.8888 38.8255C32.1835 39.1202 32.5832 39.2857 33 39.2857C33.4168 39.2857 33.8165 39.1202 34.1112 38.8255C34.4059 38.5308 34.5714 38.1311 34.5714 37.7143V7.85714C34.5714 7.44037 34.4059 7.04068 34.1112 6.74598C33.8165 6.45128 33.4168 6.28571 33 6.28571ZM39.2857 15.7143C38.8689 15.7143 38.4692 15.8798 38.1745 16.1745C37.8798 16.4692 37.7143 16.8689 37.7143 17.2857V28.2857C37.7143 28.7025 37.8798 29.1022 38.1745 29.3969C38.4692 29.6916 38.8689 29.8571 39.2857 29.8571C39.7025 29.8571 40.1022 29.6916 40.3969 29.3969C40.6916 29.1022 40.8571 28.7025 40.8571 28.2857V17.2857C40.8571 16.8689 40.6916 16.4692 40.3969 16.1745C40.1022 15.8798 39.7025 15.7143 39.2857 15.7143ZM14.1429 11C13.7261 11 13.3264 11.1656 13.0317 11.4603C12.737 11.755 12.5714 12.1547 12.5714 12.5714V33C12.5714 33.4168 12.737 33.8165 13.0317 34.1112C13.3264 34.4059 13.7261 34.5714 14.1429 34.5714C14.5596 34.5714 14.9593 34.4059 15.254 34.1112C15.5487 33.8165 15.7143 33.4168 15.7143 33V12.5714C15.7143 12.1547 15.5487 11.755 15.254 11.4603C14.9593 11.1656 14.5596 11 14.1429 11ZM7.85714 6.28571C7.44037 6.28571 7.04068 6.45128 6.74598 6.74598C6.45128 7.04068 6.28571 7.44037 6.28571 7.85714V37.7143C6.28571 38.1311 6.45128 38.5308 6.74598 38.8255C7.04068 39.1202 7.44037 39.2857 7.85714 39.2857C8.27391 39.2857 8.67361 39.1202 8.96831 38.8255C9.26301 38.5308 9.42857 38.1311 9.42857 37.7143V7.85714C9.42857 7.44037 9.26301 7.04068 8.96831 6.74598C8.67361 6.45128 8.27391 6.28571 7.85714 6.28571ZM1.57143 15.7143C1.15466 15.7143 0.754961 15.8798 0.460261 16.1745C0.165561 16.4692 0 16.8689 0 17.2857V28.2857C0 28.7025 0.165561 29.1022 0.460261 29.3969C0.754961 29.6916 1.15466 29.8571 1.57143 29.8571C1.9882 29.8571 2.3879 29.6916 2.6826 29.3969C2.9773 29.1022 3.14286 28.7025 3.14286 28.2857V17.2857C3.14286 16.8689 2.9773 16.4692 2.6826 16.1745C2.3879 15.8798 1.9882 15.7143 1.57143 15.7143Z" fill="white"/>
</svg>
